<svg width="1920" height="1080" viewBox="0 0 1920 1080" fill="none" xmlns="http://www.w3.org/2000/svg">
<g id="what is known?">
<rect width="1920" height="1080" fill="white"/>
<path id="What is known?" d="M58.2139 54.1C61.6639 46.15 65.8639 36.5 67.4139 30.6C68.0139 30.75 69.4139 30.75 69.9639 30.75C70.5139 30.75 72.1139 30.75 72.7139 30.6C67.6639 41.65 62.7639 52.25 57.9639 63.35H54.5139C52.5139 58.65 50.2639 52.9 48.1139 47.45L40.9639 63.35H36.4639C31.8639 52.4 24.7639 35.65 22.2639 30.6C23.1139 30.75 26.4639 30.75 27.3139 30.75C28.1639 30.75 30.0139 30.75 30.8639 30.6C31.3139 32.35 34.3139 40.9 40.7139 55.75C42.4639 51.75 44.4639 47.1 46.2639 42.7C44.2139 37.4 42.4139 32.85 41.3139 30.6C42.1639 30.75 44.5139 30.75 45.3639 30.75C46.2139 30.75 49.3139 30.75 50.1639 30.6C50.6139 32.3 52.4139 40.3 58.2139 54.1ZM77.9123 39.3C77.9123 35.5 77.6623 32.05 77.3123 29.9L77.4123 29.75C79.4123 29.6 83.2623 28.6 84.5623 28.1C84.8623 28.1 85.0123 28.25 85.0123 28.6C84.6123 31.7 84.5123 34.25 84.5123 38V41.1L84.3123 45.45L84.5123 45.55C86.8123 42.6 90.5123 41.05 93.0623 41.05C97.5623 41.05 99.5123 43.95 99.5123 48.45V54C99.5123 57.8 99.5623 60.15 100.012 63L99.9123 63.15C99.9123 63.15 98.5623 63 96.8623 63C95.1123 63 92.6623 63.15 92.6623 63.15L92.6123 63C92.9123 60.35 92.9123 57.75 92.9123 54V49.55C92.9123 45.9 91.6623 44.9 90.3123 44.9C88.5123 44.9 86.4123 46.4 84.5123 48.9V54C84.5123 57.8 84.5623 60.15 84.8123 63L84.7123 63.15C84.7123 63.15 83.0623 63 81.3623 63C79.6123 63 77.3623 63.15 77.3623 63.15L77.3123 63C77.7123 60.35 77.9123 57.75 77.9123 54V39.3ZM119.485 51.9L115.485 52.95C112.935 53.65 112.335 55.85 112.335 57.65C112.335 59 113.435 60.5 114.935 60.5C116.335 60.5 117.485 59.95 118.635 58.8C118.985 58.45 119.385 57.2 119.385 56.55L119.485 51.9ZM125.785 59C125.785 60.65 126.835 60.8 128.835 60.8C129.135 61.05 129.235 61.45 129.335 61.85C127.835 63 125.335 63.5 123.385 63.5C121.235 63.5 120.135 62.65 119.435 60.6H119.335C117.085 62.85 114.435 63.5 112.485 63.5C108.985 63.5 105.635 61.55 105.635 58.1C105.635 54.7 108.535 52.15 113.335 51L119.185 49.45C119.335 49.4 119.485 49.2 119.485 48.85C119.485 45 118.235 43.75 116.035 43.75C113.785 43.75 111.585 45.2 109.885 47.7L108.235 47.65L107.235 43.9L107.385 43.7C108.585 42.65 113.385 41.05 116.985 41.05C119.385 41.05 122.385 41.65 123.985 43.05C125.335 44.3 125.985 46.15 125.985 49.15C125.985 49.7 125.785 57.55 125.785 59ZM134.216 41.55C134.216 39.6 134.216 37.85 134.416 36.5L134.516 36.35C136.516 35.9 139.216 34.6 140.466 34.1C140.766 34.1 140.916 34.25 140.916 34.6C140.666 37.25 140.666 38.75 140.666 41.55H143.016C144.166 41.55 145.566 41.5 146.516 41.4L146.766 41.8C146.466 42.55 146.216 43.4 146.166 44.15C145.466 44.1 143.766 44.05 142.566 44.05H140.666L140.566 49.4C140.466 52.4 140.516 54.95 140.516 56.45C140.516 58.5 141.016 60.45 142.366 60.45C143.666 60.45 144.166 60.4 145.266 59.85C145.816 60.2 146.116 60.95 146.116 61.75C143.966 63.05 141.366 63.5 138.766 63.5C135.566 63.5 133.916 60.95 133.916 58.6C133.916 57.1 133.966 52.95 134.066 49.95L134.216 44.05C133.066 44.1 131.516 44.1 130.666 44.15L130.416 43.8C130.866 43.05 131.216 42.25 131.516 41.4C132.116 41.5 133.166 41.55 134.216 41.55ZM164.142 32.65C164.142 30.75 165.692 29.2 167.692 29.2C169.692 29.2 171.242 30.75 171.242 32.65C171.242 34.55 169.692 36.1 167.692 36.1C165.692 36.1 164.142 34.55 164.142 32.65ZM164.392 51.25C164.392 47.5 164.292 43.75 163.892 41.6L164.042 41.4C164.892 41.5 166.292 41.55 167.592 41.55C168.992 41.55 170.342 41.4 171.042 41.3C171.342 41.3 171.492 41.45 171.492 41.8C171.142 44.8 170.992 46.95 170.992 50.7V54C170.992 57.8 171.092 60.15 171.492 63L171.392 63.15C170.442 63.05 169.392 63 167.692 63C165.942 63 164.992 63.05 163.992 63.15L163.892 63C164.292 60.3 164.392 57.75 164.392 54V51.25ZM178.168 57.35L179.668 57.3C181.168 60.2 183.218 61.3 185.018 61.3C186.918 61.3 188.468 61.2 188.468 58.85C188.468 56.85 187.368 55.95 183.718 53.95C180.868 52.4 178.418 50.6 178.418 47.1C178.418 43.25 182.368 41.05 186.868 41.05C189.268 41.05 192.168 41.6 193.518 42.35L193.618 42.5L192.668 47L191.318 47.05C190.668 45.65 189.218 43.3 186.768 43.3C184.818 43.3 184.318 44.35 184.318 45.75C184.318 47.35 185.668 48.25 187.318 49.1C190.868 51 194.418 52.4 194.418 56.9C194.418 60.35 191.668 63.5 185.168 63.5C183.368 63.5 180.068 63.15 177.368 62.15L178.168 57.35ZM213.215 53V39.3C213.215 35.5 212.965 32.05 212.615 29.9L212.715 29.75C214.715 29.6 218.565 28.6 219.865 28.1C220.165 28.1 220.415 28.25 220.415 28.6C220.015 31.7 219.815 34.25 219.815 38V50.55C220.465 50.45 221.515 50.2 222.065 49.8C224.015 48.3 226.715 44.8 228.665 41.55C230.015 41.55 235.565 41.55 236.515 41.4L236.615 41.55C232.515 44.65 228.315 48.35 226.515 50.4C231.265 56.2 233.915 59.1 237.665 63L237.565 63.15C237.115 63.1 233.165 63 232.365 63C231.515 63 229.115 63.1 228.365 63.15C225.665 58.4 224.165 56.2 221.115 52.7C220.765 52.45 220.215 52.35 219.815 52.3V53C219.815 56.8 219.965 60.15 220.415 63L220.315 63.15C220.315 63.15 218.215 63 216.515 63C214.765 63 212.665 63.15 212.665 63.15L212.615 63C213.015 60.35 213.215 56.75 213.215 53ZM263.617 54C263.617 57.8 263.717 60.15 264.167 63L264.067 63.15C264.067 63.15 261.867 63 260.167 63C258.417 63 256.817 63.15 256.817 63.15L256.717 63C257.017 60.35 257.017 57.75 257.017 54V49.55C257.017 45.9 255.767 44.9 254.417 44.9C252.617 44.9 250.517 46.4 248.617 48.9V54C248.617 57.8 248.667 60.15 248.917 63L248.767 63.15C248.767 63.15 247.367 63 245.667 63C243.917 63 241.567 63.15 241.567 63.15L241.467 63C241.867 60.35 242.017 57.75 242.017 54V51.25C242.017 47.55 241.817 43.7 241.467 41.55L241.567 41.4C243.317 41.5 246.567 41.5 248.017 41.25C248.317 41.25 248.367 41.45 248.467 41.75C248.517 42.2 248.567 44.3 248.567 45.4L248.817 45.55C251.117 42.6 254.117 41.05 256.667 41.05C261.167 41.05 263.617 43.2 263.617 48.45V54ZM270.047 52.75C270.047 45 275.097 41.05 282.247 41.05C290.697 41.05 294.247 46 294.247 52.3C294.247 59.25 289.797 63.5 282.147 63.5C274.697 63.5 270.047 59.4 270.047 52.75ZM281.897 43.55C277.597 43.55 277.147 47.25 277.147 51.6C277.147 55.45 277.647 61 282.847 61C285.097 61 287.147 59.4 287.147 53.65C287.147 46.7 286.147 43.55 281.897 43.55ZM306.026 63.2C303.276 55.9 300.176 48.85 296.876 41.45C297.576 41.6 300.576 41.6 301.276 41.6C301.926 41.6 303.876 41.6 304.476 41.45C306.076 47.05 307.876 52.5 310.026 58.05H310.326C311.776 54.95 313.426 51 314.926 47.05C314.126 45.2 313.326 43.3 312.526 41.4C313.226 41.5 315.976 41.55 316.676 41.55C317.326 41.55 319.526 41.5 320.126 41.4C321.376 46.95 322.826 52.2 324.526 57.5H324.726C326.926 52.85 329.326 46.7 330.976 41.4C331.376 41.55 332.726 41.55 333.176 41.55C333.626 41.55 335.226 41.55 335.626 41.4C332.326 48.55 329.026 56.05 325.976 63.15C325.576 63 324.226 63 323.776 63C323.326 63 321.626 63 321.176 63.15C319.676 59.05 318.126 55 316.476 50.9C314.576 55.05 312.726 59.15 310.976 63.2C310.576 63.05 309.126 63.05 308.676 63.05C308.226 63.05 306.476 63.05 306.026 63.2ZM362.103 54C362.103 57.8 362.203 60.15 362.653 63L362.553 63.15C362.553 63.15 360.353 63 358.653 63C356.903 63 355.303 63.15 355.303 63.15L355.203 63C355.503 60.35 355.503 57.75 355.503 54V49.55C355.503 45.9 354.253 44.9 352.903 44.9C351.103 44.9 349.003 46.4 347.103 48.9V54C347.103 57.8 347.153 60.15 347.403 63L347.253 63.15C347.253 63.15 345.853 63 344.153 63C342.403 63 340.053 63.15 340.053 63.15L339.953 63C340.353 60.35 340.503 57.75 340.503 54V51.25C340.503 47.55 340.303 43.7 339.953 41.55L340.053 41.4C341.803 41.5 345.053 41.5 346.503 41.25C346.803 41.25 346.853 41.45 346.953 41.75C347.003 42.2 347.053 44.3 347.053 45.4L347.303 45.55C349.603 42.6 352.603 41.05 355.153 41.05C359.653 41.05 362.103 43.2 362.103 48.45V54ZM377.233 32.5C374.433 32.5 372.383 34.95 371.083 37.2L369.433 37.15L368.633 33.35L368.783 33.15C369.983 32.15 374.033 30.05 377.683 30.05C379.883 30.05 382.383 30.25 384.183 31.25C386.533 32.6 387.633 35.05 387.633 37.6C387.633 41.55 383.983 44 381.633 45.7C380.183 46.8 378.633 47.9 378.633 51.6V53.55C378.633 53.9 377.383 54.3 376.983 54.3C376.583 54.3 375.333 53.9 375.333 53.55V51.5C375.333 49.35 375.933 46.4 379.183 43.45C381.183 41.6 381.233 39.65 381.233 37.8C381.233 36 379.583 32.5 377.233 32.5ZM373.133 60.6V60.35C373.783 58.7 374.683 57.7 376.583 56.95H376.783C378.633 57.6 379.583 58.55 380.233 60.35V60.6C379.533 62.65 378.583 63.55 376.783 64H376.583C374.533 63.55 373.683 62.7 373.133 60.6Z" fill="black"/>
</g>
</svg>
