<svg width="1920" height="1080" viewBox="0 0 1920 1080" fill="none" xmlns="http://www.w3.org/2000/svg">
<g id="BSTs 2">
<rect width="1920" height="1080" fill="white"/>
<g id="BST_titles">
<path id="Searching" d="M88.9688 56.7422C87.276 56.7422 85.694 56.5339 84.2227 56.1172C82.7643 55.7005 81.5273 55.2057 80.5117 54.6328L79.1641 56H77.5039L77.25 45.9805H78.9297C79.3073 46.931 79.7891 47.9336 80.375 48.9883C80.9609 50.043 81.638 50.987 82.4062 51.8203C83.2005 52.6927 84.0859 53.4023 85.0625 53.9492C86.0521 54.4961 87.2044 54.7695 88.5195 54.7695C90.2904 54.7695 91.6445 54.3398 92.582 53.4805C93.5326 52.6081 94.0078 51.5143 94.0078 50.1992C94.0078 49.1185 93.6042 48.2135 92.7969 47.4844C92.0026 46.7422 90.7656 46.1042 89.0859 45.5703C87.9922 45.2188 86.9831 44.8932 86.0586 44.5938C85.1471 44.2943 84.2878 43.9883 83.4805 43.6758C81.6185 42.9336 80.2318 41.8724 79.3203 40.4922C78.4219 39.112 77.9727 37.569 77.9727 35.8633C77.9727 34.7826 78.207 33.7474 78.6758 32.7578C79.1445 31.7552 79.8281 30.8568 80.7266 30.0625C81.5859 29.3203 82.6862 28.7148 84.0273 28.2461C85.3685 27.7773 86.8268 27.543 88.4023 27.543C89.9388 27.543 91.3776 27.7578 92.7188 28.1875C94.0599 28.6042 95.1146 29.0273 95.8828 29.457L97.0742 28.2852H98.7734L98.9297 37.7383H97.25C96.8594 36.7227 96.3971 35.6875 95.8633 34.6328C95.3424 33.5651 94.7891 32.6797 94.2031 31.9766C93.5651 31.2214 92.8294 30.6224 91.9961 30.1797C91.1628 29.724 90.1862 29.4961 89.0664 29.4961C87.6602 29.4961 86.5078 29.8932 85.6094 30.6875C84.724 31.4818 84.2812 32.4648 84.2812 33.6367C84.2812 34.7435 84.6654 35.6484 85.4336 36.3516C86.2148 37.0547 87.4258 37.6732 89.0664 38.207C90.0299 38.5326 91.013 38.8581 92.0156 39.1836C93.0182 39.5091 93.9102 39.8216 94.6914 40.1211C96.5794 40.8503 98.0117 41.8594 98.9883 43.1484C99.9779 44.4245 100.473 46.013 100.473 47.9141C100.473 49.112 100.193 50.2708 99.6328 51.3906C99.0729 52.5104 98.3177 53.4414 97.3672 54.1836C96.3255 55.0039 95.1211 55.6354 93.7539 56.0781C92.3867 56.5208 90.7917 56.7422 88.9688 56.7422ZM124.105 51.332C123.65 52.0742 123.096 52.7773 122.445 53.4414C121.807 54.0924 121.078 54.6523 120.258 55.1211C119.385 55.6159 118.5 55.987 117.602 56.2344C116.716 56.4948 115.694 56.625 114.535 56.625C112.608 56.625 110.941 56.3516 109.535 55.8047C108.142 55.2578 106.99 54.5221 106.078 53.5977C105.167 52.6732 104.483 51.5859 104.027 50.3359C103.585 49.0729 103.363 47.7057 103.363 46.2344C103.363 44.9062 103.604 43.6367 104.086 42.4258C104.581 41.2018 105.277 40.1146 106.176 39.1641C107.061 38.2396 108.174 37.4909 109.516 36.918C110.87 36.3451 112.38 36.0586 114.047 36.0586C115.87 36.0586 117.367 36.2799 118.539 36.7227C119.711 37.1654 120.681 37.7773 121.449 38.5586C122.191 39.3008 122.732 40.1797 123.07 41.1953C123.409 42.1979 123.578 43.2526 123.578 44.3594V45.6289H110.375C110.375 48.2982 110.889 50.3294 111.918 51.7227C112.947 53.1159 114.581 53.8125 116.82 53.8125C118.044 53.8125 119.145 53.4805 120.121 52.8164C121.098 52.1393 121.931 51.2865 122.621 50.2578L124.105 51.332ZM116.645 43.9102C116.645 43.1289 116.605 42.3281 116.527 41.5078C116.449 40.6875 116.312 40.0169 116.117 39.4961C115.896 38.8841 115.59 38.4219 115.199 38.1094C114.822 37.7969 114.34 37.6406 113.754 37.6406C112.751 37.6406 111.951 38.1484 111.352 39.1641C110.753 40.1797 110.427 41.7878 110.375 43.9883L116.645 43.9102ZM148.324 55.5898C147.751 55.8372 147.074 56.0651 146.293 56.2734C145.512 56.4818 144.685 56.5859 143.812 56.5859C142.211 56.5859 141.033 56.3516 140.277 55.8828C139.522 55.401 139.008 54.7174 138.734 53.832H138.617C138.174 54.2747 137.745 54.6523 137.328 54.9648C136.924 55.2773 136.488 55.5443 136.02 55.7656C135.408 56.0521 134.815 56.2604 134.242 56.3906C133.682 56.5339 132.895 56.6055 131.879 56.6055C130.368 56.6055 129.079 56.1628 128.012 55.2773C126.944 54.3789 126.41 53.194 126.41 51.7227C126.41 50.8763 126.527 50.1602 126.762 49.5742C126.996 48.9753 127.328 48.4479 127.758 47.9922C128.148 47.5755 128.598 47.2305 129.105 46.957C129.626 46.6836 130.193 46.4297 130.805 46.1953C131.977 45.7656 133.383 45.3229 135.023 44.8672C136.664 44.3984 137.862 43.9818 138.617 43.6172V41.7422C138.617 41.4167 138.591 40.987 138.539 40.4531C138.487 39.9193 138.376 39.4701 138.207 39.1055C138.025 38.6888 137.738 38.3372 137.348 38.0508C136.957 37.7643 136.443 37.6211 135.805 37.6211C135.232 37.6211 134.75 37.7057 134.359 37.875C133.982 38.0312 133.676 38.194 133.441 38.3633C133.48 38.6237 133.591 39.0208 133.773 39.5547C133.956 40.0885 134.047 40.6029 134.047 41.0977C134.047 41.319 133.988 41.599 133.871 41.9375C133.754 42.263 133.585 42.5234 133.363 42.7188C133.064 42.9792 132.725 43.181 132.348 43.3242C131.983 43.4674 131.417 43.5391 130.648 43.5391C129.555 43.5391 128.728 43.2786 128.168 42.7578C127.608 42.224 127.328 41.5339 127.328 40.6875C127.328 39.9583 127.615 39.3073 128.188 38.7344C128.773 38.1484 129.483 37.6667 130.316 37.2891C131.137 36.8984 132.081 36.599 133.148 36.3906C134.216 36.1693 135.206 36.0586 136.117 36.0586C137.38 36.0586 138.539 36.1367 139.594 36.293C140.648 36.4362 141.599 36.7422 142.445 37.2109C143.253 37.6667 143.891 38.3307 144.359 39.2031C144.841 40.0625 145.082 41.1888 145.082 42.582C145.082 44.0534 145.049 45.7982 144.984 47.8164C144.932 49.8346 144.906 51.1628 144.906 51.8008C144.906 52.3867 144.991 52.849 145.16 53.1875C145.342 53.526 145.616 53.7799 145.98 53.9492C146.202 54.0534 146.547 54.1185 147.016 54.1445C147.497 54.1576 147.934 54.1641 148.324 54.1641V55.5898ZM138.617 45.4141C137.888 45.6615 137.165 45.9479 136.449 46.2734C135.733 46.5859 135.147 46.918 134.691 47.2695C134.21 47.6341 133.832 48.1029 133.559 48.6758C133.285 49.2357 133.148 49.8997 133.148 50.668C133.148 51.6836 133.376 52.4193 133.832 52.875C134.301 53.3307 134.874 53.5586 135.551 53.5586C136.267 53.5586 136.853 53.4154 137.309 53.1289C137.777 52.8294 138.188 52.4648 138.539 52.0352L138.617 45.4141ZM169.281 40.1992C169.281 41.1888 168.975 42.0612 168.363 42.8164C167.751 43.5586 166.944 43.9297 165.941 43.9297C164.991 43.9297 164.184 43.6888 163.52 43.207C162.868 42.7253 162.543 42.0156 162.543 41.0781C162.543 40.6224 162.576 40.2708 162.641 40.0234C162.706 39.763 162.764 39.5221 162.816 39.3008C162.217 39.3268 161.586 39.5352 160.922 39.9258C160.258 40.3164 159.672 40.8372 159.164 41.4883V52.2109C159.164 52.6667 159.236 53.0443 159.379 53.3438C159.522 53.6432 159.763 53.8776 160.102 54.0469C160.388 54.1901 160.85 54.3138 161.488 54.418C162.139 54.5091 162.608 54.5612 162.895 54.5742V56H149.828V54.5742C150.154 54.5482 150.479 54.5156 150.805 54.4766C151.143 54.4245 151.43 54.3594 151.664 54.2812C152.081 54.138 152.367 53.9167 152.523 53.6172C152.68 53.3177 152.758 52.9271 152.758 52.4453V41.0781C152.758 40.6094 152.647 40.1927 152.426 39.8281C152.204 39.4505 151.938 39.151 151.625 38.9297C151.391 38.7734 151.091 38.6432 150.727 38.5391C150.375 38.4349 149.984 38.3633 149.555 38.3242V36.8984L158.871 36.3906L159.164 36.6836V39.5156H159.242C160.141 38.474 161.091 37.6602 162.094 37.0742C163.109 36.4753 164.164 36.1758 165.258 36.1758C166.469 36.1758 167.439 36.5534 168.168 37.3086C168.91 38.0508 169.281 39.0143 169.281 40.1992ZM181.801 56.625C179.991 56.625 178.389 56.3646 176.996 55.8438C175.616 55.3099 174.477 54.5872 173.578 53.6758C172.68 52.7513 172.009 51.6576 171.566 50.3945C171.124 49.1315 170.902 47.7578 170.902 46.2734C170.902 44.9193 171.169 43.6302 171.703 42.4062C172.25 41.1823 172.986 40.1081 173.91 39.1836C174.861 38.2331 176.039 37.4779 177.445 36.918C178.865 36.3451 180.427 36.0586 182.133 36.0586C184.529 36.0586 186.423 36.5143 187.816 37.4258C189.21 38.3242 189.906 39.5417 189.906 41.0781C189.906 42.0156 189.659 42.7708 189.164 43.3438C188.669 43.9167 187.816 44.2031 186.605 44.2031C185.629 44.2031 184.809 43.9688 184.145 43.5C183.493 43.0312 183.168 42.4193 183.168 41.6641C183.168 41.026 183.272 40.3945 183.48 39.7695C183.689 39.1445 183.812 38.6693 183.852 38.3438C183.708 38.1094 183.526 37.9336 183.305 37.8164C183.083 37.6862 182.738 37.6211 182.27 37.6211C181.684 37.6211 181.15 37.7578 180.668 38.0312C180.186 38.3047 179.737 38.7865 179.32 39.4766C178.917 40.1276 178.591 41 178.344 42.0938C178.109 43.1875 177.992 44.5026 177.992 46.0391C177.992 48.3568 178.533 50.2253 179.613 51.6445C180.707 53.0638 182.009 53.7734 183.52 53.7734C184.965 53.7734 186.111 53.4544 186.957 52.8164C187.816 52.1654 188.578 51.2474 189.242 50.0625L190.707 51.0781C190.303 51.8724 189.822 52.6016 189.262 53.2656C188.702 53.9167 188.031 54.4961 187.25 55.0039C186.43 55.5378 185.596 55.9414 184.75 56.2148C183.904 56.4883 182.921 56.625 181.801 56.625ZM217.289 56H205.531V54.5742C205.792 54.5482 206.098 54.5156 206.449 54.4766C206.801 54.4375 207.061 54.3724 207.23 54.2812C207.504 54.138 207.693 53.9297 207.797 53.6562C207.914 53.3828 207.973 52.9792 207.973 52.4453V43.3047C207.973 41.9635 207.719 40.9609 207.211 40.2969C206.716 39.6328 206.007 39.3008 205.082 39.3008C204.561 39.3008 204.073 39.3789 203.617 39.5352C203.174 39.6914 202.738 39.9193 202.309 40.2188C201.931 40.4792 201.625 40.7461 201.391 41.0195C201.169 41.293 200.98 41.5339 200.824 41.7422V52.2305C200.824 52.7122 200.883 53.0964 201 53.3828C201.117 53.6562 201.339 53.8841 201.664 54.0664C201.859 54.1836 202.113 54.2878 202.426 54.3789C202.751 54.4701 203.064 54.5352 203.363 54.5742V56H191.488V54.5742C191.827 54.5482 192.152 54.5156 192.465 54.4766C192.79 54.4375 193.077 54.3724 193.324 54.2812C193.741 54.125 194.021 53.9036 194.164 53.6172C194.32 53.3177 194.398 52.9271 194.398 52.4453V30.668C194.398 30.2513 194.301 29.8086 194.105 29.3398C193.91 28.8711 193.637 28.5195 193.285 28.2852C193.025 28.1159 192.647 27.9857 192.152 27.8945C191.658 27.7904 191.215 27.7253 190.824 27.6992V26.2734L200.531 25.7656L200.824 26.0781V39.5156H200.902C201.397 39.0729 201.84 38.6758 202.23 38.3242C202.634 37.9596 203.122 37.5951 203.695 37.2305C204.177 36.918 204.802 36.651 205.57 36.4297C206.352 36.2083 207.191 36.0977 208.09 36.0977C210.199 36.0977 211.781 36.7031 212.836 37.9141C213.904 39.125 214.438 40.7201 214.438 42.6992V52.2695C214.438 52.7513 214.509 53.1354 214.652 53.4219C214.796 53.7083 215.062 53.9362 215.453 54.1055C215.688 54.2096 215.948 54.3008 216.234 54.3789C216.521 54.457 216.872 54.5221 217.289 54.5742V56ZM231.43 56H219.086V54.5742C219.424 54.5482 219.757 54.5156 220.082 54.4766C220.408 54.4375 220.688 54.3724 220.922 54.2812C221.339 54.125 221.632 53.9036 221.801 53.6172C221.97 53.3177 222.055 52.9271 222.055 52.4453V41.0781C222.055 40.6224 221.951 40.2253 221.742 39.8867C221.534 39.5352 221.273 39.2552 220.961 39.0469C220.727 38.8906 220.368 38.7409 219.887 38.5977C219.418 38.4544 218.988 38.3633 218.598 38.3242V36.8984L228.168 36.3906L228.461 36.6836V52.1914C228.461 52.6471 228.559 53.0378 228.754 53.3633C228.949 53.6758 229.229 53.9102 229.594 54.0664C229.854 54.1836 230.141 54.2878 230.453 54.3789C230.766 54.4701 231.091 54.5352 231.43 54.5742V56ZM228.578 29.3594C228.578 30.349 228.194 31.1953 227.426 31.8984C226.671 32.5885 225.772 32.9336 224.73 32.9336C223.676 32.9336 222.764 32.5885 221.996 31.8984C221.241 31.1953 220.863 30.349 220.863 29.3594C220.863 28.3698 221.241 27.5234 221.996 26.8203C222.764 26.1172 223.676 25.7656 224.73 25.7656C225.785 25.7656 226.69 26.1172 227.445 26.8203C228.201 27.5234 228.578 28.3698 228.578 29.3594ZM259.008 56H247.25V54.5742C247.497 54.5482 247.797 54.5156 248.148 54.4766C248.5 54.4375 248.767 54.3724 248.949 54.2812C249.223 54.138 249.418 53.9297 249.535 53.6562C249.652 53.3828 249.711 52.9792 249.711 52.4453V43.3047C249.711 41.9766 249.464 40.9805 248.969 40.3164C248.487 39.6393 247.771 39.3008 246.82 39.3008C246.299 39.3008 245.811 39.3789 245.355 39.5352C244.913 39.6914 244.477 39.9193 244.047 40.2188C243.669 40.4792 243.363 40.7461 243.129 41.0195C242.908 41.293 242.719 41.5339 242.562 41.7422V52.2305C242.562 52.6862 242.628 53.0703 242.758 53.3828C242.888 53.6823 243.103 53.9102 243.402 54.0664C243.611 54.1836 243.871 54.2878 244.184 54.3789C244.496 54.4701 244.802 54.5352 245.102 54.5742V56H233.227V54.5742C233.552 54.5482 233.878 54.5156 234.203 54.4766C234.542 54.4245 234.828 54.3594 235.062 54.2812C235.479 54.138 235.766 53.9167 235.922 53.6172C236.078 53.3177 236.156 52.9271 236.156 52.4453V41.0781C236.156 40.6745 236.052 40.2773 235.844 39.8867C235.635 39.4961 235.362 39.1771 235.023 38.9297C234.789 38.7734 234.49 38.6432 234.125 38.5391C233.773 38.4349 233.383 38.3633 232.953 38.3242V36.8984L242.27 36.3906L242.562 36.6836V39.5156H242.641C243.005 39.1901 243.448 38.7995 243.969 38.3438C244.49 37.888 244.971 37.5169 245.414 37.2305C245.896 36.918 246.527 36.651 247.309 36.4297C248.09 36.2083 248.923 36.0977 249.809 36.0977C251.931 36.0977 253.52 36.7031 254.574 37.9141C255.642 39.112 256.176 40.707 256.176 42.6992V52.2695C256.176 52.7513 256.247 53.1354 256.391 53.4219C256.534 53.7083 256.801 53.9362 257.191 54.1055C257.4 54.1966 257.654 54.2878 257.953 54.3789C258.266 54.4701 258.617 54.5352 259.008 54.5742V56ZM282.719 38.8125H278.422C278.93 39.3854 279.307 39.9909 279.555 40.6289C279.815 41.2669 279.945 41.931 279.945 42.6211C279.945 43.5195 279.704 44.3659 279.223 45.1602C278.741 45.9414 278.109 46.5794 277.328 47.0742C276.534 47.582 275.603 47.9792 274.535 48.2656C273.467 48.5521 272.309 48.6953 271.059 48.6953H267.875C267.719 48.8125 267.543 49.0013 267.348 49.2617C267.165 49.5091 267.074 49.75 267.074 49.9844C267.074 50.5573 267.302 50.9544 267.758 51.1758C268.214 51.3971 269.04 51.5208 270.238 51.5469C271.423 51.5729 272.621 51.625 273.832 51.7031C275.043 51.7682 275.909 51.8073 276.43 51.8203C277.185 51.8594 277.934 52.0156 278.676 52.2891C279.418 52.5495 280.062 52.8945 280.609 53.3242C281.208 53.7799 281.703 54.3659 282.094 55.082C282.484 55.7852 282.68 56.599 282.68 57.5234C282.68 58.513 282.439 59.444 281.957 60.3164C281.488 61.1888 280.766 61.944 279.789 62.582C278.76 63.2461 277.523 63.7604 276.078 64.125C274.646 64.4896 272.868 64.6719 270.746 64.6719C267.322 64.6719 264.717 64.2552 262.934 63.4219C261.15 62.5885 260.258 61.3385 260.258 59.6719C260.258 58.6432 260.74 57.7969 261.703 57.1328C262.667 56.4688 264.164 56.1042 266.195 56.0391V55.8047C264.997 55.401 264.06 54.8672 263.383 54.2031C262.719 53.526 262.387 52.7448 262.387 51.8594C262.387 51.3125 262.517 50.8503 262.777 50.4727C263.051 50.0951 263.396 49.763 263.812 49.4766C264.177 49.2292 264.62 49.0208 265.141 48.8516C265.661 48.6693 266.098 48.526 266.449 48.4219V48.207C264.691 47.556 263.396 46.7617 262.562 45.8242C261.742 44.8867 261.332 43.7409 261.332 42.3867C261.332 40.4727 262.211 38.9427 263.969 37.7969C265.74 36.651 267.979 36.0781 270.688 36.0781C271.573 36.0781 272.426 36.1562 273.246 36.3125C274.079 36.4557 274.711 36.5859 275.141 36.7031H282.719V38.8125ZM273.559 42.543C273.559 41.0195 273.318 39.8151 272.836 38.9297C272.354 38.0443 271.612 37.6016 270.609 37.6016C270.102 37.6016 269.659 37.7253 269.281 37.9727C268.904 38.207 268.598 38.5521 268.363 39.0078C268.142 39.4505 267.992 39.9714 267.914 40.5703C267.836 41.1562 267.797 41.7617 267.797 42.3867C267.797 43.806 268.044 44.9714 268.539 45.8828C269.034 46.7943 269.737 47.25 270.648 47.25C271.586 47.25 272.302 46.8398 272.797 46.0195C273.305 45.1992 273.559 44.0404 273.559 42.543ZM276.84 58.9492C276.84 58.5065 276.716 58.0638 276.469 57.6211C276.221 57.1914 275.668 56.8398 274.809 56.5664C274.34 56.4883 273.565 56.4362 272.484 56.4102C271.417 56.3841 269.945 56.3711 268.07 56.3711C267.615 56.7617 267.23 57.224 266.918 57.7578C266.618 58.2917 266.469 58.9362 266.469 59.6914C266.469 60.0169 266.56 60.375 266.742 60.7656C266.924 61.1562 267.211 61.5208 267.602 61.8594C268.057 62.237 268.565 62.5299 269.125 62.7383C269.685 62.9596 270.531 63.0703 271.664 63.0703C273.344 63.0703 274.626 62.7448 275.512 62.0938C276.397 61.4427 276.84 60.3945 276.84 58.9492Z" fill="black"/>
<path id="Adding" d="M103.426 408H88.3281V406.477C89.0312 406.424 89.8581 406.301 90.8086 406.105C91.7591 405.897 92.2344 405.643 92.2344 405.344C92.2344 405.24 92.2214 405.122 92.1953 404.992C92.1823 404.862 92.1302 404.686 92.0391 404.465L89.6758 398.723H80.1055C79.8841 399.257 79.6367 399.882 79.3633 400.598C79.1029 401.314 78.875 401.952 78.6797 402.512C78.4323 403.241 78.2826 403.768 78.2305 404.094C78.1914 404.419 78.1719 404.647 78.1719 404.777C78.1719 405.194 78.4844 405.552 79.1094 405.852C79.7474 406.138 80.8021 406.346 82.2734 406.477V408H70.9062V406.477C71.3359 406.451 71.8177 406.385 72.3516 406.281C72.8984 406.164 73.3281 406.008 73.6406 405.812C74.1745 405.5 74.6237 405.116 74.9883 404.66C75.3659 404.204 75.6784 403.664 75.9258 403.039C77.4362 399.38 78.9466 395.715 80.457 392.043C81.9805 388.371 83.6602 384.322 85.4961 379.895H89.4023C91.9544 386.171 93.9531 391.132 95.3984 394.777C96.8438 398.423 98.0742 401.444 99.0898 403.84C99.2591 404.23 99.474 404.589 99.7344 404.914C99.9948 405.227 100.366 405.526 100.848 405.812C101.212 406.021 101.635 406.177 102.117 406.281C102.599 406.385 103.035 406.451 103.426 406.477V408ZM88.875 396.789L84.8516 386.75L80.8867 396.789H88.875ZM128.738 407.59L119.109 408.156L118.816 407.883V406.086L118.68 406.047C118.042 406.737 117.176 407.342 116.082 407.863C115.001 408.371 113.908 408.625 112.801 408.625C110.171 408.625 108.003 407.648 106.297 405.695C104.591 403.742 103.738 401.216 103.738 398.117C103.738 395.37 104.689 393.013 106.59 391.047C108.504 389.081 110.815 388.098 113.523 388.098C114.591 388.098 115.594 388.221 116.531 388.469C117.469 388.703 118.217 388.983 118.777 389.309V382.922C118.777 382.44 118.68 381.991 118.484 381.574C118.289 381.145 118.029 380.812 117.703 380.578C117.299 380.292 116.792 380.09 116.18 379.973C115.581 379.842 114.975 379.751 114.363 379.699V378.273L124.91 377.766L125.203 378.078V403.684C125.203 404.178 125.281 404.595 125.438 404.934C125.607 405.272 125.874 405.539 126.238 405.734C126.512 405.878 126.909 405.982 127.43 406.047C127.964 406.112 128.4 406.151 128.738 406.164V407.59ZM118.777 404.113V393.078C118.686 392.779 118.556 392.447 118.387 392.082C118.23 391.717 118.009 391.372 117.723 391.047C117.462 390.773 117.111 390.533 116.668 390.324C116.238 390.116 115.75 390.012 115.203 390.012C113.901 390.012 112.833 390.747 112 392.219C111.167 393.69 110.75 395.767 110.75 398.449C110.75 399.504 110.822 400.454 110.965 401.301C111.121 402.134 111.388 402.896 111.766 403.586C112.143 404.276 112.625 404.816 113.211 405.207C113.81 405.598 114.526 405.793 115.359 405.793C116.154 405.793 116.811 405.643 117.332 405.344C117.853 405.031 118.335 404.621 118.777 404.113ZM155.262 407.59L145.633 408.156L145.34 407.883V406.086L145.203 406.047C144.565 406.737 143.699 407.342 142.605 407.863C141.525 408.371 140.431 408.625 139.324 408.625C136.694 408.625 134.526 407.648 132.82 405.695C131.115 403.742 130.262 401.216 130.262 398.117C130.262 395.37 131.212 393.013 133.113 391.047C135.027 389.081 137.339 388.098 140.047 388.098C141.115 388.098 142.117 388.221 143.055 388.469C143.992 388.703 144.741 388.983 145.301 389.309V382.922C145.301 382.44 145.203 381.991 145.008 381.574C144.812 381.145 144.552 380.812 144.227 380.578C143.823 380.292 143.315 380.09 142.703 379.973C142.104 379.842 141.499 379.751 140.887 379.699V378.273L151.434 377.766L151.727 378.078V403.684C151.727 404.178 151.805 404.595 151.961 404.934C152.13 405.272 152.397 405.539 152.762 405.734C153.035 405.878 153.432 405.982 153.953 406.047C154.487 406.112 154.923 406.151 155.262 406.164V407.59ZM145.301 404.113V393.078C145.21 392.779 145.079 392.447 144.91 392.082C144.754 391.717 144.533 391.372 144.246 391.047C143.986 390.773 143.634 390.533 143.191 390.324C142.762 390.116 142.273 390.012 141.727 390.012C140.424 390.012 139.357 390.747 138.523 392.219C137.69 393.69 137.273 395.767 137.273 398.449C137.273 399.504 137.345 400.454 137.488 401.301C137.645 402.134 137.911 402.896 138.289 403.586C138.667 404.276 139.148 404.816 139.734 405.207C140.333 405.598 141.049 405.793 141.883 405.793C142.677 405.793 143.335 405.643 143.855 405.344C144.376 405.031 144.858 404.621 145.301 404.113ZM168.875 408H156.531V406.574C156.87 406.548 157.202 406.516 157.527 406.477C157.853 406.438 158.133 406.372 158.367 406.281C158.784 406.125 159.077 405.904 159.246 405.617C159.415 405.318 159.5 404.927 159.5 404.445V393.078C159.5 392.622 159.396 392.225 159.188 391.887C158.979 391.535 158.719 391.255 158.406 391.047C158.172 390.891 157.814 390.741 157.332 390.598C156.863 390.454 156.434 390.363 156.043 390.324V388.898L165.613 388.391L165.906 388.684V404.191C165.906 404.647 166.004 405.038 166.199 405.363C166.395 405.676 166.674 405.91 167.039 406.066C167.299 406.184 167.586 406.288 167.898 406.379C168.211 406.47 168.536 406.535 168.875 406.574V408ZM166.023 381.359C166.023 382.349 165.639 383.195 164.871 383.898C164.116 384.589 163.217 384.934 162.176 384.934C161.121 384.934 160.21 384.589 159.441 383.898C158.686 383.195 158.309 382.349 158.309 381.359C158.309 380.37 158.686 379.523 159.441 378.82C160.21 378.117 161.121 377.766 162.176 377.766C163.23 377.766 164.135 378.117 164.891 378.82C165.646 379.523 166.023 380.37 166.023 381.359ZM196.453 408H184.695V406.574C184.943 406.548 185.242 406.516 185.594 406.477C185.945 406.438 186.212 406.372 186.395 406.281C186.668 406.138 186.863 405.93 186.98 405.656C187.098 405.383 187.156 404.979 187.156 404.445V395.305C187.156 393.977 186.909 392.98 186.414 392.316C185.932 391.639 185.216 391.301 184.266 391.301C183.745 391.301 183.257 391.379 182.801 391.535C182.358 391.691 181.922 391.919 181.492 392.219C181.115 392.479 180.809 392.746 180.574 393.02C180.353 393.293 180.164 393.534 180.008 393.742V404.23C180.008 404.686 180.073 405.07 180.203 405.383C180.333 405.682 180.548 405.91 180.848 406.066C181.056 406.184 181.316 406.288 181.629 406.379C181.941 406.47 182.247 406.535 182.547 406.574V408H170.672V406.574C170.997 406.548 171.323 406.516 171.648 406.477C171.987 406.424 172.273 406.359 172.508 406.281C172.924 406.138 173.211 405.917 173.367 405.617C173.523 405.318 173.602 404.927 173.602 404.445V393.078C173.602 392.674 173.497 392.277 173.289 391.887C173.081 391.496 172.807 391.177 172.469 390.93C172.234 390.773 171.935 390.643 171.57 390.539C171.219 390.435 170.828 390.363 170.398 390.324V388.898L179.715 388.391L180.008 388.684V391.516H180.086C180.451 391.19 180.893 390.799 181.414 390.344C181.935 389.888 182.417 389.517 182.859 389.23C183.341 388.918 183.973 388.651 184.754 388.43C185.535 388.208 186.368 388.098 187.254 388.098C189.376 388.098 190.965 388.703 192.02 389.914C193.087 391.112 193.621 392.707 193.621 394.699V404.27C193.621 404.751 193.693 405.135 193.836 405.422C193.979 405.708 194.246 405.936 194.637 406.105C194.845 406.197 195.099 406.288 195.398 406.379C195.711 406.47 196.062 406.535 196.453 406.574V408ZM220.164 390.812H215.867C216.375 391.385 216.753 391.991 217 392.629C217.26 393.267 217.391 393.931 217.391 394.621C217.391 395.52 217.15 396.366 216.668 397.16C216.186 397.941 215.555 398.579 214.773 399.074C213.979 399.582 213.048 399.979 211.98 400.266C210.913 400.552 209.754 400.695 208.504 400.695H205.32C205.164 400.812 204.988 401.001 204.793 401.262C204.611 401.509 204.52 401.75 204.52 401.984C204.52 402.557 204.747 402.954 205.203 403.176C205.659 403.397 206.486 403.521 207.684 403.547C208.868 403.573 210.066 403.625 211.277 403.703C212.488 403.768 213.354 403.807 213.875 403.82C214.63 403.859 215.379 404.016 216.121 404.289C216.863 404.549 217.508 404.895 218.055 405.324C218.654 405.78 219.148 406.366 219.539 407.082C219.93 407.785 220.125 408.599 220.125 409.523C220.125 410.513 219.884 411.444 219.402 412.316C218.934 413.189 218.211 413.944 217.234 414.582C216.206 415.246 214.969 415.76 213.523 416.125C212.091 416.49 210.314 416.672 208.191 416.672C204.767 416.672 202.163 416.255 200.379 415.422C198.595 414.589 197.703 413.339 197.703 411.672C197.703 410.643 198.185 409.797 199.148 409.133C200.112 408.469 201.609 408.104 203.641 408.039V407.805C202.443 407.401 201.505 406.867 200.828 406.203C200.164 405.526 199.832 404.745 199.832 403.859C199.832 403.312 199.962 402.85 200.223 402.473C200.496 402.095 200.841 401.763 201.258 401.477C201.622 401.229 202.065 401.021 202.586 400.852C203.107 400.669 203.543 400.526 203.895 400.422V400.207C202.137 399.556 200.841 398.762 200.008 397.824C199.188 396.887 198.777 395.741 198.777 394.387C198.777 392.473 199.656 390.943 201.414 389.797C203.185 388.651 205.424 388.078 208.133 388.078C209.018 388.078 209.871 388.156 210.691 388.312C211.525 388.456 212.156 388.586 212.586 388.703H220.164V390.812ZM211.004 394.543C211.004 393.02 210.763 391.815 210.281 390.93C209.799 390.044 209.057 389.602 208.055 389.602C207.547 389.602 207.104 389.725 206.727 389.973C206.349 390.207 206.043 390.552 205.809 391.008C205.587 391.451 205.438 391.971 205.359 392.57C205.281 393.156 205.242 393.762 205.242 394.387C205.242 395.806 205.49 396.971 205.984 397.883C206.479 398.794 207.182 399.25 208.094 399.25C209.031 399.25 209.747 398.84 210.242 398.02C210.75 397.199 211.004 396.04 211.004 394.543ZM214.285 410.949C214.285 410.507 214.161 410.064 213.914 409.621C213.667 409.191 213.113 408.84 212.254 408.566C211.785 408.488 211.01 408.436 209.93 408.41C208.862 408.384 207.391 408.371 205.516 408.371C205.06 408.762 204.676 409.224 204.363 409.758C204.064 410.292 203.914 410.936 203.914 411.691C203.914 412.017 204.005 412.375 204.188 412.766C204.37 413.156 204.656 413.521 205.047 413.859C205.503 414.237 206.01 414.53 206.57 414.738C207.13 414.96 207.977 415.07 209.109 415.07C210.789 415.07 212.072 414.745 212.957 414.094C213.842 413.443 214.285 412.395 214.285 410.949Z" fill="black"/>
<path id="Removing" d="M94.1641 767H83.5391C81.7031 764.188 80.1732 761.948 78.9492 760.281C77.7383 758.615 76.2279 756.688 74.418 754.5H73.3438V762.918C73.3438 763.387 73.4284 763.784 73.5977 764.109C73.7799 764.435 74.1185 764.708 74.6133 764.93C74.8607 765.034 75.2448 765.145 75.7656 765.262C76.2995 765.366 76.7552 765.438 77.1328 765.477V767H62.3477V765.477C62.7253 765.438 63.2201 765.385 63.832 765.32C64.457 765.242 64.8997 765.151 65.1602 765.047C65.6549 764.839 65.987 764.578 66.1562 764.266C66.3255 763.94 66.4102 763.53 66.4102 763.035V743.484C66.4102 743.016 66.3385 742.625 66.1953 742.312C66.0521 742 65.707 741.727 65.1602 741.492C64.7435 741.323 64.2487 741.18 63.6758 741.062C63.1159 740.945 62.6732 740.861 62.3477 740.809V739.285H77.8945C81.3711 739.285 84.0078 739.832 85.8047 740.926C87.6146 742.007 88.5195 743.647 88.5195 745.848C88.5195 747.788 87.9596 749.35 86.8398 750.535C85.7331 751.707 84.0404 752.625 81.7617 753.289C82.6471 754.435 83.6758 755.763 84.8477 757.273C86.0326 758.784 87.263 760.327 88.5391 761.902C88.9427 762.41 89.4896 763.035 90.1797 763.777C90.8828 764.507 91.5013 764.956 92.0352 765.125C92.3346 765.216 92.7122 765.294 93.168 765.359C93.6367 765.424 93.9688 765.464 94.1641 765.477V767ZM80.8633 746.395C80.8633 744.546 80.3424 743.198 79.3008 742.352C78.2721 741.492 76.8008 741.062 74.8867 741.062H73.3438V752.664H74.8281C76.7422 752.664 78.2266 752.163 79.2812 751.16C80.3359 750.158 80.8633 748.569 80.8633 746.395ZM115.043 762.332C114.587 763.074 114.034 763.777 113.383 764.441C112.745 765.092 112.016 765.652 111.195 766.121C110.323 766.616 109.438 766.987 108.539 767.234C107.654 767.495 106.632 767.625 105.473 767.625C103.546 767.625 101.879 767.352 100.473 766.805C99.0794 766.258 97.9271 765.522 97.0156 764.598C96.1042 763.673 95.4206 762.586 94.9648 761.336C94.5221 760.073 94.3008 758.706 94.3008 757.234C94.3008 755.906 94.5417 754.637 95.0234 753.426C95.5182 752.202 96.2148 751.115 97.1133 750.164C97.9987 749.24 99.112 748.491 100.453 747.918C101.807 747.345 103.318 747.059 104.984 747.059C106.807 747.059 108.305 747.28 109.477 747.723C110.648 748.165 111.618 748.777 112.387 749.559C113.129 750.301 113.669 751.18 114.008 752.195C114.346 753.198 114.516 754.253 114.516 755.359V756.629H101.312C101.312 759.298 101.827 761.329 102.855 762.723C103.884 764.116 105.518 764.812 107.758 764.812C108.982 764.812 110.082 764.48 111.059 763.816C112.035 763.139 112.868 762.286 113.559 761.258L115.043 762.332ZM107.582 754.91C107.582 754.129 107.543 753.328 107.465 752.508C107.387 751.688 107.25 751.017 107.055 750.496C106.833 749.884 106.527 749.422 106.137 749.109C105.759 748.797 105.277 748.641 104.691 748.641C103.689 748.641 102.888 749.148 102.289 750.164C101.69 751.18 101.365 752.788 101.312 754.988L107.582 754.91ZM155.746 767H144.105V765.574C144.392 765.535 144.691 765.503 145.004 765.477C145.316 765.451 145.577 765.385 145.785 765.281C146.072 765.151 146.254 764.936 146.332 764.637C146.41 764.324 146.449 763.927 146.449 763.445V754.324C146.449 752.983 146.208 751.98 145.727 751.316C145.258 750.639 144.581 750.301 143.695 750.301C143.135 750.301 142.634 750.392 142.191 750.574C141.762 750.743 141.365 750.958 141 751.219C140.622 751.492 140.329 751.766 140.121 752.039C139.913 752.312 139.737 752.547 139.594 752.742V763.23C139.594 763.699 139.646 764.083 139.75 764.383C139.867 764.669 140.076 764.897 140.375 765.066C140.583 765.184 140.818 765.288 141.078 765.379C141.352 765.47 141.638 765.535 141.938 765.574V767H130.785V765.574C131.033 765.548 131.332 765.516 131.684 765.477C132.035 765.438 132.296 765.372 132.465 765.281C132.738 765.138 132.914 764.93 132.992 764.656C133.083 764.383 133.129 763.979 133.129 763.445V754.324C133.129 752.983 132.888 751.98 132.406 751.316C131.938 750.639 131.26 750.301 130.375 750.301C129.815 750.301 129.314 750.392 128.871 750.574C128.441 750.743 128.044 750.958 127.68 751.219C127.302 751.492 127.009 751.766 126.801 752.039C126.592 752.312 126.417 752.547 126.273 752.742V763.23C126.273 763.686 126.332 764.064 126.449 764.363C126.566 764.663 126.775 764.897 127.074 765.066C127.283 765.184 127.517 765.288 127.777 765.379C128.051 765.47 128.337 765.535 128.637 765.574V767H116.938V765.574C117.276 765.548 117.608 765.516 117.934 765.477C118.259 765.438 118.539 765.372 118.773 765.281C119.19 765.125 119.477 764.904 119.633 764.617C119.789 764.318 119.867 763.927 119.867 763.445V752.078C119.867 751.661 119.757 751.258 119.535 750.867C119.314 750.464 119.047 750.151 118.734 749.93C118.5 749.773 118.201 749.643 117.836 749.539C117.484 749.435 117.094 749.363 116.664 749.324V747.898L125.98 747.391L126.273 747.684V750.438H126.352C126.716 750.112 127.146 749.728 127.641 749.285C128.148 748.829 128.624 748.465 129.066 748.191C129.548 747.879 130.167 747.618 130.922 747.41C131.677 747.202 132.504 747.098 133.402 747.098C134.887 747.098 136.124 747.423 137.113 748.074C138.116 748.712 138.826 749.565 139.242 750.633H139.418C139.796 750.281 140.258 749.871 140.805 749.402C141.352 748.921 141.853 748.536 142.309 748.25C142.816 747.924 143.461 747.651 144.242 747.43C145.036 747.208 145.883 747.098 146.781 747.098C148.747 747.098 150.258 747.677 151.312 748.836C152.38 749.995 152.914 751.642 152.914 753.777V763.27C152.914 763.751 152.986 764.142 153.129 764.441C153.272 764.728 153.533 764.949 153.91 765.105C154.118 765.197 154.372 765.288 154.672 765.379C154.984 765.47 155.342 765.535 155.746 765.574V767ZM177.504 749.93C178.467 750.828 179.203 751.902 179.711 753.152C180.219 754.402 180.473 755.757 180.473 757.215C180.473 758.66 180.219 760.027 179.711 761.316C179.216 762.592 178.487 763.686 177.523 764.598C176.495 765.574 175.264 766.323 173.832 766.844C172.413 767.365 170.785 767.625 168.949 767.625C167.361 767.625 165.896 767.397 164.555 766.941C163.227 766.486 162.048 765.802 161.02 764.891C160.03 764.018 159.249 762.944 158.676 761.668C158.103 760.379 157.816 758.94 157.816 757.352C157.816 755.789 158.064 754.402 158.559 753.191C159.066 751.967 159.822 750.88 160.824 749.93C161.788 749.018 162.973 748.315 164.379 747.82C165.798 747.312 167.38 747.059 169.125 747.059C170.948 747.059 172.549 747.312 173.93 747.82C175.323 748.315 176.514 749.018 177.504 749.93ZM172.504 763.465C172.79 762.736 172.999 761.85 173.129 760.809C173.272 759.767 173.344 758.556 173.344 757.176C173.344 756.264 173.279 755.223 173.148 754.051C173.018 752.879 172.823 751.954 172.562 751.277C172.25 750.457 171.814 749.812 171.254 749.344C170.707 748.875 170.01 748.641 169.164 748.641C168.24 748.641 167.497 748.895 166.938 749.402C166.391 749.91 165.967 750.568 165.668 751.375C165.395 752.117 165.206 752.99 165.102 753.992C164.997 754.982 164.945 756.017 164.945 757.098C164.945 758.517 164.991 759.695 165.082 760.633C165.173 761.557 165.395 762.488 165.746 763.426C166.046 764.233 166.475 764.871 167.035 765.34C167.595 765.809 168.305 766.043 169.164 766.043C169.945 766.043 170.616 765.828 171.176 765.398C171.736 764.956 172.178 764.311 172.504 763.465ZM205.258 749.051C204.672 749.142 204.099 749.363 203.539 749.715C202.992 750.066 202.536 750.613 202.172 751.355C201.26 753.257 200.362 755.177 199.477 757.117C198.604 759.044 197.745 760.913 196.898 762.723C196.638 763.27 196.339 763.973 196 764.832C195.674 765.691 195.401 766.473 195.18 767.176H191.586C190.089 763.699 188.806 760.815 187.738 758.523C186.684 756.232 185.564 753.771 184.379 751.141C184.105 750.529 183.676 750.047 183.09 749.695C182.517 749.344 181.931 749.129 181.332 749.051V747.625H193.363V749.051C192.921 749.064 192.4 749.161 191.801 749.344C191.202 749.526 190.902 749.76 190.902 750.047C190.902 750.125 190.928 750.242 190.98 750.398C191.033 750.555 191.098 750.73 191.176 750.926C191.592 751.915 192.217 753.341 193.051 755.203C193.897 757.065 194.789 759.025 195.727 761.082C196.378 759.663 196.996 758.276 197.582 756.922C198.181 755.555 198.917 753.816 199.789 751.707C199.906 751.395 199.971 751.141 199.984 750.945C200.01 750.75 200.023 750.62 200.023 750.555C200.023 750.32 199.906 750.118 199.672 749.949C199.451 749.767 199.184 749.611 198.871 749.48C198.546 749.35 198.233 749.253 197.934 749.188C197.634 749.122 197.387 749.077 197.191 749.051V747.625H205.258V749.051ZM218.031 767H205.688V765.574C206.026 765.548 206.358 765.516 206.684 765.477C207.009 765.438 207.289 765.372 207.523 765.281C207.94 765.125 208.233 764.904 208.402 764.617C208.572 764.318 208.656 763.927 208.656 763.445V752.078C208.656 751.622 208.552 751.225 208.344 750.887C208.135 750.535 207.875 750.255 207.562 750.047C207.328 749.891 206.97 749.741 206.488 749.598C206.02 749.454 205.59 749.363 205.199 749.324V747.898L214.77 747.391L215.062 747.684V763.191C215.062 763.647 215.16 764.038 215.355 764.363C215.551 764.676 215.831 764.91 216.195 765.066C216.456 765.184 216.742 765.288 217.055 765.379C217.367 765.47 217.693 765.535 218.031 765.574V767ZM215.18 740.359C215.18 741.349 214.796 742.195 214.027 742.898C213.272 743.589 212.374 743.934 211.332 743.934C210.277 743.934 209.366 743.589 208.598 742.898C207.842 742.195 207.465 741.349 207.465 740.359C207.465 739.37 207.842 738.523 208.598 737.82C209.366 737.117 210.277 736.766 211.332 736.766C212.387 736.766 213.292 737.117 214.047 737.82C214.802 738.523 215.18 739.37 215.18 740.359ZM245.609 767H233.852V765.574C234.099 765.548 234.398 765.516 234.75 765.477C235.102 765.438 235.368 765.372 235.551 765.281C235.824 765.138 236.02 764.93 236.137 764.656C236.254 764.383 236.312 763.979 236.312 763.445V754.305C236.312 752.977 236.065 751.98 235.57 751.316C235.089 750.639 234.372 750.301 233.422 750.301C232.901 750.301 232.413 750.379 231.957 750.535C231.514 750.691 231.078 750.919 230.648 751.219C230.271 751.479 229.965 751.746 229.73 752.02C229.509 752.293 229.32 752.534 229.164 752.742V763.23C229.164 763.686 229.229 764.07 229.359 764.383C229.49 764.682 229.704 764.91 230.004 765.066C230.212 765.184 230.473 765.288 230.785 765.379C231.098 765.47 231.404 765.535 231.703 765.574V767H219.828V765.574C220.154 765.548 220.479 765.516 220.805 765.477C221.143 765.424 221.43 765.359 221.664 765.281C222.081 765.138 222.367 764.917 222.523 764.617C222.68 764.318 222.758 763.927 222.758 763.445V752.078C222.758 751.674 222.654 751.277 222.445 750.887C222.237 750.496 221.964 750.177 221.625 749.93C221.391 749.773 221.091 749.643 220.727 749.539C220.375 749.435 219.984 749.363 219.555 749.324V747.898L228.871 747.391L229.164 747.684V750.516H229.242C229.607 750.19 230.049 749.799 230.57 749.344C231.091 748.888 231.573 748.517 232.016 748.23C232.497 747.918 233.129 747.651 233.91 747.43C234.691 747.208 235.525 747.098 236.41 747.098C238.533 747.098 240.121 747.703 241.176 748.914C242.243 750.112 242.777 751.707 242.777 753.699V763.27C242.777 763.751 242.849 764.135 242.992 764.422C243.135 764.708 243.402 764.936 243.793 765.105C244.001 765.197 244.255 765.288 244.555 765.379C244.867 765.47 245.219 765.535 245.609 765.574V767ZM269.32 749.812H265.023C265.531 750.385 265.909 750.991 266.156 751.629C266.417 752.267 266.547 752.931 266.547 753.621C266.547 754.52 266.306 755.366 265.824 756.16C265.342 756.941 264.711 757.579 263.93 758.074C263.135 758.582 262.204 758.979 261.137 759.266C260.069 759.552 258.91 759.695 257.66 759.695H254.477C254.32 759.812 254.145 760.001 253.949 760.262C253.767 760.509 253.676 760.75 253.676 760.984C253.676 761.557 253.904 761.954 254.359 762.176C254.815 762.397 255.642 762.521 256.84 762.547C258.025 762.573 259.223 762.625 260.434 762.703C261.645 762.768 262.51 762.807 263.031 762.82C263.786 762.859 264.535 763.016 265.277 763.289C266.02 763.549 266.664 763.895 267.211 764.324C267.81 764.78 268.305 765.366 268.695 766.082C269.086 766.785 269.281 767.599 269.281 768.523C269.281 769.513 269.04 770.444 268.559 771.316C268.09 772.189 267.367 772.944 266.391 773.582C265.362 774.246 264.125 774.76 262.68 775.125C261.247 775.49 259.47 775.672 257.348 775.672C253.923 775.672 251.319 775.255 249.535 774.422C247.751 773.589 246.859 772.339 246.859 770.672C246.859 769.643 247.341 768.797 248.305 768.133C249.268 767.469 250.766 767.104 252.797 767.039V766.805C251.599 766.401 250.661 765.867 249.984 765.203C249.32 764.526 248.988 763.745 248.988 762.859C248.988 762.312 249.118 761.85 249.379 761.473C249.652 761.095 249.997 760.763 250.414 760.477C250.779 760.229 251.221 760.021 251.742 759.852C252.263 759.669 252.699 759.526 253.051 759.422V759.207C251.293 758.556 249.997 757.762 249.164 756.824C248.344 755.887 247.934 754.741 247.934 753.387C247.934 751.473 248.812 749.943 250.57 748.797C252.341 747.651 254.581 747.078 257.289 747.078C258.174 747.078 259.027 747.156 259.848 747.312C260.681 747.456 261.312 747.586 261.742 747.703H269.32V749.812ZM260.16 753.543C260.16 752.02 259.919 750.815 259.438 749.93C258.956 749.044 258.214 748.602 257.211 748.602C256.703 748.602 256.26 748.725 255.883 748.973C255.505 749.207 255.199 749.552 254.965 750.008C254.743 750.451 254.594 750.971 254.516 751.57C254.438 752.156 254.398 752.762 254.398 753.387C254.398 754.806 254.646 755.971 255.141 756.883C255.635 757.794 256.339 758.25 257.25 758.25C258.188 758.25 258.904 757.84 259.398 757.02C259.906 756.199 260.16 755.04 260.16 753.543ZM263.441 769.949C263.441 769.507 263.318 769.064 263.07 768.621C262.823 768.191 262.27 767.84 261.41 767.566C260.941 767.488 260.167 767.436 259.086 767.41C258.018 767.384 256.547 767.371 254.672 767.371C254.216 767.762 253.832 768.224 253.52 768.758C253.22 769.292 253.07 769.936 253.07 770.691C253.07 771.017 253.161 771.375 253.344 771.766C253.526 772.156 253.812 772.521 254.203 772.859C254.659 773.237 255.167 773.53 255.727 773.738C256.286 773.96 257.133 774.07 258.266 774.07C259.945 774.07 261.228 773.745 262.113 773.094C262.999 772.443 263.441 771.395 263.441 769.949Z" fill="black"/>
</g>
<rect id="Searching2" opacity="0.5" x="23" y="20" width="621" height="349.312" fill="#FF0000"/>
<rect id="Addit_BST" opacity="0.5" x="24" y="373" width="620.444" height="349" fill="#FF0000"/>
<rect id="Removing_BST" opacity="0.5" x="24" y="731" width="620.444" height="349" fill="#FF0000"/>
<rect id="Searching_code" opacity="0.5" x="650" y="20" width="620.444" height="349" fill="#FF0000"/>
<rect id="Add_BST_2" opacity="0.5" x="650" y="373" width="620.444" height="349" fill="#FF0000"/>
<rect id="Removal_Code" opacity="0.5" x="650" y="731" width="620" height="348.75" fill="#FF0000"/>
<rect id="Removal_Code_2" opacity="0.5" x="1276" y="731" width="620.444" height="349" fill="#FF0000"/>
</g>
</svg>
