<svg width="1921" height="1081" viewBox="0 0 1921 1081" fill="none" xmlns="http://www.w3.org/2000/svg">
<g id="Rotation drawing">
<rect width="1920" height="1080" transform="translate(0.87207 0.912109)" fill="white"/>
<g id="Group 1">
<path id="Vector 7" d="M950.814 47.879C950.244 47.3084 949.319 47.3084 948.748 47.879L939.45 57.1769C938.88 57.7475 938.88 58.6725 939.45 59.2431C940.021 59.8137 940.946 59.8137 941.516 59.2431L949.781 50.9783L958.046 59.2431C958.616 59.8137 959.542 59.8137 960.112 59.2431C960.683 58.6725 960.683 57.7475 960.112 57.1769L950.814 47.879ZM948.748 1033.95C949.319 1034.52 950.244 1034.52 950.814 1033.95L960.112 1024.65C960.683 1024.08 960.683 1023.15 960.112 1022.58C959.542 1022.01 958.616 1022.01 958.046 1022.58L949.781 1030.85L941.516 1022.58C940.946 1022.01 940.021 1022.01 939.45 1022.58C938.88 1023.15 938.88 1024.08 939.45 1024.65L948.748 1033.95ZM468.071 539.879C467.5 540.45 467.5 541.375 468.071 541.945L477.369 551.243C477.939 551.814 478.864 551.814 479.435 551.243C480.006 550.673 480.006 549.747 479.435 549.177L471.17 540.912L479.435 532.647C480.006 532.077 480.006 531.152 479.435 530.581C478.864 530.011 477.939 530.011 477.369 530.581L468.071 539.879ZM1454.14 541.945C1454.71 541.375 1454.71 540.45 1454.14 539.879L1444.84 530.581C1444.27 530.011 1443.34 530.011 1442.77 530.581C1442.2 531.152 1442.2 532.077 1442.77 532.647L1451.04 540.912L1442.77 549.177C1442.2 549.747 1442.2 550.673 1442.77 551.243C1443.34 551.814 1444.27 551.814 1444.84 551.243L1454.14 541.945ZM948.32 48.9121V1032.91H951.242V48.9121H948.32ZM469.104 542.373H1453.1V539.451H469.104V542.373Z" fill="#4F4F4F"/>
</g>
<circle id="Ellipse_2" cx="949.604" cy="525.412" r="277" stroke="black"/>
<circle id="Ellipse 1" cx="949.604" cy="248.412" r="8.5" fill="#EB5757"/>
<circle id="Ellipse_3" cx="741.604" cy="340.412" r="8.5" fill="#EB5757"/>
<circle id="Ellipse_4" cx="673.604" cy="505.412" r="8.5" fill="#EB5757"/>
<path id="(0,1)" d="M975.229 229.042C975.229 239.122 978.449 242.097 980.479 242.517V243.392C974.354 243.147 972.779 235.552 972.779 229.042C972.779 222.532 974.354 214.937 980.479 214.692V215.567C978.274 216.022 975.229 219.032 975.229 229.042ZM990.615 216.337C987.29 216.337 986.345 221.517 986.345 227.222C986.345 232.927 987.29 238.107 990.615 238.107C993.94 238.107 994.885 232.927 994.885 227.222C994.885 221.517 993.94 216.337 990.615 216.337ZM990.615 215.112C996.39 215.112 998.455 220.222 998.455 227.222C998.455 234.222 996.39 239.332 990.615 239.332C984.84 239.332 982.775 234.222 982.775 227.222C982.775 220.222 984.84 215.112 990.615 215.112ZM1002.35 243.847L1001.68 243.182C1002.8 241.957 1003.71 240.557 1003.71 239.122C1003.71 237.617 1002.56 236.987 1002.56 235.727C1002.56 234.817 1003.19 233.977 1004.27 233.977C1005.5 233.942 1006.65 235.202 1006.65 237.127C1006.65 239.892 1004.1 242.202 1002.35 243.847ZM1024.46 238.912H1012.98V237.897L1015.92 237.652C1016.3 237.617 1016.58 237.512 1016.76 237.267C1016.97 237.022 1017.07 236.602 1017.07 235.937V218.962C1017.07 217.947 1016.83 217.667 1016.23 217.597L1012.98 217.212V216.337L1020.19 215.112L1020.36 215.322V235.937C1020.36 237.302 1020.78 237.582 1021.52 237.652L1024.46 237.897V238.912ZM1033.85 229.042C1033.85 219.032 1030.8 216.022 1028.6 215.567V214.692C1034.72 214.937 1036.3 222.532 1036.3 229.042C1036.3 235.552 1034.72 243.147 1028.6 243.392V242.517C1030.63 242.097 1033.85 239.122 1033.85 229.042Z" fill="black"/>
<path id="__3_5__4_5_" d="M577.229 313.042C577.229 323.122 580.449 326.097 582.479 326.517V327.392C576.354 327.147 574.779 319.552 574.779 313.042C574.779 306.532 576.354 298.937 582.479 298.692V299.567C580.274 300.022 577.229 303.032 577.229 313.042ZM585.93 312.902H594.505V315.352H585.93V312.902ZM601.596 310.102C601.596 309.472 601.771 309.122 602.226 309.122C602.646 309.122 603.591 309.472 605.271 309.472C608.246 309.472 608.981 306.847 608.981 304.747C608.981 302.787 608.316 300.337 605.551 300.337C603.591 300.337 602.261 301.877 601.491 304.257C601.351 304.712 601.071 304.957 600.616 304.957C600.126 304.957 598.901 304.362 598.901 303.277C598.901 301.772 601.176 299.112 605.796 299.112C609.541 299.112 612.586 300.827 612.586 304.712C612.586 308.177 609.541 309.577 607.651 309.892V310.032C609.576 310.207 613.601 311.607 613.601 316.297C613.601 320.777 610.416 323.332 605.341 323.332C600.406 323.332 597.991 320.847 597.991 319.342C597.991 318.082 599.216 317.417 599.846 317.417C600.336 317.417 600.686 317.732 600.896 318.397C601.561 320.357 603.066 322.107 605.376 322.107C607.861 322.107 609.926 320.637 609.926 316.472C609.926 313.427 608.246 310.732 605.271 310.732C603.591 310.732 602.646 311.082 602.226 311.082C601.771 311.082 601.596 310.697 601.596 310.102ZM621.171 323.437H618.826L626.176 298.167H628.521L621.171 323.437ZM646.615 302.192H637.9C637.235 302.192 636.99 302.332 636.885 303.207L636.08 309.752L636.15 309.822C637.27 308.807 639.335 307.967 641.26 307.967C645.425 307.967 648.505 310.487 648.505 315.387C648.505 319.832 645.88 323.332 640.105 323.332C635.555 323.332 633.105 320.952 633.105 319.342C633.105 318.187 634.26 317.487 634.96 317.487C635.45 317.487 635.765 317.802 635.94 318.327C636.64 320.322 637.9 322.107 640.35 322.107C643.395 322.107 644.865 319.377 644.865 315.772C644.865 311.152 642.415 309.507 640.175 309.507C638.285 309.507 636.85 310.312 635.38 311.992L634.54 311.572L635.24 299.847L635.59 299.532H647.28L647.455 299.812L646.615 302.192ZM652.714 327.847L652.049 327.182C653.169 325.957 654.079 324.557 654.079 323.122C654.079 321.617 652.924 320.987 652.924 319.727C652.924 318.817 653.554 317.977 654.639 317.977C655.864 317.942 657.019 319.202 657.019 321.127C657.019 323.892 654.464 326.202 652.714 327.847ZM677.888 316.647H668.368L668.053 315.912C671.273 310.452 675.193 304.362 678.483 299.532H681.038V315.002H684.643V316.647H681.038V320.217C681.038 321.407 681.283 321.617 682.088 321.722L683.663 321.897V322.912H674.423V321.897L676.663 321.687C677.503 321.617 677.888 321.407 677.888 320.217V316.647ZM670.573 315.002H677.888V302.927H677.818C675.123 307.162 672.673 311.187 670.573 315.002ZM691.513 323.437H689.168L696.518 298.167H698.863L691.513 323.437ZM716.956 302.192H708.241C707.576 302.192 707.331 302.332 707.226 303.207L706.421 309.752L706.491 309.822C707.611 308.807 709.676 307.967 711.601 307.967C715.766 307.967 718.846 310.487 718.846 315.387C718.846 319.832 716.221 323.332 710.446 323.332C705.896 323.332 703.446 320.952 703.446 319.342C703.446 318.187 704.601 317.487 705.301 317.487C705.791 317.487 706.106 317.802 706.281 318.327C706.981 320.322 708.241 322.107 710.691 322.107C713.736 322.107 715.206 319.377 715.206 315.772C715.206 311.152 712.756 309.507 710.516 309.507C708.626 309.507 707.191 310.312 705.721 311.992L704.881 311.572L705.581 299.847L705.931 299.532H717.621L717.796 299.812L716.956 302.192ZM726.731 313.042C726.731 303.032 723.686 300.022 721.481 299.567V298.692C727.606 298.937 729.181 306.532 729.181 313.042C729.181 319.552 727.606 327.147 721.481 327.392V326.517C723.511 326.097 726.731 323.122 726.731 313.042Z" fill="black"/>
<path id="__24_25__7_25_" d="M440.229 478.042C440.229 488.122 443.449 491.097 445.479 491.517V492.392C439.354 492.147 437.779 484.552 437.779 478.042C437.779 471.532 439.354 463.937 445.479 463.692V464.567C443.274 465.022 440.229 468.032 440.229 478.042ZM448.93 477.902H457.505V480.352H448.93V477.902ZM477.021 483.292L475.831 487.912H461.341L460.991 487.562C461.656 484.832 463.161 482.452 467.466 478.707C470.511 476.012 472.401 473.912 472.401 470.167C472.401 467.612 471.631 465.337 468.936 465.337C466.766 465.337 465.401 467.262 464.841 469.642C464.701 470.237 464.456 470.587 463.826 470.587C463.231 470.587 461.901 470.027 461.901 468.837C461.901 467.017 464.386 464.112 469.181 464.112C472.856 464.112 476.076 465.792 476.076 470.657C476.076 474.577 473.486 476.152 470.126 478.602C466.871 480.947 464.806 483.432 464.246 485.252H473.206C474.606 485.252 475.306 485.007 476.041 483.117L477.021 483.292ZM489.106 481.647H479.586L479.271 480.912C482.491 475.452 486.411 469.362 489.701 464.532H492.256V480.002H495.861V481.647H492.256V485.217C492.256 486.407 492.501 486.617 493.306 486.722L494.881 486.897V487.912H485.641V486.897L487.881 486.687C488.721 486.617 489.106 486.407 489.106 485.217V481.647ZM481.791 480.002H489.106V467.927H489.036C486.341 472.162 483.891 476.187 481.791 480.002ZM502.731 488.437H500.386L507.736 463.167H510.081L502.731 488.437ZM530.239 483.292L529.049 487.912H514.559L514.209 487.562C514.874 484.832 516.379 482.452 520.684 478.707C523.729 476.012 525.619 473.912 525.619 470.167C525.619 467.612 524.849 465.337 522.154 465.337C519.984 465.337 518.619 467.262 518.059 469.642C517.919 470.237 517.674 470.587 517.044 470.587C516.449 470.587 515.119 470.027 515.119 468.837C515.119 467.017 517.604 464.112 522.399 464.112C526.074 464.112 529.294 465.792 529.294 470.657C529.294 474.577 526.704 476.152 523.344 478.602C520.089 480.947 518.024 483.432 517.464 485.252H526.424C527.824 485.252 528.524 485.007 529.259 483.117L530.239 483.292ZM546.734 467.192H538.019C537.354 467.192 537.109 467.332 537.004 468.207L536.199 474.752L536.269 474.822C537.389 473.807 539.454 472.967 541.379 472.967C545.544 472.967 548.624 475.487 548.624 480.387C548.624 484.832 545.999 488.332 540.224 488.332C535.674 488.332 533.224 485.952 533.224 484.342C533.224 483.187 534.379 482.487 535.079 482.487C535.569 482.487 535.884 482.802 536.059 483.327C536.759 485.322 538.019 487.107 540.469 487.107C543.514 487.107 544.984 484.377 544.984 480.772C544.984 476.152 542.534 474.507 540.294 474.507C538.404 474.507 536.969 475.312 535.499 476.992L534.659 476.572L535.359 464.847L535.709 464.532H547.399L547.574 464.812L546.734 467.192ZM552.833 492.847L552.168 492.182C553.288 490.957 554.198 489.557 554.198 488.122C554.198 486.617 553.043 485.987 553.043 484.727C553.043 483.817 553.673 482.977 554.758 482.977C555.983 482.942 557.138 484.202 557.138 486.127C557.138 488.892 554.583 491.202 552.833 492.847ZM570.027 464.532H584.587L584.902 464.917C583.677 469.327 581.822 471.497 579.582 475.417C577.727 478.672 576.782 482.382 576.957 487.002C576.992 488.017 576.257 488.332 575.242 488.332C574.157 488.332 573.352 488.052 573.352 486.897C573.352 482.767 575.347 478.847 578.357 474.542C581.192 470.482 581.822 468.452 582.172 467.192H572.722C571.147 467.192 570.692 467.717 570.237 468.697L569.887 469.432H568.942L570.027 464.532ZM591.632 488.437H589.287L596.637 463.167H598.982L591.632 488.437ZM619.141 483.292L617.951 487.912H603.461L603.111 487.562C603.776 484.832 605.281 482.452 609.586 478.707C612.631 476.012 614.521 473.912 614.521 470.167C614.521 467.612 613.751 465.337 611.056 465.337C608.886 465.337 607.521 467.262 606.961 469.642C606.821 470.237 606.576 470.587 605.946 470.587C605.351 470.587 604.021 470.027 604.021 468.837C604.021 467.017 606.506 464.112 611.301 464.112C614.976 464.112 618.196 465.792 618.196 470.657C618.196 474.577 615.606 476.152 612.246 478.602C608.991 480.947 606.926 483.432 606.366 485.252H615.326C616.726 485.252 617.426 485.007 618.161 483.117L619.141 483.292ZM635.635 467.192H626.92C626.255 467.192 626.01 467.332 625.905 468.207L625.1 474.752L625.17 474.822C626.29 473.807 628.355 472.967 630.28 472.967C634.445 472.967 637.525 475.487 637.525 480.387C637.525 484.832 634.9 488.332 629.125 488.332C624.575 488.332 622.125 485.952 622.125 484.342C622.125 483.187 623.28 482.487 623.98 482.487C624.47 482.487 624.785 482.802 624.96 483.327C625.66 485.322 626.92 487.107 629.37 487.107C632.415 487.107 633.885 484.377 633.885 480.772C633.885 476.152 631.435 474.507 629.195 474.507C627.305 474.507 625.87 475.312 624.4 476.992L623.56 476.572L624.26 464.847L624.61 464.532H636.3L636.475 464.812L635.635 467.192ZM645.41 478.042C645.41 468.032 642.365 465.022 640.16 464.567V463.692C646.285 463.937 647.86 471.532 647.86 478.042C647.86 484.552 646.285 492.147 640.16 492.392V491.517C642.19 491.097 645.41 488.122 645.41 478.042Z" fill="black"/>
</g>
</svg>
