<svg width="1921" height="1081" viewBox="0 0 1921 1081" fill="none" xmlns="http://www.w3.org/2000/svg">
<g id="Theorem">
<rect width="1920" height="1080" transform="translate(0.339355 0.339111)" fill="white"/>
<rect id="Rectangle 3" x="445.123" y="434.339" width="842" height="105" stroke="black" stroke-width="2"/>
<path id="Theorem. Decidable for injective maps" d="M472.573 479.539C472.573 478.689 472.523 474.189 472.173 472.989C465.473 472.989 461.973 474.089 461.973 474.089L461.873 473.889C461.973 473.139 461.973 470.489 461.873 469.089L461.973 468.939C462.773 469.039 463.923 469.089 464.973 469.089H487.373C488.423 469.089 489.573 469.039 490.373 468.939L490.473 469.089C490.373 470.489 490.373 473.139 490.473 473.889L490.373 474.089C490.373 474.089 486.873 472.989 480.173 472.989C479.823 474.189 479.773 478.689 479.773 479.539V491.339C479.773 495.089 479.873 498.489 480.273 501.339L480.173 501.489C480.173 501.489 477.873 501.339 476.173 501.339C474.423 501.339 472.123 501.489 472.123 501.489L472.073 501.339C472.473 498.639 472.573 495.089 472.573 491.339V479.539ZM495.501 477.639C495.501 473.839 495.251 470.389 494.901 468.239L495.001 468.089C497.001 467.939 500.851 466.939 502.151 466.439C502.451 466.439 502.601 466.589 502.601 466.939C502.201 470.039 502.101 472.589 502.101 476.339V479.439L501.901 483.789L502.101 483.889C504.401 480.939 508.101 479.389 510.651 479.389C515.151 479.389 517.101 482.289 517.101 486.789V492.339C517.101 496.139 517.151 498.489 517.601 501.339L517.501 501.489C517.501 501.489 516.151 501.339 514.451 501.339C512.701 501.339 510.251 501.489 510.251 501.489L510.201 501.339C510.501 498.689 510.501 496.089 510.501 492.339V487.889C510.501 484.239 509.251 483.239 507.901 483.239C506.101 483.239 504.001 484.739 502.101 487.239V492.339C502.101 496.139 502.151 498.489 502.401 501.339L502.301 501.489C502.301 501.489 500.651 501.339 498.951 501.339C497.201 501.339 494.951 501.489 494.951 501.489L494.901 501.339C495.301 498.689 495.501 496.089 495.501 492.339V477.639ZM530.173 488.589H537.973C537.973 484.239 536.723 481.889 534.723 481.889C533.273 481.889 532.323 482.539 531.673 483.389C530.923 484.439 530.323 486.139 530.173 488.589ZM543.923 495.989C544.423 495.989 544.723 496.889 544.723 497.539C541.973 500.689 538.423 501.839 534.823 501.839C531.073 501.839 528.123 501.039 526.423 499.239C524.323 497.139 523.273 493.989 523.273 491.039C523.273 486.939 524.923 483.889 527.323 481.889C529.323 480.289 532.323 479.389 535.073 479.389C542.773 479.389 544.523 484.389 544.523 490.639L544.223 490.939C544.223 490.939 539.923 490.839 534.923 490.839H529.973C529.973 493.139 530.523 494.889 531.623 496.089C532.823 497.389 534.623 498.039 537.073 498.039C539.173 498.039 541.573 497.889 543.923 495.989ZM549.306 491.089C549.306 483.339 554.356 479.389 561.506 479.389C569.956 479.389 573.506 484.339 573.506 490.639C573.506 497.589 569.056 501.839 561.406 501.839C553.956 501.839 549.306 497.739 549.306 491.089ZM561.156 481.889C556.856 481.889 556.406 485.589 556.406 489.939C556.406 493.789 556.906 499.339 562.106 499.339C564.356 499.339 566.406 497.739 566.406 491.989C566.406 485.039 565.406 481.889 561.156 481.889ZM586.826 483.889C588.126 481.939 590.526 479.389 592.876 479.389C593.776 479.389 594.576 479.489 595.426 479.739L595.626 479.939L594.626 485.089L593.726 485.189C592.826 484.489 591.776 484.239 590.826 484.239C590.026 484.239 586.626 484.839 586.626 488.689V492.339C586.626 496.139 586.726 498.489 587.126 501.339L587.026 501.489C587.026 501.489 584.626 501.339 582.926 501.339C581.176 501.339 579.576 501.489 579.576 501.489L579.526 501.339C579.926 498.639 580.026 496.089 580.026 492.339V489.589C580.026 485.889 579.826 482.039 579.476 479.889L579.576 479.739C581.326 479.839 584.576 479.839 586.026 479.589C586.326 479.589 586.376 479.789 586.476 480.089C586.526 480.539 586.576 482.639 586.576 483.739L586.826 483.889ZM604.88 488.589H612.68C612.68 484.239 611.43 481.889 609.43 481.889C607.98 481.889 607.03 482.539 606.38 483.389C605.63 484.439 605.03 486.139 604.88 488.589ZM618.63 495.989C619.13 495.989 619.43 496.889 619.43 497.539C616.68 500.689 613.13 501.839 609.53 501.839C605.78 501.839 602.83 501.039 601.13 499.239C599.03 497.139 597.98 493.989 597.98 491.039C597.98 486.939 599.63 483.889 602.03 481.889C604.03 480.289 607.03 479.389 609.78 479.389C617.48 479.389 619.23 484.389 619.23 490.639L618.93 490.939C618.93 490.939 614.63 490.839 609.63 490.839H604.68C604.68 493.139 605.23 494.889 606.33 496.089C607.53 497.389 609.33 498.039 611.78 498.039C613.88 498.039 616.28 497.889 618.63 495.989ZM632.421 483.889C634.321 481.439 637.421 479.389 639.871 479.389C644.321 479.389 645.721 480.889 646.721 483.389C649.571 480.389 652.171 479.389 654.671 479.389C660.071 479.389 661.821 482.339 661.821 487.339V492.339C661.821 496.139 662.021 498.489 662.421 501.339L662.321 501.489C662.321 501.489 660.371 501.339 658.671 501.339C656.921 501.339 654.671 501.489 654.671 501.489L654.621 501.339C655.021 498.639 655.221 496.089 655.221 492.339V487.689C655.221 484.339 654.071 483.239 652.471 483.239C650.521 483.239 649.421 483.789 647.021 486.439C647.071 487.039 647.071 487.239 647.071 487.939V492.339C647.071 496.139 647.271 498.489 647.671 501.339L647.571 501.489C647.571 501.489 645.621 501.339 643.921 501.339C642.171 501.339 639.921 501.489 639.921 501.489L639.871 501.339C640.271 498.639 640.471 496.089 640.471 492.339V487.289C640.471 483.939 639.421 483.239 637.521 483.239C636.121 483.239 634.321 484.739 632.221 487.289V492.339C632.221 496.139 632.321 498.489 632.721 501.339L632.621 501.489C632.621 501.489 630.621 501.339 628.921 501.339C627.171 501.339 625.071 501.489 625.071 501.489L625.021 501.339C625.421 498.639 625.621 496.089 625.621 492.339V489.589C625.621 485.889 625.421 482.039 625.071 479.889L625.171 479.739C626.921 479.839 630.171 479.839 631.621 479.589C631.921 479.589 631.971 479.789 632.071 480.089C632.121 480.539 632.171 482.639 632.171 483.739L632.421 483.889ZM668.901 498.939V498.689C669.551 497.039 670.451 496.039 672.351 495.289H672.551C674.401 495.939 675.351 496.889 676.001 498.689V498.939C675.301 500.989 674.351 501.889 672.551 502.339H672.351C670.301 501.889 669.451 501.039 668.901 498.939ZM700.506 497.239C700.506 498.839 701.056 499.239 705.956 499.239C713.006 499.239 718.756 497.239 718.756 487.139C718.756 479.439 715.506 471.139 704.706 471.139C702.256 471.139 700.506 471.389 700.506 473.139V497.239ZM698.356 469.089C701.556 469.089 703.406 468.939 706.606 468.939C716.206 468.939 723.906 476.639 723.906 485.939C723.906 498.239 714.556 501.439 707.506 501.439C702.356 501.439 701.906 501.339 698.356 501.339C696.606 501.339 695.756 501.489 695.756 501.489L695.706 501.339C696.106 498.639 696.206 495.089 696.206 491.339V479.089C696.206 475.339 696.106 471.939 695.706 469.089L695.806 468.939C695.806 468.939 696.656 469.089 698.356 469.089ZM732.754 487.689H741.954C742.454 487.689 742.654 487.439 742.654 486.989C742.654 483.239 740.404 481.389 738.454 481.389C736.854 481.389 733.604 482.489 732.754 487.689ZM746.104 496.139L747.104 497.389C745.204 499.989 742.004 501.839 738.404 501.839C735.004 501.839 732.154 500.639 730.454 498.539C728.754 496.539 728.204 493.739 728.204 490.889C728.204 483.539 733.304 479.389 738.454 479.389C745.054 479.389 747.104 484.639 747.104 488.839C747.104 489.389 746.754 489.689 746.204 489.689H732.604C732.604 492.639 732.904 494.639 733.804 496.039C735.154 498.239 737.504 498.889 739.254 498.889C742.004 498.889 744.354 498.039 746.104 496.139ZM762.002 481.389C758.702 481.389 755.802 484.689 755.802 490.189C755.802 496.039 758.652 499.339 762.302 499.339C764.152 499.339 765.752 498.939 767.652 497.239H767.852L768.802 498.289C766.802 500.839 764.452 501.839 761.452 501.839C755.352 501.839 751.402 497.439 751.402 490.439C751.402 483.639 756.852 479.389 762.052 479.389C764.552 479.389 767.152 479.989 768.702 480.789L768.802 480.939L767.652 485.039L767.002 485.089C765.652 482.839 763.902 481.389 762.002 481.389ZM774.938 471.489C774.938 470.139 776.138 468.939 777.488 468.939C778.838 468.939 780.038 470.139 780.038 471.489C780.038 472.839 778.838 474.039 777.488 474.039C776.138 474.039 774.938 472.839 774.938 471.489ZM775.438 489.589C775.438 485.839 775.288 482.039 774.988 479.889L775.088 479.739C776.138 479.839 778.287 479.839 779.438 479.689C779.788 479.689 779.888 479.739 779.888 480.189C779.538 483.239 779.438 485.039 779.438 488.789V492.339C779.438 496.139 779.488 498.539 779.888 501.339L779.788 501.489C779.188 501.389 778.038 501.339 777.438 501.339C776.838 501.339 775.688 501.389 775.088 501.489L774.988 501.339C775.338 498.639 775.438 496.089 775.438 492.339V489.589ZM801.976 495.689V484.289C800.776 482.389 799.576 481.389 797.226 481.389C794.776 481.389 790.826 482.789 790.826 490.289C790.826 496.539 793.126 499.239 795.826 499.239C797.826 499.239 800.126 498.039 801.976 495.689ZM801.976 498.439C800.176 500.789 797.926 501.839 795.526 501.839C790.126 501.839 786.476 496.839 786.476 490.689C786.476 483.889 791.226 479.389 797.776 479.389C798.776 479.389 800.826 479.839 801.976 480.489V477.239C801.976 473.439 801.876 469.739 801.526 467.589L801.626 467.439C803.626 467.289 804.676 466.939 805.976 466.439C806.276 466.439 806.426 466.589 806.426 466.939C806.176 470.039 805.976 472.639 805.976 476.339V491.739C805.976 495.489 806.426 499.189 806.826 501.339L806.726 501.489C806.076 501.389 805.126 501.339 804.476 501.339C803.776 501.339 803.426 501.439 802.776 501.489C802.476 501.489 802.326 501.439 802.326 501.339L802.076 498.439H801.976ZM825.939 490.089L821.689 491.239C817.789 492.289 816.739 493.989 816.739 496.239C816.739 497.789 818.189 499.289 820.439 499.289C821.939 499.289 823.639 498.389 825.039 497.339C825.439 497.039 825.739 496.689 825.739 496.039L825.939 490.089ZM825.939 498.939H825.739C823.089 501.189 821.689 501.839 818.939 501.839C815.239 501.839 812.689 500.139 812.689 496.439C812.689 493.039 815.889 490.339 820.989 489.189L825.639 488.139C825.789 488.089 825.989 487.889 825.989 487.539C825.989 481.889 822.989 481.639 821.189 481.639C818.789 481.639 817.089 483.639 815.689 485.889L815.039 485.839L814.189 482.489L814.339 482.289C815.589 481.239 817.889 479.389 821.689 479.389C825.489 479.389 829.939 480.739 829.939 487.489C829.939 488.039 829.789 493.589 829.789 495.039C829.789 497.289 830.089 498.489 830.589 498.939C830.939 499.239 831.589 499.339 832.089 499.339C832.439 499.339 832.889 499.289 833.439 499.089L833.789 500.289C832.639 501.539 831.089 501.839 829.839 501.839C827.989 501.839 826.489 500.939 825.939 498.939ZM842.612 497.289C843.612 498.539 845.462 499.839 847.012 499.839C851.762 499.839 853.612 496.339 853.612 490.139C853.612 483.939 850.912 481.389 847.862 481.389C845.812 481.389 844.562 482.339 842.612 484.339V497.289ZM842.612 476.339V481.889C844.312 480.039 846.462 479.389 848.862 479.389C853.712 479.389 858.062 483.639 858.062 489.739C858.062 498.239 852.412 501.839 847.312 501.839C845.162 501.839 842.862 500.639 841.412 499.389C840.862 500.389 840.312 501.239 839.762 501.839C839.212 501.839 838.662 501.739 838.362 501.439C838.562 500.389 838.612 499.639 838.612 497.689V477.239C838.612 473.439 838.362 469.739 838.012 467.589L838.112 467.439C840.112 467.289 841.162 466.939 842.462 466.439C842.762 466.439 842.912 466.589 842.912 466.939C842.662 470.039 842.612 472.639 842.612 476.339ZM864.207 491.339V477.239C864.207 473.439 864.107 469.739 863.757 467.589L863.857 467.439C865.857 467.289 866.907 466.939 868.207 466.439C868.507 466.439 868.657 466.589 868.657 466.939C868.407 470.139 868.207 472.589 868.207 476.339V491.339C868.207 495.139 868.257 498.489 868.657 501.339L868.557 501.489C867.957 501.389 866.807 501.339 866.207 501.339C865.607 501.339 864.457 501.389 863.857 501.489L863.757 501.339C864.107 498.689 864.207 495.089 864.207 491.339ZM878.555 487.689H887.755C888.255 487.689 888.455 487.439 888.455 486.989C888.455 483.239 886.205 481.389 884.255 481.389C882.655 481.389 879.405 482.489 878.555 487.689ZM891.905 496.139L892.905 497.389C891.005 499.989 887.805 501.839 884.205 501.839C880.805 501.839 877.955 500.639 876.255 498.539C874.555 496.539 874.005 493.739 874.005 490.889C874.005 483.539 879.105 479.389 884.255 479.389C890.855 479.389 892.905 484.639 892.905 488.839C892.905 489.389 892.555 489.689 892.005 489.689H878.405C878.405 492.639 878.705 494.639 879.605 496.039C880.955 498.239 883.305 498.889 885.055 498.889C887.805 498.889 890.155 498.039 891.905 496.139ZM912.411 479.889V477.939C912.411 475.039 913.261 472.689 915.161 470.289C917.011 467.939 920.211 466.439 923.361 466.439C924.311 466.439 925.211 466.689 925.611 466.939L925.661 467.089C925.111 468.189 924.611 469.839 924.261 471.189L923.711 471.239C923.161 470.239 922.061 469.489 920.811 469.489C917.911 469.489 916.161 471.389 916.161 474.139C916.161 475.039 916.411 477.639 916.411 479.439V479.889H918.561C919.711 479.889 921.211 479.839 922.061 479.789L922.311 480.139C922.011 480.889 921.861 481.389 921.711 482.189C921.011 482.139 919.311 482.089 918.111 482.089H916.411V491.389C916.411 495.139 916.461 498.489 916.911 501.339L916.811 501.489C916.211 501.389 915.011 501.339 914.411 501.339C913.811 501.339 912.611 501.389 912.011 501.489L911.911 501.339C912.311 498.689 912.411 495.139 912.411 491.389V482.089H912.361C911.211 482.089 909.561 482.139 908.661 482.189L908.411 481.839C908.861 481.089 909.161 480.639 909.511 479.789C910.161 479.889 911.311 479.889 912.411 479.889ZM925.084 491.089C925.084 483.989 929.334 479.389 935.884 479.389C942.634 479.389 946.284 483.839 946.284 490.639C946.284 497.189 942.284 501.839 935.684 501.839C929.034 501.839 925.084 497.089 925.084 491.089ZM935.534 481.389C930.834 481.389 929.484 485.889 929.484 490.239C929.484 494.089 930.834 499.839 936.134 499.839C939.484 499.839 941.884 496.339 941.884 491.539C941.884 485.489 940.834 481.389 935.534 481.389ZM956.534 484.639L956.684 484.739C958.884 480.939 960.334 479.389 963.034 479.389C963.934 479.389 963.984 479.489 964.834 479.739L965.034 479.939L964.034 483.639L963.634 483.739C962.984 483.139 962.034 483.039 961.034 483.039C960.084 483.039 958.934 483.689 958.234 484.789C957.134 486.439 956.534 487.639 956.534 489.739V492.339C956.534 496.139 956.584 498.489 956.984 501.339L956.884 501.489C956.284 501.389 955.134 501.339 954.534 501.339C953.934 501.339 952.784 501.389 952.184 501.489L952.084 501.339C952.434 498.689 952.534 496.089 952.534 492.339V489.589C952.534 485.839 952.434 482.089 952.084 479.889L952.184 479.739C953.284 479.889 955.084 479.839 956.234 479.589C956.434 479.589 956.534 479.739 956.534 480.089V484.639ZM982.457 471.489C982.457 470.139 983.657 468.939 985.007 468.939C986.357 468.939 987.557 470.139 987.557 471.489C987.557 472.839 986.357 474.039 985.007 474.039C983.657 474.039 982.457 472.839 982.457 471.489ZM982.957 489.589C982.957 485.839 982.807 482.039 982.507 479.889L982.607 479.739C983.657 479.839 985.807 479.839 986.957 479.689C987.307 479.689 987.407 479.739 987.407 480.189C987.057 483.239 986.957 485.039 986.957 488.789V492.339C986.957 496.139 987.007 498.539 987.407 501.339L987.307 501.489C986.707 501.389 985.557 501.339 984.957 501.339C984.357 501.339 983.207 501.389 982.607 501.489L982.507 501.339C982.857 498.639 982.957 496.089 982.957 492.339V489.589ZM1014.45 492.339C1014.45 496.139 1014.5 498.489 1014.9 501.339L1014.8 501.489C1014.2 501.389 1013.05 501.339 1012.45 501.339C1011.85 501.339 1010.7 501.389 1010.1 501.489L1010 501.339C1010.35 498.689 1010.45 496.089 1010.45 492.339V487.439C1010.45 483.389 1009.4 482.389 1006.85 482.389C1005.05 482.389 1002.15 483.489 999.595 486.489V492.339C999.595 496.139 999.645 498.489 1000.05 501.339L999.945 501.489C999.345 501.389 998.195 501.339 997.595 501.339C996.995 501.339 995.845 501.389 995.245 501.489L995.145 501.339C995.545 498.639 995.595 496.089 995.595 492.339V489.589C995.595 485.839 995.495 482.089 995.145 479.889L995.245 479.739C996.345 479.889 998.145 479.839 999.295 479.589C999.495 479.589 999.545 479.739 999.595 480.089V483.739L999.695 483.889C1002.9 480.139 1006.45 479.389 1008.35 479.389C1012.85 479.389 1014.55 482.089 1014.55 487.289C1014.55 488.889 1014.45 490.739 1014.45 492.339ZM1022.9 471.489C1022.9 470.139 1024.1 468.939 1025.45 468.939C1026.8 468.939 1028 470.139 1028 471.489C1028 472.839 1026.8 474.039 1025.45 474.039C1024.1 474.039 1022.9 472.839 1022.9 471.489ZM1027.5 488.789V495.339C1027.5 502.839 1026.8 505.689 1025.3 508.089C1023.9 510.289 1021.7 512.139 1018.55 512.139C1017.6 512.139 1016.8 511.939 1016.4 511.689L1016.35 511.539C1016.55 510.789 1016.55 508.439 1016.55 507.089L1017.35 506.889C1017.9 507.889 1018.9 509.139 1020.35 509.139C1023.15 509.139 1023.5 503.389 1023.5 496.539V489.589C1023.5 485.839 1023.35 482.039 1023.05 479.889L1023.15 479.739C1024.2 479.839 1026.35 479.839 1027.5 479.689C1027.85 479.689 1027.95 479.739 1027.95 480.189C1027.6 483.239 1027.5 485.039 1027.5 488.789ZM1038.27 487.689H1047.47C1047.97 487.689 1048.17 487.439 1048.17 486.989C1048.17 483.239 1045.92 481.389 1043.97 481.389C1042.37 481.389 1039.12 482.489 1038.27 487.689ZM1051.62 496.139L1052.62 497.389C1050.72 499.989 1047.52 501.839 1043.92 501.839C1040.52 501.839 1037.67 500.639 1035.97 498.539C1034.27 496.539 1033.72 493.739 1033.72 490.889C1033.72 483.539 1038.82 479.389 1043.97 479.389C1050.57 479.389 1052.62 484.639 1052.62 488.839C1052.62 489.389 1052.27 489.689 1051.72 489.689H1038.12C1038.12 492.639 1038.42 494.639 1039.32 496.039C1040.67 498.239 1043.02 498.889 1044.77 498.889C1047.52 498.889 1049.87 498.039 1051.62 496.139ZM1067.52 481.389C1064.22 481.389 1061.32 484.689 1061.32 490.189C1061.32 496.039 1064.17 499.339 1067.82 499.339C1069.67 499.339 1071.27 498.939 1073.17 497.239H1073.37L1074.32 498.289C1072.32 500.839 1069.97 501.839 1066.97 501.839C1060.87 501.839 1056.92 497.439 1056.92 490.439C1056.92 483.639 1062.37 479.389 1067.57 479.389C1070.07 479.389 1072.67 479.989 1074.22 480.789L1074.32 480.939L1073.17 485.039L1072.52 485.089C1071.17 482.839 1069.42 481.389 1067.52 481.389ZM1081.21 479.889C1081.21 476.989 1081.31 475.239 1081.41 473.489L1081.51 473.339C1083.11 473.139 1083.71 472.589 1085.01 472.089C1085.31 472.089 1085.46 472.239 1085.46 472.589C1085.21 475.489 1085.21 476.189 1085.21 479.889H1087.56C1088.71 479.889 1090.16 479.839 1091.06 479.789L1091.31 480.139C1091.01 480.889 1090.86 481.389 1090.71 482.189C1090.01 482.139 1088.31 482.089 1087.11 482.089H1085.21V488.389C1085.21 491.389 1085.06 493.539 1085.06 495.039C1085.06 497.789 1085.51 498.989 1086.71 499.139C1087.96 499.339 1089.11 499.289 1090.61 498.789L1091.26 499.989C1089.16 501.339 1087.56 501.839 1085.46 501.839C1083.16 501.839 1081.06 500.289 1081.06 497.039C1081.06 495.539 1081.21 491.939 1081.21 488.939V482.089C1080.06 482.139 1078.51 482.139 1077.66 482.189L1077.41 481.839C1077.86 481.089 1078.16 480.639 1078.51 479.789C1079.11 479.889 1080.16 479.889 1081.21 479.889ZM1097.45 471.489C1097.45 470.139 1098.65 468.939 1100 468.939C1101.35 468.939 1102.55 470.139 1102.55 471.489C1102.55 472.839 1101.35 474.039 1100 474.039C1098.65 474.039 1097.45 472.839 1097.45 471.489ZM1097.95 489.589C1097.95 485.839 1097.8 482.039 1097.5 479.889L1097.6 479.739C1098.65 479.839 1100.8 479.839 1101.95 479.689C1102.3 479.689 1102.4 479.739 1102.4 480.189C1102.05 483.239 1101.95 485.039 1101.95 488.789V492.339C1101.95 496.139 1102 498.539 1102.4 501.339L1102.3 501.489C1101.7 501.389 1100.55 501.339 1099.95 501.339C1099.35 501.339 1098.2 501.389 1097.6 501.489L1097.5 501.339C1097.85 498.639 1097.95 496.089 1097.95 492.339V489.589ZM1116.54 501.489C1113.74 494.189 1110.79 487.089 1107.44 479.739C1108.24 479.889 1109.54 479.889 1110.34 479.889C1111.04 479.889 1112.19 479.889 1112.84 479.739C1114.64 485.489 1116.24 491.139 1118.74 496.839H1118.84C1121.14 491.939 1122.89 485.439 1124.94 479.739C1125.39 479.889 1126.14 479.889 1126.64 479.889C1127.14 479.889 1128.09 479.889 1128.54 479.739C1125.29 487.089 1122.19 494.189 1119.59 501.489C1119.14 501.339 1118.59 501.339 1118.09 501.339C1117.59 501.339 1117.04 501.339 1116.54 501.489ZM1135.39 487.689H1144.59C1145.09 487.689 1145.29 487.439 1145.29 486.989C1145.29 483.239 1143.04 481.389 1141.09 481.389C1139.49 481.389 1136.24 482.489 1135.39 487.689ZM1148.74 496.139L1149.74 497.389C1147.84 499.989 1144.64 501.839 1141.04 501.839C1137.64 501.839 1134.79 500.639 1133.09 498.539C1131.39 496.539 1130.84 493.739 1130.84 490.889C1130.84 483.539 1135.94 479.389 1141.09 479.389C1147.69 479.389 1149.74 484.639 1149.74 488.839C1149.74 489.389 1149.39 489.689 1148.84 489.689H1135.24C1135.24 492.639 1135.54 494.639 1136.44 496.039C1137.79 498.239 1140.14 498.889 1141.89 498.889C1144.64 498.889 1146.99 498.039 1148.74 496.139ZM1172.4 483.739L1172.55 483.889C1174.9 481.389 1177.85 479.389 1180.95 479.389C1183.75 479.389 1185.8 480.939 1186.25 483.339C1189.1 480.339 1192 479.389 1194.7 479.389C1200.1 479.389 1200.9 482.889 1200.9 487.339V492.339C1200.9 496.139 1200.95 498.489 1201.35 501.339L1201.25 501.489C1200.65 501.389 1199.5 501.339 1198.9 501.339C1198.3 501.339 1197.15 501.389 1196.55 501.489L1196.45 501.339C1196.85 498.639 1196.9 496.089 1196.9 492.339V486.839C1196.9 483.489 1195.6 482.389 1192.9 482.389C1190.95 482.389 1188.95 482.739 1186.55 485.389C1186.6 485.989 1186.6 486.589 1186.6 487.289V492.339C1186.6 496.139 1186.65 498.489 1187.05 501.339L1186.95 501.489C1186.35 501.389 1185.2 501.339 1184.6 501.339C1184 501.339 1182.85 501.389 1182.25 501.489L1182.15 501.339C1182.55 498.639 1182.6 496.089 1182.6 492.339V486.839C1182.6 483.489 1181.2 482.389 1179.3 482.389C1177.55 482.389 1174.75 483.889 1172.4 486.289V492.339C1172.4 496.139 1172.45 498.489 1172.85 501.339L1172.75 501.489C1172.15 501.389 1171 501.339 1170.4 501.339C1169.8 501.339 1168.65 501.389 1168.05 501.489L1167.95 501.339C1168.35 498.639 1168.4 496.089 1168.4 492.339V489.589C1168.4 485.839 1168.3 482.089 1167.95 479.889L1168.05 479.739C1169.15 479.889 1170.95 479.839 1172.1 479.589C1172.3 479.589 1172.4 479.739 1172.4 480.089V483.739ZM1220.13 490.089L1215.88 491.239C1211.98 492.289 1210.93 493.989 1210.93 496.239C1210.93 497.789 1212.38 499.289 1214.63 499.289C1216.13 499.289 1217.83 498.389 1219.23 497.339C1219.63 497.039 1219.93 496.689 1219.93 496.039L1220.13 490.089ZM1220.13 498.939H1219.93C1217.28 501.189 1215.88 501.839 1213.13 501.839C1209.43 501.839 1206.88 500.139 1206.88 496.439C1206.88 493.039 1210.08 490.339 1215.18 489.189L1219.83 488.139C1219.98 488.089 1220.18 487.889 1220.18 487.539C1220.18 481.889 1217.18 481.639 1215.38 481.639C1212.98 481.639 1211.28 483.639 1209.88 485.889L1209.23 485.839L1208.38 482.489L1208.53 482.289C1209.78 481.239 1212.08 479.389 1215.88 479.389C1219.68 479.389 1224.13 480.739 1224.13 487.489C1224.13 488.039 1223.98 493.589 1223.98 495.039C1223.98 497.289 1224.28 498.489 1224.78 498.939C1225.13 499.239 1225.78 499.339 1226.28 499.339C1226.63 499.339 1227.08 499.289 1227.63 499.089L1227.98 500.289C1226.83 501.539 1225.28 501.839 1224.03 501.839C1222.18 501.839 1220.68 500.939 1220.13 498.939ZM1236.8 486.639V497.589C1238.55 499.639 1240.65 499.839 1241.45 499.839C1246.8 499.839 1247.95 494.539 1247.95 490.439C1247.95 484.789 1246.2 481.689 1242.8 481.689C1240.85 481.689 1237.9 483.989 1236.8 486.639ZM1236.8 483.739L1236.9 483.889C1239.2 480.389 1241.7 479.389 1243.65 479.389C1249.25 479.389 1252.35 484.489 1252.35 489.789C1252.35 496.839 1248.35 501.839 1241.75 501.839C1239.95 501.839 1238.1 501.439 1236.8 500.739V502.939C1236.8 506.739 1236.85 510.089 1237.25 512.939L1237.15 513.089C1236.55 512.989 1235.4 512.939 1234.8 512.939C1234.2 512.939 1233.05 512.989 1232.45 513.089L1232.35 512.939C1232.7 510.289 1232.8 506.689 1232.8 502.939V489.589C1232.8 485.839 1232.7 482.089 1232.35 479.889L1232.45 479.739C1233.55 479.889 1235.35 479.839 1236.5 479.589C1236.7 479.589 1236.8 479.739 1236.8 480.089V483.739ZM1257.37 496.289L1258.12 496.239C1259.52 498.189 1261.62 499.839 1264.02 499.839C1266.67 499.839 1268.62 498.339 1268.62 495.689C1268.62 493.239 1266.47 492.439 1263.57 491.639C1260.52 490.839 1257.57 489.489 1257.57 485.489C1257.57 481.339 1261.42 479.389 1265.12 479.389C1267.67 479.389 1270.42 480.139 1271.87 480.889L1271.97 481.039L1270.97 484.739L1270.27 484.789C1269.12 483.439 1267.52 481.389 1264.92 481.389C1262.77 481.389 1261.12 482.489 1261.12 484.539C1261.12 487.039 1263.87 487.989 1265.77 488.439C1269.32 489.289 1272.57 490.889 1272.57 494.989C1272.57 497.739 1270.97 501.839 1264.07 501.839C1262.17 501.839 1259.37 501.489 1256.52 500.489L1257.37 496.289Z" fill="black"/>
</g>
</svg>
