<svg width="1921" height="1081" viewBox="0 0 1921 1081" fill="none" xmlns="http://www.w3.org/2000/svg">
<g id="operations">
<rect width="1920" height="1080" transform="translate(0.503906 0.904053)" fill="white"/>
<path id="Operations: append, search, insert, remove." d="M30.1512 15.8021C25.3512 15.8021 21.6012 19.1021 21.6012 29.6021C21.6012 39.2021 25.8512 43.7021 31.8512 43.7021C37.5512 43.7021 40.2512 39.4021 40.2512 30.4521C40.2512 20.0521 37.2012 15.8021 30.1512 15.8021ZM48.3012 29.5021C48.3012 39.5021 41.5512 46.4521 30.8512 46.4521C20.9512 46.4521 13.5512 39.8521 13.5512 30.4521C13.5512 20.6521 20.6512 13.0521 30.8012 13.0521C41.4512 13.0521 48.3012 19.6021 48.3012 29.5021ZM61.4926 31.8521V42.1521C63.3426 43.7021 64.6926 43.9521 65.9426 43.9521C68.7426 43.9521 70.9426 40.9021 70.9426 35.5521C70.9426 30.7521 70.1426 27.5021 67.0926 27.5021C65.3926 27.5021 62.5926 29.2021 61.4926 31.8521ZM61.6926 28.0521C64.1426 24.7021 67.2926 24.0021 69.4426 24.0021C71.5926 24.0021 73.3426 24.6521 74.4926 25.6521C76.8926 27.7021 78.0426 30.5021 78.0426 34.2021C78.0426 41.2521 73.1426 46.4521 66.8426 46.4521C64.9926 46.4521 63.1426 46.1021 61.4926 45.0521V47.5521C61.4926 51.3021 61.5426 54.7021 61.9926 57.5521L61.8926 57.7021C61.8926 57.7021 59.8426 57.5521 58.1426 57.5521C56.3926 57.5521 54.4426 57.7021 54.4426 57.7021L54.3926 57.5521C54.7926 54.9021 54.8926 51.3021 54.8926 47.5521V34.2021C54.8926 30.5021 54.6926 26.6521 54.3426 24.5021L54.4426 24.3521C56.1926 24.4521 59.4426 24.4521 60.8926 24.2021C61.1926 24.2021 61.2426 24.4021 61.3426 24.7021C61.3926 25.1521 61.4426 26.8021 61.4426 27.9021L61.6926 28.0521ZM89.1324 33.2021H96.9324C96.9324 28.8521 95.6824 26.5021 93.6824 26.5021C92.2324 26.5021 91.2824 27.1521 90.6324 28.0021C89.8824 29.0521 89.2824 30.7521 89.1324 33.2021ZM102.882 40.6021C103.382 40.6021 103.682 41.5021 103.682 42.1521C100.932 45.3021 97.3824 46.4521 93.7824 46.4521C90.0324 46.4521 87.0824 45.6521 85.3824 43.8521C83.2824 41.7521 82.2324 38.6021 82.2324 35.6521C82.2324 31.5521 83.8824 28.5021 86.2824 26.5021C88.2824 24.9021 91.2824 24.0021 94.0324 24.0021C101.732 24.0021 103.482 29.0021 103.482 35.2521L103.182 35.5521C103.182 35.5521 98.8824 35.4521 93.8824 35.4521H88.9324C88.9324 37.7521 89.4824 39.5021 90.5824 40.7021C91.7824 42.0021 93.5824 42.6521 96.0324 42.6521C98.1324 42.6521 100.532 42.5021 102.882 40.6021ZM117.123 28.5021C118.423 26.5521 120.823 24.0021 123.173 24.0021C124.073 24.0021 124.873 24.1021 125.723 24.3521L125.923 24.5521L124.923 29.7021L124.023 29.8021C123.123 29.1021 122.073 28.8521 121.123 28.8521C120.323 28.8521 116.923 29.4521 116.923 33.3021V36.9521C116.923 40.7521 117.023 43.1021 117.423 45.9521L117.323 46.1021C117.323 46.1021 114.923 45.9521 113.223 45.9521C111.473 45.9521 109.873 46.1021 109.873 46.1021L109.823 45.9521C110.223 43.2521 110.323 40.7021 110.323 36.9521V34.2021C110.323 30.5021 110.123 26.6521 109.773 24.5021L109.873 24.3521C111.623 24.4521 114.873 24.4521 116.323 24.2021C116.623 24.2021 116.673 24.4021 116.773 24.7021C116.823 25.1521 116.873 27.2521 116.873 28.3521L117.123 28.5021ZM142.468 34.8521L138.468 35.9021C135.918 36.6021 135.318 38.8021 135.318 40.6021C135.318 41.9521 136.418 43.4521 137.918 43.4521C139.318 43.4521 140.468 42.9021 141.618 41.7521C141.968 41.4021 142.368 40.1521 142.368 39.5021L142.468 34.8521ZM148.768 41.9521C148.768 43.6021 149.818 43.7521 151.818 43.7521C152.118 44.0021 152.218 44.4021 152.318 44.8021C150.818 45.9521 148.318 46.4521 146.368 46.4521C144.218 46.4521 143.118 45.6021 142.418 43.5521H142.318C140.068 45.8021 137.418 46.4521 135.468 46.4521C131.968 46.4521 128.618 44.5021 128.618 41.0521C128.618 37.6521 131.518 35.1021 136.318 33.9521L142.168 32.4021C142.318 32.3521 142.468 32.1521 142.468 31.8021C142.468 27.9521 141.218 26.7021 139.018 26.7021C136.768 26.7021 134.568 28.1521 132.868 30.6521L131.218 30.6021L130.218 26.8521L130.368 26.6521C131.568 25.6021 136.368 24.0021 139.968 24.0021C142.368 24.0021 145.368 24.6021 146.968 26.0021C148.318 27.2521 148.968 29.1021 148.968 32.1021C148.968 32.6521 148.768 40.5021 148.768 41.9521ZM157.199 24.5021C157.199 22.5521 157.199 20.8021 157.399 19.4521L157.499 19.3021C159.499 18.8521 162.199 17.5521 163.449 17.0521C163.749 17.0521 163.899 17.2021 163.899 17.5521C163.649 20.2021 163.649 21.7021 163.649 24.5021H165.999C167.149 24.5021 168.549 24.4521 169.499 24.3521L169.749 24.7521C169.449 25.5021 169.199 26.3521 169.149 27.1021C168.449 27.0521 166.749 27.0021 165.549 27.0021H163.649L163.549 32.3521C163.449 35.3521 163.499 37.9021 163.499 39.4021C163.499 41.4521 163.999 43.4021 165.349 43.4021C166.649 43.4021 167.149 43.3521 168.249 42.8021C168.799 43.1521 169.099 43.9021 169.099 44.7021C166.949 46.0021 164.349 46.4521 161.749 46.4521C158.549 46.4521 156.899 43.9021 156.899 41.5521C156.899 40.0521 156.949 35.9021 157.049 32.9021L157.199 27.0021C156.049 27.0521 154.499 27.0521 153.649 27.1021L153.399 26.7521C153.849 26.0021 154.199 25.2021 154.499 24.3521C155.099 24.4521 156.149 24.5021 157.199 24.5021ZM174.625 15.6021C174.625 13.7021 176.175 12.1521 178.175 12.1521C180.175 12.1521 181.725 13.7021 181.725 15.6021C181.725 17.5021 180.175 19.0521 178.175 19.0521C176.175 19.0521 174.625 17.5021 174.625 15.6021ZM174.875 34.2021C174.875 30.4521 174.775 26.7021 174.375 24.5521L174.525 24.3521C175.375 24.4521 176.775 24.5021 178.075 24.5021C179.475 24.5021 180.825 24.3521 181.525 24.2521C181.825 24.2521 181.975 24.4021 181.975 24.7521C181.625 27.7521 181.475 29.9021 181.475 33.6521V36.9521C181.475 40.7521 181.575 43.1021 181.975 45.9521L181.875 46.1021C180.925 46.0021 179.875 45.9521 178.175 45.9521C176.425 45.9521 175.475 46.0021 174.475 46.1021L174.375 45.9521C174.775 43.2521 174.875 40.7021 174.875 36.9521V34.2021ZM188.001 35.7021C188.001 27.9521 193.051 24.0021 200.201 24.0021C208.651 24.0021 212.201 28.9521 212.201 35.2521C212.201 42.2021 207.751 46.4521 200.101 46.4521C192.651 46.4521 188.001 42.3521 188.001 35.7021ZM199.851 26.5021C195.551 26.5021 195.101 30.2021 195.101 34.5521C195.101 38.4021 195.601 43.9521 200.801 43.9521C203.051 43.9521 205.101 42.3521 205.101 36.6021C205.101 29.6521 204.101 26.5021 199.851 26.5021ZM239.871 36.9521C239.871 40.7521 239.971 43.1021 240.421 45.9521L240.321 46.1021C240.321 46.1021 238.121 45.9521 236.421 45.9521C234.671 45.9521 233.071 46.1021 233.071 46.1021L232.971 45.9521C233.271 43.3021 233.271 40.7021 233.271 36.9521V32.5021C233.271 28.8521 232.021 27.8521 230.671 27.8521C228.871 27.8521 226.771 29.3521 224.871 31.8521V36.9521C224.871 40.7521 224.921 43.1021 225.171 45.9521L225.021 46.1021C225.021 46.1021 223.621 45.9521 221.921 45.9521C220.171 45.9521 217.821 46.1021 217.821 46.1021L217.721 45.9521C218.121 43.3021 218.271 40.7021 218.271 36.9521V34.2021C218.271 30.5021 218.071 26.6521 217.721 24.5021L217.821 24.3521C219.571 24.4521 222.821 24.4521 224.271 24.2021C224.571 24.2021 224.621 24.4021 224.721 24.7021C224.771 25.1521 224.821 27.2521 224.821 28.3521L225.071 28.5021C227.371 25.5521 230.371 24.0021 232.921 24.0021C237.421 24.0021 239.871 26.1521 239.871 31.4021V36.9521ZM246.952 40.3021L248.452 40.2521C249.952 43.1521 252.002 44.2521 253.802 44.2521C255.702 44.2521 257.252 44.1521 257.252 41.8021C257.252 39.8021 256.152 38.9021 252.502 36.9021C249.652 35.3521 247.202 33.5521 247.202 30.0521C247.202 26.2021 251.152 24.0021 255.652 24.0021C258.052 24.0021 260.952 24.5521 262.302 25.3021L262.402 25.4521L261.452 29.9521L260.102 30.0021C259.452 28.6021 258.002 26.2521 255.552 26.2521C253.602 26.2521 253.102 27.3021 253.102 28.7021C253.102 30.3021 254.452 31.2021 256.102 32.0521C259.652 33.9521 263.202 35.3521 263.202 39.8521C263.202 43.3021 260.452 46.4521 253.952 46.4521C252.152 46.4521 248.852 46.1021 246.152 45.1021L246.952 40.3021ZM268.249 28.0021V27.7521C268.899 26.1021 269.799 25.1021 271.699 24.3521H271.899C273.749 25.0021 274.699 25.9521 275.349 27.7521V28.0021C274.649 30.0521 273.699 30.9521 271.899 31.4021H271.699C269.649 30.9521 268.799 30.1021 268.249 28.0021ZM268.249 42.5521V42.3021C268.899 40.6521 269.799 39.6521 271.699 38.9021H271.899C273.749 39.5521 274.699 40.5021 275.349 42.3021V42.5521C274.649 44.6021 273.699 45.5021 271.899 45.9521H271.699C269.649 45.5021 268.799 44.6521 268.249 42.5521ZM305.896 34.8521L301.896 35.9021C299.346 36.6021 298.746 38.8021 298.746 40.6021C298.746 41.9521 299.846 43.4521 301.346 43.4521C302.746 43.4521 303.896 42.9021 305.046 41.7521C305.396 41.4021 305.796 40.1521 305.796 39.5021L305.896 34.8521ZM312.196 41.9521C312.196 43.6021 313.246 43.7521 315.246 43.7521C315.546 44.0021 315.646 44.4021 315.746 44.8021C314.246 45.9521 311.746 46.4521 309.796 46.4521C307.646 46.4521 306.546 45.6021 305.846 43.5521H305.746C303.496 45.8021 300.846 46.4521 298.896 46.4521C295.396 46.4521 292.046 44.5021 292.046 41.0521C292.046 37.6521 294.946 35.1021 299.746 33.9521L305.596 32.4021C305.746 32.3521 305.896 32.1521 305.896 31.8021C305.896 27.9521 304.646 26.7021 302.446 26.7021C300.196 26.7021 297.996 28.1521 296.296 30.6521L294.646 30.6021L293.646 26.8521L293.796 26.6521C294.996 25.6021 299.796 24.0021 303.396 24.0021C305.796 24.0021 308.796 24.6021 310.396 26.0021C311.746 27.2521 312.396 29.1021 312.396 32.1021C312.396 32.6521 312.196 40.5021 312.196 41.9521ZM326.727 31.8521V42.1521C328.577 43.7021 329.927 43.9521 331.177 43.9521C333.977 43.9521 336.177 40.9021 336.177 35.5521C336.177 30.7521 335.377 27.5021 332.327 27.5021C330.627 27.5021 327.827 29.2021 326.727 31.8521ZM326.927 28.0521C329.377 24.7021 332.527 24.0021 334.677 24.0021C336.827 24.0021 338.577 24.6521 339.727 25.6521C342.127 27.7021 343.277 30.5021 343.277 34.2021C343.277 41.2521 338.377 46.4521 332.077 46.4521C330.227 46.4521 328.377 46.1021 326.727 45.0521V47.5521C326.727 51.3021 326.777 54.7021 327.227 57.5521L327.127 57.7021C327.127 57.7021 325.077 57.5521 323.377 57.5521C321.627 57.5521 319.677 57.7021 319.677 57.7021L319.627 57.5521C320.027 54.9021 320.127 51.3021 320.127 47.5521V34.2021C320.127 30.5021 319.927 26.6521 319.577 24.5021L319.677 24.3521C321.427 24.4521 324.677 24.4521 326.127 24.2021C326.427 24.2021 326.477 24.4021 326.577 24.7021C326.627 25.1521 326.677 26.8021 326.677 27.9021L326.927 28.0521ZM355.975 31.8521V42.1521C357.825 43.7021 359.175 43.9521 360.425 43.9521C363.225 43.9521 365.425 40.9021 365.425 35.5521C365.425 30.7521 364.625 27.5021 361.575 27.5021C359.875 27.5021 357.075 29.2021 355.975 31.8521ZM356.175 28.0521C358.625 24.7021 361.775 24.0021 363.925 24.0021C366.075 24.0021 367.825 24.6521 368.975 25.6521C371.375 27.7021 372.525 30.5021 372.525 34.2021C372.525 41.2521 367.625 46.4521 361.325 46.4521C359.475 46.4521 357.625 46.1021 355.975 45.0521V47.5521C355.975 51.3021 356.025 54.7021 356.475 57.5521L356.375 57.7021C356.375 57.7021 354.325 57.5521 352.625 57.5521C350.875 57.5521 348.925 57.7021 348.925 57.7021L348.875 57.5521C349.275 54.9021 349.375 51.3021 349.375 47.5521V34.2021C349.375 30.5021 349.175 26.6521 348.825 24.5021L348.925 24.3521C350.675 24.4521 353.925 24.4521 355.375 24.2021C355.675 24.2021 355.725 24.4021 355.825 24.7021C355.875 25.1521 355.925 26.8021 355.925 27.9021L356.175 28.0521ZM383.615 33.2021H391.415C391.415 28.8521 390.165 26.5021 388.165 26.5021C386.715 26.5021 385.765 27.1521 385.115 28.0021C384.365 29.0521 383.765 30.7521 383.615 33.2021ZM397.365 40.6021C397.865 40.6021 398.165 41.5021 398.165 42.1521C395.415 45.3021 391.865 46.4521 388.265 46.4521C384.515 46.4521 381.565 45.6521 379.865 43.8521C377.765 41.7521 376.715 38.6021 376.715 35.6521C376.715 31.5521 378.365 28.5021 380.765 26.5021C382.765 24.9021 385.765 24.0021 388.515 24.0021C396.215 24.0021 397.965 29.0021 397.965 35.2521L397.665 35.5521C397.665 35.5521 393.365 35.4521 388.365 35.4521H383.415C383.415 37.7521 383.965 39.5021 385.065 40.7021C386.265 42.0021 388.065 42.6521 390.515 42.6521C392.615 42.6521 395.015 42.5021 397.365 40.6021ZM425.955 36.9521C425.955 40.7521 426.055 43.1021 426.505 45.9521L426.405 46.1021C426.405 46.1021 424.205 45.9521 422.505 45.9521C420.755 45.9521 419.155 46.1021 419.155 46.1021L419.055 45.9521C419.355 43.3021 419.355 40.7021 419.355 36.9521V32.5021C419.355 28.8521 418.105 27.8521 416.755 27.8521C414.955 27.8521 412.855 29.3521 410.955 31.8521V36.9521C410.955 40.7521 411.005 43.1021 411.255 45.9521L411.105 46.1021C411.105 46.1021 409.705 45.9521 408.005 45.9521C406.255 45.9521 403.905 46.1021 403.905 46.1021L403.805 45.9521C404.205 43.3021 404.355 40.7021 404.355 36.9521V34.2021C404.355 30.5021 404.155 26.6521 403.805 24.5021L403.905 24.3521C405.655 24.4521 408.905 24.4521 410.355 24.2021C410.655 24.2021 410.705 24.4021 410.805 24.7021C410.855 25.1521 410.905 27.2521 410.905 28.3521L411.155 28.5021C413.455 25.5521 416.455 24.0021 419.005 24.0021C423.505 24.0021 425.955 26.1521 425.955 31.4021V36.9521ZM448.986 39.3021V30.8021C448.436 28.2521 446.586 26.5021 444.236 26.5021C441.786 26.5021 439.636 28.1521 439.636 34.9021C439.636 41.1521 441.436 43.5521 444.136 43.5521C446.136 43.5521 447.736 42.5021 448.986 39.3021ZM448.986 43.2521C447.636 45.6021 444.986 46.4521 441.836 46.4521C436.286 46.4521 432.536 41.9521 432.536 35.8021C432.536 32.2521 433.736 28.6021 436.836 26.3521C439.086 24.7021 440.936 24.0021 444.286 24.0021C445.686 24.0021 448.036 24.9021 448.986 26.2521V22.2521C448.986 18.4521 448.736 15.0021 448.386 12.8521L448.486 12.7021C450.486 12.5521 454.336 11.5521 455.636 11.0521C455.936 11.0521 456.186 11.2021 456.186 11.5521C455.786 14.6521 455.586 17.2521 455.586 20.9521V36.3521C455.586 40.1021 456.136 43.8021 456.536 45.9521L456.436 46.1021C455.786 46.0021 453.586 45.9521 452.936 45.9521C452.236 45.9521 450.436 46.0521 449.786 46.1021C449.486 46.1021 449.336 46.0521 449.336 45.9521L449.086 43.2521H448.986ZM462.227 43.0521V42.7521C462.777 41.1021 463.727 40.1021 465.627 39.3521H465.927C468.177 40.1521 469.927 41.8521 469.927 45.9521C469.927 50.4021 466.127 53.8021 462.327 54.5021C461.927 54.1521 461.877 53.0521 462.077 52.4021C465.377 51.5021 466.927 48.9521 466.927 47.6521C466.927 46.1021 466.427 45.9521 465.627 45.9521C463.627 45.5521 462.727 45.1521 462.227 43.0521ZM487.382 40.3021L488.882 40.2521C490.382 43.1521 492.432 44.2521 494.232 44.2521C496.132 44.2521 497.682 44.1521 497.682 41.8021C497.682 39.8021 496.582 38.9021 492.932 36.9021C490.082 35.3521 487.632 33.5521 487.632 30.0521C487.632 26.2021 491.582 24.0021 496.082 24.0021C498.482 24.0021 501.382 24.5521 502.732 25.3021L502.832 25.4521L501.882 29.9521L500.532 30.0021C499.882 28.6021 498.432 26.2521 495.982 26.2521C494.032 26.2521 493.532 27.3021 493.532 28.7021C493.532 30.3021 494.882 31.2021 496.532 32.0521C500.082 33.9521 503.632 35.3521 503.632 39.8521C503.632 43.3021 500.882 46.4521 494.382 46.4521C492.582 46.4521 489.282 46.1021 486.582 45.1021L487.382 40.3021ZM514.279 33.2021H522.079C522.079 28.8521 520.829 26.5021 518.829 26.5021C517.379 26.5021 516.429 27.1521 515.779 28.0021C515.029 29.0521 514.429 30.7521 514.279 33.2021ZM528.029 40.6021C528.529 40.6021 528.829 41.5021 528.829 42.1521C526.079 45.3021 522.529 46.4521 518.929 46.4521C515.179 46.4521 512.229 45.6521 510.529 43.8521C508.429 41.7521 507.379 38.6021 507.379 35.6521C507.379 31.5521 509.029 28.5021 511.429 26.5021C513.429 24.9021 516.429 24.0021 519.179 24.0021C526.879 24.0021 528.629 29.0021 528.629 35.2521L528.329 35.5521C528.329 35.5521 524.029 35.4521 519.029 35.4521H514.079C514.079 37.7521 514.629 39.5021 515.729 40.7021C516.929 42.0021 518.729 42.6521 521.179 42.6521C523.279 42.6521 525.679 42.5021 528.029 40.6021ZM546.57 34.8521L542.57 35.9021C540.02 36.6021 539.42 38.8021 539.42 40.6021C539.42 41.9521 540.52 43.4521 542.02 43.4521C543.42 43.4521 544.57 42.9021 545.72 41.7521C546.07 41.4021 546.47 40.1521 546.47 39.5021L546.57 34.8521ZM552.87 41.9521C552.87 43.6021 553.92 43.7521 555.92 43.7521C556.22 44.0021 556.32 44.4021 556.42 44.8021C554.92 45.9521 552.42 46.4521 550.47 46.4521C548.32 46.4521 547.22 45.6021 546.52 43.5521H546.42C544.17 45.8021 541.52 46.4521 539.57 46.4521C536.07 46.4521 532.72 44.5021 532.72 41.0521C532.72 37.6521 535.62 35.1021 540.42 33.9521L546.27 32.4021C546.42 32.3521 546.57 32.1521 546.57 31.8021C546.57 27.9521 545.32 26.7021 543.12 26.7021C540.87 26.7021 538.67 28.1521 536.97 30.6521L535.32 30.6021L534.32 26.8521L534.47 26.6521C535.67 25.6021 540.47 24.0021 544.07 24.0021C546.47 24.0021 549.47 24.6021 551.07 26.0021C552.42 27.2521 553.07 29.1021 553.07 32.1021C553.07 32.6521 552.87 40.5021 552.87 41.9521ZM568.051 28.5021C569.351 26.5521 571.751 24.0021 574.101 24.0021C575.001 24.0021 575.801 24.1021 576.651 24.3521L576.851 24.5521L575.851 29.7021L574.951 29.8021C574.051 29.1021 573.001 28.8521 572.051 28.8521C571.251 28.8521 567.851 29.4521 567.851 33.3021V36.9521C567.851 40.7521 567.951 43.1021 568.351 45.9521L568.251 46.1021C568.251 46.1021 565.851 45.9521 564.151 45.9521C562.401 45.9521 560.801 46.1021 560.801 46.1021L560.751 45.9521C561.151 43.2521 561.251 40.7021 561.251 36.9521V34.2021C561.251 30.5021 561.051 26.6521 560.701 24.5021L560.801 24.3521C562.551 24.4521 565.801 24.4521 567.251 24.2021C567.551 24.2021 567.601 24.4021 567.701 24.7021C567.751 25.1521 567.801 27.2521 567.801 28.3521L568.051 28.5021ZM592.305 26.5021C590.505 26.5021 588.805 27.3521 587.855 28.9021C587.005 30.3021 586.655 32.2021 586.655 34.5521C586.655 37.4521 587.255 39.8021 588.155 41.2521C589.055 42.7021 591.055 43.9521 592.505 43.9521C594.505 43.9521 596.955 43.2521 598.355 41.5521L599.155 41.8021C599.155 42.6021 599.255 43.3021 599.405 43.7521C597.155 45.6521 594.955 46.4521 591.155 46.4521C587.355 46.4521 584.005 45.2021 582.255 43.2521C580.555 41.4521 579.555 39.0021 579.555 35.8521C579.555 28.0021 585.155 24.0021 591.855 24.0021C594.355 24.0021 597.755 24.8521 599.305 25.6521L599.405 25.8021L598.205 30.6521L596.805 30.7021C595.705 27.9521 594.205 26.5021 592.305 26.5021ZM605.339 22.2521C605.339 18.4521 605.089 15.0021 604.739 12.8521L604.839 12.7021C606.839 12.5521 610.689 11.5521 611.989 11.0521C612.289 11.0521 612.439 11.2021 612.439 11.5521C612.039 14.6521 611.939 17.2021 611.939 20.9521V24.0521L611.739 28.4021L611.939 28.5021C614.239 25.5521 617.939 24.0021 620.489 24.0021C624.989 24.0021 626.939 26.9021 626.939 31.4021V36.9521C626.939 40.7521 626.989 43.1021 627.439 45.9521L627.339 46.1021C627.339 46.1021 625.989 45.9521 624.289 45.9521C622.539 45.9521 620.089 46.1021 620.089 46.1021L620.039 45.9521C620.339 43.3021 620.339 40.7021 620.339 36.9521V32.5021C620.339 28.8521 619.089 27.8521 617.739 27.8521C615.939 27.8521 613.839 29.3521 611.939 31.8521V36.9521C611.939 40.7521 611.989 43.1021 612.239 45.9521L612.139 46.1021C612.139 46.1021 610.489 45.9521 608.789 45.9521C607.039 45.9521 604.789 46.1021 604.789 46.1021L604.739 45.9521C605.139 43.3021 605.339 40.7021 605.339 36.9521V22.2521ZM633.711 43.0521V42.7521C634.261 41.1021 635.211 40.1021 637.111 39.3521H637.411C639.661 40.1521 641.411 41.8521 641.411 45.9521C641.411 50.4021 637.611 53.8021 633.811 54.5021C633.411 54.1521 633.361 53.0521 633.561 52.4021C636.861 51.5021 638.411 48.9521 638.411 47.6521C638.411 46.1021 637.911 45.9521 637.111 45.9521C635.111 45.5521 634.211 45.1521 633.711 43.0521ZM660.416 15.6021C660.416 13.7021 661.966 12.1521 663.966 12.1521C665.966 12.1521 667.516 13.7021 667.516 15.6021C667.516 17.5021 665.966 19.0521 663.966 19.0521C661.966 19.0521 660.416 17.5021 660.416 15.6021ZM660.666 34.2021C660.666 30.4521 660.566 26.7021 660.166 24.5521L660.316 24.3521C661.166 24.4521 662.566 24.5021 663.866 24.5021C665.266 24.5021 666.616 24.3521 667.316 24.2521C667.616 24.2521 667.766 24.4021 667.766 24.7521C667.416 27.7521 667.266 29.9021 667.266 33.6521V36.9521C667.266 40.7521 667.366 43.1021 667.766 45.9521L667.666 46.1021C666.716 46.0021 665.666 45.9521 663.966 45.9521C662.216 45.9521 661.266 46.0021 660.266 46.1021L660.166 45.9521C660.566 43.2521 660.666 40.7021 660.666 36.9521V34.2021ZM697.342 36.9521C697.342 40.7521 697.442 43.1021 697.892 45.9521L697.792 46.1021C697.792 46.1021 695.592 45.9521 693.892 45.9521C692.142 45.9521 690.542 46.1021 690.542 46.1021L690.442 45.9521C690.742 43.3021 690.742 40.7021 690.742 36.9521V32.5021C690.742 28.8521 689.492 27.8521 688.142 27.8521C686.342 27.8521 684.242 29.3521 682.342 31.8521V36.9521C682.342 40.7521 682.392 43.1021 682.642 45.9521L682.492 46.1021C682.492 46.1021 681.092 45.9521 679.392 45.9521C677.642 45.9521 675.292 46.1021 675.292 46.1021L675.192 45.9521C675.592 43.3021 675.742 40.7021 675.742 36.9521V34.2021C675.742 30.5021 675.542 26.6521 675.192 24.5021L675.292 24.3521C677.042 24.4521 680.292 24.4521 681.742 24.2021C682.042 24.2021 682.092 24.4021 682.192 24.7021C682.242 25.1521 682.292 27.2521 682.292 28.3521L682.542 28.5021C684.842 25.5521 687.842 24.0021 690.392 24.0021C694.892 24.0021 697.342 26.1521 697.342 31.4021V36.9521ZM704.423 40.3021L705.923 40.2521C707.423 43.1521 709.473 44.2521 711.273 44.2521C713.173 44.2521 714.723 44.1521 714.723 41.8021C714.723 39.8021 713.623 38.9021 709.973 36.9021C707.123 35.3521 704.673 33.5521 704.673 30.0521C704.673 26.2021 708.623 24.0021 713.123 24.0021C715.523 24.0021 718.423 24.5521 719.773 25.3021L719.873 25.4521L718.923 29.9521L717.573 30.0021C716.923 28.6021 715.473 26.2521 713.023 26.2521C711.073 26.2521 710.573 27.3021 710.573 28.7021C710.573 30.3021 711.923 31.2021 713.573 32.0521C717.123 33.9521 720.673 35.3521 720.673 39.8521C720.673 43.3021 717.923 46.4521 711.423 46.4521C709.623 46.4521 706.323 46.1021 703.623 45.1021L704.423 40.3021ZM731.32 33.2021H739.12C739.12 28.8521 737.87 26.5021 735.87 26.5021C734.42 26.5021 733.47 27.1521 732.82 28.0021C732.07 29.0521 731.47 30.7521 731.32 33.2021ZM745.07 40.6021C745.57 40.6021 745.87 41.5021 745.87 42.1521C743.12 45.3021 739.57 46.4521 735.97 46.4521C732.22 46.4521 729.27 45.6521 727.57 43.8521C725.47 41.7521 724.42 38.6021 724.42 35.6521C724.42 31.5521 726.07 28.5021 728.47 26.5021C730.47 24.9021 733.47 24.0021 736.22 24.0021C743.92 24.0021 745.67 29.0021 745.67 35.2521L745.37 35.5521C745.37 35.5521 741.07 35.4521 736.07 35.4521H731.12C731.12 37.7521 731.67 39.5021 732.77 40.7021C733.97 42.0021 735.77 42.6521 738.22 42.6521C740.32 42.6521 742.72 42.5021 745.07 40.6021ZM759.311 28.5021C760.611 26.5521 763.011 24.0021 765.361 24.0021C766.261 24.0021 767.061 24.1021 767.911 24.3521L768.111 24.5521L767.111 29.7021L766.211 29.8021C765.311 29.1021 764.261 28.8521 763.311 28.8521C762.511 28.8521 759.111 29.4521 759.111 33.3021V36.9521C759.111 40.7521 759.211 43.1021 759.611 45.9521L759.511 46.1021C759.511 46.1021 757.111 45.9521 755.411 45.9521C753.661 45.9521 752.061 46.1021 752.061 46.1021L752.011 45.9521C752.411 43.2521 752.511 40.7021 752.511 36.9521V34.2021C752.511 30.5021 752.311 26.6521 751.961 24.5021L752.061 24.3521C753.811 24.4521 757.061 24.4521 758.511 24.2021C758.811 24.2021 758.861 24.4021 758.961 24.7021C759.011 25.1521 759.061 27.2521 759.061 28.3521L759.311 28.5021ZM773.605 24.5021C773.605 22.5521 773.605 20.8021 773.805 19.4521L773.905 19.3021C775.905 18.8521 778.605 17.5521 779.855 17.0521C780.155 17.0521 780.305 17.2021 780.305 17.5521C780.055 20.2021 780.055 21.7021 780.055 24.5021H782.405C783.555 24.5021 784.955 24.4521 785.905 24.3521L786.155 24.7521C785.855 25.5021 785.605 26.3521 785.555 27.1021C784.855 27.0521 783.155 27.0021 781.955 27.0021H780.055L779.955 32.3521C779.855 35.3521 779.905 37.9021 779.905 39.4021C779.905 41.4521 780.405 43.4021 781.755 43.4021C783.055 43.4021 783.555 43.3521 784.655 42.8021C785.205 43.1521 785.505 43.9021 785.505 44.7021C783.355 46.0021 780.755 46.4521 778.155 46.4521C774.955 46.4521 773.305 43.9021 773.305 41.5521C773.305 40.0521 773.355 35.9021 773.455 32.9021L773.605 27.0021C772.455 27.0521 770.905 27.0521 770.055 27.1021L769.805 26.7521C770.255 26.0021 770.605 25.2021 770.905 24.3521C771.505 24.4521 772.555 24.5021 773.605 24.5021ZM789.131 43.0521V42.7521C789.681 41.1021 790.631 40.1021 792.531 39.3521H792.831C795.081 40.1521 796.831 41.8521 796.831 45.9521C796.831 50.4021 793.031 53.8021 789.231 54.5021C788.831 54.1521 788.781 53.0521 788.981 52.4021C792.281 51.5021 793.831 48.9521 793.831 47.6521C793.831 46.1021 793.331 45.9521 792.531 45.9521C790.531 45.5521 789.631 45.1521 789.131 43.0521ZM822.836 28.5021C824.136 26.5521 826.536 24.0021 828.886 24.0021C829.786 24.0021 830.586 24.1021 831.436 24.3521L831.636 24.5521L830.636 29.7021L829.736 29.8021C828.836 29.1021 827.786 28.8521 826.836 28.8521C826.036 28.8521 822.636 29.4521 822.636 33.3021V36.9521C822.636 40.7521 822.736 43.1021 823.136 45.9521L823.036 46.1021C823.036 46.1021 820.636 45.9521 818.936 45.9521C817.186 45.9521 815.586 46.1021 815.586 46.1021L815.536 45.9521C815.936 43.2521 816.036 40.7021 816.036 36.9521V34.2021C816.036 30.5021 815.836 26.6521 815.486 24.5021L815.586 24.3521C817.336 24.4521 820.586 24.4521 822.036 24.2021C822.336 24.2021 822.386 24.4021 822.486 24.7021C822.536 25.1521 822.586 27.2521 822.586 28.3521L822.836 28.5021ZM840.89 33.2021H848.69C848.69 28.8521 847.44 26.5021 845.44 26.5021C843.99 26.5021 843.04 27.1521 842.39 28.0021C841.64 29.0521 841.04 30.7521 840.89 33.2021ZM854.64 40.6021C855.14 40.6021 855.44 41.5021 855.44 42.1521C852.69 45.3021 849.14 46.4521 845.54 46.4521C841.79 46.4521 838.84 45.6521 837.14 43.8521C835.04 41.7521 833.99 38.6021 833.99 35.6521C833.99 31.5521 835.64 28.5021 838.04 26.5021C840.04 24.9021 843.04 24.0021 845.79 24.0021C853.49 24.0021 855.24 29.0021 855.24 35.2521L854.94 35.5521C854.94 35.5521 850.64 35.4521 845.64 35.4521H840.69C840.69 37.7521 841.24 39.5021 842.34 40.7021C843.54 42.0021 845.34 42.6521 847.79 42.6521C849.89 42.6521 852.29 42.5021 854.64 40.6021ZM868.431 28.5021C870.331 26.0521 873.431 24.0021 875.881 24.0021C880.331 24.0021 881.731 25.5021 882.731 28.0021C885.581 25.0021 888.181 24.0021 890.681 24.0021C896.081 24.0021 897.831 26.9521 897.831 31.9521V36.9521C897.831 40.7521 898.031 43.1021 898.431 45.9521L898.331 46.1021C898.331 46.1021 896.381 45.9521 894.681 45.9521C892.931 45.9521 890.681 46.1021 890.681 46.1021L890.631 45.9521C891.031 43.2521 891.231 40.7021 891.231 36.9521V32.3021C891.231 28.9521 890.081 27.8521 888.481 27.8521C886.531 27.8521 885.431 28.4021 883.031 31.0521C883.081 31.6521 883.081 31.8521 883.081 32.5521V36.9521C883.081 40.7521 883.281 43.1021 883.681 45.9521L883.581 46.1021C883.581 46.1021 881.631 45.9521 879.931 45.9521C878.181 45.9521 875.931 46.1021 875.931 46.1021L875.881 45.9521C876.281 43.2521 876.481 40.7021 876.481 36.9521V31.9021C876.481 28.5521 875.431 27.8521 873.531 27.8521C872.131 27.8521 870.331 29.3521 868.231 31.9021V36.9521C868.231 40.7521 868.331 43.1021 868.731 45.9521L868.631 46.1021C868.631 46.1021 866.631 45.9521 864.931 45.9521C863.181 45.9521 861.081 46.1021 861.081 46.1021L861.031 45.9521C861.431 43.2521 861.631 40.7021 861.631 36.9521V34.2021C861.631 30.5021 861.431 26.6521 861.081 24.5021L861.181 24.3521C862.931 24.4521 866.181 24.4521 867.631 24.2021C867.931 24.2021 867.981 24.4021 868.081 24.7021C868.131 25.1521 868.181 27.2521 868.181 28.3521L868.431 28.5021ZM904.261 35.7021C904.261 27.9521 909.311 24.0021 916.461 24.0021C924.911 24.0021 928.461 28.9521 928.461 35.2521C928.461 42.2021 924.011 46.4521 916.361 46.4521C908.911 46.4521 904.261 42.3521 904.261 35.7021ZM916.111 26.5021C911.811 26.5021 911.361 30.2021 911.361 34.5521C911.361 38.4021 911.861 43.9521 917.061 43.9521C919.311 43.9521 921.361 42.3521 921.361 36.6021C921.361 29.6521 920.361 26.5021 916.111 26.5021ZM940.889 46.1021C938.089 38.8021 934.739 31.7021 931.189 24.3521C931.989 24.5021 934.739 24.5021 935.539 24.5021C936.239 24.5021 938.589 24.5021 939.239 24.3521C940.689 29.1021 942.889 35.1021 944.889 39.8021L945.189 39.8521C947.489 35.7021 950.089 28.9521 951.689 24.3521C952.139 24.5021 953.339 24.5021 953.839 24.5021C954.339 24.5021 956.239 24.5021 956.689 24.3521C952.889 31.5521 948.839 39.3521 945.739 46.1021C945.289 46.0021 944.139 45.9521 943.639 45.9521C943.139 45.9521 941.439 46.0021 940.889 46.1021ZM965.939 33.2021H973.739C973.739 28.8521 972.489 26.5021 970.489 26.5021C969.039 26.5021 968.089 27.1521 967.439 28.0021C966.689 29.0521 966.089 30.7521 965.939 33.2021ZM979.689 40.6021C980.189 40.6021 980.489 41.5021 980.489 42.1521C977.739 45.3021 974.189 46.4521 970.589 46.4521C966.839 46.4521 963.889 45.6521 962.189 43.8521C960.089 41.7521 959.039 38.6021 959.039 35.6521C959.039 31.5521 960.689 28.5021 963.089 26.5021C965.089 24.9021 968.089 24.0021 970.839 24.0021C978.539 24.0021 980.289 29.0021 980.289 35.2521L979.989 35.5521C979.989 35.5521 975.689 35.4521 970.689 35.4521H965.739C965.739 37.7521 966.289 39.5021 967.389 40.7021C968.589 42.0021 970.389 42.6521 972.839 42.6521C974.939 42.6521 977.339 42.5021 979.689 40.6021ZM984.891 43.5521V43.3021C985.541 41.6521 986.441 40.6521 988.341 39.9021H988.541C990.391 40.5521 991.341 41.5021 991.991 43.3021V43.5521C991.291 45.6021 990.341 46.5021 988.541 46.9521H988.341C986.291 46.5021 985.441 45.6521 984.891 43.5521Z" fill="black"/>
</g>
</svg>
