<svg width="1920" height="1080" viewBox="0 0 1920 1080" fill="none" xmlns="http://www.w3.org/2000/svg">
<g id="theory project">
<rect width="1920" height="1080" fill="white"/>
<g id="Group 1">
<path id="Vector 1" d="M18.52 123.354C18.52 186.992 377.363 108.617 377.363 161.314" stroke="black" stroke-width="2.23292"/>
<path id="Vector 2" d="M378.677 163.547C378.677 99.9084 737.52 178.284 737.52 125.587" stroke="black" stroke-width="2.23292"/>
</g>
<path id="no_industry_support" d="M231.92 192.8C231.92 195.84 231.96 197.72 232.28 200L232.2 200.12C231.72 200.04 230.8 200 230.32 200C229.84 200 228.92 200.04 228.44 200.12L228.36 200C228.64 197.88 228.72 195.8 228.72 192.8V188.88C228.72 185.64 227.88 184.84 225.84 184.84C224.4 184.84 222.08 185.72 220.04 188.12V192.8C220.04 195.84 220.08 197.72 220.4 200L220.32 200.12C219.84 200.04 218.92 200 218.44 200C217.96 200 217.04 200.04 216.56 200.12L216.48 200C216.8 197.84 216.84 195.8 216.84 192.8V190.6C216.84 187.6 216.76 184.6 216.48 182.84L216.56 182.72C217.44 182.84 218.88 182.8 219.8 182.6C219.96 182.6 220 182.72 220.04 183V185.92L220.12 186.04C222.68 183.04 225.52 182.44 227.04 182.44C230.64 182.44 232 184.6 232 188.76C232 190.04 231.92 191.52 231.92 192.8ZM236.603 191.8C236.603 186.12 240.003 182.44 245.243 182.44C250.643 182.44 253.563 186 253.563 191.44C253.563 196.68 250.363 200.4 245.083 200.4C239.763 200.4 236.603 196.6 236.603 191.8ZM244.963 184.04C241.203 184.04 240.123 187.64 240.123 191.12C240.123 194.2 241.203 198.8 245.443 198.8C248.123 198.8 250.043 196 250.043 192.16C250.043 187.32 249.203 184.04 244.963 184.04ZM268.283 176.12C268.283 175.04 269.243 174.08 270.323 174.08C271.403 174.08 272.363 175.04 272.363 176.12C272.363 177.2 271.403 178.16 270.323 178.16C269.243 178.16 268.283 177.2 268.283 176.12ZM268.683 190.6C268.683 187.6 268.563 184.56 268.323 182.84L268.403 182.72C269.243 182.8 270.963 182.8 271.883 182.68C272.163 182.68 272.243 182.72 272.243 183.08C271.963 185.52 271.883 186.96 271.883 189.96V192.8C271.883 195.84 271.923 197.76 272.243 200L272.163 200.12C271.683 200.04 270.763 200 270.283 200C269.803 200 268.883 200.04 268.403 200.12L268.323 200C268.603 197.84 268.683 195.8 268.683 192.8V190.6ZM293.873 192.8C293.873 195.84 293.913 197.72 294.233 200L294.153 200.12C293.673 200.04 292.753 200 292.273 200C291.793 200 290.873 200.04 290.393 200.12L290.313 200C290.593 197.88 290.673 195.8 290.673 192.8V188.88C290.673 185.64 289.833 184.84 287.793 184.84C286.353 184.84 284.033 185.72 281.993 188.12V192.8C281.993 195.84 282.033 197.72 282.353 200L282.273 200.12C281.793 200.04 280.873 200 280.393 200C279.913 200 278.993 200.04 278.513 200.12L278.433 200C278.753 197.84 278.793 195.8 278.793 192.8V190.6C278.793 187.6 278.713 184.6 278.433 182.84L278.513 182.72C279.393 182.84 280.833 182.8 281.753 182.6C281.913 182.6 281.953 182.72 281.993 183V185.92L282.073 186.04C284.633 183.04 287.473 182.44 288.993 182.44C292.593 182.44 293.953 184.6 293.953 188.76C293.953 190.04 293.873 191.52 293.873 192.8ZM311.476 195.48V186.36C310.516 184.84 309.556 184.04 307.676 184.04C305.716 184.04 302.556 185.16 302.556 191.16C302.556 196.16 304.396 198.32 306.556 198.32C308.156 198.32 309.996 197.36 311.476 195.48ZM311.476 197.68C310.036 199.56 308.236 200.4 306.316 200.4C301.996 200.4 299.076 196.4 299.076 191.48C299.076 186.04 302.876 182.44 308.116 182.44C308.916 182.44 310.556 182.8 311.476 183.32V180.72C311.476 177.68 311.396 174.72 311.116 173L311.196 172.88C312.796 172.76 313.636 172.48 314.676 172.08C314.916 172.08 315.036 172.2 315.036 172.48C314.836 174.96 314.676 177.04 314.676 180V192.32C314.676 195.32 315.036 198.28 315.356 200L315.276 200.12C314.756 200.04 313.996 200 313.476 200C312.916 200 312.636 200.08 312.116 200.12C311.876 200.12 311.756 200.08 311.756 200L311.556 197.68H311.476ZM332.847 196.32C331.527 198.36 329.287 200.4 326.807 200.4C322.847 200.4 321.567 197.6 321.567 194.84V190.04C321.567 187 321.527 185.12 321.207 182.84L321.287 182.72C321.767 182.8 322.687 182.84 323.167 182.84C323.647 182.84 324.567 182.8 325.047 182.72L325.127 182.84C324.807 184.96 324.767 187.04 324.767 190.04V194C324.767 197.72 326.047 198.16 327.447 198.16C329.407 198.16 331.687 196.04 332.927 193.96V190.04C332.927 187 332.847 185.16 332.567 182.84L332.647 182.72C333.127 182.8 334.047 182.84 334.527 182.84C335.007 182.84 335.927 182.8 336.407 182.72L336.487 182.84C336.167 184.96 336.127 187.04 336.127 190.04V192.32C336.127 195.32 336.487 198.28 336.807 200L336.727 200.12C336.207 200.04 335.447 200 334.927 200C334.367 200 333.887 200.08 333.367 200.12C333.247 200.12 333.207 200.08 333.207 200L333.007 196.44L332.847 196.32ZM341.731 195.96L342.331 195.92C343.451 197.48 345.131 198.8 347.051 198.8C349.171 198.8 350.731 197.6 350.731 195.48C350.731 193.52 349.011 192.88 346.691 192.24C344.251 191.6 341.891 190.52 341.891 187.32C341.891 184 344.971 182.44 347.931 182.44C349.971 182.44 352.171 183.04 353.331 183.64L353.411 183.76L352.611 186.72L352.051 186.76C351.131 185.68 349.851 184.04 347.771 184.04C346.051 184.04 344.731 184.92 344.731 186.56C344.731 188.56 346.931 189.32 348.451 189.68C351.291 190.36 353.891 191.64 353.891 194.92C353.891 197.12 352.611 200.4 347.091 200.4C345.571 200.4 343.331 200.12 341.051 199.32L341.731 195.96ZM359.39 182.84C359.39 180.52 359.47 179.12 359.55 177.72L359.63 177.6C360.91 177.44 361.39 177 362.43 176.6C362.67 176.6 362.79 176.72 362.79 177C362.59 179.32 362.59 179.88 362.59 182.84H364.47C365.39 182.84 366.55 182.8 367.27 182.76L367.47 183.04C367.23 183.64 367.11 184.04 366.99 184.68C366.43 184.64 365.07 184.6 364.11 184.6H362.59V189.64C362.59 192.04 362.47 193.76 362.47 194.96C362.47 197.16 362.83 198.12 363.79 198.24C364.79 198.4 365.71 198.36 366.91 197.96L367.43 198.92C365.75 200 364.47 200.4 362.79 200.4C360.95 200.4 359.27 199.16 359.27 196.56C359.27 195.36 359.39 192.48 359.39 190.08V184.6C358.47 184.64 357.23 184.64 356.55 184.68L356.35 184.4C356.71 183.8 356.95 183.44 357.23 182.76C357.71 182.84 358.55 182.84 359.39 182.84ZM375.864 186.64L375.984 186.72C377.744 183.68 378.904 182.44 381.064 182.44C381.784 182.44 381.824 182.52 382.504 182.72L382.664 182.88L381.864 185.84L381.544 185.92C381.024 185.44 380.264 185.36 379.464 185.36C378.704 185.36 377.784 185.88 377.224 186.76C376.344 188.08 375.864 189.04 375.864 190.72V192.8C375.864 195.84 375.904 197.72 376.224 200L376.144 200.12C375.664 200.04 374.744 200 374.264 200C373.784 200 372.864 200.04 372.384 200.12L372.304 200C372.584 197.88 372.664 195.8 372.664 192.8V190.6C372.664 187.6 372.584 184.6 372.304 182.84L372.384 182.72C373.264 182.84 374.704 182.8 375.624 182.6C375.784 182.6 375.864 182.72 375.864 183V186.64ZM385.109 182.72C385.669 182.84 386.669 182.84 387.189 182.84C387.749 182.84 388.629 182.84 389.149 182.72C390.629 187.32 392.509 191.76 394.469 196.52H394.549C396.509 192.36 398.389 187.24 399.829 182.72C400.229 182.84 400.989 182.84 401.389 182.84C401.789 182.84 402.709 182.84 403.109 182.72C401.789 185.4 393.029 204.48 391.509 209.48C391.109 209.36 389.949 209.28 389.549 209.28C389.149 209.28 388.549 209.36 388.149 209.48C389.949 206.48 391.589 203.4 392.869 200.4C391.429 196.6 386.669 186.28 385.109 182.72ZM416.223 195.96L416.823 195.92C417.943 197.48 419.623 198.8 421.543 198.8C423.663 198.8 425.223 197.6 425.223 195.48C425.223 193.52 423.503 192.88 421.183 192.24C418.743 191.6 416.383 190.52 416.383 187.32C416.383 184 419.463 182.44 422.423 182.44C424.463 182.44 426.663 183.04 427.823 183.64L427.903 183.76L427.103 186.72L426.543 186.76C425.623 185.68 424.343 184.04 422.263 184.04C420.543 184.04 419.223 184.92 419.223 186.56C419.223 188.56 421.423 189.32 422.943 189.68C425.783 190.36 428.383 191.64 428.383 194.92C428.383 197.12 427.103 200.4 421.583 200.4C420.063 200.4 417.823 200.12 415.543 199.32L416.223 195.96ZM444.683 196.32C443.363 198.36 441.123 200.4 438.643 200.4C434.683 200.4 433.403 197.6 433.403 194.84V190.04C433.403 187 433.363 185.12 433.043 182.84L433.123 182.72C433.603 182.8 434.523 182.84 435.003 182.84C435.483 182.84 436.403 182.8 436.883 182.72L436.963 182.84C436.643 184.96 436.603 187.04 436.603 190.04V194C436.603 197.72 437.883 198.16 439.283 198.16C441.243 198.16 443.523 196.04 444.763 193.96V190.04C444.763 187 444.683 185.16 444.403 182.84L444.483 182.72C444.963 182.8 445.883 182.84 446.363 182.84C446.843 182.84 447.763 182.8 448.243 182.72L448.323 182.84C448.003 184.96 447.963 187.04 447.963 190.04V192.32C447.963 195.32 448.323 198.28 448.643 200L448.563 200.12C448.043 200.04 447.283 200 446.763 200C446.203 200 445.723 200.08 445.203 200.12C445.083 200.12 445.043 200.08 445.043 200L444.843 196.44L444.683 196.32ZM458.047 188.24V197C459.447 198.64 461.127 198.8 461.767 198.8C466.047 198.8 466.967 194.56 466.967 191.28C466.967 186.76 465.567 184.28 462.847 184.28C461.287 184.28 458.927 186.12 458.047 188.24ZM458.047 185.92L458.127 186.04C459.967 183.24 461.967 182.44 463.527 182.44C468.007 182.44 470.487 186.52 470.487 190.76C470.487 196.4 467.287 200.4 462.007 200.4C460.567 200.4 459.087 200.08 458.047 199.52V201.28C458.047 204.32 458.087 207 458.407 209.28L458.327 209.4C457.847 209.32 456.927 209.28 456.447 209.28C455.967 209.28 455.047 209.32 454.567 209.4L454.487 209.28C454.767 207.16 454.847 204.28 454.847 201.28V190.6C454.847 187.6 454.767 184.6 454.487 182.84L454.567 182.72C455.447 182.84 456.887 182.8 457.807 182.6C457.967 182.6 458.047 182.72 458.047 183V185.92ZM478.984 188.24V197C480.384 198.64 482.064 198.8 482.704 198.8C486.984 198.8 487.904 194.56 487.904 191.28C487.904 186.76 486.504 184.28 483.784 184.28C482.224 184.28 479.864 186.12 478.984 188.24ZM478.984 185.92L479.064 186.04C480.904 183.24 482.904 182.44 484.464 182.44C488.944 182.44 491.424 186.52 491.424 190.76C491.424 196.4 488.224 200.4 482.944 200.4C481.504 200.4 480.024 200.08 478.984 199.52V201.28C478.984 204.32 479.024 207 479.344 209.28L479.264 209.4C478.784 209.32 477.864 209.28 477.384 209.28C476.904 209.28 475.984 209.32 475.504 209.4L475.424 209.28C475.704 207.16 475.784 204.28 475.784 201.28V190.6C475.784 187.6 475.704 184.6 475.424 182.84L475.504 182.72C476.384 182.84 477.824 182.8 478.744 182.6C478.904 182.6 478.984 182.72 478.984 183V185.92ZM495.235 191.8C495.235 186.12 498.635 182.44 503.875 182.44C509.275 182.44 512.195 186 512.195 191.44C512.195 196.68 508.995 200.4 503.715 200.4C498.395 200.4 495.235 196.6 495.235 191.8ZM503.595 184.04C499.835 184.04 498.755 187.64 498.755 191.12C498.755 194.2 499.835 198.8 504.075 198.8C506.755 198.8 508.675 196 508.675 192.16C508.675 187.32 507.835 184.04 503.595 184.04ZM520.395 186.64L520.515 186.72C522.275 183.68 523.435 182.44 525.595 182.44C526.315 182.44 526.355 182.52 527.035 182.72L527.195 182.88L526.395 185.84L526.075 185.92C525.555 185.44 524.795 185.36 523.995 185.36C523.235 185.36 522.315 185.88 521.755 186.76C520.875 188.08 520.395 189.04 520.395 190.72V192.8C520.395 195.84 520.435 197.72 520.755 200L520.675 200.12C520.195 200.04 519.275 200 518.795 200C518.315 200 517.395 200.04 516.915 200.12L516.835 200C517.115 197.88 517.195 195.8 517.195 192.8V190.6C517.195 187.6 517.115 184.6 516.835 182.84L516.915 182.72C517.795 182.84 519.235 182.8 520.155 182.6C520.315 182.6 520.395 182.72 520.395 183V186.64ZM531.734 182.84C531.734 180.52 531.814 179.12 531.894 177.72L531.974 177.6C533.254 177.44 533.734 177 534.774 176.6C535.014 176.6 535.134 176.72 535.134 177C534.934 179.32 534.934 179.88 534.934 182.84H536.814C537.734 182.84 538.894 182.8 539.614 182.76L539.814 183.04C539.574 183.64 539.454 184.04 539.334 184.68C538.774 184.64 537.414 184.6 536.454 184.6H534.934V189.64C534.934 192.04 534.814 193.76 534.814 194.96C534.814 197.16 535.174 198.12 536.134 198.24C537.134 198.4 538.054 198.36 539.254 197.96L539.774 198.92C538.094 200 536.814 200.4 535.134 200.4C533.294 200.4 531.614 199.16 531.614 196.56C531.614 195.36 531.734 192.48 531.734 190.08V184.6C530.814 184.64 529.574 184.64 528.894 184.68L528.694 184.4C529.054 183.8 529.294 183.44 529.574 182.76C530.054 182.84 530.894 182.84 531.734 182.84Z" fill="black"/>
<path id="difficult_to_argue_about_practical_impact" d="M64.96 254.48V245.36C64 243.84 63.04 243.04 61.16 243.04C59.2 243.04 56.04 244.16 56.04 250.16C56.04 255.16 57.88 257.32 60.04 257.32C61.64 257.32 63.48 256.36 64.96 254.48ZM64.96 256.68C63.52 258.56 61.72 259.4 59.8 259.4C55.48 259.4 52.56 255.4 52.56 250.48C52.56 245.04 56.36 241.44 61.6 241.44C62.4 241.44 64.04 241.8 64.96 242.32V239.72C64.96 236.68 64.88 233.72 64.6 232L64.68 231.88C66.28 231.76 67.12 231.48 68.16 231.08C68.4 231.08 68.52 231.2 68.52 231.48C68.32 233.96 68.16 236.04 68.16 239V251.32C68.16 254.32 68.52 257.28 68.84 259L68.76 259.12C68.24 259.04 67.48 259 66.96 259C66.4 259 66.12 259.08 65.6 259.12C65.36 259.12 65.24 259.08 65.24 259L65.04 256.68H64.96ZM74.931 235.12C74.931 234.04 75.891 233.08 76.971 233.08C78.051 233.08 79.011 234.04 79.011 235.12C79.011 236.2 78.051 237.16 76.971 237.16C75.891 237.16 74.931 236.2 74.931 235.12ZM75.331 249.6C75.331 246.6 75.211 243.56 74.971 241.84L75.051 241.72C75.891 241.8 77.611 241.8 78.531 241.68C78.811 241.68 78.891 241.72 78.891 242.08C78.611 244.52 78.531 245.96 78.531 248.96V251.8C78.531 254.84 78.571 256.76 78.891 259L78.811 259.12C78.331 259.04 77.411 259 76.931 259C76.451 259 75.531 259.04 75.051 259.12L74.971 259C75.251 256.84 75.331 254.8 75.331 251.8V249.6ZM86.0816 243.6H86.0416C85.1216 243.6 83.8016 243.64 83.0816 243.68L82.8816 243.4C83.2416 242.8 83.4816 242.44 83.7616 241.76C84.2816 241.84 85.2016 241.84 86.0816 241.84V240.64C86.0816 237.52 86.8416 236.48 88.2816 234.52C89.7216 232.56 91.9216 231.48 94.4416 231.48C95.2016 231.48 95.9216 231.64 96.2416 231.84L96.2816 231.96C95.8416 232.72 95.4416 234.16 95.1616 235.24L94.7216 235.28C94.2816 234.48 93.5616 233.88 92.4016 233.88C90.0816 233.88 89.0816 235.8 89.0816 238C89.0816 238.72 89.2816 240.44 89.2816 241.44V241.84H97.2016V239.84C97.2016 236.72 97.9616 235.68 99.4016 233.72C100.842 231.76 103.042 230.68 105.562 230.68C106.322 230.68 107.042 230.84 107.362 231.04L107.402 231.16C106.962 231.92 106.562 233.36 106.282 234.44L105.842 234.48C105.402 233.68 104.682 233.08 103.522 233.08C101.202 233.08 100.202 235 100.202 237.2C100.202 237.92 100.402 240.44 100.402 241.44V241.84H102.122C103.042 241.84 104.242 241.8 104.922 241.76L105.122 242.04C104.882 242.64 104.762 243.04 104.642 243.68C104.082 243.64 102.722 243.6 101.762 243.6H100.402V251C100.402 254.04 100.442 256.72 100.802 259L100.722 259.12C100.722 259.12 100.162 259 98.8016 259C97.4016 259 96.8416 259.12 96.8416 259.12L96.8016 259C97.1216 256.88 97.2016 254 97.2016 251V243.6H89.2816V251C89.2816 254.04 89.3216 256.72 89.6816 259L89.6016 259.12C89.6016 259.12 89.0416 259 87.6816 259C86.2816 259 85.7216 259.12 85.7216 259.12L85.6816 259C86.0016 256.88 86.0816 254 86.0816 251V243.6ZM108.993 235.12C108.993 234.04 109.953 233.08 111.033 233.08C112.113 233.08 113.073 234.04 113.073 235.12C113.073 236.2 112.113 237.16 111.033 237.16C109.953 237.16 108.993 236.2 108.993 235.12ZM109.393 249.6C109.393 246.6 109.273 243.56 109.033 241.84L109.113 241.72C109.953 241.8 111.673 241.8 112.593 241.68C112.873 241.68 112.953 241.72 112.953 242.08C112.673 244.52 112.593 245.96 112.593 248.96V251.8C112.593 254.84 112.633 256.76 112.953 259L112.873 259.12C112.393 259.04 111.473 259 110.993 259C110.513 259 109.593 259.04 109.113 259.12L109.033 259C109.313 256.84 109.393 254.8 109.393 251.8V249.6ZM126.184 243.04C123.544 243.04 121.224 245.68 121.224 250.08C121.224 254.76 123.504 257.4 126.424 257.4C127.904 257.4 129.184 257.08 130.704 255.72H130.864L131.624 256.56C130.024 258.6 128.144 259.4 125.744 259.4C120.864 259.4 117.704 255.88 117.704 250.28C117.704 244.84 122.064 241.44 126.224 241.44C128.224 241.44 130.304 241.92 131.544 242.56L131.624 242.68L130.704 245.96L130.184 246C129.104 244.2 127.704 243.04 126.184 243.04ZM147.933 255.32C146.613 257.36 144.373 259.4 141.893 259.4C137.933 259.4 136.653 256.6 136.653 253.84V249.04C136.653 246 136.613 244.12 136.293 241.84L136.373 241.72C136.853 241.8 137.773 241.84 138.253 241.84C138.733 241.84 139.653 241.8 140.133 241.72L140.213 241.84C139.893 243.96 139.853 246.04 139.853 249.04V253C139.853 256.72 141.133 257.16 142.533 257.16C144.493 257.16 146.773 255.04 148.013 252.96V249.04C148.013 246 147.933 244.16 147.653 241.84L147.733 241.72C148.213 241.8 149.133 241.84 149.613 241.84C150.093 241.84 151.013 241.8 151.493 241.72L151.573 241.84C151.253 243.96 151.213 246.04 151.213 249.04V251.32C151.213 254.32 151.573 257.28 151.893 259L151.813 259.12C151.293 259.04 150.533 259 150.013 259C149.453 259 148.973 259.08 148.453 259.12C148.333 259.12 148.293 259.08 148.293 259L148.093 255.44L147.933 255.32ZM158.417 251V239.72C158.417 236.68 158.337 233.72 158.057 232L158.137 231.88C159.737 231.76 160.577 231.48 161.617 231.08C161.857 231.08 161.977 231.2 161.977 231.48C161.777 234.04 161.617 236 161.617 239V251C161.617 254.04 161.657 256.72 161.977 259L161.897 259.12C161.417 259.04 160.497 259 160.017 259C159.537 259 158.617 259.04 158.137 259.12L158.057 259C158.337 256.88 158.417 254 158.417 251ZM168.695 241.84C168.695 239.52 168.775 238.12 168.855 236.72L168.935 236.6C170.215 236.44 170.695 236 171.735 235.6C171.975 235.6 172.095 235.72 172.095 236C171.895 238.32 171.895 238.88 171.895 241.84H173.775C174.695 241.84 175.855 241.8 176.575 241.76L176.775 242.04C176.535 242.64 176.415 243.04 176.295 243.68C175.735 243.64 174.375 243.6 173.415 243.6H171.895V248.64C171.895 251.04 171.775 252.76 171.775 253.96C171.775 256.16 172.135 257.12 173.095 257.24C174.095 257.4 175.015 257.36 176.215 256.96L176.735 257.92C175.055 259 173.775 259.4 172.095 259.4C170.255 259.4 168.575 258.16 168.575 255.56C168.575 254.36 168.695 251.48 168.695 249.08V243.6C167.775 243.64 166.535 243.64 165.855 243.68L165.655 243.4C166.015 242.8 166.255 242.44 166.535 241.76C167.015 241.84 167.855 241.84 168.695 241.84ZM192.289 241.84C192.289 239.52 192.369 238.12 192.449 236.72L192.529 236.6C193.809 236.44 194.289 236 195.329 235.6C195.569 235.6 195.689 235.72 195.689 236C195.489 238.32 195.489 238.88 195.489 241.84H197.369C198.289 241.84 199.449 241.8 200.169 241.76L200.369 242.04C200.129 242.64 200.009 243.04 199.889 243.68C199.329 243.64 197.969 243.6 197.009 243.6H195.489V248.64C195.489 251.04 195.369 252.76 195.369 253.96C195.369 256.16 195.729 257.12 196.689 257.24C197.689 257.4 198.609 257.36 199.809 256.96L200.329 257.92C198.649 259 197.369 259.4 195.689 259.4C193.849 259.4 192.169 258.16 192.169 255.56C192.169 254.36 192.289 251.48 192.289 249.08V243.6C191.369 243.64 190.129 243.64 189.449 243.68L189.249 243.4C189.609 242.8 189.849 242.44 190.129 241.76C190.609 241.84 191.449 241.84 192.289 241.84ZM203.603 250.8C203.603 245.12 207.003 241.44 212.243 241.44C217.643 241.44 220.563 245 220.563 250.44C220.563 255.68 217.363 259.4 212.083 259.4C206.763 259.4 203.603 255.6 203.603 250.8ZM211.963 243.04C208.203 243.04 207.123 246.64 207.123 250.12C207.123 253.2 208.203 257.8 212.443 257.8C215.123 257.8 217.043 255 217.043 251.16C217.043 246.32 216.203 243.04 211.963 243.04ZM244.483 250L241.083 250.92C237.963 251.76 237.123 253.12 237.123 254.92C237.123 256.16 238.283 257.36 240.083 257.36C241.283 257.36 242.643 256.64 243.763 255.8C244.083 255.56 244.323 255.28 244.323 254.76L244.483 250ZM244.483 257.08H244.323C242.203 258.88 241.083 259.4 238.883 259.4C235.923 259.4 233.883 258.04 233.883 255.08C233.883 252.36 236.443 250.2 240.523 249.28L244.243 248.44C244.363 248.4 244.523 248.24 244.523 247.96C244.523 243.44 242.123 243.24 240.683 243.24C238.763 243.24 237.403 244.84 236.283 246.64L235.763 246.6L235.083 243.92L235.203 243.76C236.203 242.92 238.043 241.44 241.083 241.44C244.123 241.44 247.683 242.52 247.683 247.92C247.683 248.36 247.563 252.8 247.563 253.96C247.563 255.76 247.803 256.72 248.203 257.08C248.483 257.32 249.003 257.4 249.403 257.4C249.683 257.4 250.043 257.36 250.483 257.2L250.763 258.16C249.843 259.16 248.603 259.4 247.603 259.4C246.123 259.4 244.923 258.68 244.483 257.08ZM258.02 245.64L258.14 245.72C259.9 242.68 261.06 241.44 263.22 241.44C263.94 241.44 263.98 241.52 264.66 241.72L264.82 241.88L264.02 244.84L263.7 244.92C263.18 244.44 262.42 244.36 261.62 244.36C260.86 244.36 259.94 244.88 259.38 245.76C258.5 247.08 258.02 248.04 258.02 249.72V251.8C258.02 254.84 258.06 256.72 258.38 259L258.3 259.12C257.82 259.04 256.9 259 256.42 259C255.94 259 255.02 259.04 254.54 259.12L254.46 259C254.74 256.88 254.82 254.8 254.82 251.8V249.6C254.82 246.6 254.74 243.6 254.46 241.84L254.54 241.72C255.42 241.84 256.86 241.8 257.78 241.6C257.94 241.6 258.02 241.72 258.02 242V245.64ZM269.599 263.16C269.599 265.88 272.239 266.76 274.839 266.76C278.279 266.76 281.559 265.48 281.559 263.04C281.559 262 281.159 260.84 279.999 260.16C278.879 259.52 277.679 259.48 275.759 259.48C275.199 259.48 273.359 259.6 272.199 259.6C270.799 260.36 269.599 261.84 269.599 263.16ZM281.159 247.6C281.159 250.76 278.679 253.56 274.519 253.56C273.279 253.56 272.079 253.28 271.559 253C270.679 253.76 270.479 254.44 270.479 255.24C270.479 256.96 271.679 257.12 272.799 257.12C272.999 257.12 273.399 257.08 273.959 257.04C274.879 256.92 276.479 256.84 277.159 256.84C278.559 256.84 281.279 256.88 282.799 258.16C283.919 259.12 284.479 260.36 284.479 262.12C284.479 265.88 280.759 268.48 274.519 268.48C270.279 268.48 266.839 267.12 266.839 263.96C266.839 263.24 267.239 262.08 267.759 261.32C268.759 260.52 270.039 259.76 271.119 259.32C268.999 258.92 268.039 257.48 268.039 255.84C268.039 254.48 269.439 253.32 270.599 252.52C269.479 251.88 267.759 250.52 267.759 247.52C267.759 243.56 271.399 241.44 274.559 241.44C275.399 241.44 276.279 241.56 276.999 241.8C279.959 241.64 281.399 241.24 283.319 241.04L283.439 241.16C283.359 241.52 283.319 241.84 283.319 242.2C283.319 242.56 283.359 242.88 283.439 243.24L283.319 243.36C281.639 243.2 280.319 243.04 279.119 242.96C280.079 243.56 281.159 244.84 281.159 247.6ZM278.039 247.64C278.039 244.8 276.999 242.96 274.399 242.96C272.079 242.96 270.879 244.68 270.879 247.32C270.879 250.08 271.759 251.96 274.639 251.96C277.039 251.96 278.039 250.08 278.039 247.64ZM300.12 255.32C298.8 257.36 296.56 259.4 294.08 259.4C290.12 259.4 288.84 256.6 288.84 253.84V249.04C288.84 246 288.8 244.12 288.48 241.84L288.56 241.72C289.04 241.8 289.96 241.84 290.44 241.84C290.92 241.84 291.84 241.8 292.32 241.72L292.4 241.84C292.08 243.96 292.04 246.04 292.04 249.04V253C292.04 256.72 293.32 257.16 294.72 257.16C296.68 257.16 298.96 255.04 300.2 252.96V249.04C300.2 246 300.12 244.16 299.84 241.84L299.92 241.72C300.4 241.8 301.32 241.84 301.8 241.84C302.28 241.84 303.2 241.8 303.68 241.72L303.76 241.84C303.44 243.96 303.4 246.04 303.4 249.04V251.32C303.4 254.32 303.76 257.28 304.08 259L304 259.12C303.48 259.04 302.72 259 302.2 259C301.64 259 301.16 259.08 300.64 259.12C300.52 259.12 300.48 259.08 300.48 259L300.28 255.44L300.12 255.32ZM312.004 248.08H319.364C319.764 248.08 319.924 247.88 319.924 247.52C319.924 244.52 318.124 243.04 316.564 243.04C315.284 243.04 312.684 243.92 312.004 248.08ZM322.684 254.84L323.484 255.84C321.964 257.92 319.404 259.4 316.524 259.4C313.804 259.4 311.524 258.44 310.164 256.76C308.804 255.16 308.364 252.92 308.364 250.64C308.364 244.76 312.444 241.44 316.564 241.44C321.844 241.44 323.484 245.64 323.484 249C323.484 249.44 323.204 249.68 322.764 249.68H311.884C311.884 252.04 312.124 253.64 312.844 254.76C313.924 256.52 315.804 257.04 317.204 257.04C319.404 257.04 321.284 256.36 322.684 254.84ZM347.529 250L344.129 250.92C341.009 251.76 340.169 253.12 340.169 254.92C340.169 256.16 341.329 257.36 343.129 257.36C344.329 257.36 345.689 256.64 346.809 255.8C347.129 255.56 347.369 255.28 347.369 254.76L347.529 250ZM347.529 257.08H347.369C345.249 258.88 344.129 259.4 341.929 259.4C338.969 259.4 336.929 258.04 336.929 255.08C336.929 252.36 339.489 250.2 343.569 249.28L347.289 248.44C347.409 248.4 347.569 248.24 347.569 247.96C347.569 243.44 345.169 243.24 343.729 243.24C341.809 243.24 340.449 244.84 339.329 246.64L338.809 246.6L338.129 243.92L338.249 243.76C339.249 242.92 341.089 241.44 344.129 241.44C347.169 241.44 350.729 242.52 350.729 247.92C350.729 248.36 350.609 252.8 350.609 253.96C350.609 255.76 350.849 256.72 351.249 257.08C351.529 257.32 352.049 257.4 352.449 257.4C352.729 257.4 353.089 257.36 353.529 257.2L353.809 258.16C352.889 259.16 351.649 259.4 350.649 259.4C349.169 259.4 347.969 258.68 347.529 257.08ZM360.867 255.76C361.667 256.76 363.147 257.8 364.387 257.8C368.187 257.8 369.667 255 369.667 250.04C369.667 245.08 367.507 243.04 365.067 243.04C363.427 243.04 362.427 243.8 360.867 245.4V255.76ZM360.867 239V243.44C362.227 241.96 363.947 241.44 365.867 241.44C369.747 241.44 373.227 244.84 373.227 249.72C373.227 256.52 368.707 259.4 364.627 259.4C362.907 259.4 361.067 258.44 359.907 257.44C359.467 258.24 359.027 258.92 358.587 259.4C358.147 259.4 357.707 259.32 357.467 259.08C357.627 258.24 357.667 257.64 357.667 256.08V239.72C357.667 236.68 357.467 233.72 357.187 232L357.267 231.88C358.867 231.76 359.707 231.48 360.747 231.08C360.987 231.08 361.107 231.2 361.107 231.48C360.907 233.96 360.867 236.04 360.867 239ZM376.454 250.8C376.454 245.12 379.854 241.44 385.094 241.44C390.494 241.44 393.414 245 393.414 250.44C393.414 255.68 390.214 259.4 384.934 259.4C379.614 259.4 376.454 255.6 376.454 250.8ZM384.814 243.04C381.054 243.04 379.974 246.64 379.974 250.12C379.974 253.2 381.054 257.8 385.294 257.8C387.974 257.8 389.894 255 389.894 251.16C389.894 246.32 389.054 243.04 384.814 243.04ZM409.534 255.32C408.214 257.36 405.974 259.4 403.494 259.4C399.534 259.4 398.254 256.6 398.254 253.84V249.04C398.254 246 398.214 244.12 397.894 241.84L397.974 241.72C398.454 241.8 399.374 241.84 399.854 241.84C400.334 241.84 401.254 241.8 401.734 241.72L401.814 241.84C401.494 243.96 401.454 246.04 401.454 249.04V253C401.454 256.72 402.734 257.16 404.134 257.16C406.094 257.16 408.374 255.04 409.614 252.96V249.04C409.614 246 409.534 244.16 409.254 241.84L409.334 241.72C409.814 241.8 410.734 241.84 411.214 241.84C411.694 241.84 412.614 241.8 413.094 241.72L413.174 241.84C412.854 243.96 412.814 246.04 412.814 249.04V251.32C412.814 254.32 413.174 257.28 413.494 259L413.414 259.12C412.894 259.04 412.134 259 411.614 259C411.054 259 410.574 259.08 410.054 259.12C409.934 259.12 409.894 259.08 409.894 259L409.694 255.44L409.534 255.32ZM420.218 241.84C420.218 239.52 420.298 238.12 420.378 236.72L420.458 236.6C421.738 236.44 422.218 236 423.258 235.6C423.498 235.6 423.618 235.72 423.618 236C423.418 238.32 423.418 238.88 423.418 241.84H425.298C426.218 241.84 427.378 241.8 428.098 241.76L428.298 242.04C428.058 242.64 427.938 243.04 427.818 243.68C427.258 243.64 425.898 243.6 424.938 243.6H423.418V248.64C423.418 251.04 423.298 252.76 423.298 253.96C423.298 256.16 423.658 257.12 424.618 257.24C425.618 257.4 426.538 257.36 427.738 256.96L428.258 257.92C426.578 259 425.298 259.4 423.618 259.4C421.778 259.4 420.098 258.16 420.098 255.56C420.098 254.36 420.218 251.48 420.218 249.08V243.6C419.298 243.64 418.058 243.64 417.378 243.68L417.178 243.4C417.538 242.8 417.778 242.44 418.058 241.76C418.538 241.84 419.378 241.84 420.218 241.84ZM446.492 247.24V256C447.892 257.64 449.572 257.8 450.212 257.8C454.492 257.8 455.412 253.56 455.412 250.28C455.412 245.76 454.012 243.28 451.292 243.28C449.732 243.28 447.372 245.12 446.492 247.24ZM446.492 244.92L446.572 245.04C448.412 242.24 450.412 241.44 451.972 241.44C456.452 241.44 458.932 245.52 458.932 249.76C458.932 255.4 455.732 259.4 450.452 259.4C449.012 259.4 447.532 259.08 446.492 258.52V260.28C446.492 263.32 446.532 266 446.852 268.28L446.772 268.4C446.292 268.32 445.372 268.28 444.892 268.28C444.412 268.28 443.492 268.32 443.012 268.4L442.932 268.28C443.212 266.16 443.292 263.28 443.292 260.28V249.6C443.292 246.6 443.212 243.6 442.932 241.84L443.012 241.72C443.892 241.84 445.332 241.8 446.252 241.6C446.412 241.6 446.492 241.72 446.492 242V244.92ZM467.63 245.64L467.75 245.72C469.51 242.68 470.67 241.44 472.83 241.44C473.55 241.44 473.59 241.52 474.27 241.72L474.43 241.88L473.63 244.84L473.31 244.92C472.79 244.44 472.03 244.36 471.23 244.36C470.47 244.36 469.55 244.88 468.99 245.76C468.11 247.08 467.63 248.04 467.63 249.72V251.8C467.63 254.84 467.67 256.72 467.99 259L467.91 259.12C467.43 259.04 466.51 259 466.03 259C465.55 259 464.63 259.04 464.15 259.12L464.07 259C464.35 256.88 464.43 254.8 464.43 251.8V249.6C464.43 246.6 464.35 243.6 464.07 241.84L464.15 241.72C465.03 241.84 466.47 241.8 467.39 241.6C467.55 241.6 467.63 241.72 467.63 242V245.64ZM487.568 250L484.168 250.92C481.048 251.76 480.208 253.12 480.208 254.92C480.208 256.16 481.368 257.36 483.168 257.36C484.368 257.36 485.728 256.64 486.848 255.8C487.168 255.56 487.408 255.28 487.408 254.76L487.568 250ZM487.568 257.08H487.408C485.288 258.88 484.168 259.4 481.968 259.4C479.008 259.4 476.968 258.04 476.968 255.08C476.968 252.36 479.528 250.2 483.608 249.28L487.328 248.44C487.448 248.4 487.608 248.24 487.608 247.96C487.608 243.44 485.208 243.24 483.768 243.24C481.848 243.24 480.488 244.84 479.368 246.64L478.848 246.6L478.168 243.92L478.288 243.76C479.288 242.92 481.128 241.44 484.168 241.44C487.208 241.44 490.768 242.52 490.768 247.92C490.768 248.36 490.648 252.8 490.648 253.96C490.648 255.76 490.888 256.72 491.288 257.08C491.568 257.32 492.088 257.4 492.488 257.4C492.768 257.4 493.128 257.36 493.568 257.2L493.848 258.16C492.928 259.16 491.688 259.4 490.688 259.4C489.208 259.4 488.008 258.68 487.568 257.08ZM504.426 243.04C501.786 243.04 499.466 245.68 499.466 250.08C499.466 254.76 501.746 257.4 504.666 257.4C506.146 257.4 507.426 257.08 508.946 255.72H509.106L509.866 256.56C508.266 258.6 506.386 259.4 503.986 259.4C499.106 259.4 495.946 255.88 495.946 250.28C495.946 244.84 500.306 241.44 504.466 241.44C506.466 241.44 508.546 241.92 509.786 242.56L509.866 242.68L508.946 245.96L508.426 246C507.346 244.2 505.946 243.04 504.426 243.04ZM515.375 241.84C515.375 239.52 515.455 238.12 515.535 236.72L515.615 236.6C516.895 236.44 517.375 236 518.415 235.6C518.655 235.6 518.775 235.72 518.775 236C518.575 238.32 518.575 238.88 518.575 241.84H520.455C521.375 241.84 522.535 241.8 523.255 241.76L523.455 242.04C523.215 242.64 523.095 243.04 522.975 243.68C522.415 243.64 521.055 243.6 520.095 243.6H518.575V248.64C518.575 251.04 518.455 252.76 518.455 253.96C518.455 256.16 518.815 257.12 519.775 257.24C520.775 257.4 521.695 257.36 522.895 256.96L523.415 257.92C521.735 259 520.455 259.4 518.775 259.4C516.935 259.4 515.255 258.16 515.255 255.56C515.255 254.36 515.375 251.48 515.375 249.08V243.6C514.455 243.64 513.215 243.64 512.535 243.68L512.335 243.4C512.695 242.8 512.935 242.44 513.215 241.76C513.695 241.84 514.535 241.84 515.375 241.84ZM528.368 235.12C528.368 234.04 529.328 233.08 530.408 233.08C531.488 233.08 532.448 234.04 532.448 235.12C532.448 236.2 531.488 237.16 530.408 237.16C529.328 237.16 528.368 236.2 528.368 235.12ZM528.768 249.6C528.768 246.6 528.648 243.56 528.408 241.84L528.488 241.72C529.328 241.8 531.048 241.8 531.968 241.68C532.248 241.68 532.328 241.72 532.328 242.08C532.048 244.52 531.968 245.96 531.968 248.96V251.8C531.968 254.84 532.008 256.76 532.328 259L532.248 259.12C531.768 259.04 530.848 259 530.368 259C529.888 259 528.968 259.04 528.488 259.12L528.408 259C528.688 256.84 528.768 254.8 528.768 251.8V249.6ZM545.559 243.04C542.919 243.04 540.599 245.68 540.599 250.08C540.599 254.76 542.879 257.4 545.799 257.4C547.279 257.4 548.559 257.08 550.079 255.72H550.239L550.999 256.56C549.399 258.6 547.519 259.4 545.119 259.4C540.239 259.4 537.079 255.88 537.079 250.28C537.079 244.84 541.439 241.44 545.599 241.44C547.599 241.44 549.679 241.92 550.919 242.56L550.999 242.68L550.079 245.96L549.559 246C548.479 244.2 547.079 243.04 545.559 243.04ZM565.108 250L561.708 250.92C558.588 251.76 557.748 253.12 557.748 254.92C557.748 256.16 558.908 257.36 560.708 257.36C561.908 257.36 563.268 256.64 564.388 255.8C564.708 255.56 564.948 255.28 564.948 254.76L565.108 250ZM565.108 257.08H564.948C562.828 258.88 561.708 259.4 559.508 259.4C556.548 259.4 554.508 258.04 554.508 255.08C554.508 252.36 557.068 250.2 561.148 249.28L564.868 248.44C564.988 248.4 565.148 248.24 565.148 247.96C565.148 243.44 562.748 243.24 561.308 243.24C559.388 243.24 558.028 244.84 556.908 246.64L556.388 246.6L555.708 243.92L555.828 243.76C556.828 242.92 558.668 241.44 561.708 241.44C564.748 241.44 568.308 242.52 568.308 247.92C568.308 248.36 568.188 252.8 568.188 253.96C568.188 255.76 568.428 256.72 568.828 257.08C569.108 257.32 569.628 257.4 570.028 257.4C570.308 257.4 570.668 257.36 571.108 257.2L571.388 258.16C570.468 259.16 569.228 259.4 568.228 259.4C566.748 259.4 565.548 258.68 565.108 257.08ZM575.565 251V239.72C575.565 236.68 575.485 233.72 575.205 232L575.285 231.88C576.885 231.76 577.725 231.48 578.765 231.08C579.005 231.08 579.125 231.2 579.125 231.48C578.925 234.04 578.765 236 578.765 239V251C578.765 254.04 578.805 256.72 579.125 259L579.045 259.12C578.565 259.04 577.645 259 577.165 259C576.685 259 575.765 259.04 575.285 259.12L575.205 259C575.485 256.88 575.565 254 575.565 251ZM595.243 235.12C595.243 234.04 596.203 233.08 597.283 233.08C598.363 233.08 599.323 234.04 599.323 235.12C599.323 236.2 598.363 237.16 597.283 237.16C596.203 237.16 595.243 236.2 595.243 235.12ZM595.643 249.6C595.643 246.6 595.523 243.56 595.283 241.84L595.363 241.72C596.203 241.8 597.923 241.8 598.843 241.68C599.123 241.68 599.203 241.72 599.203 242.08C598.923 244.52 598.843 245.96 598.843 248.96V251.8C598.843 254.84 598.883 256.76 599.203 259L599.123 259.12C598.643 259.04 597.723 259 597.243 259C596.763 259 595.843 259.04 595.363 259.12L595.283 259C595.563 256.84 595.643 254.8 595.643 251.8V249.6ZM608.914 244.92L609.034 245.04C610.914 243.04 613.274 241.44 615.754 241.44C617.994 241.44 619.634 242.68 619.994 244.6C622.274 242.2 624.594 241.44 626.754 241.44C631.074 241.44 631.714 244.24 631.714 247.8V251.8C631.714 254.84 631.754 256.72 632.074 259L631.994 259.12C631.514 259.04 630.594 259 630.114 259C629.634 259 628.714 259.04 628.234 259.12L628.154 259C628.474 256.84 628.514 254.8 628.514 251.8V247.4C628.514 244.72 627.474 243.84 625.314 243.84C623.754 243.84 622.154 244.12 620.234 246.24C620.274 246.72 620.274 247.2 620.274 247.76V251.8C620.274 254.84 620.314 256.72 620.634 259L620.554 259.12C620.074 259.04 619.154 259 618.674 259C618.194 259 617.274 259.04 616.794 259.12L616.714 259C617.034 256.84 617.074 254.8 617.074 251.8V247.4C617.074 244.72 615.954 243.84 614.434 243.84C613.034 243.84 610.794 245.04 608.914 246.96V251.8C608.914 254.84 608.954 256.72 609.274 259L609.194 259.12C608.714 259.04 607.794 259 607.314 259C606.834 259 605.914 259.04 605.434 259.12L605.354 259C605.674 256.84 605.714 254.8 605.714 251.8V249.6C605.714 246.6 605.634 243.6 605.354 241.84L605.434 241.72C606.314 241.84 607.754 241.8 608.674 241.6C608.834 241.6 608.914 241.72 608.914 242V244.92ZM641.18 247.24V256C642.58 257.64 644.26 257.8 644.9 257.8C649.18 257.8 650.1 253.56 650.1 250.28C650.1 245.76 648.7 243.28 645.98 243.28C644.42 243.28 642.06 245.12 641.18 247.24ZM641.18 244.92L641.26 245.04C643.1 242.24 645.1 241.44 646.66 241.44C651.14 241.44 653.62 245.52 653.62 249.76C653.62 255.4 650.42 259.4 645.14 259.4C643.7 259.4 642.22 259.08 641.18 258.52V260.28C641.18 263.32 641.22 266 641.54 268.28L641.46 268.4C640.98 268.32 640.06 268.28 639.58 268.28C639.1 268.28 638.18 268.32 637.7 268.4L637.62 268.28C637.9 266.16 637.98 263.28 637.98 260.28V249.6C637.98 246.6 637.9 243.6 637.62 241.84L637.7 241.72C638.58 241.84 640.02 241.8 640.94 241.6C641.1 241.6 641.18 241.72 641.18 242V244.92ZM668.037 250L664.637 250.92C661.517 251.76 660.677 253.12 660.677 254.92C660.677 256.16 661.837 257.36 663.637 257.36C664.837 257.36 666.197 256.64 667.317 255.8C667.637 255.56 667.877 255.28 667.877 254.76L668.037 250ZM668.037 257.08H667.877C665.757 258.88 664.637 259.4 662.437 259.4C659.477 259.4 657.437 258.04 657.437 255.08C657.437 252.36 659.997 250.2 664.077 249.28L667.797 248.44C667.917 248.4 668.077 248.24 668.077 247.96C668.077 243.44 665.677 243.24 664.237 243.24C662.317 243.24 660.957 244.84 659.837 246.64L659.317 246.6L658.637 243.92L658.757 243.76C659.757 242.92 661.597 241.44 664.637 241.44C667.677 241.44 671.237 242.52 671.237 247.92C671.237 248.36 671.117 252.8 671.117 253.96C671.117 255.76 671.357 256.72 671.757 257.08C672.037 257.32 672.557 257.4 672.957 257.4C673.237 257.4 673.597 257.36 674.037 257.2L674.317 258.16C673.397 259.16 672.157 259.4 671.157 259.4C669.677 259.4 668.477 258.68 668.037 257.08ZM684.895 243.04C682.255 243.04 679.935 245.68 679.935 250.08C679.935 254.76 682.215 257.4 685.135 257.4C686.615 257.4 687.895 257.08 689.415 255.72H689.575L690.335 256.56C688.735 258.6 686.855 259.4 684.455 259.4C679.575 259.4 676.415 255.88 676.415 250.28C676.415 244.84 680.775 241.44 684.935 241.44C686.935 241.44 689.015 241.92 690.255 242.56L690.335 242.68L689.415 245.96L688.895 246C687.815 244.2 686.415 243.04 684.895 243.04ZM695.843 241.84C695.843 239.52 695.923 238.12 696.003 236.72L696.083 236.6C697.363 236.44 697.843 236 698.883 235.6C699.123 235.6 699.243 235.72 699.243 236C699.043 238.32 699.043 238.88 699.043 241.84H700.923C701.843 241.84 703.003 241.8 703.723 241.76L703.923 242.04C703.683 242.64 703.563 243.04 703.443 243.68C702.883 243.64 701.523 243.6 700.563 243.6H699.043V248.64C699.043 251.04 698.923 252.76 698.923 253.96C698.923 256.16 699.283 257.12 700.243 257.24C701.243 257.4 702.163 257.36 703.363 256.96L703.883 257.92C702.203 259 700.923 259.4 699.243 259.4C697.403 259.4 695.723 258.16 695.723 255.56C695.723 254.36 695.843 251.48 695.843 249.08V243.6C694.923 243.64 693.683 243.64 693.003 243.68L692.803 243.4C693.163 242.8 693.403 242.44 693.683 241.76C694.163 241.84 695.003 241.84 695.843 241.84Z" fill="black"/>
</g>
</svg>
