<svg width="1920" height="1080" viewBox="0 0 1920 1080" fill="none" xmlns="http://www.w3.org/2000/svg">
<g id="Examples Big O">
<rect width="1920" height="1080" fill="white"/>
<g id="Selection_sort">
<path id="Examples" d="M853.003 65V63.6816C853.979 63.2259 854.777 62.7539 855.396 62.2656C855.493 61.582 855.575 60.4753 855.64 58.9453C855.77 56.1458 855.835 54.1113 855.835 52.8418V41.8555C855.835 41.4323 855.811 39.8454 855.762 37.0947C855.713 35.2555 855.599 34.1325 855.42 33.7256C855.339 33.5628 855.216 33.4408 855.054 33.3594C854.614 33.1641 853.442 33.0176 851.538 32.9199V30.8447L857.202 30.9668C858.325 30.9831 859.399 30.9912 860.425 30.9912C862.655 30.9912 865.137 30.9668 867.871 30.918L872.827 30.7959C873.413 30.7959 874.601 30.8285 876.392 30.8936C876.554 30.8936 876.823 30.9424 877.197 31.04L877.368 31.3574L876.904 34.873C876.888 35.1172 876.807 36.2891 876.66 38.3887H874.756C874.723 36.4681 874.65 35.2881 874.536 34.8486C874.471 34.6208 874.373 34.458 874.243 34.3604C874.032 34.2139 873.381 34.0837 872.29 33.9697C870.679 33.7907 869.1 33.7012 867.554 33.7012C866.105 33.7012 864.624 33.7581 863.11 33.8721C862.882 35.7113 862.769 38.0469 862.769 40.8789V45.8838C863.875 45.9652 865.031 46.0059 866.235 46.0059C866.61 46.0059 867.961 45.9733 870.288 45.9082C871.167 45.8919 871.68 45.835 871.826 45.7373C871.989 45.6396 872.111 45.4688 872.192 45.2246C872.388 44.6061 872.502 43.5726 872.534 42.124H874.512L874.414 47.4951L874.512 52.8418H872.412C872.428 50.9538 872.306 49.79 872.046 49.3506C871.851 49.0251 871.501 48.8216 870.996 48.7402C869.873 48.5612 868.433 48.4717 866.675 48.4717C865.096 48.4717 863.794 48.5205 862.769 48.6182V58.9697C862.769 60.1253 862.793 61.1182 862.842 61.9482C864.16 62.0459 865.723 62.0947 867.529 62.0947C869.287 62.0947 870.907 62.0378 872.388 61.9238C873.885 61.8099 874.805 61.6471 875.146 61.4355C875.26 61.3704 875.366 61.224 875.464 60.9961C875.757 60.2148 876.066 58.7337 876.392 56.5527H878.394C878.035 59.7754 877.856 62.4284 877.856 64.5117L877.539 64.8291C876.497 64.943 875.016 65 873.096 65L869.165 64.9268C865.291 64.8779 862.622 64.8535 861.157 64.8535C860.767 64.8535 858.049 64.9023 853.003 65ZM881.665 63.0957C882.821 63.0469 883.586 62.8841 883.96 62.6074C884.627 62.1029 886.841 59.401 890.601 54.502L887.427 49.2285L886.206 47.1777C885.767 46.5104 885.335 45.9489 884.912 45.4932C884.652 45.2165 884.399 45.0293 884.155 44.9316C883.927 44.8177 883.659 44.7607 883.35 44.7607C883.073 44.7607 882.617 44.8014 881.982 44.8828L881.592 43.0518C884.196 42.5635 886.629 42.0264 888.892 41.4404C889.624 42.0101 890.34 42.7751 891.04 43.7354C891.756 44.6794 892.936 46.6081 894.58 49.5215C895.638 48.1868 896.484 47.0638 897.119 46.1523L899.927 42.002C901.034 42.0508 901.693 42.0752 901.904 42.0752L904.663 42.002V43.9062C903.719 43.9714 903.125 44.0527 902.881 44.1504C902.653 44.2318 902.197 44.6224 901.514 45.3223C900.83 46.0059 899.691 47.3079 898.096 49.2285L895.996 51.7676L899.536 57.8711C900.627 59.7754 901.481 61.1426 902.1 61.9727C902.409 62.4121 902.653 62.6725 902.832 62.7539C903.027 62.8353 903.638 62.9492 904.663 63.0957V65C903.459 64.9674 901.831 64.9512 899.78 64.9512C898.608 64.9512 897.673 64.9674 896.973 65C896.598 64.4792 896.053 63.6165 895.337 62.4121L893.872 60.0195L891.992 56.748C890.381 58.9128 889.38 60.2799 888.989 60.8496C888.257 61.9076 887.337 63.291 886.23 65C885.368 64.9837 884.66 64.9756 884.106 64.9756C883.602 64.9756 882.788 64.9837 881.665 65V63.0957ZM929.419 63.1689V65C927.547 64.9186 925.887 64.8779 924.438 64.8779C923.071 64.8779 921.745 64.9186 920.459 65L920.239 64.7314L920.459 61.5332C919.873 61.9076 918.148 63.1934 915.283 65.3906C914.551 65.5534 913.851 65.6348 913.184 65.6348C911.41 65.6348 910.018 65.1139 909.009 64.0723C908.016 63.0306 907.52 61.5332 907.52 59.5801C907.52 58.2617 907.739 57.1794 908.179 56.333C908.634 55.4867 909.115 54.8682 909.619 54.4775C910.14 54.0706 910.938 53.68 912.012 53.3057C914.583 52.3942 917.399 51.6781 920.459 51.1572C920.492 49.2204 920.093 47.7474 919.263 46.7383C918.416 45.7292 917.131 45.2246 915.405 45.2246C914.705 45.2246 914.038 45.3141 913.403 45.4932C913.127 45.5745 912.801 45.7373 912.427 45.9814L911.401 48.4473L909.741 48.0811L909.888 44.9316C911.092 44.1178 912.24 43.4098 913.33 42.8076C914.421 42.2054 915.186 41.8392 915.625 41.709C916.227 41.5299 917.074 41.4404 918.164 41.4404C919.938 41.4404 921.395 41.7008 922.534 42.2217C923.69 42.7262 924.536 43.3285 925.073 44.0283C925.627 44.7282 926.001 45.4769 926.196 46.2744C926.408 47.0719 926.514 48.0811 926.514 49.3018C926.514 49.8226 926.473 51.1816 926.392 53.3789C926.343 54.8438 926.318 56.04 926.318 56.9678C926.318 59.8649 926.4 61.6227 926.562 62.2412C926.628 62.5342 926.758 62.7295 926.953 62.8271C927.214 62.9574 928.035 63.0713 929.419 63.1689ZM920.459 53.208C919.076 53.501 917.806 53.859 916.65 54.2822C915.511 54.6891 914.722 55.2018 914.282 55.8203C913.843 56.4225 913.623 57.1875 913.623 58.1152C913.623 59.1569 913.883 59.9626 914.404 60.5322C914.941 61.1019 915.641 61.3867 916.504 61.3867C917.236 61.3867 917.969 61.1751 918.701 60.752C919.45 60.3288 920.036 59.7917 920.459 59.1406V53.208ZM932.08 65V63.1201C933.35 63.1201 934.229 63.0306 934.717 62.8516C934.945 62.7702 935.116 62.6318 935.229 62.4365C935.392 62.1273 935.482 61.5413 935.498 60.6787L935.596 58.5059C935.612 58.0501 935.62 57.3096 935.62 56.2842V53.0859C935.62 51.6374 935.571 49.8796 935.474 47.8125C935.425 46.7708 935.352 46.1849 935.254 46.0547C935.173 45.9082 935.034 45.8024 934.839 45.7373C934.53 45.6234 933.61 45.542 932.08 45.4932V43.6133C935.042 43.1087 936.987 42.7344 937.915 42.4902C938.843 42.2461 939.893 41.8555 941.064 41.3184L941.724 41.6113V45.542L946.167 41.9775C946.688 41.766 947.127 41.6276 947.485 41.5625C947.86 41.4811 948.356 41.4404 948.975 41.4404C950.928 41.4404 952.401 41.7578 953.394 42.3926C954.403 43.0111 955.233 44.0609 955.884 45.542L960.327 41.9775C960.848 41.766 961.287 41.6276 961.646 41.5625C962.02 41.4811 962.516 41.4404 963.135 41.4404C964.746 41.4404 965.991 41.6439 966.87 42.0508C967.765 42.4414 968.506 42.9785 969.092 43.6621C969.678 44.3457 970.093 45.0781 970.337 45.8594C970.581 46.6406 970.703 47.8451 970.703 49.4727C970.703 51.263 970.687 52.4512 970.654 53.0371C970.638 53.2324 970.63 53.4684 970.63 53.7451V56.2842C970.63 58.8883 970.671 60.5566 970.752 61.2891C970.85 62.0052 971.004 62.4609 971.216 62.6562C971.444 62.8353 971.932 62.9492 972.681 62.998C972.941 63.0143 973.397 63.055 974.048 63.1201V65C971.818 64.8698 969.979 64.8047 968.53 64.8047C966.886 64.8047 965.487 64.8698 964.331 65L963.989 64.5361L964.282 60.1172C964.347 58.3268 964.38 56.7887 964.38 55.5029V53.6475C964.38 50.7503 964.25 48.9274 963.989 48.1787C963.729 47.4137 963.289 46.8197 962.671 46.3965C962.069 45.957 961.304 45.7373 960.376 45.7373C959.334 45.7373 958.447 46.0059 957.715 46.543C956.982 47.0638 956.527 47.5439 956.348 47.9834C956.185 48.4066 956.112 49.2692 956.128 50.5713V56.4795L956.177 58.9209L956.226 60.8984C956.242 61.5007 956.299 61.9157 956.396 62.1436C956.494 62.3714 956.632 62.5423 956.812 62.6562C956.958 62.7376 957.267 62.8109 957.739 62.876C958.667 62.9899 959.334 63.0713 959.741 63.1201V65C958.293 64.9349 956.209 64.9023 953.491 64.9023C950.464 64.9023 948.226 64.9349 946.777 65V63.1201C947.087 63.0713 947.485 63.0225 947.974 62.9736C948.69 62.9248 949.137 62.8434 949.316 62.7295C949.512 62.5993 949.666 62.3551 949.78 61.9971C949.894 61.6227 949.951 60.7682 949.951 59.4336L950 55.1123V51.6455C950 49.9854 949.894 48.8135 949.683 48.1299C949.487 47.43 949.072 46.8522 948.438 46.3965C947.819 45.9245 947.013 45.6885 946.021 45.6885C944.93 45.6885 944.01 45.9652 943.262 46.5186C942.513 47.0719 942.041 47.6253 941.846 48.1787C941.748 48.488 941.707 49.7656 941.724 52.0117V56.2842C941.724 58.4814 941.772 60.166 941.87 61.3379C941.903 61.9564 941.984 62.347 942.114 62.5098C942.244 62.6725 942.464 62.7946 942.773 62.876C943.001 62.9411 943.758 63.0225 945.044 63.1201V65C943.286 64.9349 941.17 64.9023 938.696 64.9023C935.913 64.9023 933.708 64.9349 932.08 65ZM986.108 64.8291V73.8623C986.108 74.611 986.182 75.0749 986.328 75.2539C986.475 75.4492 986.743 75.5876 987.134 75.6689C987.297 75.7015 988.395 75.7992 990.43 75.9619V77.8906L982.69 77.7197L976.294 77.8906V75.9619C977.775 75.9619 978.687 75.8968 979.028 75.7666C979.224 75.7015 979.378 75.5794 979.492 75.4004C979.622 75.2376 979.704 75.0342 979.736 74.79C979.818 74.139 979.891 72.7393 979.956 70.5908L980.029 65.3418V54.0381C980.029 51.9873 979.997 50.1969 979.932 48.667C979.867 47.1208 979.753 46.2093 979.59 45.9326C979.476 45.7536 979.305 45.6234 979.077 45.542C978.849 45.4443 977.922 45.3874 976.294 45.3711V43.4668C978.719 43.2064 980.55 42.9297 981.787 42.6367C983.024 42.3438 984.302 41.9043 985.62 41.3184L986.182 41.6846L986.108 45.7861C986.353 45.5908 986.759 45.2572 987.329 44.7852L989.771 42.7832C989.933 42.6367 990.177 42.4089 990.503 42.0996C991.138 41.8392 991.667 41.6683 992.09 41.5869C992.529 41.4893 993.132 41.4404 993.896 41.4404C995.622 41.4404 997.013 41.6846 998.071 42.1729C999.585 42.8727 1000.83 43.9632 1001.81 45.4443C1002.78 46.9092 1003.27 48.6995 1003.27 50.8154C1003.27 52.1501 1003.09 53.4766 1002.73 54.7949C1002.38 56.1133 1001.97 57.1631 1001.51 57.9443C1001.07 58.7256 1000.6 59.3766 1000.1 59.8975C999.723 60.2881 999.089 60.8089 998.193 61.46C997.314 62.111 996.501 62.7458 995.752 63.3643C995.003 63.9827 994.466 64.3978 994.141 64.6094C993.62 64.9349 993.123 65.1628 992.651 65.293C992 65.4883 991.243 65.5859 990.381 65.5859C989.697 65.5859 988.997 65.5208 988.281 65.3906C987.565 65.2604 986.841 65.0732 986.108 64.8291ZM986.108 60.1416C986.857 60.9066 987.638 61.4844 988.452 61.875C989.266 62.2493 990.112 62.4365 990.991 62.4365C992.163 62.4365 993.197 62.1436 994.092 61.5576C995.003 60.9717 995.711 59.987 996.216 58.6035C996.737 57.2201 996.997 55.625 996.997 53.8184C996.997 52.6628 996.867 51.5723 996.606 50.5469C996.346 49.5052 995.988 48.667 995.532 48.0322C995.076 47.3812 994.45 46.8441 993.652 46.4209C992.871 45.9814 992.017 45.7617 991.089 45.7617C990.194 45.7617 989.282 45.9896 988.354 46.4453C987.443 46.901 986.694 47.4788 986.108 48.1787V60.1416ZM1020.8 63.0469V65C1018.77 64.8698 1016.64 64.8047 1014.43 64.8047C1012.22 64.8047 1009.72 64.8698 1006.96 65V63.0713C1008.5 63.0225 1009.44 62.9574 1009.77 62.876C1010.01 62.8109 1010.19 62.7214 1010.3 62.6074C1010.43 62.4772 1010.52 62.2819 1010.57 62.0215C1010.69 61.5332 1010.77 59.9951 1010.82 57.4072C1010.86 54.8193 1010.89 52.5244 1010.89 50.5225V42.4658C1010.89 39.9105 1010.83 37.5749 1010.72 35.459C1010.65 34.3197 1010.57 33.6442 1010.47 33.4326C1010.41 33.3187 1010.32 33.2292 1010.21 33.1641C1010.01 33.0339 1009.7 32.9362 1009.28 32.8711C1009.03 32.8385 1008.3 32.7979 1007.08 32.749V30.9424C1009.1 30.7308 1010.71 30.5029 1011.91 30.2588C1013.12 29.9984 1014.74 29.5508 1016.77 28.916L1017.29 29.209L1017.09 34.1406C1017.01 36.9076 1016.96 40.3011 1016.94 44.3213V50.5713C1016.94 52.9313 1016.96 54.6973 1016.99 55.8691C1017.06 58.7826 1017.11 60.5485 1017.14 61.167C1017.17 61.7692 1017.23 62.1517 1017.31 62.3145C1017.36 62.4284 1017.44 62.526 1017.55 62.6074C1017.7 62.7214 1017.95 62.8109 1018.31 62.876C1018.46 62.9085 1019.29 62.9655 1020.8 63.0469ZM1044.92 61.2402L1043.85 63.6328C1042.51 64.4466 1041.14 65.0488 1039.72 65.4395C1038.66 65.7161 1037.46 65.8545 1036.11 65.8545C1034.5 65.8545 1033.07 65.6673 1031.84 65.293C1030.62 64.9186 1029.57 64.4059 1028.69 63.7549C1027.82 63.1038 1027.06 62.3063 1026.39 61.3623C1025.74 60.4183 1025.27 59.3278 1024.98 58.0908C1024.68 56.8538 1024.54 55.5029 1024.54 54.0381C1024.54 51.9059 1024.82 50.0016 1025.39 48.3252C1025.78 47.1533 1026.24 46.307 1026.76 45.7861C1027.08 45.4606 1027.93 44.8503 1029.3 43.9551C1030.66 43.0599 1031.66 42.474 1032.28 42.1973C1033.41 41.6927 1034.76 41.4404 1036.3 41.4404C1038.48 41.4404 1040.28 41.8962 1041.67 42.8076C1043.07 43.7191 1044.06 44.8828 1044.63 46.2988C1045.21 47.7148 1045.51 49.432 1045.51 51.4502C1045.51 51.9059 1045.49 52.3454 1045.46 52.7686C1045.05 52.8988 1044.43 53.0452 1043.6 53.208C1042.5 53.4196 1041.75 53.5335 1041.36 53.5498C1040.14 53.6475 1038.53 53.7044 1036.52 53.7207C1034.52 53.737 1033.41 53.7533 1033.2 53.7695C1032.99 53.7858 1032.76 53.7939 1032.5 53.7939H1030.88C1031.01 56.3656 1031.81 58.4001 1033.28 59.8975C1034.74 61.3786 1036.55 62.1191 1038.7 62.1191C1039.62 62.1191 1040.48 62.0215 1041.26 61.8262C1042.04 61.6146 1043.07 61.1914 1044.34 60.5566L1044.92 61.2402ZM1039.11 51.1328C1039.18 48.5449 1038.83 46.7301 1038.06 45.6885C1037.28 44.6631 1036.27 44.1504 1035.03 44.1504C1033.76 44.1504 1032.71 44.6875 1031.88 45.7617C1031.04 46.8522 1030.65 48.6426 1030.71 51.1328C1031.67 51.2793 1033.28 51.3525 1035.52 51.3525C1036.95 51.3525 1038.15 51.2793 1039.11 51.1328ZM1049.88 57.3096H1051.83C1051.91 59.1325 1051.99 60.2799 1052.08 60.752C1052.81 61.6471 1053.61 62.3145 1054.49 62.7539C1055.37 63.1771 1056.38 63.3887 1057.52 63.3887C1059.05 63.3887 1060.22 63.0225 1061.04 62.29C1061.85 61.5576 1062.26 60.6706 1062.26 59.6289C1062.26 58.9453 1062.12 58.3838 1061.84 57.9443C1061.58 57.4886 1061.04 57.0736 1060.23 56.6992C1059.59 56.4714 1058.37 56.1621 1056.57 55.7715C1054.78 55.3809 1053.42 54.9495 1052.49 54.4775C1051.56 54.0055 1050.84 53.3057 1050.32 52.3779C1049.8 51.4339 1049.54 50.3353 1049.54 49.082C1049.54 46.8359 1050.38 44.9723 1052.08 43.4912C1053.77 41.9938 1056.2 41.2451 1059.38 41.2451C1060.69 41.2451 1061.91 41.359 1063.01 41.5869C1064.12 41.8148 1065.12 42.1566 1066.02 42.6123L1066.09 42.8564C1065.99 43.4261 1065.92 44.0039 1065.87 44.5898C1065.82 45.1758 1065.75 46.5592 1065.65 48.7402L1063.77 48.7158C1063.75 48.5368 1063.73 48.2357 1063.7 47.8125C1063.65 47.0801 1063.55 46.3721 1063.4 45.6885C1062.9 45.0374 1062.27 44.5492 1061.52 44.2236C1060.79 43.8981 1059.93 43.7354 1058.94 43.7354C1057.55 43.7354 1056.48 44.0446 1055.71 44.6631C1054.96 45.2816 1054.59 46.0221 1054.59 46.8848C1054.59 47.7637 1054.76 48.4147 1055.1 48.8379C1055.44 49.2611 1055.95 49.5785 1056.62 49.79C1057.28 50.0016 1058.51 50.2783 1060.3 50.6201C1062.11 50.9456 1063.32 51.2223 1063.94 51.4502C1064.84 51.792 1065.55 52.2233 1066.09 52.7441C1066.63 53.265 1067.03 53.916 1067.31 54.6973C1067.6 55.4622 1067.75 56.3086 1067.75 57.2363C1067.75 59.6615 1066.81 61.7041 1064.92 63.3643C1063.05 65.0244 1060.41 65.8545 1057.01 65.8545C1055.87 65.8545 1054.76 65.7487 1053.69 65.5371C1052.61 65.3418 1051.3 64.9756 1049.76 64.4385L1049.49 64.0723C1049.62 62.819 1049.7 61.932 1049.73 61.4111L1049.88 57.3096Z" fill="black"/>
<path id="Selection sort" d="M312.171 199.78H310.12C310.088 197.892 310.006 196.558 309.876 195.776C309.371 195.06 308.493 194.425 307.239 193.872C306.002 193.319 304.611 193.042 303.064 193.042C300.851 193.042 299.134 193.604 297.913 194.727C296.709 195.833 296.106 197.135 296.106 198.633C296.123 199.707 296.302 200.578 296.644 201.245C296.985 201.912 297.474 202.441 298.108 202.832C298.743 203.223 299.679 203.581 300.916 203.906C301.86 204.102 303.17 204.346 304.847 204.639C306.539 204.932 307.638 205.135 308.143 205.249C309.461 205.591 310.527 206.006 311.341 206.494C312.155 206.966 312.798 207.52 313.27 208.154C313.758 208.773 314.157 209.562 314.466 210.522C314.775 211.466 314.93 212.533 314.93 213.721C314.93 215.804 314.498 217.635 313.636 219.214C312.985 220.402 312.081 221.493 310.926 222.485C309.77 223.462 308.582 224.194 307.361 224.683C305.408 225.464 303.064 225.854 300.33 225.854C298.328 225.854 296.546 225.667 294.983 225.293C293.421 224.919 291.704 224.276 289.832 223.364C290.337 221.509 290.597 218.685 290.613 214.893H292.664C292.632 216.064 292.721 217.521 292.933 219.263C293.551 220.272 294.609 221.159 296.106 221.924C297.604 222.689 299.24 223.071 301.014 223.071C302.56 223.071 303.935 222.803 305.14 222.266C306.36 221.712 307.239 220.955 307.776 219.995C308.33 219.035 308.606 217.944 308.606 216.724C308.606 215.698 308.411 214.819 308.021 214.087C307.646 213.354 307.052 212.769 306.238 212.329C305.424 211.89 303.992 211.434 301.941 210.962C298.995 210.343 297.059 209.896 296.131 209.619C294.731 209.196 293.6 208.586 292.737 207.788C291.891 206.991 291.256 206.03 290.833 204.907C290.41 203.768 290.198 202.547 290.198 201.245C290.198 199.422 290.581 197.746 291.346 196.216C292.111 194.67 293.12 193.473 294.373 192.627C295.626 191.781 297.042 191.178 298.621 190.82C300.2 190.446 301.819 190.259 303.479 190.259C305.205 190.259 306.873 190.413 308.484 190.723C310.112 191.032 311.52 191.479 312.708 192.065L312.903 192.651C312.675 193.709 312.505 194.751 312.391 195.776C312.293 196.785 312.22 198.12 312.171 199.78ZM340.223 221.24L339.148 223.633C337.814 224.447 336.438 225.049 335.022 225.439C333.965 225.716 332.76 225.854 331.409 225.854C329.798 225.854 328.374 225.667 327.137 225.293C325.916 224.919 324.866 224.406 323.987 223.755C323.125 223.104 322.36 222.306 321.692 221.362C321.041 220.418 320.569 219.328 320.276 218.091C319.983 216.854 319.837 215.503 319.837 214.038C319.837 211.906 320.122 210.002 320.691 208.325C321.082 207.153 321.538 206.307 322.059 205.786C322.384 205.461 323.23 204.85 324.598 203.955C325.965 203.06 326.958 202.474 327.576 202.197C328.715 201.693 330.058 201.44 331.604 201.44C333.785 201.44 335.576 201.896 336.976 202.808C338.375 203.719 339.36 204.883 339.93 206.299C340.516 207.715 340.809 209.432 340.809 211.45C340.809 211.906 340.792 212.345 340.76 212.769C340.353 212.899 339.734 213.045 338.904 213.208C337.798 213.42 337.049 213.534 336.658 213.55C335.438 213.647 333.826 213.704 331.824 213.721C329.822 213.737 328.715 213.753 328.504 213.77C328.292 213.786 328.056 213.794 327.796 213.794H326.185C326.315 216.366 327.112 218.4 328.577 219.897C330.042 221.379 331.849 222.119 333.997 222.119C334.925 222.119 335.779 222.021 336.561 221.826C337.342 221.615 338.367 221.191 339.637 220.557L340.223 221.24ZM334.412 211.133C334.477 208.545 334.127 206.73 333.362 205.688C332.581 204.663 331.572 204.15 330.335 204.15C329.065 204.15 328.016 204.688 327.186 205.762C326.339 206.852 325.949 208.643 326.014 211.133C326.974 211.279 328.577 211.353 330.823 211.353C332.256 211.353 333.452 211.279 334.412 211.133ZM357.752 223.047V225C355.717 224.87 353.593 224.805 351.38 224.805C349.166 224.805 346.676 224.87 343.909 225V223.071C345.455 223.022 346.391 222.957 346.717 222.876C346.961 222.811 347.14 222.721 347.254 222.607C347.384 222.477 347.474 222.282 347.522 222.021C347.636 221.533 347.718 219.995 347.767 217.407C347.815 214.819 347.84 212.524 347.84 210.522V202.466C347.84 199.91 347.783 197.575 347.669 195.459C347.604 194.32 347.522 193.644 347.425 193.433C347.36 193.319 347.27 193.229 347.156 193.164C346.961 193.034 346.652 192.936 346.229 192.871C345.984 192.839 345.252 192.798 344.031 192.749V190.942C346.049 190.731 347.661 190.503 348.865 190.259C350.07 189.998 351.689 189.551 353.724 188.916L354.236 189.209L354.041 194.141C353.96 196.908 353.911 200.301 353.895 204.321V210.571C353.895 212.931 353.911 214.697 353.943 215.869C354.008 218.783 354.057 220.549 354.09 221.167C354.122 221.769 354.179 222.152 354.261 222.314C354.31 222.428 354.391 222.526 354.505 222.607C354.651 222.721 354.904 222.811 355.262 222.876C355.408 222.909 356.238 222.965 357.752 223.047ZM381.873 221.24L380.799 223.633C379.464 224.447 378.089 225.049 376.673 225.439C375.615 225.716 374.41 225.854 373.06 225.854C371.448 225.854 370.024 225.667 368.787 225.293C367.566 224.919 366.517 224.406 365.638 223.755C364.775 223.104 364.01 222.306 363.343 221.362C362.692 220.418 362.22 219.328 361.927 218.091C361.634 216.854 361.487 215.503 361.487 214.038C361.487 211.906 361.772 210.002 362.342 208.325C362.732 207.153 363.188 206.307 363.709 205.786C364.035 205.461 364.881 204.85 366.248 203.955C367.615 203.06 368.608 202.474 369.227 202.197C370.366 201.693 371.709 201.44 373.255 201.44C375.436 201.44 377.226 201.896 378.626 202.808C380.026 203.719 381.01 204.883 381.58 206.299C382.166 207.715 382.459 209.432 382.459 211.45C382.459 211.906 382.443 212.345 382.41 212.769C382.003 212.899 381.385 213.045 380.555 213.208C379.448 213.42 378.699 213.534 378.309 213.55C377.088 213.647 375.477 213.704 373.475 213.721C371.473 213.737 370.366 213.753 370.154 213.77C369.943 213.786 369.707 213.794 369.446 213.794H367.835C367.965 216.366 368.763 218.4 370.228 219.897C371.692 221.379 373.499 222.119 375.647 222.119C376.575 222.119 377.43 222.021 378.211 221.826C378.992 221.615 380.018 221.191 381.287 220.557L381.873 221.24ZM376.062 211.133C376.128 208.545 375.778 206.73 375.013 205.688C374.231 204.663 373.222 204.15 371.985 204.15C370.716 204.15 369.666 204.688 368.836 205.762C367.99 206.852 367.599 208.643 367.664 211.133C368.624 211.279 370.228 211.353 372.474 211.353C373.906 211.353 375.102 211.279 376.062 211.133ZM405.237 221.777L404.163 224.146C402.763 224.845 401.624 225.301 400.745 225.513C399.882 225.741 398.841 225.854 397.62 225.854C394.951 225.854 392.786 225.334 391.126 224.292C389.466 223.25 388.204 221.761 387.342 219.824C386.723 218.457 386.414 216.634 386.414 214.355C386.414 212.646 386.577 211.247 386.902 210.156C387.228 209.066 387.692 208.105 388.294 207.275C388.701 206.722 389.246 206.201 389.93 205.713L393.689 203.345C394.959 202.531 395.83 202.043 396.302 201.88C397.083 201.587 398.1 201.44 399.354 201.44C400.395 201.44 401.364 201.53 402.259 201.709C403.17 201.872 404.008 202.124 404.773 202.466L405.018 202.881L404.407 206.86C404.358 207.218 404.277 208.341 404.163 210.229H402.259C402.161 208.781 402.039 207.707 401.893 207.007C401.551 206.453 401.022 206.006 400.306 205.664C399.59 205.306 398.711 205.127 397.669 205.127C396.432 205.127 395.447 205.355 394.715 205.811C393.982 206.266 393.445 207.031 393.104 208.105C392.762 209.18 392.591 210.482 392.591 212.012C392.591 214.062 392.941 215.902 393.641 217.529C394.34 219.141 395.26 220.329 396.399 221.094C397.555 221.842 398.971 222.217 400.647 222.217C401.412 222.217 402.137 222.135 402.82 221.973C403.504 221.794 404.155 221.541 404.773 221.216L405.237 221.777ZM407.557 206.421V205.322L409.754 203.931C410.112 203.703 410.454 203.459 410.779 203.198V199.927C410.779 198.755 410.714 197.306 410.584 195.581C412.163 195.06 413.188 194.71 413.66 194.531C413.742 194.499 414.775 194.019 416.761 193.091L417.396 193.579L417.151 196.118L416.98 198.926L416.761 203.198H417.566C419.731 203.198 421.367 203.117 422.474 202.954L422.059 206.25C421.863 206.283 421.684 206.299 421.521 206.299L419.129 206.25H416.761V214.404C416.761 216.911 416.785 218.392 416.834 218.848C416.899 219.613 417.168 220.215 417.64 220.654C418.128 221.077 418.828 221.289 419.739 221.289C420.293 221.305 420.732 221.297 421.058 221.265C421.399 221.216 421.831 221.134 422.352 221.021L422.742 222.021L421.863 222.9C421.147 223.633 420.521 224.276 419.983 224.829C419.349 225.106 418.779 225.285 418.274 225.366C417.786 225.464 417.282 225.513 416.761 225.513C414.873 225.513 413.383 225.033 412.293 224.072C411.219 223.096 410.682 221.883 410.682 220.435L410.779 212.378V206.348H410.12C409.225 206.348 408.37 206.372 407.557 206.421ZM431.458 189.648C432.5 189.648 433.379 190.015 434.095 190.747C434.827 191.479 435.193 192.358 435.193 193.384C435.193 194.425 434.827 195.312 434.095 196.045C433.379 196.777 432.5 197.144 431.458 197.144C430.433 197.144 429.554 196.777 428.821 196.045C428.089 195.312 427.723 194.425 427.723 193.384C427.723 192.358 428.081 191.479 428.797 190.747C429.529 190.015 430.416 189.648 431.458 189.648ZM424.769 225V223.193C426.591 223.063 427.633 222.925 427.894 222.778C428.154 222.616 428.317 222.323 428.382 221.899C428.545 221.004 428.626 218.701 428.626 214.99C428.626 209.896 428.553 206.999 428.406 206.299C428.341 205.973 428.235 205.762 428.089 205.664C427.763 205.452 426.657 205.339 424.769 205.322V203.467C427.226 203.206 429.082 202.93 430.335 202.637C431.588 202.344 432.955 201.896 434.437 201.294L435.022 201.611C434.827 204.15 434.729 206.535 434.729 208.765V217.065C434.729 219.897 434.795 221.574 434.925 222.095C434.99 222.388 435.12 222.583 435.315 222.681C435.755 222.892 436.821 223.031 438.514 223.096V225C436.202 224.935 433.688 224.902 430.97 224.902C428.626 224.902 426.559 224.935 424.769 225ZM441.834 213.477C441.834 210.71 442.306 208.423 443.25 206.616C444.194 204.793 445.61 203.426 447.498 202.515C449.386 201.587 451.583 201.123 454.09 201.123C457.85 201.123 460.706 202.108 462.659 204.077C464.629 206.047 465.613 208.936 465.613 212.744C465.613 214.941 465.328 216.846 464.759 218.457C464.189 220.068 463.424 221.37 462.464 222.363C461.504 223.34 460.494 224.08 459.437 224.585C457.63 225.431 455.595 225.854 453.333 225.854C449.655 225.854 446.814 224.813 444.812 222.729C442.827 220.63 441.834 217.546 441.834 213.477ZM448.597 212.305C448.597 216.634 449.231 219.718 450.501 221.558C451.347 222.778 452.552 223.389 454.114 223.389C455.449 223.389 456.507 222.925 457.288 221.997C458.33 220.76 458.851 218.368 458.851 214.819C458.851 212.329 458.639 210.197 458.216 208.423C457.809 206.632 457.199 205.387 456.385 204.688C455.587 203.988 454.619 203.638 453.479 203.638C452.503 203.638 451.648 203.898 450.916 204.419C450.184 204.924 449.614 205.786 449.207 207.007C448.8 208.211 448.597 209.977 448.597 212.305ZM497.083 223.12V225C494.869 224.886 493.063 224.829 491.663 224.829C490.052 224.829 488.652 224.886 487.464 225L487.024 224.561C487.057 224.219 487.163 222.811 487.342 220.337L487.464 216.333V214.404C487.464 211.556 487.35 209.684 487.122 208.789C486.91 207.894 486.463 207.178 485.779 206.641C485.096 206.087 484.184 205.811 483.045 205.811C481.906 205.811 480.962 206.087 480.213 206.641C479.464 207.178 478.992 207.723 478.797 208.276C478.683 208.602 478.634 209.904 478.65 212.183V216.284C478.65 217.472 478.683 218.929 478.748 220.654C478.764 221.419 478.829 221.924 478.943 222.168C479.025 222.347 479.131 222.477 479.261 222.559C479.456 222.689 479.839 222.811 480.408 222.925C480.604 222.957 481.287 223.022 482.459 223.12V225C480.685 224.935 478.512 224.902 475.94 224.902C472.962 224.902 470.651 224.935 469.007 225V223.12C470.276 223.12 471.155 223.031 471.644 222.852C471.871 222.77 472.042 222.632 472.156 222.437C472.319 222.127 472.409 221.541 472.425 220.679L472.522 218.506C472.539 218.05 472.547 217.31 472.547 216.284V213.086C472.547 211.637 472.498 209.88 472.4 207.812C472.352 206.771 472.278 206.185 472.181 206.055C472.099 205.908 471.961 205.802 471.766 205.737C471.456 205.623 470.537 205.542 469.007 205.493V203.613C471.969 203.109 473.914 202.734 474.842 202.49C475.77 202.246 476.819 201.855 477.991 201.318L478.65 201.611V205.542L483.094 201.978C483.631 201.766 484.078 201.628 484.437 201.562C484.811 201.481 485.324 201.44 485.975 201.44C487.716 201.44 489.018 201.636 489.881 202.026C490.76 202.417 491.5 202.97 492.103 203.687C492.705 204.386 493.128 205.127 493.372 205.908C493.616 206.673 493.738 207.878 493.738 209.521C493.738 211.377 493.722 212.557 493.689 213.062C493.673 213.257 493.665 213.493 493.665 213.77L493.689 216.284C493.706 219.035 493.746 220.736 493.812 221.387C493.893 222.038 494.039 222.461 494.251 222.656C494.479 222.835 494.967 222.949 495.716 222.998C495.993 223.014 496.448 223.055 497.083 223.12ZM513.245 217.31H515.198C515.28 219.132 515.361 220.28 515.442 220.752C516.175 221.647 516.98 222.314 517.859 222.754C518.738 223.177 519.747 223.389 520.887 223.389C522.417 223.389 523.589 223.022 524.402 222.29C525.216 221.558 525.623 220.671 525.623 219.629C525.623 218.945 525.485 218.384 525.208 217.944C524.948 217.489 524.41 217.074 523.597 216.699C522.962 216.471 521.741 216.162 519.935 215.771C518.144 215.381 516.785 214.95 515.857 214.478C514.93 214.006 514.205 213.306 513.685 212.378C513.164 211.434 512.903 210.335 512.903 209.082C512.903 206.836 513.75 204.972 515.442 203.491C517.135 201.994 519.568 201.245 522.742 201.245C524.061 201.245 525.273 201.359 526.38 201.587C527.487 201.815 528.488 202.157 529.383 202.612L529.456 202.856C529.358 203.426 529.285 204.004 529.236 204.59C529.188 205.176 529.114 206.559 529.017 208.74L527.137 208.716C527.12 208.537 527.096 208.236 527.063 207.812C527.015 207.08 526.917 206.372 526.771 205.688C526.266 205.037 525.639 204.549 524.891 204.224C524.158 203.898 523.296 203.735 522.303 203.735C520.919 203.735 519.845 204.045 519.08 204.663C518.331 205.282 517.957 206.022 517.957 206.885C517.957 207.764 518.128 208.415 518.47 208.838C518.812 209.261 519.316 209.578 519.983 209.79C520.651 210.002 521.88 210.278 523.67 210.62C525.477 210.946 526.689 211.222 527.308 211.45C528.203 211.792 528.919 212.223 529.456 212.744C529.993 213.265 530.4 213.916 530.677 214.697C530.97 215.462 531.116 216.309 531.116 217.236C531.116 219.661 530.172 221.704 528.284 223.364C526.412 225.024 523.776 225.854 520.374 225.854C519.235 225.854 518.128 225.749 517.054 225.537C515.979 225.342 514.669 224.976 513.123 224.438L512.854 224.072C512.985 222.819 513.066 221.932 513.099 221.411L513.245 217.31ZM534.949 213.477C534.949 210.71 535.421 208.423 536.365 206.616C537.309 204.793 538.725 203.426 540.613 202.515C542.501 201.587 544.699 201.123 547.205 201.123C550.965 201.123 553.821 202.108 555.774 204.077C557.744 206.047 558.729 208.936 558.729 212.744C558.729 214.941 558.444 216.846 557.874 218.457C557.304 220.068 556.539 221.37 555.579 222.363C554.619 223.34 553.61 224.08 552.552 224.585C550.745 225.431 548.711 225.854 546.448 225.854C542.77 225.854 539.93 224.813 537.928 222.729C535.942 220.63 534.949 217.546 534.949 213.477ZM541.712 212.305C541.712 216.634 542.347 219.718 543.616 221.558C544.463 222.778 545.667 223.389 547.229 223.389C548.564 223.389 549.622 222.925 550.403 221.997C551.445 220.76 551.966 218.368 551.966 214.819C551.966 212.329 551.754 210.197 551.331 208.423C550.924 206.632 550.314 205.387 549.5 204.688C548.702 203.988 547.734 203.638 546.595 203.638C545.618 203.638 544.764 203.898 544.031 204.419C543.299 204.924 542.729 205.786 542.322 207.007C541.915 208.211 541.712 209.977 541.712 212.305ZM576.209 223.12V225C574.37 224.919 572.319 224.878 570.057 224.878C567.534 224.878 564.913 224.919 562.195 225V223.12C563.465 223.12 564.344 223.031 564.832 222.852C565.06 222.77 565.231 222.632 565.345 222.437C565.507 222.127 565.597 221.541 565.613 220.679L565.711 218.506C565.727 218.05 565.735 217.31 565.735 216.284V213.086C565.735 211.637 565.687 209.88 565.589 207.812C565.54 206.771 565.467 206.185 565.369 206.055C565.288 205.908 565.149 205.802 564.954 205.737C564.645 205.623 563.725 205.542 562.195 205.493V203.613C565.158 203.109 567.103 202.734 568.03 202.49C568.958 202.246 570.008 201.855 571.18 201.318L571.839 201.611L571.79 206.543C572.848 205.452 573.662 204.549 574.231 203.833C575.078 202.824 575.713 202.181 576.136 201.904C576.722 201.514 577.495 201.318 578.455 201.318C579.057 201.318 579.603 201.416 580.091 201.611L579.944 205.078C579.896 206.966 579.855 208.049 579.822 208.325L578.797 208.643C578.39 208.105 577.999 207.731 577.625 207.52C577.023 207.178 576.364 207.007 575.647 207.007C574.687 207.007 573.857 207.308 573.157 207.91C572.474 208.496 572.067 209.098 571.937 209.717C571.871 210.075 571.839 211.45 571.839 213.843V216.284L571.888 219.604C571.904 220.858 571.945 221.631 572.01 221.924C572.091 222.201 572.262 222.42 572.522 222.583C572.783 222.746 573.344 222.86 574.207 222.925L576.209 223.12ZM581.287 206.421V205.322L583.484 203.931C583.842 203.703 584.184 203.459 584.51 203.198V199.927C584.51 198.755 584.445 197.306 584.314 195.581C585.893 195.06 586.919 194.71 587.391 194.531C587.472 194.499 588.506 194.019 590.491 193.091L591.126 193.579L590.882 196.118L590.711 198.926L590.491 203.198H591.297C593.462 203.198 595.097 203.117 596.204 202.954L595.789 206.25C595.594 206.283 595.415 206.299 595.252 206.299L592.859 206.25H590.491V214.404C590.491 216.911 590.516 218.392 590.564 218.848C590.63 219.613 590.898 220.215 591.37 220.654C591.858 221.077 592.558 221.289 593.47 221.289C594.023 221.305 594.463 221.297 594.788 221.265C595.13 221.216 595.561 221.134 596.082 221.021L596.473 222.021L595.594 222.9C594.878 223.633 594.251 224.276 593.714 224.829C593.079 225.106 592.509 225.285 592.005 225.366C591.517 225.464 591.012 225.513 590.491 225.513C588.603 225.513 587.114 225.033 586.023 224.072C584.949 223.096 584.412 221.883 584.412 220.435L584.51 212.378V206.348H583.851C582.955 206.348 582.101 206.372 581.287 206.421Z" fill="black"/>
<path id="Insertion sort" d="M1329.87 190.845V192.993C1328.23 193.042 1327.25 193.107 1326.94 193.188C1326.63 193.254 1326.41 193.343 1326.28 193.457C1326.15 193.555 1326.06 193.685 1326.01 193.848C1325.9 194.124 1325.82 194.653 1325.77 195.435C1325.74 195.858 1325.71 196.655 1325.7 197.827C1325.63 201.831 1325.6 203.988 1325.6 204.297V214.136L1325.67 218.604C1325.67 220.28 1325.75 221.37 1325.92 221.875C1325.98 222.103 1326.09 222.282 1326.23 222.412C1326.4 222.526 1326.64 222.624 1326.97 222.705C1327.31 222.77 1328.28 222.819 1329.87 222.852V225C1327.22 224.902 1324.39 224.854 1321.38 224.854C1318.75 224.854 1316.42 224.902 1314.37 225V222.852C1316.06 222.786 1317.04 222.729 1317.3 222.681C1317.64 222.616 1317.87 222.526 1317.98 222.412C1318.11 222.298 1318.19 222.168 1318.23 222.021C1318.27 221.826 1318.34 221.061 1318.42 219.727C1318.55 217.773 1318.62 215.967 1318.62 214.307V204.102C1318.62 200.863 1318.6 198.779 1318.57 197.852C1318.49 195.785 1318.39 194.491 1318.27 193.97C1318.23 193.758 1318.14 193.595 1318.03 193.481C1317.93 193.368 1317.74 193.278 1317.44 193.213C1317.17 193.132 1316.14 193.058 1314.37 192.993V190.845C1316.42 190.942 1318.77 190.991 1321.42 190.991C1324.4 190.991 1327.22 190.942 1329.87 190.845ZM1361 223.12V225C1358.79 224.886 1356.98 224.829 1355.58 224.829C1353.97 224.829 1352.57 224.886 1351.38 225L1350.94 224.561C1350.97 224.219 1351.08 222.811 1351.26 220.337L1351.38 216.333V214.404C1351.38 211.556 1351.27 209.684 1351.04 208.789C1350.83 207.894 1350.38 207.178 1349.7 206.641C1349.01 206.087 1348.1 205.811 1346.96 205.811C1345.82 205.811 1344.88 206.087 1344.13 206.641C1343.38 207.178 1342.91 207.723 1342.71 208.276C1342.6 208.602 1342.55 209.904 1342.57 212.183V216.284C1342.57 217.472 1342.6 218.929 1342.66 220.654C1342.68 221.419 1342.75 221.924 1342.86 222.168C1342.94 222.347 1343.05 222.477 1343.18 222.559C1343.37 222.689 1343.75 222.811 1344.32 222.925C1344.52 222.957 1345.2 223.022 1346.38 223.12V225C1344.6 224.935 1342.43 224.902 1339.86 224.902C1336.88 224.902 1334.57 224.935 1332.92 225V223.12C1334.19 223.12 1335.07 223.031 1335.56 222.852C1335.79 222.77 1335.96 222.632 1336.07 222.437C1336.24 222.127 1336.32 221.541 1336.34 220.679L1336.44 218.506C1336.45 218.05 1336.46 217.31 1336.46 216.284V213.086C1336.46 211.637 1336.41 209.88 1336.32 207.812C1336.27 206.771 1336.19 206.185 1336.1 206.055C1336.02 205.908 1335.88 205.802 1335.68 205.737C1335.37 205.623 1334.45 205.542 1332.92 205.493V203.613C1335.89 203.109 1337.83 202.734 1338.76 202.49C1339.69 202.246 1340.74 201.855 1341.91 201.318L1342.57 201.611V205.542L1347.01 201.978C1347.55 201.766 1347.99 201.628 1348.35 201.562C1348.73 201.481 1349.24 201.44 1349.89 201.44C1351.63 201.44 1352.93 201.636 1353.8 202.026C1354.68 202.417 1355.42 202.97 1356.02 203.687C1356.62 204.386 1357.04 205.127 1357.29 205.908C1357.53 206.673 1357.65 207.878 1357.65 209.521C1357.65 211.377 1357.64 212.557 1357.61 213.062C1357.59 213.257 1357.58 213.493 1357.58 213.77L1357.61 216.284C1357.62 219.035 1357.66 220.736 1357.73 221.387C1357.81 222.038 1357.96 222.461 1358.17 222.656C1358.39 222.835 1358.88 222.949 1359.63 222.998C1359.91 223.014 1360.36 223.055 1361 223.12ZM1364.66 217.31H1366.61C1366.7 219.132 1366.78 220.28 1366.86 220.752C1367.59 221.647 1368.4 222.314 1369.28 222.754C1370.15 223.177 1371.16 223.389 1372.3 223.389C1373.83 223.389 1375 223.022 1375.82 222.29C1376.63 221.558 1377.04 220.671 1377.04 219.629C1377.04 218.945 1376.9 218.384 1376.62 217.944C1376.36 217.489 1375.83 217.074 1375.01 216.699C1374.38 216.471 1373.16 216.162 1371.35 215.771C1369.56 215.381 1368.2 214.95 1367.27 214.478C1366.35 214.006 1365.62 213.306 1365.1 212.378C1364.58 211.434 1364.32 210.335 1364.32 209.082C1364.32 206.836 1365.17 204.972 1366.86 203.491C1368.55 201.994 1370.98 201.245 1374.16 201.245C1375.48 201.245 1376.69 201.359 1377.8 201.587C1378.9 201.815 1379.9 202.157 1380.8 202.612L1380.87 202.856C1380.77 203.426 1380.7 204.004 1380.65 204.59C1380.6 205.176 1380.53 206.559 1380.43 208.74L1378.55 208.716C1378.54 208.537 1378.51 208.236 1378.48 207.812C1378.43 207.08 1378.33 206.372 1378.19 205.688C1377.68 205.037 1377.06 204.549 1376.31 204.224C1375.57 203.898 1374.71 203.735 1373.72 203.735C1372.34 203.735 1371.26 204.045 1370.5 204.663C1369.75 205.282 1369.37 206.022 1369.37 206.885C1369.37 207.764 1369.54 208.415 1369.89 208.838C1370.23 209.261 1370.73 209.578 1371.4 209.79C1372.07 210.002 1373.3 210.278 1375.09 210.62C1376.89 210.946 1378.11 211.222 1378.72 211.45C1379.62 211.792 1380.33 212.223 1380.87 212.744C1381.41 213.265 1381.82 213.916 1382.09 214.697C1382.39 215.462 1382.53 216.309 1382.53 217.236C1382.53 219.661 1381.59 221.704 1379.7 223.364C1377.83 225.024 1375.19 225.854 1371.79 225.854C1370.65 225.854 1369.54 225.749 1368.47 225.537C1367.4 225.342 1366.09 224.976 1364.54 224.438L1364.27 224.072C1364.4 222.819 1364.48 221.932 1364.51 221.411L1364.66 217.31ZM1406.92 221.24L1405.85 223.633C1404.51 224.447 1403.14 225.049 1401.72 225.439C1400.66 225.716 1399.46 225.854 1398.11 225.854C1396.5 225.854 1395.07 225.667 1393.84 225.293C1392.62 224.919 1391.57 224.406 1390.69 223.755C1389.82 223.104 1389.06 222.306 1388.39 221.362C1387.74 220.418 1387.27 219.328 1386.98 218.091C1386.68 216.854 1386.54 215.503 1386.54 214.038C1386.54 211.906 1386.82 210.002 1387.39 208.325C1387.78 207.153 1388.24 206.307 1388.76 205.786C1389.08 205.461 1389.93 204.85 1391.3 203.955C1392.66 203.06 1393.66 202.474 1394.28 202.197C1395.41 201.693 1396.76 201.44 1398.3 201.44C1400.48 201.44 1402.28 201.896 1403.67 202.808C1405.07 203.719 1406.06 204.883 1406.63 206.299C1407.21 207.715 1407.51 209.432 1407.51 211.45C1407.51 211.906 1407.49 212.345 1407.46 212.769C1407.05 212.899 1406.43 213.045 1405.6 213.208C1404.5 213.42 1403.75 213.534 1403.36 213.55C1402.14 213.647 1400.53 213.704 1398.52 213.721C1396.52 213.737 1395.41 213.753 1395.2 213.77C1394.99 213.786 1394.76 213.794 1394.5 213.794H1392.88C1393.01 216.366 1393.81 218.4 1395.28 219.897C1396.74 221.379 1398.55 222.119 1400.7 222.119C1401.62 222.119 1402.48 222.021 1403.26 221.826C1404.04 221.615 1405.07 221.191 1406.34 220.557L1406.92 221.24ZM1401.11 211.133C1401.18 208.545 1400.83 206.73 1400.06 205.688C1399.28 204.663 1398.27 204.15 1397.03 204.15C1395.76 204.15 1394.71 204.688 1393.88 205.762C1393.04 206.852 1392.65 208.643 1392.71 211.133C1393.67 211.279 1395.28 211.353 1397.52 211.353C1398.95 211.353 1400.15 211.279 1401.11 211.133ZM1424.79 223.12V225C1422.95 224.919 1420.9 224.878 1418.64 224.878C1416.12 224.878 1413.5 224.919 1410.78 225V223.12C1412.05 223.12 1412.93 223.031 1413.42 222.852C1413.64 222.77 1413.81 222.632 1413.93 222.437C1414.09 222.127 1414.18 221.541 1414.2 220.679L1414.29 218.506C1414.31 218.05 1414.32 217.31 1414.32 216.284V213.086C1414.32 211.637 1414.27 209.88 1414.17 207.812C1414.12 206.771 1414.05 206.185 1413.95 206.055C1413.87 205.908 1413.73 205.802 1413.54 205.737C1413.23 205.623 1412.31 205.542 1410.78 205.493V203.613C1413.74 203.109 1415.69 202.734 1416.61 202.49C1417.54 202.246 1418.59 201.855 1419.76 201.318L1420.42 201.611L1420.37 206.543C1421.43 205.452 1422.25 204.549 1422.82 203.833C1423.66 202.824 1424.3 202.181 1424.72 201.904C1425.31 201.514 1426.08 201.318 1427.04 201.318C1427.64 201.318 1428.19 201.416 1428.67 201.611L1428.53 205.078C1428.48 206.966 1428.44 208.049 1428.41 208.325L1427.38 208.643C1426.97 208.105 1426.58 207.731 1426.21 207.52C1425.61 207.178 1424.95 207.007 1424.23 207.007C1423.27 207.007 1422.44 207.308 1421.74 207.91C1421.06 208.496 1420.65 209.098 1420.52 209.717C1420.46 210.075 1420.42 211.45 1420.42 213.843V216.284L1420.47 219.604C1420.49 220.858 1420.53 221.631 1420.59 221.924C1420.68 222.201 1420.85 222.42 1421.11 222.583C1421.37 222.746 1421.93 222.86 1422.79 222.925L1424.79 223.12ZM1429.87 206.421V205.322L1432.07 203.931C1432.43 203.703 1432.77 203.459 1433.09 203.198V199.927C1433.09 198.755 1433.03 197.306 1432.9 195.581C1434.48 195.06 1435.5 194.71 1435.97 194.531C1436.06 194.499 1437.09 194.019 1439.08 193.091L1439.71 193.579L1439.47 196.118L1439.29 198.926L1439.08 203.198H1439.88C1442.05 203.198 1443.68 203.117 1444.79 202.954L1444.37 206.25C1444.18 206.283 1444 206.299 1443.84 206.299L1441.44 206.25H1439.08V214.404C1439.08 216.911 1439.1 218.392 1439.15 218.848C1439.21 219.613 1439.48 220.215 1439.95 220.654C1440.44 221.077 1441.14 221.289 1442.05 221.289C1442.61 221.305 1443.05 221.297 1443.37 221.265C1443.71 221.216 1444.15 221.134 1444.67 221.021L1445.06 222.021L1444.18 222.9C1443.46 223.633 1442.83 224.276 1442.3 224.829C1441.66 225.106 1441.09 225.285 1440.59 225.366C1440.1 225.464 1439.6 225.513 1439.08 225.513C1437.19 225.513 1435.7 225.033 1434.61 224.072C1433.53 223.096 1433 221.883 1433 220.435L1433.09 212.378V206.348H1432.43C1431.54 206.348 1430.68 206.372 1429.87 206.421ZM1453.77 189.648C1454.81 189.648 1455.69 190.015 1456.41 190.747C1457.14 191.479 1457.51 192.358 1457.51 193.384C1457.51 194.425 1457.14 195.312 1456.41 196.045C1455.69 196.777 1454.81 197.144 1453.77 197.144C1452.75 197.144 1451.87 196.777 1451.14 196.045C1450.4 195.312 1450.04 194.425 1450.04 193.384C1450.04 192.358 1450.4 191.479 1451.11 190.747C1451.84 190.015 1452.73 189.648 1453.77 189.648ZM1447.08 225V223.193C1448.91 223.063 1449.95 222.925 1450.21 222.778C1450.47 222.616 1450.63 222.323 1450.7 221.899C1450.86 221.004 1450.94 218.701 1450.94 214.99C1450.94 209.896 1450.87 206.999 1450.72 206.299C1450.66 205.973 1450.55 205.762 1450.4 205.664C1450.08 205.452 1448.97 205.339 1447.08 205.322V203.467C1449.54 203.206 1451.4 202.93 1452.65 202.637C1453.9 202.344 1455.27 201.896 1456.75 201.294L1457.34 201.611C1457.14 204.15 1457.04 206.535 1457.04 208.765V217.065C1457.04 219.897 1457.11 221.574 1457.24 222.095C1457.3 222.388 1457.43 222.583 1457.63 222.681C1458.07 222.892 1459.14 223.031 1460.83 223.096V225C1458.52 224.935 1456 224.902 1453.28 224.902C1450.94 224.902 1448.87 224.935 1447.08 225ZM1464.15 213.477C1464.15 210.71 1464.62 208.423 1465.56 206.616C1466.51 204.793 1467.92 203.426 1469.81 202.515C1471.7 201.587 1473.9 201.123 1476.4 201.123C1480.16 201.123 1483.02 202.108 1484.97 204.077C1486.94 206.047 1487.93 208.936 1487.93 212.744C1487.93 214.941 1487.64 216.846 1487.07 218.457C1486.5 220.068 1485.74 221.37 1484.78 222.363C1483.82 223.34 1482.81 224.08 1481.75 224.585C1479.94 225.431 1477.91 225.854 1475.65 225.854C1471.97 225.854 1469.13 224.813 1467.13 222.729C1465.14 220.63 1464.15 217.546 1464.15 213.477ZM1470.91 212.305C1470.91 216.634 1471.55 219.718 1472.82 221.558C1473.66 222.778 1474.87 223.389 1476.43 223.389C1477.76 223.389 1478.82 222.925 1479.6 221.997C1480.64 220.76 1481.17 218.368 1481.17 214.819C1481.17 212.329 1480.95 210.197 1480.53 208.423C1480.12 206.632 1479.51 205.387 1478.7 204.688C1477.9 203.988 1476.93 203.638 1475.79 203.638C1474.82 203.638 1473.96 203.898 1473.23 204.419C1472.5 204.924 1471.93 205.786 1471.52 207.007C1471.11 208.211 1470.91 209.977 1470.91 212.305ZM1519.4 223.12V225C1517.18 224.886 1515.38 224.829 1513.98 224.829C1512.37 224.829 1510.97 224.886 1509.78 225L1509.34 224.561C1509.37 224.219 1509.48 222.811 1509.66 220.337L1509.78 216.333V214.404C1509.78 211.556 1509.66 209.684 1509.44 208.789C1509.22 207.894 1508.78 207.178 1508.09 206.641C1507.41 206.087 1506.5 205.811 1505.36 205.811C1504.22 205.811 1503.28 206.087 1502.53 206.641C1501.78 207.178 1501.31 207.723 1501.11 208.276C1501 208.602 1500.95 209.904 1500.96 212.183V216.284C1500.96 217.472 1501 218.929 1501.06 220.654C1501.08 221.419 1501.14 221.924 1501.26 222.168C1501.34 222.347 1501.44 222.477 1501.58 222.559C1501.77 222.689 1502.15 222.811 1502.72 222.925C1502.92 222.957 1503.6 223.022 1504.77 223.12V225C1503 224.935 1500.83 224.902 1498.25 224.902C1495.28 224.902 1492.97 224.935 1491.32 225V223.12C1492.59 223.12 1493.47 223.031 1493.96 222.852C1494.19 222.77 1494.36 222.632 1494.47 222.437C1494.63 222.127 1494.72 221.541 1494.74 220.679L1494.84 218.506C1494.85 218.05 1494.86 217.31 1494.86 216.284V213.086C1494.86 211.637 1494.81 209.88 1494.71 207.812C1494.67 206.771 1494.59 206.185 1494.5 206.055C1494.41 205.908 1494.28 205.802 1494.08 205.737C1493.77 205.623 1492.85 205.542 1491.32 205.493V203.613C1494.28 203.109 1496.23 202.734 1497.16 202.49C1498.08 202.246 1499.13 201.855 1500.31 201.318L1500.96 201.611V205.542L1505.41 201.978C1505.95 201.766 1506.39 201.628 1506.75 201.562C1507.13 201.481 1507.64 201.44 1508.29 201.44C1510.03 201.44 1511.33 201.636 1512.2 202.026C1513.07 202.417 1513.81 202.97 1514.42 203.687C1515.02 204.386 1515.44 205.127 1515.69 205.908C1515.93 206.673 1516.05 207.878 1516.05 209.521C1516.05 211.377 1516.04 212.557 1516 213.062C1515.99 213.257 1515.98 213.493 1515.98 213.77L1516 216.284C1516.02 219.035 1516.06 220.736 1516.13 221.387C1516.21 222.038 1516.35 222.461 1516.57 222.656C1516.79 222.835 1517.28 222.949 1518.03 222.998C1518.31 223.014 1518.76 223.055 1519.4 223.12ZM1535.56 217.31H1537.51C1537.59 219.132 1537.68 220.28 1537.76 220.752C1538.49 221.647 1539.29 222.314 1540.17 222.754C1541.05 223.177 1542.06 223.389 1543.2 223.389C1544.73 223.389 1545.9 223.022 1546.72 222.29C1547.53 221.558 1547.94 220.671 1547.94 219.629C1547.94 218.945 1547.8 218.384 1547.52 217.944C1547.26 217.489 1546.72 217.074 1545.91 216.699C1545.28 216.471 1544.06 216.162 1542.25 215.771C1540.46 215.381 1539.1 214.95 1538.17 214.478C1537.24 214.006 1536.52 213.306 1536 212.378C1535.48 211.434 1535.22 210.335 1535.22 209.082C1535.22 206.836 1536.06 204.972 1537.76 203.491C1539.45 201.994 1541.88 201.245 1545.06 201.245C1546.38 201.245 1547.59 201.359 1548.69 201.587C1549.8 201.815 1550.8 202.157 1551.7 202.612L1551.77 202.856C1551.67 203.426 1551.6 204.004 1551.55 204.59C1551.5 205.176 1551.43 206.559 1551.33 208.74L1549.45 208.716C1549.43 208.537 1549.41 208.236 1549.38 207.812C1549.33 207.08 1549.23 206.372 1549.08 205.688C1548.58 205.037 1547.95 204.549 1547.21 204.224C1546.47 203.898 1545.61 203.735 1544.62 203.735C1543.23 203.735 1542.16 204.045 1541.39 204.663C1540.65 205.282 1540.27 206.022 1540.27 206.885C1540.27 207.764 1540.44 208.415 1540.78 208.838C1541.13 209.261 1541.63 209.578 1542.3 209.79C1542.97 210.002 1544.19 210.278 1545.98 210.62C1547.79 210.946 1549 211.222 1549.62 211.45C1550.52 211.792 1551.23 212.223 1551.77 212.744C1552.31 213.265 1552.71 213.916 1552.99 214.697C1553.28 215.462 1553.43 216.309 1553.43 217.236C1553.43 219.661 1552.49 221.704 1550.6 223.364C1548.73 225.024 1546.09 225.854 1542.69 225.854C1541.55 225.854 1540.44 225.749 1539.37 225.537C1538.29 225.342 1536.98 224.976 1535.44 224.438L1535.17 224.072C1535.3 222.819 1535.38 221.932 1535.41 221.411L1535.56 217.31ZM1557.26 213.477C1557.26 210.71 1557.74 208.423 1558.68 206.616C1559.62 204.793 1561.04 203.426 1562.93 202.515C1564.82 201.587 1567.01 201.123 1569.52 201.123C1573.28 201.123 1576.14 202.108 1578.09 204.077C1580.06 206.047 1581.04 208.936 1581.04 212.744C1581.04 214.941 1580.76 216.846 1580.19 218.457C1579.62 220.068 1578.85 221.37 1577.89 222.363C1576.93 223.34 1575.92 224.08 1574.87 224.585C1573.06 225.431 1571.03 225.854 1568.76 225.854C1565.08 225.854 1562.24 224.813 1560.24 222.729C1558.26 220.63 1557.26 217.546 1557.26 213.477ZM1564.03 212.305C1564.03 216.634 1564.66 219.718 1565.93 221.558C1566.78 222.778 1567.98 223.389 1569.54 223.389C1570.88 223.389 1571.94 222.925 1572.72 221.997C1573.76 220.76 1574.28 218.368 1574.28 214.819C1574.28 212.329 1574.07 210.197 1573.65 208.423C1573.24 206.632 1572.63 205.387 1571.81 204.688C1571.02 203.988 1570.05 203.638 1568.91 203.638C1567.93 203.638 1567.08 203.898 1566.35 204.419C1565.61 204.924 1565.04 205.786 1564.64 207.007C1564.23 208.211 1564.03 209.977 1564.03 212.305ZM1598.52 223.12V225C1596.68 224.919 1594.63 224.878 1592.37 224.878C1589.85 224.878 1587.23 224.919 1584.51 225V223.12C1585.78 223.12 1586.66 223.031 1587.15 222.852C1587.37 222.77 1587.55 222.632 1587.66 222.437C1587.82 222.127 1587.91 221.541 1587.93 220.679L1588.03 218.506C1588.04 218.05 1588.05 217.31 1588.05 216.284V213.086C1588.05 211.637 1588 209.88 1587.9 207.812C1587.85 206.771 1587.78 206.185 1587.68 206.055C1587.6 205.908 1587.46 205.802 1587.27 205.737C1586.96 205.623 1586.04 205.542 1584.51 205.493V203.613C1587.47 203.109 1589.42 202.734 1590.34 202.49C1591.27 202.246 1592.32 201.855 1593.49 201.318L1594.15 201.611L1594.1 206.543C1595.16 205.452 1595.98 204.549 1596.55 203.833C1597.39 202.824 1598.03 202.181 1598.45 201.904C1599.04 201.514 1599.81 201.318 1600.77 201.318C1601.37 201.318 1601.92 201.416 1602.41 201.611L1602.26 205.078C1602.21 206.966 1602.17 208.049 1602.14 208.325L1601.11 208.643C1600.7 208.105 1600.31 207.731 1599.94 207.52C1599.34 207.178 1598.68 207.007 1597.96 207.007C1597 207.007 1596.17 207.308 1595.47 207.91C1594.79 208.496 1594.38 209.098 1594.25 209.717C1594.19 210.075 1594.15 211.45 1594.15 213.843V216.284L1594.2 219.604C1594.22 220.858 1594.26 221.631 1594.32 221.924C1594.41 222.201 1594.58 222.42 1594.84 222.583C1595.1 222.746 1595.66 222.86 1596.52 222.925L1598.52 223.12ZM1603.6 206.421V205.322L1605.8 203.931C1606.16 203.703 1606.5 203.459 1606.82 203.198V199.927C1606.82 198.755 1606.76 197.306 1606.63 195.581C1608.21 195.06 1609.23 194.71 1609.71 194.531C1609.79 194.499 1610.82 194.019 1612.81 193.091L1613.44 193.579L1613.2 196.118L1613.03 198.926L1612.81 203.198H1613.61C1615.78 203.198 1617.41 203.117 1618.52 202.954L1618.1 206.25C1617.91 206.283 1617.73 206.299 1617.57 206.299L1615.17 206.25H1612.81V214.404C1612.81 216.911 1612.83 218.392 1612.88 218.848C1612.94 219.613 1613.21 220.215 1613.68 220.654C1614.17 221.077 1614.87 221.289 1615.78 221.289C1616.34 221.305 1616.78 221.297 1617.1 221.265C1617.44 221.216 1617.88 221.134 1618.4 221.021L1618.79 222.021L1617.91 222.9C1617.19 223.633 1616.57 224.276 1616.03 224.829C1615.39 225.106 1614.82 225.285 1614.32 225.366C1613.83 225.464 1613.33 225.513 1612.81 225.513C1610.92 225.513 1609.43 225.033 1608.34 224.072C1607.26 223.096 1606.73 221.883 1606.73 220.435L1606.82 212.378V206.348H1606.17C1605.27 206.348 1604.42 206.372 1603.6 206.421Z" fill="black"/>
</g>
<rect id="Examples_Big_O_Selection_sort" opacity="0.5" x="16" y="164" width="940.444" height="529" fill="#FF0000"/>
<rect id="Examples_Big_O_Insertion_sort" opacity="0.5" x="956" y="164" width="940.444" height="529" fill="#FF0000"/>
</g>
</svg>
