<svg width="1920" height="1080" viewBox="0 0 1920 1080" fill="none" xmlns="http://www.w3.org/2000/svg">
<g id="STheorem">
<rect width="1920" height="1080" fill="white"/>
<path id="Reachability_is_decidable_for_injective_2-PAM" d="M63.5781 241.43H59.4473V255.434C59.4473 256.078 59.4473 256.557 59.4473 256.869C59.4668 257.182 59.5547 257.504 59.7109 257.836C59.8672 258.168 60.0137 258.393 60.1504 258.51C60.3066 258.607 60.6289 258.725 61.1172 258.861C61.625 258.998 62.1133 259.086 62.582 259.125C63.0703 259.164 63.8223 259.213 64.8379 259.271V261H48.1094V259.271C49.125 259.213 49.877 259.164 50.3652 259.125C50.8535 259.086 51.3418 258.998 51.8301 258.861C52.3184 258.725 52.6406 258.607 52.7969 258.51C52.9531 258.393 53.0996 258.168 53.2363 257.836C53.3926 257.504 53.4707 257.191 53.4707 256.898C53.4902 256.586 53.5 256.098 53.5 255.434V225.053C53.5 224.389 53.4902 223.91 53.4707 223.617C53.4707 223.305 53.3926 222.982 53.2363 222.65C53.0996 222.318 52.9531 222.104 52.7969 222.006C52.6406 221.889 52.3184 221.762 51.8301 221.625C51.3418 221.488 50.8535 221.4 50.3652 221.361C49.877 221.322 49.125 221.273 48.1094 221.215V219.486H65.6289C68.168 219.486 70.3652 219.75 72.2207 220.277C74.0957 220.785 75.5605 221.518 76.6152 222.475C77.6895 223.412 78.4707 224.486 78.959 225.697C79.4668 226.889 79.7207 228.236 79.7207 229.74C79.7207 232.514 78.8223 234.828 77.0254 236.684C75.2285 238.52 72.8652 239.721 69.9355 240.287V240.434C70.9707 240.688 71.8887 241.01 72.6895 241.4C73.4902 241.771 74.1641 242.23 74.7109 242.777C75.2773 243.324 75.7461 243.881 76.1172 244.447C76.5078 245.014 76.8301 245.697 77.084 246.498C77.3379 247.299 77.5332 248.051 77.6699 248.754C77.8262 249.457 77.9727 250.316 78.1094 251.332C78.2656 252.504 78.4414 253.48 78.6367 254.262C78.8516 255.043 79.1738 255.824 79.6035 256.605C80.0527 257.387 80.6582 258.002 81.4199 258.451C82.2012 258.881 83.1582 259.154 84.291 259.271V261H79.4277C77.5723 261 76.0879 260.609 74.9746 259.828C73.8809 259.027 73.1191 257.699 72.6895 255.844C72.4355 254.828 72.1133 253.168 71.7227 250.863C71.332 248.539 71.0781 247.143 70.9609 246.674C70.4727 244.76 69.6035 243.412 68.3535 242.631C67.123 241.83 65.5312 241.43 63.5781 241.43ZM59.4473 239.35H64.1934C70.2676 239.35 73.3047 236.322 73.3047 230.268C73.3047 228.568 73.0215 227.123 72.4551 225.932C71.9082 224.74 71.1562 223.842 70.1992 223.236C69.2422 222.631 68.2461 222.201 67.2109 221.947C66.1758 221.693 65.043 221.566 63.8125 221.566C62.4648 221.566 61.4883 221.654 60.8828 221.83C60.2969 221.986 59.9062 222.26 59.7109 222.65C59.5352 223.041 59.4473 223.686 59.4473 224.584V239.35ZM109.838 245.209H92.5527C92.5332 246.557 92.582 247.826 92.6992 249.018C92.8164 250.209 93.0703 251.41 93.4609 252.621C93.8516 253.832 94.3594 254.867 94.9844 255.727C95.6289 256.586 96.498 257.289 97.5918 257.836C98.6855 258.383 99.9453 258.656 101.371 258.656C103.559 258.656 105.316 258.1 106.645 256.986C107.973 255.873 109.115 254.311 110.072 252.299L111.889 253.266C109.994 258.852 106.088 261.674 100.17 261.732C95.4238 261.791 91.9277 260.502 89.6816 257.865C87.4355 255.229 86.3125 251.449 86.3125 246.527C86.3125 243.461 86.8008 240.775 87.7773 238.471C88.7539 236.166 90.2969 234.33 92.4062 232.963C94.5156 231.576 97.084 230.883 100.111 230.883C101.615 230.883 102.982 231.049 104.213 231.381C105.463 231.713 106.498 232.143 107.318 232.67C108.139 233.178 108.861 233.803 109.486 234.545C110.111 235.268 110.59 235.99 110.922 236.713C111.273 237.416 111.547 238.188 111.742 239.027C111.957 239.848 112.094 240.561 112.152 241.166C112.211 241.752 112.24 242.348 112.24 242.953C112.24 243.852 112.025 244.457 111.596 244.77C111.186 245.062 110.6 245.209 109.838 245.209ZM92.6113 242.953H103.949C104.73 242.953 105.268 242.787 105.561 242.455C105.854 242.123 106 241.645 106 241.02C106 240.434 105.961 239.848 105.883 239.262C105.824 238.676 105.658 237.992 105.385 237.211C105.131 236.41 104.789 235.717 104.359 235.131C103.949 234.545 103.344 234.047 102.543 233.637C101.742 233.207 100.814 232.992 99.7598 232.992C98.5879 232.992 97.543 233.266 96.625 233.812C95.7266 234.359 95.0332 235.014 94.5449 235.775C94.0566 236.537 93.6562 237.416 93.3438 238.412C93.0312 239.389 92.8262 240.238 92.7285 240.961C92.6504 241.684 92.6113 242.348 92.6113 242.953ZM134.77 252.416V243.949C134.027 244.438 131.732 245.404 127.885 246.85C126.186 247.494 124.975 248.227 124.252 249.047C123.549 249.867 123.197 250.971 123.197 252.357C123.197 254.213 123.666 255.707 124.604 256.84C125.561 257.973 126.938 258.539 128.734 258.539C129.398 258.539 130.053 258.441 130.697 258.246C131.342 258.051 131.977 257.738 132.602 257.309C133.246 256.879 133.764 256.244 134.154 255.404C134.564 254.564 134.77 253.568 134.77 252.416ZM140.189 238.852V253.383C140.189 256.527 140.883 258.246 142.27 258.539C143.09 258.754 144.115 258.734 145.346 258.48L145.697 259.916C143.275 261.127 140.922 261.732 138.637 261.732C137.641 261.732 136.85 261.439 136.264 260.854C135.697 260.248 135.18 259.34 134.711 258.129C133.93 258.637 133.334 259.018 132.924 259.271C132.533 259.506 131.889 259.857 130.99 260.326C130.111 260.775 129.242 261.117 128.383 261.352C127.523 261.586 126.654 261.713 125.775 261.732C123.08 261.732 120.961 260.912 119.418 259.271C117.895 257.611 117.133 255.59 117.133 253.207C117.133 251.605 117.562 250.17 118.422 248.9C119.301 247.611 120.736 246.664 122.729 246.059C123.275 245.883 124.223 245.59 125.57 245.18C126.938 244.77 127.973 244.457 128.676 244.242C129.379 244.008 130.209 243.715 131.166 243.363C132.143 243.012 132.914 242.689 133.48 242.396C134.047 242.084 134.477 241.781 134.77 241.488V238.969C134.77 237.816 134.613 236.83 134.301 236.01C134.008 235.189 133.598 234.574 133.07 234.164C132.562 233.754 132.025 233.461 131.459 233.285C130.912 233.09 130.316 232.992 129.672 232.992C126.703 232.992 124.643 234.945 123.49 238.852C123.314 239.438 123.1 239.867 122.846 240.141C122.592 240.414 122.172 240.551 121.586 240.551C120.863 240.551 120.121 240.297 119.359 239.789C118.598 239.281 118.217 238.588 118.217 237.709C118.217 235.99 119.418 234.428 121.82 233.021C124.223 231.596 127.064 230.883 130.346 230.883C131.811 230.883 133.1 231 134.213 231.234C135.326 231.449 136.225 231.771 136.908 232.201C137.611 232.611 138.188 233.061 138.637 233.549C139.105 234.018 139.447 234.584 139.662 235.248C139.877 235.912 140.014 236.508 140.072 237.035C140.15 237.562 140.189 238.168 140.189 238.852ZM163.598 258.598C165.727 258.598 167.455 258.08 168.783 257.045C170.131 256.01 171.283 254.408 172.24 252.24L173.998 253.09C173.607 254.613 172.973 255.961 172.094 257.133C171.234 258.285 170.248 259.184 169.135 259.828C168.041 260.473 166.928 260.951 165.795 261.264C164.682 261.576 163.568 261.732 162.455 261.732C157.924 261.732 154.467 260.453 152.084 257.895C149.721 255.336 148.539 251.566 148.539 246.586C148.539 244.926 148.686 243.363 148.979 241.898C149.291 240.414 149.809 238.988 150.531 237.621C151.254 236.254 152.162 235.082 153.256 234.105C154.35 233.129 155.736 232.348 157.416 231.762C159.115 231.176 161.02 230.883 163.129 230.883C166.195 230.883 168.695 231.488 170.629 232.699C172.582 233.891 173.559 235.229 173.559 236.713C173.559 237.729 173.168 238.49 172.387 238.998C171.625 239.506 170.844 239.76 170.043 239.76C169.516 239.76 169.115 239.643 168.842 239.408C168.588 239.154 168.363 238.754 168.168 238.207C166.879 234.73 164.975 232.992 162.455 232.992C160.209 232.992 158.363 234.027 156.918 236.098C155.492 238.168 154.779 241.312 154.779 245.531C154.779 246.762 154.848 247.943 154.984 249.076C155.141 250.209 155.424 251.371 155.834 252.562C156.244 253.754 156.762 254.779 157.387 255.639C158.031 256.498 158.881 257.211 159.936 257.777C161.01 258.324 162.23 258.598 163.598 258.598ZM206.4 240.434V255.785C206.4 256.586 206.43 257.172 206.488 257.543C206.547 257.914 206.752 258.236 207.104 258.51C207.455 258.783 207.885 258.959 208.393 259.037C208.92 259.115 209.75 259.193 210.883 259.271V261H196.264V259.271C197.416 259.193 198.246 259.115 198.754 259.037C199.281 258.959 199.711 258.783 200.043 258.51C200.395 258.236 200.6 257.914 200.658 257.543C200.717 257.172 200.746 256.586 200.746 255.785V241.605C200.746 236.605 198.646 234.105 194.447 234.105C192.904 234.105 191.488 234.525 190.199 235.365C188.91 236.186 187.934 237.23 187.27 238.5C186.898 239.223 186.713 240.307 186.713 241.752V255.785C186.713 257.25 186.947 258.158 187.416 258.51C187.885 258.861 189.154 259.115 191.225 259.271V261H176.635V259.271C178.725 259.135 179.994 258.891 180.443 258.539C180.912 258.168 181.127 257.25 181.088 255.785V222.475C181.088 221.42 180.961 220.736 180.707 220.424C180.473 220.111 179.955 219.896 179.154 219.779L176.869 219.486V217.992L186.244 216.469L186.654 216.85V235.453C186.771 235.375 187.133 235.141 187.738 234.75C188.344 234.34 188.705 234.096 188.822 234.018C188.959 233.92 189.291 233.705 189.818 233.373C190.346 233.041 190.697 232.836 190.873 232.758C191.049 232.66 191.371 232.484 191.84 232.23C192.309 231.977 192.66 231.82 192.895 231.762C193.148 231.684 193.49 231.566 193.92 231.41C194.369 231.254 194.76 231.156 195.092 231.117C195.424 231.059 195.805 231.01 196.234 230.971C196.664 230.912 197.094 230.883 197.523 230.883C200.316 230.883 202.494 231.723 204.057 233.402C205.619 235.062 206.4 237.406 206.4 240.434ZM232.387 252.416V243.949C231.645 244.438 229.35 245.404 225.502 246.85C223.803 247.494 222.592 248.227 221.869 249.047C221.166 249.867 220.814 250.971 220.814 252.357C220.814 254.213 221.283 255.707 222.221 256.84C223.178 257.973 224.555 258.539 226.352 258.539C227.016 258.539 227.67 258.441 228.314 258.246C228.959 258.051 229.594 257.738 230.219 257.309C230.863 256.879 231.381 256.244 231.771 255.404C232.182 254.564 232.387 253.568 232.387 252.416ZM237.807 238.852V253.383C237.807 256.527 238.5 258.246 239.887 258.539C240.707 258.754 241.732 258.734 242.963 258.48L243.314 259.916C240.893 261.127 238.539 261.732 236.254 261.732C235.258 261.732 234.467 261.439 233.881 260.854C233.314 260.248 232.797 259.34 232.328 258.129C231.547 258.637 230.951 259.018 230.541 259.271C230.15 259.506 229.506 259.857 228.607 260.326C227.729 260.775 226.859 261.117 226 261.352C225.141 261.586 224.271 261.713 223.393 261.732C220.697 261.732 218.578 260.912 217.035 259.271C215.512 257.611 214.75 255.59 214.75 253.207C214.75 251.605 215.18 250.17 216.039 248.9C216.918 247.611 218.354 246.664 220.346 246.059C220.893 245.883 221.84 245.59 223.188 245.18C224.555 244.77 225.59 244.457 226.293 244.242C226.996 244.008 227.826 243.715 228.783 243.363C229.76 243.012 230.531 242.689 231.098 242.396C231.664 242.084 232.094 241.781 232.387 241.488V238.969C232.387 237.816 232.23 236.83 231.918 236.01C231.625 235.189 231.215 234.574 230.688 234.164C230.18 233.754 229.643 233.461 229.076 233.285C228.529 233.09 227.934 232.992 227.289 232.992C224.32 232.992 222.26 234.945 221.107 238.852C220.932 239.438 220.717 239.867 220.463 240.141C220.209 240.414 219.789 240.551 219.203 240.551C218.48 240.551 217.738 240.297 216.977 239.789C216.215 239.281 215.834 238.588 215.834 237.709C215.834 235.99 217.035 234.428 219.438 233.021C221.84 231.596 224.682 230.883 227.963 230.883C229.428 230.883 230.717 231 231.83 231.234C232.943 231.449 233.842 231.771 234.525 232.201C235.229 232.611 235.805 233.061 236.254 233.549C236.723 234.018 237.064 234.584 237.279 235.248C237.494 235.912 237.631 236.508 237.689 237.035C237.768 237.562 237.807 238.168 237.807 238.852ZM249.701 261.732L248.617 261.234V222.475C248.617 221.361 248.5 220.648 248.266 220.336C248.031 220.023 247.514 219.818 246.713 219.721L244.428 219.486V217.992L253.832 216.469L254.271 216.85V235.131C254.389 235.053 254.994 234.672 256.088 233.988C257.182 233.285 258.031 232.777 258.637 232.465C259.242 232.133 260.121 231.791 261.273 231.439C262.426 231.068 263.529 230.883 264.584 230.883C266.068 230.883 267.416 231.098 268.627 231.527C269.838 231.957 270.834 232.504 271.615 233.168C272.396 233.812 273.08 234.604 273.666 235.541C274.252 236.479 274.701 237.387 275.014 238.266C275.326 239.145 275.57 240.092 275.746 241.107C275.922 242.123 276.029 242.973 276.068 243.656C276.127 244.32 276.156 244.984 276.156 245.648C276.156 248.031 275.883 250.16 275.336 252.035C274.809 253.891 274.096 255.424 273.197 256.635C272.299 257.826 271.205 258.812 269.916 259.594C268.627 260.375 267.27 260.922 265.844 261.234C264.418 261.566 262.875 261.732 261.215 261.732C259.184 261.732 257.484 261.527 256.117 261.117C254.75 260.707 253.412 260.131 252.104 259.389L249.701 261.732ZM254.271 241.752V251.215C254.271 252.895 254.408 254.154 254.682 254.994C255.229 256.498 256.059 257.65 257.172 258.451C258.305 259.232 259.672 259.623 261.273 259.623C267.035 259.623 269.916 255.082 269.916 246C269.916 244.34 269.779 242.846 269.506 241.518C269.252 240.189 268.9 239.115 268.451 238.295C268.002 237.455 267.514 236.742 266.986 236.156C266.459 235.57 265.883 235.141 265.258 234.867C264.652 234.574 264.105 234.379 263.617 234.281C263.129 234.164 262.65 234.105 262.182 234.105C258.705 234.105 256.264 235.512 254.857 238.324C254.467 239.125 254.271 240.268 254.271 241.752ZM281.312 232.377L290.717 230.883L291.156 231.234V255.785C291.156 256.352 291.156 256.791 291.156 257.104C291.176 257.396 291.244 257.689 291.361 257.982C291.498 258.256 291.635 258.451 291.771 258.568C291.928 258.686 292.201 258.803 292.592 258.92C293.002 259.018 293.412 259.086 293.822 259.125C294.232 259.164 294.838 259.213 295.639 259.271V261H281.02V259.271C281.84 259.213 282.455 259.164 282.865 259.125C283.275 259.086 283.676 259.018 284.066 258.92C284.477 258.803 284.75 258.695 284.887 258.598C285.023 258.48 285.15 258.275 285.268 257.982C285.404 257.67 285.473 257.377 285.473 257.104C285.492 256.811 285.502 256.371 285.502 255.785V236.889C285.502 235.834 285.385 235.15 285.15 234.838C284.916 234.525 284.398 234.311 283.598 234.193L281.312 233.871V232.377ZM288.256 218.109C289.35 218.109 290.229 218.461 290.893 219.164C291.576 219.848 291.918 220.736 291.918 221.83C291.879 222.904 291.527 223.773 290.863 224.438C290.219 225.102 289.35 225.434 288.256 225.434C287.182 225.434 286.303 225.102 285.619 224.438C284.936 223.754 284.594 222.885 284.594 221.83C284.594 220.736 284.936 219.848 285.619 219.164C286.303 218.461 287.182 218.109 288.256 218.109ZM307.885 216.85V255.785C307.885 256.352 307.895 256.791 307.914 257.104C307.934 257.396 308.002 257.689 308.119 257.982C308.256 258.256 308.393 258.451 308.529 258.568C308.666 258.686 308.939 258.803 309.35 258.92C309.76 259.018 310.17 259.086 310.58 259.125C310.99 259.164 311.596 259.213 312.396 259.271V261H297.748V259.271C298.568 259.213 299.184 259.164 299.594 259.125C300.004 259.086 300.404 259.018 300.795 258.92C301.205 258.803 301.479 258.695 301.615 258.598C301.771 258.48 301.908 258.275 302.025 257.982C302.162 257.689 302.23 257.396 302.23 257.104C302.25 256.811 302.26 256.371 302.26 255.785V222.475C302.26 221.361 302.133 220.648 301.879 220.336C301.645 220.023 301.127 219.818 300.326 219.721L298.041 219.486V217.992L307.475 216.469L307.885 216.85ZM315.531 232.377L324.936 230.883L325.375 231.234V255.785C325.375 256.352 325.375 256.791 325.375 257.104C325.395 257.396 325.463 257.689 325.58 257.982C325.717 258.256 325.854 258.451 325.99 258.568C326.146 258.686 326.42 258.803 326.811 258.92C327.221 259.018 327.631 259.086 328.041 259.125C328.451 259.164 329.057 259.213 329.857 259.271V261H315.238V259.271C316.059 259.213 316.674 259.164 317.084 259.125C317.494 259.086 317.895 259.018 318.285 258.92C318.695 258.803 318.969 258.695 319.105 258.598C319.242 258.48 319.369 258.275 319.486 257.982C319.623 257.67 319.691 257.377 319.691 257.104C319.711 256.811 319.721 256.371 319.721 255.785V236.889C319.721 235.834 319.604 235.15 319.369 234.838C319.135 234.525 318.617 234.311 317.816 234.193L315.531 233.871V232.377ZM322.475 218.109C323.568 218.109 324.447 218.461 325.111 219.164C325.795 219.848 326.137 220.736 326.137 221.83C326.098 222.904 325.746 223.773 325.082 224.438C324.438 225.102 323.568 225.434 322.475 225.434C321.4 225.434 320.521 225.102 319.838 224.438C319.154 223.754 318.812 222.885 318.812 221.83C318.812 220.736 319.154 219.848 319.838 219.164C320.521 218.461 321.4 218.109 322.475 218.109ZM350.336 233.988H342.572V252.592C342.572 254.721 342.943 256.254 343.686 257.191C344.447 258.129 345.404 258.598 346.557 258.598C348.1 258.598 349.516 258.334 350.805 257.807L351.273 259.066C348.441 260.844 345.883 261.732 343.598 261.732C343.09 261.732 342.582 261.693 342.074 261.615C341.586 261.537 341.01 261.352 340.346 261.059C339.701 260.785 339.135 260.414 338.646 259.945C338.178 259.477 337.777 258.803 337.445 257.924C337.113 257.045 336.947 256.029 336.947 254.877V233.988H332.611V231.586H337.182L340.844 224.027H342.572V231.586H350.336V233.988ZM351.098 231.586H364.838V233.344L362.26 233.578C361.635 233.637 361.264 233.832 361.146 234.164C361.049 234.477 361.117 234.906 361.352 235.453L368.734 255.551H368.852C372.367 245.922 374.584 239.301 375.502 235.688C375.678 235.082 375.707 234.604 375.59 234.252C375.473 233.9 375.17 233.695 374.682 233.637L371.547 233.344V231.586H383.061V233.344C381.615 233.422 380.658 233.637 380.189 233.988C379.721 234.34 379.203 235.141 378.637 236.391C377.699 238.539 376.068 242.689 373.744 248.842C371.42 254.994 369.35 260.688 367.533 265.922C366.947 267.621 366.332 269.086 365.688 270.316C365.043 271.547 364.447 272.484 363.9 273.129C363.373 273.793 362.787 274.311 362.143 274.682C361.518 275.072 360.98 275.307 360.531 275.385C360.082 275.482 359.574 275.531 359.008 275.531C357.816 275.531 356.82 275.199 356.02 274.535C355.219 273.871 354.818 273.158 354.818 272.396C354.818 271.557 355.111 270.785 355.697 270.082C356.283 269.379 356.869 269.027 357.455 269.027C358.021 269.027 358.617 269.311 359.242 269.877C360.082 270.717 360.824 271.137 361.469 271.137C362.465 271.137 363.344 270.297 364.105 268.617C365.062 266.586 365.541 264.887 365.541 263.52C365.541 262.484 365.385 261.508 365.072 260.59C364.369 258.539 362.992 254.916 360.941 249.721C358.91 244.506 357.143 240.082 355.639 236.449C355.092 235.141 354.555 234.311 354.027 233.959C353.52 233.607 352.543 233.402 351.098 233.344V231.586ZM397.445 232.377L406.85 230.883L407.289 231.234V255.785C407.289 256.352 407.289 256.791 407.289 257.104C407.309 257.396 407.377 257.689 407.494 257.982C407.631 258.256 407.768 258.451 407.904 258.568C408.061 258.686 408.334 258.803 408.725 258.92C409.135 259.018 409.545 259.086 409.955 259.125C410.365 259.164 410.971 259.213 411.771 259.271V261H397.152V259.271C397.973 259.213 398.588 259.164 398.998 259.125C399.408 259.086 399.809 259.018 400.199 258.92C400.609 258.803 400.883 258.695 401.02 258.598C401.156 258.48 401.283 258.275 401.4 257.982C401.537 257.67 401.605 257.377 401.605 257.104C401.625 256.811 401.635 256.371 401.635 255.785V236.889C401.635 235.834 401.518 235.15 401.283 234.838C401.049 234.525 400.531 234.311 399.73 234.193L397.445 233.871V232.377ZM404.389 218.109C405.482 218.109 406.361 218.461 407.025 219.164C407.709 219.848 408.051 220.736 408.051 221.83C408.012 222.904 407.66 223.773 406.996 224.438C406.352 225.102 405.482 225.434 404.389 225.434C403.314 225.434 402.436 225.102 401.752 224.438C401.068 223.754 400.727 222.885 400.727 221.83C400.727 220.736 401.068 219.848 401.752 219.164C402.436 218.461 403.314 218.109 404.389 218.109ZM434.711 239.936H432.953C432.738 237.943 432.064 236.293 430.932 234.984C429.799 233.656 428.236 232.992 426.244 232.992C424.701 232.992 423.422 233.422 422.406 234.281C421.391 235.141 420.873 236.322 420.854 237.826C420.854 238.471 421.01 239.066 421.322 239.613C421.635 240.16 421.977 240.609 422.348 240.961C422.738 241.293 423.275 241.635 423.959 241.986C424.662 242.318 425.209 242.553 425.6 242.689C426.01 242.826 426.566 243.012 427.27 243.246C430.531 244.262 432.914 245.482 434.418 246.908C435.922 248.334 436.674 250.307 436.674 252.826C436.674 255.443 435.678 257.582 433.686 259.242C431.693 260.902 428.949 261.732 425.453 261.732C423.617 261.732 421.859 261.488 420.18 261C418.52 260.492 417.162 259.77 416.107 258.832L415.492 250.98H417.25C418.617 256.742 421.537 259.623 426.01 259.623C427.631 259.623 428.959 259.174 429.994 258.275C431.049 257.357 431.576 256.146 431.576 254.643C431.576 253.861 431.43 253.148 431.137 252.504C430.844 251.859 430.492 251.332 430.082 250.922C429.691 250.512 429.164 250.121 428.5 249.75C427.855 249.379 427.299 249.105 426.83 248.93C426.361 248.754 425.785 248.559 425.102 248.344C423.754 247.934 422.572 247.494 421.557 247.025C420.561 246.557 419.623 245.99 418.744 245.326C417.885 244.643 417.221 243.832 416.752 242.895C416.303 241.938 416.068 240.854 416.049 239.643C416.068 236.85 417.064 234.691 419.037 233.168C421.01 231.645 423.646 230.883 426.947 230.883C430.229 230.883 432.816 231.566 434.711 232.934V239.936ZM487.27 261H477.543L477.074 260.59V257.631C475.375 259.018 473.783 260.053 472.299 260.736C470.834 261.4 469.32 261.732 467.758 261.732C463.852 261.732 460.785 260.385 458.559 257.689C456.332 254.994 455.219 251.4 455.219 246.908C455.219 241.869 456.605 237.904 459.379 235.014C462.074 232.26 465.775 230.883 470.482 230.883C473.158 230.883 475.375 231.361 477.133 232.318V222.475C477.133 221.361 477.006 220.648 476.752 220.336C476.518 220.023 476 219.818 475.199 219.721L472.943 219.486V217.992L482.348 216.469L482.758 216.85V255.785C482.758 256.352 482.768 256.791 482.787 257.104C482.807 257.396 482.875 257.689 482.992 257.982C483.129 258.256 483.266 258.451 483.402 258.568C483.539 258.686 483.812 258.803 484.223 258.92C484.633 259.018 485.043 259.086 485.453 259.125C485.863 259.164 486.469 259.213 487.27 259.271V261ZM477.133 250.805V240.229C477.133 238.744 476.947 237.592 476.576 236.771C476.049 235.561 475.238 234.633 474.145 233.988C473.07 233.324 471.82 232.992 470.395 232.992C467.426 232.992 465.189 234.174 463.686 236.537C462.201 238.9 461.459 242.113 461.459 246.176C461.459 249.789 462.172 252.748 463.598 255.053C465.043 257.338 467.094 258.48 469.75 258.48C473.285 258.48 475.609 257.045 476.723 254.174C476.996 253.373 477.133 252.25 477.133 250.805ZM514.604 245.209H497.318C497.299 246.557 497.348 247.826 497.465 249.018C497.582 250.209 497.836 251.41 498.227 252.621C498.617 253.832 499.125 254.867 499.75 255.727C500.395 256.586 501.264 257.289 502.357 257.836C503.451 258.383 504.711 258.656 506.137 258.656C508.324 258.656 510.082 258.1 511.41 256.986C512.738 255.873 513.881 254.311 514.838 252.299L516.654 253.266C514.76 258.852 510.854 261.674 504.936 261.732C500.189 261.791 496.693 260.502 494.447 257.865C492.201 255.229 491.078 251.449 491.078 246.527C491.078 243.461 491.566 240.775 492.543 238.471C493.52 236.166 495.062 234.33 497.172 232.963C499.281 231.576 501.85 230.883 504.877 230.883C506.381 230.883 507.748 231.049 508.979 231.381C510.229 231.713 511.264 232.143 512.084 232.67C512.904 233.178 513.627 233.803 514.252 234.545C514.877 235.268 515.355 235.99 515.688 236.713C516.039 237.416 516.312 238.188 516.508 239.027C516.723 239.848 516.859 240.561 516.918 241.166C516.977 241.752 517.006 242.348 517.006 242.953C517.006 243.852 516.791 244.457 516.361 244.77C515.951 245.062 515.365 245.209 514.604 245.209ZM497.377 242.953H508.715C509.496 242.953 510.033 242.787 510.326 242.455C510.619 242.123 510.766 241.645 510.766 241.02C510.766 240.434 510.727 239.848 510.648 239.262C510.59 238.676 510.424 237.992 510.15 237.211C509.896 236.41 509.555 235.717 509.125 235.131C508.715 234.545 508.109 234.047 507.309 233.637C506.508 233.207 505.58 232.992 504.525 232.992C503.354 232.992 502.309 233.266 501.391 233.812C500.492 234.359 499.799 235.014 499.311 235.775C498.822 236.537 498.422 237.416 498.109 238.412C497.797 239.389 497.592 240.238 497.494 240.961C497.416 241.684 497.377 242.348 497.377 242.953ZM536.957 258.598C539.086 258.598 540.814 258.08 542.143 257.045C543.49 256.01 544.643 254.408 545.6 252.24L547.357 253.09C546.967 254.613 546.332 255.961 545.453 257.133C544.594 258.285 543.607 259.184 542.494 259.828C541.4 260.473 540.287 260.951 539.154 261.264C538.041 261.576 536.928 261.732 535.814 261.732C531.283 261.732 527.826 260.453 525.443 257.895C523.08 255.336 521.898 251.566 521.898 246.586C521.898 244.926 522.045 243.363 522.338 241.898C522.65 240.414 523.168 238.988 523.891 237.621C524.613 236.254 525.521 235.082 526.615 234.105C527.709 233.129 529.096 232.348 530.775 231.762C532.475 231.176 534.379 230.883 536.488 230.883C539.555 230.883 542.055 231.488 543.988 232.699C545.941 233.891 546.918 235.229 546.918 236.713C546.918 237.729 546.527 238.49 545.746 238.998C544.984 239.506 544.203 239.76 543.402 239.76C542.875 239.76 542.475 239.643 542.201 239.408C541.947 239.154 541.723 238.754 541.527 238.207C540.238 234.73 538.334 232.992 535.814 232.992C533.568 232.992 531.723 234.027 530.277 236.098C528.852 238.168 528.139 241.312 528.139 245.531C528.139 246.762 528.207 247.943 528.344 249.076C528.5 250.209 528.783 251.371 529.193 252.562C529.604 253.754 530.121 254.779 530.746 255.639C531.391 256.498 532.24 257.211 533.295 257.777C534.369 258.324 535.59 258.598 536.957 258.598ZM550.961 232.377L560.365 230.883L560.805 231.234V255.785C560.805 256.352 560.805 256.791 560.805 257.104C560.824 257.396 560.893 257.689 561.01 257.982C561.146 258.256 561.283 258.451 561.42 258.568C561.576 258.686 561.85 258.803 562.24 258.92C562.65 259.018 563.061 259.086 563.471 259.125C563.881 259.164 564.486 259.213 565.287 259.271V261H550.668V259.271C551.488 259.213 552.104 259.164 552.514 259.125C552.924 259.086 553.324 259.018 553.715 258.92C554.125 258.803 554.398 258.695 554.535 258.598C554.672 258.48 554.799 258.275 554.916 257.982C555.053 257.67 555.121 257.377 555.121 257.104C555.141 256.811 555.15 256.371 555.15 255.785V236.889C555.15 235.834 555.033 235.15 554.799 234.838C554.564 234.525 554.047 234.311 553.246 234.193L550.961 233.871V232.377ZM557.904 218.109C558.998 218.109 559.877 218.461 560.541 219.164C561.225 219.848 561.566 220.736 561.566 221.83C561.527 222.904 561.176 223.773 560.512 224.438C559.867 225.102 558.998 225.434 557.904 225.434C556.83 225.434 555.951 225.102 555.268 224.438C554.584 223.754 554.242 222.885 554.242 221.83C554.242 220.736 554.584 219.848 555.268 219.164C555.951 218.461 556.83 218.109 557.904 218.109ZM601.176 261H591.449L590.98 260.59V257.631C589.281 259.018 587.689 260.053 586.205 260.736C584.74 261.4 583.227 261.732 581.664 261.732C577.758 261.732 574.691 260.385 572.465 257.689C570.238 254.994 569.125 251.4 569.125 246.908C569.125 241.869 570.512 237.904 573.285 235.014C575.98 232.26 579.682 230.883 584.389 230.883C587.064 230.883 589.281 231.361 591.039 232.318V222.475C591.039 221.361 590.912 220.648 590.658 220.336C590.424 220.023 589.906 219.818 589.105 219.721L586.85 219.486V217.992L596.254 216.469L596.664 216.85V255.785C596.664 256.352 596.674 256.791 596.693 257.104C596.713 257.396 596.781 257.689 596.898 257.982C597.035 258.256 597.172 258.451 597.309 258.568C597.445 258.686 597.719 258.803 598.129 258.92C598.539 259.018 598.949 259.086 599.359 259.125C599.77 259.164 600.375 259.213 601.176 259.271V261ZM591.039 250.805V240.229C591.039 238.744 590.854 237.592 590.482 236.771C589.955 235.561 589.145 234.633 588.051 233.988C586.977 233.324 585.727 232.992 584.301 232.992C581.332 232.992 579.096 234.174 577.592 236.537C576.107 238.9 575.365 242.113 575.365 246.176C575.365 249.789 576.078 252.748 577.504 255.053C578.949 257.338 581 258.48 583.656 258.48C587.191 258.48 589.516 257.045 590.629 254.174C590.902 253.373 591.039 252.25 591.039 250.805ZM622.621 252.416V243.949C621.879 244.438 619.584 245.404 615.736 246.85C614.037 247.494 612.826 248.227 612.104 249.047C611.4 249.867 611.049 250.971 611.049 252.357C611.049 254.213 611.518 255.707 612.455 256.84C613.412 257.973 614.789 258.539 616.586 258.539C617.25 258.539 617.904 258.441 618.549 258.246C619.193 258.051 619.828 257.738 620.453 257.309C621.098 256.879 621.615 256.244 622.006 255.404C622.416 254.564 622.621 253.568 622.621 252.416ZM628.041 238.852V253.383C628.041 256.527 628.734 258.246 630.121 258.539C630.941 258.754 631.967 258.734 633.197 258.48L633.549 259.916C631.127 261.127 628.773 261.732 626.488 261.732C625.492 261.732 624.701 261.439 624.115 260.854C623.549 260.248 623.031 259.34 622.562 258.129C621.781 258.637 621.186 259.018 620.775 259.271C620.385 259.506 619.74 259.857 618.842 260.326C617.963 260.775 617.094 261.117 616.234 261.352C615.375 261.586 614.506 261.713 613.627 261.732C610.932 261.732 608.812 260.912 607.27 259.271C605.746 257.611 604.984 255.59 604.984 253.207C604.984 251.605 605.414 250.17 606.273 248.9C607.152 247.611 608.588 246.664 610.58 246.059C611.127 245.883 612.074 245.59 613.422 245.18C614.789 244.77 615.824 244.457 616.527 244.242C617.23 244.008 618.061 243.715 619.018 243.363C619.994 243.012 620.766 242.689 621.332 242.396C621.898 242.084 622.328 241.781 622.621 241.488V238.969C622.621 237.816 622.465 236.83 622.152 236.01C621.859 235.189 621.449 234.574 620.922 234.164C620.414 233.754 619.877 233.461 619.311 233.285C618.764 233.09 618.168 232.992 617.523 232.992C614.555 232.992 612.494 234.945 611.342 238.852C611.166 239.438 610.951 239.867 610.697 240.141C610.443 240.414 610.023 240.551 609.438 240.551C608.715 240.551 607.973 240.297 607.211 239.789C606.449 239.281 606.068 238.588 606.068 237.709C606.068 235.99 607.27 234.428 609.672 233.021C612.074 231.596 614.916 230.883 618.197 230.883C619.662 230.883 620.951 231 622.064 231.234C623.178 231.449 624.076 231.771 624.76 232.201C625.463 232.611 626.039 233.061 626.488 233.549C626.957 234.018 627.299 234.584 627.514 235.248C627.729 235.912 627.865 236.508 627.924 237.035C628.002 237.562 628.041 238.168 628.041 238.852ZM639.936 261.732L638.852 261.234V222.475C638.852 221.361 638.734 220.648 638.5 220.336C638.266 220.023 637.748 219.818 636.947 219.721L634.662 219.486V217.992L644.066 216.469L644.506 216.85V235.131C644.623 235.053 645.229 234.672 646.322 233.988C647.416 233.285 648.266 232.777 648.871 232.465C649.477 232.133 650.355 231.791 651.508 231.439C652.66 231.068 653.764 230.883 654.818 230.883C656.303 230.883 657.65 231.098 658.861 231.527C660.072 231.957 661.068 232.504 661.85 233.168C662.631 233.812 663.314 234.604 663.9 235.541C664.486 236.479 664.936 237.387 665.248 238.266C665.561 239.145 665.805 240.092 665.98 241.107C666.156 242.123 666.264 242.973 666.303 243.656C666.361 244.32 666.391 244.984 666.391 245.648C666.391 248.031 666.117 250.16 665.57 252.035C665.043 253.891 664.33 255.424 663.432 256.635C662.533 257.826 661.439 258.812 660.15 259.594C658.861 260.375 657.504 260.922 656.078 261.234C654.652 261.566 653.109 261.732 651.449 261.732C649.418 261.732 647.719 261.527 646.352 261.117C644.984 260.707 643.646 260.131 642.338 259.389L639.936 261.732ZM644.506 241.752V251.215C644.506 252.895 644.643 254.154 644.916 254.994C645.463 256.498 646.293 257.65 647.406 258.451C648.539 259.232 649.906 259.623 651.508 259.623C657.27 259.623 660.15 255.082 660.15 246C660.15 244.34 660.014 242.846 659.74 241.518C659.486 240.189 659.135 239.115 658.686 238.295C658.236 237.455 657.748 236.742 657.221 236.156C656.693 235.57 656.117 235.141 655.492 234.867C654.887 234.574 654.34 234.379 653.852 234.281C653.363 234.164 652.885 234.105 652.416 234.105C648.939 234.105 646.498 235.512 645.092 238.324C644.701 239.125 644.506 240.268 644.506 241.752ZM680.658 216.85V255.785C680.658 256.352 680.668 256.791 680.688 257.104C680.707 257.396 680.775 257.689 680.893 257.982C681.029 258.256 681.166 258.451 681.303 258.568C681.439 258.686 681.713 258.803 682.123 258.92C682.533 259.018 682.943 259.086 683.354 259.125C683.764 259.164 684.369 259.213 685.17 259.271V261H670.521V259.271C671.342 259.213 671.957 259.164 672.367 259.125C672.777 259.086 673.178 259.018 673.568 258.92C673.979 258.803 674.252 258.695 674.389 258.598C674.545 258.48 674.682 258.275 674.799 257.982C674.936 257.689 675.004 257.396 675.004 257.104C675.023 256.811 675.033 256.371 675.033 255.785V222.475C675.033 221.361 674.906 220.648 674.652 220.336C674.418 220.023 673.9 219.818 673.1 219.721L670.814 219.486V217.992L680.248 216.469L680.658 216.85ZM712.533 245.209H695.248C695.229 246.557 695.277 247.826 695.395 249.018C695.512 250.209 695.766 251.41 696.156 252.621C696.547 253.832 697.055 254.867 697.68 255.727C698.324 256.586 699.193 257.289 700.287 257.836C701.381 258.383 702.641 258.656 704.066 258.656C706.254 258.656 708.012 258.1 709.34 256.986C710.668 255.873 711.811 254.311 712.768 252.299L714.584 253.266C712.689 258.852 708.783 261.674 702.865 261.732C698.119 261.791 694.623 260.502 692.377 257.865C690.131 255.229 689.008 251.449 689.008 246.527C689.008 243.461 689.496 240.775 690.473 238.471C691.449 236.166 692.992 234.33 695.102 232.963C697.211 231.576 699.779 230.883 702.807 230.883C704.311 230.883 705.678 231.049 706.908 231.381C708.158 231.713 709.193 232.143 710.014 232.67C710.834 233.178 711.557 233.803 712.182 234.545C712.807 235.268 713.285 235.99 713.617 236.713C713.969 237.416 714.242 238.188 714.438 239.027C714.652 239.848 714.789 240.561 714.848 241.166C714.906 241.752 714.936 242.348 714.936 242.953C714.936 243.852 714.721 244.457 714.291 244.77C713.881 245.062 713.295 245.209 712.533 245.209ZM695.307 242.953H706.645C707.426 242.953 707.963 242.787 708.256 242.455C708.549 242.123 708.695 241.645 708.695 241.02C708.695 240.434 708.656 239.848 708.578 239.262C708.52 238.676 708.354 237.992 708.08 237.211C707.826 236.41 707.484 235.717 707.055 235.131C706.645 234.545 706.039 234.047 705.238 233.637C704.438 233.207 703.51 232.992 702.455 232.992C701.283 232.992 700.238 233.266 699.32 233.812C698.422 234.359 697.729 235.014 697.24 235.775C696.752 236.537 696.352 237.416 696.039 238.412C695.727 239.389 695.521 240.238 695.424 240.961C695.346 241.684 695.307 242.348 695.307 242.953ZM742.445 233.988V255.844C742.445 256.273 742.445 256.615 742.445 256.869C742.465 257.104 742.504 257.357 742.562 257.631C742.641 257.885 742.719 258.08 742.797 258.217C742.875 258.334 743.031 258.471 743.266 258.627C743.5 258.764 743.725 258.861 743.939 258.92C744.154 258.959 744.496 259.008 744.965 259.066C745.434 259.125 745.883 259.164 746.312 259.184C746.742 259.203 747.348 259.232 748.129 259.271V261H732.309V259.271C733.129 259.213 733.744 259.164 734.154 259.125C734.564 259.086 734.965 259.018 735.355 258.92C735.766 258.803 736.039 258.695 736.176 258.598C736.312 258.48 736.439 258.275 736.557 257.982C736.693 257.67 736.762 257.377 736.762 257.104C736.781 256.811 736.791 256.371 736.791 255.785V233.988H732.162V231.586H736.791V229.506C736.791 225.365 737.455 222.279 738.783 220.248C739.545 219.096 740.59 218.178 741.918 217.494C743.266 216.811 744.76 216.469 746.4 216.469C748.646 216.469 750.424 216.928 751.732 217.846C753.061 218.744 753.725 219.75 753.725 220.863C753.725 221.684 753.402 222.357 752.758 222.885C752.113 223.412 751.449 223.676 750.766 223.676C750.023 223.676 749.486 223.334 749.154 222.65C748.471 221.049 747.807 219.975 747.162 219.428C746.518 218.861 745.824 218.578 745.082 218.578C744.77 218.578 744.467 218.646 744.174 218.783C743.881 218.92 743.559 219.184 743.207 219.574C742.875 219.945 742.611 220.59 742.416 221.508C742.221 222.426 742.143 223.549 742.182 224.877L742.445 231.586H749.77V233.988H742.445ZM766.82 230.883C771.605 230.883 775.199 232.221 777.602 234.896C780.004 237.553 781.205 241.352 781.205 246.293C781.205 251.254 780.004 255.072 777.602 257.748C775.199 260.404 771.605 261.732 766.82 261.732C762.094 261.732 758.52 260.395 756.098 257.719C753.676 255.043 752.465 251.234 752.465 246.293C752.465 241.352 753.666 237.553 756.068 234.896C758.49 232.221 762.074 230.883 766.82 230.883ZM760.756 236.479C759.389 238.803 758.705 242.074 758.705 246.293C758.705 250.512 759.389 253.793 760.756 256.137C762.123 258.461 764.145 259.623 766.82 259.623C769.535 259.623 771.566 258.471 772.914 256.166C774.281 253.842 774.965 250.551 774.965 246.293C774.965 242.055 774.281 238.783 772.914 236.479C771.566 234.154 769.535 232.992 766.82 232.992C764.145 232.992 762.123 234.154 760.756 236.479ZM795.502 230.883L796.234 235.688C798.344 233.832 799.926 232.572 800.98 231.908C802.055 231.225 803.109 230.883 804.145 230.883C805.219 230.883 806.02 231.186 806.547 231.791C807.074 232.377 807.338 233.051 807.338 233.812C807.338 234.73 807.055 235.521 806.488 236.186C805.922 236.85 805.277 237.182 804.555 237.182C804.086 237.182 803.686 237.084 803.354 236.889C801.791 236.01 800.551 235.57 799.633 235.57C798.793 235.57 798.012 236.078 797.289 237.094C796.586 238.109 796.234 239.662 796.234 241.752V255.785C796.234 256.352 796.244 256.791 796.264 257.104C796.283 257.396 796.371 257.689 796.527 257.982C796.703 258.256 796.879 258.451 797.055 258.568C797.23 258.686 797.572 258.803 798.08 258.92C798.607 259.018 799.125 259.086 799.633 259.125C800.141 259.164 800.902 259.213 801.918 259.271V261H786.098V259.271C786.898 259.213 787.494 259.164 787.885 259.125C788.295 259.086 788.695 259.018 789.086 258.92C789.496 258.803 789.77 258.686 789.906 258.568C790.062 258.451 790.199 258.256 790.316 257.982C790.453 257.689 790.531 257.396 790.551 257.104C790.57 256.791 790.58 256.352 790.58 255.785V236.889C790.58 235.834 790.463 235.15 790.229 234.838C789.994 234.525 789.477 234.311 788.676 234.193L786.391 233.871V232.377L795.502 230.883ZM828.871 232.553L839.799 230.883L840.092 231.176L833.559 255.287C832.953 257.494 833.158 258.598 834.174 258.598C834.916 258.598 835.814 257.904 836.869 256.518C837.924 255.111 838.822 253.686 839.564 252.24L841 253.09C839.867 255.609 838.461 257.68 836.781 259.301C835.121 260.922 833.285 261.732 831.273 261.732C829.711 261.732 828.676 261.186 828.168 260.092C827.66 258.979 827.66 257.562 828.168 255.844L833.207 237.064C833.48 236.01 833.539 235.307 833.383 234.955C833.227 234.584 832.748 234.369 831.947 234.311L828.52 233.988L828.871 232.553ZM839.506 218.109C840.424 218.109 841.186 218.383 841.791 218.93C842.416 219.477 842.729 220.297 842.729 221.391C842.729 222.602 842.377 223.578 841.674 224.32C840.99 225.062 840.062 225.434 838.891 225.434C837.953 225.434 837.172 225.141 836.547 224.555C835.922 223.969 835.609 223.139 835.609 222.064C835.609 221.01 835.951 220.092 836.635 219.311C837.338 218.51 838.295 218.109 839.506 218.109ZM851.166 261L845.893 261.732L852.191 237.182C852.484 236.225 852.572 235.521 852.455 235.072C852.357 234.623 851.967 234.369 851.283 234.311L847.562 233.988L847.914 232.553L858.9 230.883L859.193 231.176L855.297 244.271H855.473C857.387 240.541 859.779 237.377 862.65 234.779C865.521 232.182 868.334 230.883 871.088 230.883C872.279 230.883 873.256 231.117 874.018 231.586C874.779 232.035 875.297 232.67 875.57 233.49C875.863 234.291 875.98 235.199 875.922 236.215C875.883 237.23 875.688 238.354 875.336 239.584L870.678 255.287C870.072 257.494 870.268 258.598 871.264 258.598C872.006 258.598 872.904 257.904 873.959 256.518C875.014 255.111 875.912 253.686 876.654 252.24L878.09 253.09C876.957 255.629 875.551 257.709 873.871 259.33C872.211 260.932 870.326 261.732 868.217 261.732C866.654 261.732 865.609 261.176 865.082 260.062C864.574 258.93 864.594 257.523 865.141 255.844L870.297 238.266C870.668 237.094 870.688 236.088 870.355 235.248C870.023 234.408 869.35 233.988 868.334 233.988C867.182 233.988 865.941 234.467 864.613 235.424C863.285 236.381 862.045 237.592 860.893 239.057C859.74 240.521 858.695 242.025 857.758 243.568C856.84 245.092 856.078 246.547 855.473 247.934C854.203 250.98 852.768 255.336 851.166 261ZM885.268 233.988L885.619 232.553L896.342 230.883L896.664 231.176L889.867 261.176C888.637 266.664 887.221 270.443 885.619 272.514C884.018 274.525 881.879 275.531 879.203 275.531C877.641 275.531 876.303 275.199 875.189 274.535C874.076 273.871 873.51 273.041 873.49 272.045C873.49 271.303 873.773 270.609 874.34 269.965C874.906 269.34 875.521 269.027 876.186 269.027C876.713 269.027 877.24 269.428 877.768 270.229C879.193 272.357 880.326 273.422 881.166 273.422C881.83 273.422 882.289 272.797 882.543 271.547L889.867 237.299C890.141 236.244 890.229 235.502 890.131 235.072C890.053 234.623 889.672 234.369 888.988 234.311L885.268 233.988ZM895.756 218.109C896.674 218.109 897.445 218.383 898.07 218.93C898.695 219.477 899.008 220.297 899.008 221.391C899.008 222.602 898.656 223.578 897.953 224.32C897.25 225.062 896.312 225.434 895.141 225.434C894.203 225.434 893.422 225.141 892.797 224.555C892.172 223.969 891.859 223.139 891.859 222.064C891.859 221.01 892.201 220.092 892.885 219.311C893.588 218.51 894.545 218.109 895.756 218.109ZM921.713 251.947L923.09 253.148C922.113 254.75 921.039 256.127 919.867 257.279C918.695 258.432 917.504 259.32 916.293 259.945C915.102 260.57 913.939 261.02 912.807 261.293C911.674 261.586 910.521 261.732 909.35 261.732C908.568 261.732 907.807 261.664 907.064 261.527C906.342 261.391 905.561 261.107 904.721 260.678C903.881 260.248 903.158 259.691 902.553 259.008C901.947 258.305 901.439 257.348 901.029 256.137C900.619 254.906 900.414 253.49 900.414 251.889C900.414 249.35 900.844 246.84 901.703 244.359C902.582 241.859 903.812 239.643 905.395 237.709C909.086 233.158 913.461 230.883 918.52 230.883C920.863 230.883 922.689 231.459 923.998 232.611C925.307 233.764 925.961 235.189 925.961 236.889C925.961 239.037 925.121 240.951 923.441 242.631C921.977 243.998 919.936 245.248 917.318 246.381C914.721 247.494 911.088 248.529 906.42 249.486C906.381 249.76 906.361 250.082 906.361 250.453C906.361 256 908.178 258.773 911.811 258.773C912.865 258.773 913.891 258.568 914.887 258.158C915.883 257.748 916.82 257.152 917.699 256.371C918.578 255.57 919.281 254.867 919.809 254.262C920.355 253.656 920.99 252.885 921.713 251.947ZM906.537 247.436C908.979 246.908 911.107 246.234 912.924 245.414C914.76 244.594 916.205 243.695 917.26 242.719C918.314 241.742 919.086 240.736 919.574 239.701C920.082 238.666 920.336 237.602 920.336 236.508C920.336 235.453 920.014 234.604 919.369 233.959C918.744 233.314 917.904 232.992 916.85 232.992C915.307 232.992 913.793 233.695 912.309 235.102C910.824 236.488 909.574 238.285 908.559 240.492C907.562 242.699 906.889 245.014 906.537 247.436ZM948.49 251.771L949.926 252.914C946.41 258.793 941.85 261.732 936.244 261.732C935.131 261.732 934.086 261.566 933.109 261.234C932.152 260.922 931.244 260.414 930.385 259.711C929.545 258.988 928.881 257.982 928.393 256.693C927.904 255.404 927.66 253.881 927.66 252.123C927.66 249.643 928.07 247.152 928.891 244.652C929.73 242.152 930.873 239.877 932.318 237.826C933.783 235.775 935.629 234.105 937.855 232.816C940.082 231.527 942.484 230.883 945.062 230.883C947.309 230.883 949.154 231.391 950.6 232.406C952.064 233.422 952.797 234.691 952.797 236.215C952.797 237.133 952.357 237.924 951.479 238.588C950.619 239.252 949.779 239.584 948.959 239.584C947.943 239.584 947.367 238.979 947.23 237.768C947.055 236.049 946.664 234.828 946.059 234.105C945.453 233.363 944.643 232.992 943.627 232.992C941.869 232.992 940.199 233.949 938.617 235.863C937.055 237.777 935.824 240.111 934.926 242.865C934.047 245.619 933.607 248.305 933.607 250.922C933.607 252.094 933.676 253.109 933.812 253.969C933.969 254.828 934.223 255.648 934.574 256.43C934.945 257.191 935.492 257.777 936.215 258.188C936.938 258.578 937.826 258.773 938.881 258.773C941.811 258.773 945.014 256.439 948.49 251.771ZM974.975 233.871H967.475L962.113 255.727C961.664 257.641 961.967 258.598 963.021 258.598C963.861 258.598 964.906 257.904 966.156 256.518C967.406 255.131 968.461 253.705 969.32 252.24L970.639 253.266C969.311 255.746 967.699 257.777 965.805 259.359C963.91 260.941 961.84 261.732 959.594 261.732C958.148 261.732 957.191 261.186 956.723 260.092C956.254 258.979 956.273 257.562 956.781 255.844L962.172 233.871H957.191L957.865 231.586H962.729L963.49 228.656L969.32 224.027L970.053 224.467L968.002 231.586H975.619L974.975 233.871ZM977.641 232.553L988.568 230.883L988.861 231.176L982.328 255.287C981.723 257.494 981.928 258.598 982.943 258.598C983.686 258.598 984.584 257.904 985.639 256.518C986.693 255.111 987.592 253.686 988.334 252.24L989.77 253.09C988.637 255.609 987.23 257.68 985.551 259.301C983.891 260.922 982.055 261.732 980.043 261.732C978.48 261.732 977.445 261.186 976.938 260.092C976.43 258.979 976.43 257.562 976.938 255.844L981.977 237.064C982.25 236.01 982.309 235.307 982.152 234.955C981.996 234.584 981.518 234.369 980.717 234.311L977.289 233.988L977.641 232.553ZM988.275 218.109C989.193 218.109 989.955 218.383 990.561 218.93C991.186 219.477 991.498 220.297 991.498 221.391C991.498 222.602 991.146 223.578 990.443 224.32C989.76 225.062 988.832 225.434 987.66 225.434C986.723 225.434 985.941 225.141 985.316 224.555C984.691 223.969 984.379 223.139 984.379 222.064C984.379 221.01 984.721 220.092 985.404 219.311C986.107 218.51 987.064 218.109 988.275 218.109ZM996.273 232.553L1006.88 230.883L1007.2 231.176L1001.99 254.408C1001.67 255.756 1001.71 256.791 1002.1 257.514C1002.49 258.236 1003.09 258.598 1003.89 258.598C1004.85 258.637 1005.91 258.275 1007.08 257.514C1008.28 256.732 1009.42 255.678 1010.51 254.35C1011.62 253.021 1012.66 251.557 1013.62 249.955C1014.57 248.334 1015.36 246.615 1015.96 244.799C1016.59 242.963 1016.95 241.244 1017.04 239.643C1017.04 236.4 1016.8 233.9 1016.31 232.143C1017.64 231.303 1019.11 230.883 1020.71 230.883C1020.88 230.883 1021.11 231.107 1021.38 231.557C1021.67 231.986 1021.94 232.582 1022.17 233.344C1022.43 234.105 1022.55 234.848 1022.55 235.57C1022.51 237.426 1021.84 239.828 1020.53 242.777C1019.22 245.727 1017.55 248.578 1015.52 251.332C1013.22 254.438 1010.82 256.947 1008.34 258.861C1005.86 260.775 1003.42 261.732 1001.02 261.732C999.223 261.732 997.934 261.078 997.152 259.77C996.371 258.441 996.273 256.469 996.859 253.852L1000.52 237.182C1000.78 236.186 1000.85 235.473 1000.76 235.043C1000.66 234.613 1000.29 234.369 999.643 234.311L995.922 233.988L996.273 232.553ZM1045.11 251.947L1046.49 253.148C1045.51 254.75 1044.44 256.127 1043.27 257.279C1042.09 258.432 1040.9 259.32 1039.69 259.945C1038.5 260.57 1037.34 261.02 1036.21 261.293C1035.07 261.586 1033.92 261.732 1032.75 261.732C1031.97 261.732 1031.21 261.664 1030.46 261.527C1029.74 261.391 1028.96 261.107 1028.12 260.678C1027.28 260.248 1026.56 259.691 1025.95 259.008C1025.35 258.305 1024.84 257.348 1024.43 256.137C1024.02 254.906 1023.81 253.49 1023.81 251.889C1023.81 249.35 1024.24 246.84 1025.1 244.359C1025.98 241.859 1027.21 239.643 1028.79 237.709C1032.48 233.158 1036.86 230.883 1041.92 230.883C1044.26 230.883 1046.09 231.459 1047.4 232.611C1048.71 233.764 1049.36 235.189 1049.36 236.889C1049.36 239.037 1048.52 240.951 1046.84 242.631C1045.38 243.998 1043.33 245.248 1040.72 246.381C1038.12 247.494 1034.49 248.529 1029.82 249.486C1029.78 249.76 1029.76 250.082 1029.76 250.453C1029.76 256 1031.58 258.773 1035.21 258.773C1036.26 258.773 1037.29 258.568 1038.29 258.158C1039.28 257.748 1040.22 257.152 1041.1 256.371C1041.98 255.57 1042.68 254.867 1043.21 254.262C1043.75 253.656 1044.39 252.885 1045.11 251.947ZM1029.94 247.436C1032.38 246.908 1034.51 246.234 1036.32 245.414C1038.16 244.594 1039.6 243.695 1040.66 242.719C1041.71 241.742 1042.48 240.736 1042.97 239.701C1043.48 238.666 1043.73 237.602 1043.73 236.508C1043.73 235.453 1043.41 234.604 1042.77 233.959C1042.14 233.314 1041.3 232.992 1040.25 232.992C1038.71 232.992 1037.19 233.695 1035.71 235.102C1034.22 236.488 1032.97 238.285 1031.96 240.492C1030.96 242.699 1030.29 245.014 1029.94 247.436ZM1088.76 253.09L1086.74 261H1061.9L1061.28 260.414C1061.89 257.953 1063 255.58 1064.62 253.295C1066.24 250.99 1068.83 248.295 1072.39 245.209C1073.87 243.9 1075.06 242.777 1075.96 241.84C1076.86 240.883 1077.72 239.809 1078.54 238.617C1079.36 237.426 1079.95 236.186 1080.3 234.896C1080.67 233.588 1080.85 232.152 1080.85 230.59C1080.85 225.062 1078.87 222.299 1074.91 222.299C1073.15 222.299 1071.67 222.982 1070.48 224.35C1069.29 225.717 1068.43 227.494 1067.9 229.682C1067.79 230.229 1067.59 230.639 1067.32 230.912C1067.06 231.166 1066.67 231.293 1066.15 231.293C1065.48 231.293 1064.77 231.029 1064.01 230.502C1063.25 229.955 1062.87 229.223 1062.87 228.305C1062.87 227.504 1063.14 226.645 1063.69 225.727C1064.23 224.809 1065 223.93 1066 223.09C1067 222.25 1068.31 221.557 1069.96 221.01C1071.6 220.463 1073.39 220.189 1075.35 220.189C1076.99 220.189 1078.49 220.395 1079.86 220.805C1081.22 221.195 1082.46 221.811 1083.58 222.65C1084.71 223.49 1085.59 224.662 1086.21 226.166C1086.84 227.65 1087.15 229.398 1087.15 231.41C1087.15 232.621 1086.98 233.764 1086.62 234.838C1086.27 235.912 1085.9 236.801 1085.51 237.504C1085.14 238.207 1084.45 239.027 1083.43 239.965C1082.44 240.902 1081.65 241.586 1081.09 242.016C1080.52 242.445 1079.51 243.188 1078.04 244.242C1077.57 244.594 1077.21 244.857 1076.96 245.033C1074.24 246.986 1072.01 248.979 1070.25 251.01C1068.51 253.021 1067.39 254.828 1066.88 256.43H1082.23C1083.54 256.43 1084.53 256.205 1085.19 255.756C1085.87 255.307 1086.51 254.311 1087.09 252.768L1088.76 253.09ZM1095.94 243.832H1110.62V248.051H1095.94V243.832ZM1128.43 243.949V255.434C1128.43 256.078 1128.43 256.557 1128.43 256.869C1128.45 257.182 1128.55 257.504 1128.72 257.836C1128.9 258.168 1129.08 258.393 1129.25 258.51C1129.45 258.607 1129.84 258.725 1130.42 258.861C1131.01 258.998 1131.59 259.086 1132.15 259.125C1132.72 259.164 1133.6 259.213 1134.79 259.271V261H1117.09V259.271C1118.11 259.213 1118.86 259.164 1119.35 259.125C1119.84 259.086 1120.33 258.998 1120.81 258.861C1121.3 258.725 1121.62 258.607 1121.78 258.51C1121.94 258.393 1122.08 258.168 1122.22 257.836C1122.38 257.504 1122.46 257.191 1122.46 256.898C1122.47 256.586 1122.48 256.098 1122.48 255.434V225.053C1122.48 224.389 1122.47 223.91 1122.46 223.617C1122.46 223.305 1122.38 222.982 1122.22 222.65C1122.08 222.318 1121.94 222.104 1121.78 222.006C1121.62 221.889 1121.3 221.762 1120.81 221.625C1120.33 221.488 1119.84 221.4 1119.35 221.361C1118.86 221.322 1118.11 221.273 1117.09 221.215V219.486H1133.82C1138.53 219.486 1142.17 220.287 1144.75 221.889C1146.18 222.768 1147.31 223.998 1148.15 225.58C1149.01 227.162 1149.44 229.047 1149.44 231.234C1149.44 233.031 1149.14 234.643 1148.56 236.068C1147.99 237.494 1147.2 238.676 1146.19 239.613C1145.19 240.531 1144.14 241.273 1143.05 241.84C1141.98 242.406 1140.8 242.855 1139.54 243.188C1137.39 243.695 1134.82 243.949 1131.83 243.949H1128.43ZM1128.43 223.793V239.525C1128.43 240.6 1128.7 241.264 1129.22 241.518C1129.77 241.752 1130.98 241.869 1132.86 241.869C1134.2 241.869 1135.45 241.684 1136.61 241.312C1137.78 240.941 1138.84 240.375 1139.8 239.613C1140.78 238.832 1141.54 237.768 1142.08 236.42C1142.65 235.053 1142.93 233.471 1142.93 231.674C1142.93 228.432 1142.05 225.941 1140.3 224.203C1138.54 222.445 1136.1 221.566 1132.97 221.566C1131.1 221.566 1129.87 221.723 1129.28 222.035C1128.71 222.328 1128.43 222.914 1128.43 223.793ZM1186.62 261H1171.26V259.271L1173.96 259.008C1174.9 258.93 1175.47 258.695 1175.69 258.305C1175.92 257.914 1175.88 257.289 1175.57 256.43L1171.56 244.975H1158.11C1156.1 251.186 1154.88 255.043 1154.45 256.547C1154.19 257.348 1154.16 257.934 1154.36 258.305C1154.57 258.656 1155.11 258.871 1155.97 258.949L1159.08 259.271V261H1145.89V259.271C1146.87 259.232 1147.63 259.154 1148.18 259.037C1148.72 258.92 1149.2 258.686 1149.61 258.334C1150.04 257.963 1150.37 257.562 1150.58 257.133C1150.81 256.703 1151.11 256.029 1151.46 255.111C1152.63 252.104 1154.79 246.146 1157.93 237.24L1164.23 219.486H1168.69L1181.4 255.668C1181.63 256.312 1181.85 256.83 1182.04 257.221C1182.24 257.592 1182.45 257.914 1182.66 258.188C1182.89 258.461 1183.21 258.666 1183.6 258.803C1184.01 258.92 1184.41 259.018 1184.8 259.096C1185.21 259.154 1185.81 259.213 1186.62 259.271V261ZM1170.85 242.689L1164.91 225.551H1164.73C1164.61 225.902 1163.8 228.256 1162.3 232.611C1160.79 236.947 1159.66 240.307 1158.9 242.689H1170.85ZM1201.97 261H1187.76V259.271C1189.5 259.135 1190.71 258.891 1191.39 258.539C1192.09 258.188 1192.52 257.426 1192.68 256.254C1192.95 254.398 1193.09 251.918 1193.09 248.812V225.053C1193.09 224.389 1193.08 223.91 1193.06 223.617C1193.06 223.305 1192.98 222.982 1192.83 222.65C1192.69 222.318 1192.54 222.104 1192.39 222.006C1192.23 221.889 1191.91 221.762 1191.42 221.625C1190.93 221.488 1190.44 221.4 1189.96 221.361C1189.47 221.322 1188.71 221.273 1187.7 221.215V219.486H1199.86C1200.5 221.068 1201.21 222.748 1202 224.525C1202.78 226.303 1203.66 228.266 1204.63 230.414C1205.61 232.562 1206.36 234.242 1206.89 235.453L1213.98 251.449H1214.1L1221.27 235.395C1224.67 227.914 1226.98 222.611 1228.19 219.486H1240.26V221.215C1239.24 221.273 1238.49 221.332 1238 221.391C1237.53 221.43 1237.04 221.518 1236.54 221.654C1236.05 221.771 1235.73 221.889 1235.57 222.006C1235.41 222.104 1235.26 222.318 1235.1 222.65C1234.95 222.982 1234.86 223.305 1234.84 223.617C1234.84 223.93 1234.84 224.408 1234.84 225.053V255.434C1234.84 256.078 1234.84 256.557 1234.84 256.869C1234.86 257.182 1234.95 257.504 1235.1 257.836C1235.26 258.168 1235.41 258.393 1235.57 258.51C1235.73 258.607 1236.05 258.725 1236.54 258.861C1237.04 258.979 1237.53 259.066 1238 259.125C1238.49 259.164 1239.24 259.213 1240.26 259.271V261H1223.5V259.271C1224.26 259.213 1224.85 259.174 1225.26 259.154C1225.67 259.115 1226.1 259.057 1226.55 258.979C1227.02 258.9 1227.35 258.842 1227.54 258.803C1227.74 258.744 1227.94 258.637 1228.16 258.48C1228.39 258.324 1228.54 258.188 1228.6 258.07C1228.66 257.934 1228.72 257.719 1228.8 257.426C1228.88 257.113 1228.92 256.83 1228.92 256.576C1228.92 256.303 1228.92 255.922 1228.92 255.434V224.994H1228.71L1213.07 260.268H1211.46L1195.96 224.994H1195.84V248.812C1195.84 251.918 1195.98 254.398 1196.25 256.254C1196.41 257.426 1196.86 258.188 1197.6 258.539C1198.36 258.871 1199.82 259.115 1201.97 259.271V261Z" fill="black"/>
<rect id="WHy_interesting?" opacity="0.5" x="46" y="285" width="602" height="338.625" fill="#FF0000"/>
<rect id="WHy_interesting?_2" opacity="0.5" x="46" y="658" width="602" height="338.625" fill="#FF0000"/>
<rect id="Injective" opacity="0.5" x="822" y="205" width="1060" height="596.25" fill="#FF0000"/>
<rect id="Injective2" opacity="0.5" x="822" y="475" width="1056" height="594" fill="#FF0000"/>
</g>
</svg>
