<svg width="1921" height="1081" viewBox="0 0 1921 1081" fill="none" xmlns="http://www.w3.org/2000/svg">
<g id="example S">
<rect width="1920" height="1080" transform="translate(0.231934 0.951904)" fill="white"/>
<path id="An example source / target, would be the set" d="M625.512 419.952H615.312V419.192C616.752 419.192 617.032 419.112 617.512 418.832C617.832 418.672 618.072 418.232 618.072 417.872C618.072 417.272 617.792 416.192 617.312 415.072L615.672 411.312H605.192L603.352 415.872C603.152 416.392 602.992 417.072 602.992 417.552C602.992 418.792 603.872 419.192 605.792 419.192V419.952H597.832V419.192C600.152 418.952 600.512 418.112 602.872 412.512L611.112 392.992H611.912L621.752 415.512C622.872 418.112 623.432 418.952 625.512 419.192V419.952ZM615.112 409.672L610.472 398.672L605.872 409.672H615.112ZM645.499 419.952H637.179L637.219 419.352C639.219 419.192 639.699 418.392 639.699 415.752V407.792C639.699 404.952 638.739 403.752 636.779 403.752C635.459 403.752 634.499 404.232 632.659 406.032V417.072C632.659 418.632 633.219 419.192 635.259 419.352V419.952H626.819V419.352C628.859 419.192 629.299 418.552 629.299 416.192V406.472C629.299 404.512 629.019 403.872 627.899 403.872C627.459 403.872 627.019 403.912 626.739 404.032V403.352C628.939 402.712 630.259 402.272 632.219 401.552L632.539 401.672V404.792H632.579C634.659 402.432 636.499 401.552 638.339 401.552C641.379 401.552 643.059 403.752 643.059 407.712V416.552C643.059 418.712 643.539 419.152 645.499 419.352V419.952ZM672.419 413.392L673.059 413.672C671.499 418.032 668.699 420.352 664.699 420.352C659.979 420.352 657.099 416.792 657.099 411.272C657.099 405.632 660.339 401.552 665.379 401.552C667.859 401.552 669.659 402.512 670.939 404.312C671.739 405.432 672.139 406.712 672.299 408.872H659.979C660.179 411.912 660.379 413.472 661.819 415.392C662.939 416.872 664.419 417.592 666.259 417.592C668.939 417.592 670.459 416.352 672.419 413.392ZM660.059 407.592H668.219C667.779 404.352 666.939 402.992 664.299 402.992C662.059 402.992 660.499 404.592 660.059 407.592ZM692.173 419.952H684.133V419.352C685.453 419.272 685.733 419.112 685.733 418.392C685.733 418.112 685.653 417.912 685.493 417.672L681.853 412.072L678.693 416.992C678.133 417.872 677.893 418.352 677.893 418.632C677.893 419.152 678.333 419.352 679.493 419.352V419.952H673.693V419.352C675.013 419.232 675.493 418.952 676.613 417.312L681.173 410.712L677.413 404.952C676.173 403.072 675.533 402.552 674.333 402.552H673.973V401.952H682.253V402.552C681.053 402.592 680.533 402.832 680.533 403.432C680.533 403.952 681.213 405.272 682.373 406.992C682.573 407.272 682.773 407.512 682.933 407.792C683.333 407.272 683.733 406.632 684.133 406.032C685.013 404.632 685.613 403.912 685.613 403.432C685.613 402.872 685.213 402.632 684.013 402.552V401.952H690.333V402.552C689.053 402.592 687.853 403.232 687.093 404.312L683.773 409.112L688.893 416.952C690.013 418.672 690.933 419.352 692.173 419.352V419.952ZM710.263 417.312V418.432C709.063 419.952 708.023 420.352 706.663 420.352C705.183 420.352 704.303 419.552 704.103 417.432H704.063C701.943 419.832 699.983 420.352 698.263 420.352C695.783 420.352 694.063 418.832 694.063 416.192C694.063 414.112 695.303 412.552 696.863 411.512C698.063 410.712 699.543 409.952 704.063 408.272V406.112C704.063 403.632 702.743 402.512 700.943 402.512C699.343 402.512 698.143 403.392 698.143 404.472C698.143 405.192 698.383 405.312 698.383 406.152C698.383 406.912 697.583 407.792 696.543 407.792C695.703 407.792 694.823 407.032 694.823 405.952C694.823 404.912 695.463 403.632 696.863 402.752C697.983 402.032 699.663 401.552 701.463 401.552C703.703 401.552 705.223 402.192 706.183 403.352C707.143 404.512 707.303 405.352 707.303 407.792V415.432C707.303 417.272 707.823 418.072 708.543 418.072C709.183 418.072 709.583 417.872 710.263 417.312ZM704.063 414.872V409.232C701.583 410.112 699.943 410.952 698.943 411.872C697.983 412.752 697.583 413.712 697.583 414.952C697.583 417.072 698.783 418.032 700.343 418.032C701.143 418.032 701.983 417.832 702.663 417.392C703.823 416.592 704.063 416.032 704.063 414.872ZM741.357 419.952H732.637V419.352C734.877 419.112 735.237 418.672 735.237 416.352V408.112C735.237 404.952 734.437 403.632 732.157 403.632C730.277 403.632 729.077 404.352 727.877 406.072V416.152C727.877 418.752 728.477 419.312 730.757 419.352V419.952H721.797V419.352C724.077 419.192 724.517 418.952 724.517 416.512V408.072C724.517 405.312 723.637 403.632 721.917 403.632C720.437 403.632 718.477 404.392 717.677 405.352C717.397 405.672 717.157 405.952 717.157 406.032V417.152C717.157 418.872 717.757 419.272 719.877 419.352V419.952H710.997V419.352C713.237 419.312 713.797 418.752 713.797 416.432V406.512C713.797 404.552 713.437 403.872 712.397 403.872C711.957 403.872 711.637 403.912 711.117 404.032V403.352C713.317 402.752 714.637 402.312 716.677 401.552L716.997 401.672V404.632H717.077C719.717 401.912 721.397 401.552 723.197 401.552C725.357 401.552 726.717 402.632 727.437 404.912C729.597 402.592 731.637 401.552 733.957 401.552C737.197 401.552 738.597 404.032 738.597 408.752V416.872C738.597 418.672 739.117 419.192 740.317 419.272L741.357 419.352V419.952ZM747.733 401.632V404.712C749.493 402.512 751.253 401.552 753.493 401.552C757.373 401.552 760.173 405.112 760.173 410.072C760.173 415.872 756.533 420.352 751.773 420.352C750.093 420.352 749.173 419.952 747.733 418.632V424.912C747.733 427.432 748.253 427.872 751.253 427.912V428.632H741.573V427.952C743.933 427.712 744.373 427.272 744.373 425.192V406.472C744.373 404.592 744.093 404.192 742.733 404.192C742.373 404.192 742.093 404.192 741.733 404.232V403.592C743.933 402.912 745.373 402.392 747.493 401.552L747.733 401.632ZM747.733 406.592V416.432C747.733 417.632 750.013 419.072 751.893 419.072C754.773 419.072 756.733 416.072 756.733 411.672C756.733 406.992 754.773 403.952 751.813 403.952C749.973 403.952 747.733 405.392 747.733 406.592ZM771.653 419.952H762.213V419.352C764.733 419.152 765.293 418.472 765.293 416.272V397.512C765.293 395.592 764.893 394.952 763.613 394.952C763.293 394.952 762.773 394.952 762.133 395.032V394.392C764.893 393.712 766.373 393.312 768.453 392.632L768.653 392.792V416.472C768.653 418.672 769.093 419.192 771.653 419.352V419.952ZM788.825 413.392L789.465 413.672C787.905 418.032 785.105 420.352 781.105 420.352C776.385 420.352 773.505 416.792 773.505 411.272C773.505 405.632 776.745 401.552 781.785 401.552C784.265 401.552 786.065 402.512 787.345 404.312C788.145 405.432 788.545 406.712 788.705 408.872H776.385C776.585 411.912 776.785 413.472 778.225 415.392C779.345 416.872 780.825 417.592 782.665 417.592C785.345 417.592 786.865 416.352 788.825 413.392ZM776.465 407.592H784.625C784.185 404.352 783.345 402.992 780.705 402.992C778.465 402.992 776.905 404.592 776.465 407.592ZM806.519 407.912L810.679 410.432C813.239 411.992 814.199 413.072 814.199 415.352C814.199 418.032 811.639 420.352 808.599 420.352C807.759 420.352 806.599 420.312 805.679 419.992C804.719 419.672 804.279 419.632 803.839 419.632C803.359 419.632 803.119 419.712 802.879 420.112H802.359V413.832H802.999C803.839 417.712 805.319 419.472 808.079 419.472C810.119 419.472 811.399 418.152 811.399 416.512C811.399 415.272 810.599 414.232 809.279 413.512L807.119 412.312C803.799 410.472 802.319 408.552 802.319 406.512C802.319 403.352 804.559 401.592 807.839 401.592C808.799 401.592 809.679 401.632 810.519 402.032C810.959 402.232 811.359 402.352 811.639 402.352C811.799 402.352 811.959 402.312 812.279 401.952H812.719L812.919 407.392H812.319C811.399 403.792 810.199 402.472 807.799 402.472C806.079 402.472 804.799 403.312 804.799 405.192C804.799 406.072 805.399 407.232 806.519 407.912ZM834.626 410.712C834.626 416.272 831.026 420.352 825.626 420.352C820.786 420.352 816.986 416.392 816.986 410.832C816.986 405.272 820.586 401.552 825.986 401.552C830.866 401.552 834.626 405.192 834.626 410.712ZM831.026 411.792C831.026 409.072 830.306 406.312 829.026 404.672C828.066 403.472 826.946 402.672 825.226 402.672C822.466 402.672 820.586 405.032 820.586 409.032C820.586 412.192 821.226 415.072 822.706 417.232C823.586 418.512 824.866 419.232 826.306 419.232C829.266 419.232 831.026 416.432 831.026 411.792ZM855.026 417.952V418.512C852.986 419.072 851.546 419.512 849.546 420.312L849.346 420.192V416.912H849.266C847.306 419.592 845.026 420.352 843.546 420.352C840.466 420.352 838.666 418.312 838.666 415.232V405.192C838.666 403.192 838.106 402.632 836.186 402.512V401.952H842.026V414.872C842.026 416.712 843.306 418.032 844.866 418.032C846.026 418.032 847.226 417.672 848.226 416.792C848.866 416.232 849.146 415.872 849.146 414.472V405.232C849.146 403.112 848.586 402.792 846.186 402.632V401.952H852.506V415.672C852.506 417.512 852.946 417.952 854.786 417.952H855.026ZM862.226 401.632V405.312C864.226 402.432 865.346 401.552 867.026 401.552C868.386 401.552 869.226 402.352 869.226 403.672C869.226 404.792 868.626 405.472 867.666 405.472C867.146 405.472 866.706 405.272 866.066 404.672C865.626 404.272 865.266 404.072 865.026 404.072C863.906 404.072 862.226 406.072 862.226 407.352V416.352C862.226 418.632 862.906 419.232 865.626 419.352V419.952H856.026V419.352C858.586 418.872 858.866 418.592 858.866 416.592V406.592C858.866 404.832 858.506 404.192 857.506 404.192C857.026 404.192 856.666 404.232 856.106 404.352V403.712C858.466 402.952 859.906 402.392 862.026 401.552L862.226 401.632ZM884.988 413.712L885.548 414.072C884.268 416.552 883.468 417.712 882.268 418.672C880.908 419.792 879.388 420.352 877.668 420.352C873.228 420.352 870.068 416.632 870.068 411.472C870.068 408.152 871.268 405.392 873.428 403.592C875.028 402.272 876.948 401.552 878.828 401.552C882.188 401.552 884.988 403.432 884.988 405.672C884.988 406.592 884.148 407.352 883.108 407.352C882.228 407.352 881.508 406.672 881.188 405.512L880.948 404.632C880.548 403.152 880.028 402.712 878.588 402.712C875.348 402.712 873.148 405.512 873.148 409.672C873.148 414.272 875.668 417.472 879.348 417.472C881.628 417.472 883.068 416.512 884.988 413.712ZM903.161 413.392L903.801 413.672C902.241 418.032 899.441 420.352 895.441 420.352C890.721 420.352 887.841 416.792 887.841 411.272C887.841 405.632 891.081 401.552 896.121 401.552C898.601 401.552 900.401 402.512 901.681 404.312C902.481 405.432 902.881 406.712 903.041 408.872H890.721C890.921 411.912 891.121 413.472 892.561 415.392C893.681 416.872 895.161 417.592 897.001 417.592C899.681 417.592 901.201 416.352 903.161 413.392ZM890.801 407.592H898.961C898.521 404.352 897.681 402.992 895.041 402.992C892.801 402.992 891.241 404.592 890.801 407.592ZM926.095 392.912L916.975 420.512H914.255L923.415 392.912H926.095ZM946.388 416.872L946.908 417.312C945.588 419.392 944.068 420.352 942.068 420.352C939.748 420.352 938.548 418.632 938.548 415.272V403.232H936.428C936.308 403.152 936.268 403.072 936.268 402.952C936.268 402.712 936.508 402.472 936.948 402.192C937.988 401.592 939.308 400.112 940.828 397.912C941.068 397.552 941.388 397.192 941.628 396.792C941.828 396.792 941.908 396.912 941.908 397.312V401.952H945.948V403.232H941.908V414.672C941.908 417.232 942.508 418.272 943.988 418.272C944.868 418.272 945.508 417.912 946.388 416.872ZM964.951 417.312V418.432C963.751 419.952 962.711 420.352 961.351 420.352C959.871 420.352 958.991 419.552 958.791 417.432H958.751C956.631 419.832 954.671 420.352 952.951 420.352C950.471 420.352 948.751 418.832 948.751 416.192C948.751 414.112 949.991 412.552 951.551 411.512C952.751 410.712 954.231 409.952 958.751 408.272V406.112C958.751 403.632 957.431 402.512 955.631 402.512C954.031 402.512 952.831 403.392 952.831 404.472C952.831 405.192 953.071 405.312 953.071 406.152C953.071 406.912 952.271 407.792 951.231 407.792C950.391 407.792 949.511 407.032 949.511 405.952C949.511 404.912 950.151 403.632 951.551 402.752C952.671 402.032 954.351 401.552 956.151 401.552C958.391 401.552 959.911 402.192 960.871 403.352C961.831 404.512 961.991 405.352 961.991 407.792V415.432C961.991 417.272 962.511 418.072 963.231 418.072C963.871 418.072 964.271 417.872 964.951 417.312ZM958.751 414.872V409.232C956.271 410.112 954.631 410.952 953.631 411.872C952.671 412.752 952.271 413.712 952.271 414.952C952.271 417.072 953.471 418.032 955.031 418.032C955.831 418.032 956.671 417.832 957.351 417.392C958.511 416.592 958.751 416.032 958.751 414.872ZM971.444 401.632V405.312C973.444 402.432 974.564 401.552 976.244 401.552C977.604 401.552 978.444 402.352 978.444 403.672C978.444 404.792 977.844 405.472 976.884 405.472C976.364 405.472 975.924 405.272 975.284 404.672C974.844 404.272 974.484 404.072 974.244 404.072C973.124 404.072 971.444 406.072 971.444 407.352V416.352C971.444 418.632 972.124 419.232 974.844 419.352V419.952H965.244V419.352C967.804 418.872 968.084 418.592 968.084 416.592V406.592C968.084 404.832 967.724 404.192 966.724 404.192C966.244 404.192 965.884 404.232 965.324 404.352V403.712C967.684 402.952 969.124 402.392 971.244 401.552L971.444 401.632ZM996.54 404.432H993.22C993.78 405.712 993.98 406.632 993.98 407.792C993.98 409.872 993.34 411.352 991.9 412.432C990.62 413.392 989.14 413.992 987.74 413.992C987.5 413.992 986.94 413.952 986.22 413.872L985.46 413.792C984.38 414.112 983.06 415.512 983.06 416.312C983.06 416.952 984.02 417.272 986.18 417.392L991.34 417.632C994.3 417.752 996.18 419.432 996.18 421.912C996.18 423.512 995.42 424.832 993.78 426.112C991.7 427.712 988.66 428.672 985.78 428.672C981.94 428.672 978.86 426.912 978.86 424.792C978.86 423.312 979.9 421.992 982.78 419.912C981.1 419.112 980.66 418.672 980.66 417.792C980.66 416.992 981.18 416.192 982.5 415.032C983.1 414.512 983.66 413.992 984.22 413.432C981.54 412.112 980.5 410.592 980.5 408.072C980.5 404.432 983.46 401.552 987.18 401.552C988.22 401.552 989.3 401.752 990.38 402.152L991.26 402.472C992.06 402.752 992.66 402.872 993.46 402.872H996.54V404.432ZM983.82 406.432V406.552C983.82 410.392 985.46 412.992 987.94 412.992C989.74 412.992 990.9 411.592 990.9 409.392C990.9 407.752 990.46 405.952 989.7 404.552C989.06 403.352 988.02 402.672 986.78 402.672C984.94 402.672 983.82 404.072 983.82 406.432ZM995.06 422.512C995.06 421.032 993.74 420.552 990.1 420.552C988.14 420.552 984.98 420.312 983.62 420.032C982.02 421.952 981.66 422.552 981.66 423.472C981.66 425.232 983.94 426.392 987.46 426.392C992.02 426.392 995.06 424.832 995.06 422.512ZM1013.47 413.392L1014.11 413.672C1012.55 418.032 1009.75 420.352 1005.75 420.352C1001.03 420.352 998.154 416.792 998.154 411.272C998.154 405.632 1001.39 401.552 1006.43 401.552C1008.91 401.552 1010.71 402.512 1011.99 404.312C1012.79 405.432 1013.19 406.712 1013.35 408.872H1001.03C1001.23 411.912 1001.43 413.472 1002.87 415.392C1003.99 416.872 1005.47 417.592 1007.31 417.592C1009.99 417.592 1011.51 416.352 1013.47 413.392ZM1001.11 407.592H1009.27C1008.83 404.352 1007.99 402.992 1005.35 402.992C1003.11 402.992 1001.55 404.592 1001.11 407.592ZM1025.22 416.872L1025.74 417.312C1024.42 419.392 1022.9 420.352 1020.9 420.352C1018.58 420.352 1017.38 418.632 1017.38 415.272V403.232H1015.26C1015.14 403.152 1015.1 403.072 1015.1 402.952C1015.1 402.712 1015.34 402.472 1015.78 402.192C1016.82 401.592 1018.14 400.112 1019.66 397.912C1019.9 397.552 1020.22 397.192 1020.46 396.792C1020.66 396.792 1020.74 396.912 1020.74 397.312V401.952H1024.78V403.232H1020.74V414.672C1020.74 417.232 1021.34 418.272 1022.82 418.272C1023.7 418.272 1024.34 417.912 1025.22 416.872ZM1029.03 425.592L1028.63 424.832C1030.83 423.352 1031.95 421.872 1031.95 420.552C1031.95 420.272 1031.71 420.032 1031.39 420.032C1031.07 420.032 1030.67 420.192 1030.23 420.192C1028.75 420.192 1027.91 419.512 1027.91 418.152C1027.91 416.792 1028.87 415.872 1030.31 415.872C1032.11 415.872 1033.51 417.272 1033.51 419.352C1033.51 421.752 1031.79 424.272 1029.03 425.592ZM1073.47 401.952V402.552C1072.67 402.832 1072.47 403.112 1071.83 404.712L1066.31 418.552C1065.67 420.152 1065.47 420.512 1065.19 420.512C1064.91 420.512 1064.83 420.312 1064.23 418.792L1060.59 409.352L1056.11 418.952C1055.63 419.992 1055.31 420.512 1055.11 420.512C1054.87 420.512 1054.55 419.992 1054.07 418.752L1048.67 405.072C1047.83 402.912 1047.47 402.632 1046.55 402.552V401.952H1053.75V402.552C1052.35 402.712 1051.91 403.032 1051.91 403.872C1051.91 404.272 1051.99 404.672 1052.15 405.072L1056.11 415.512L1059.75 407.552L1058.95 405.312C1058.19 403.152 1057.67 402.712 1056.19 402.552V401.952H1064.31V402.552C1062.43 402.832 1061.99 403.112 1061.99 403.952C1061.99 404.632 1062.19 405.112 1062.67 406.352L1066.03 415.312L1069.63 406.432C1070.07 405.352 1070.31 404.392 1070.31 403.752C1070.31 403.112 1069.91 402.832 1068.55 402.552V401.952H1073.47ZM1092.32 410.712C1092.32 416.272 1088.72 420.352 1083.32 420.352C1078.48 420.352 1074.68 416.392 1074.68 410.832C1074.68 405.272 1078.28 401.552 1083.68 401.552C1088.56 401.552 1092.32 405.192 1092.32 410.712ZM1088.72 411.792C1088.72 409.072 1088 406.312 1086.72 404.672C1085.76 403.472 1084.64 402.672 1082.92 402.672C1080.16 402.672 1078.28 405.032 1078.28 409.032C1078.28 412.192 1078.92 415.072 1080.4 417.232C1081.28 418.512 1082.56 419.232 1084 419.232C1086.96 419.232 1088.72 416.432 1088.72 411.792ZM1112.72 417.952V418.512C1110.68 419.072 1109.24 419.512 1107.24 420.312L1107.04 420.192V416.912H1106.96C1105 419.592 1102.72 420.352 1101.24 420.352C1098.16 420.352 1096.36 418.312 1096.36 415.232V405.192C1096.36 403.192 1095.8 402.632 1093.88 402.512V401.952H1099.72V414.872C1099.72 416.712 1101 418.032 1102.56 418.032C1103.72 418.032 1104.92 417.672 1105.92 416.792C1106.56 416.232 1106.84 415.872 1106.84 414.472V405.232C1106.84 403.112 1106.28 402.792 1103.88 402.632V401.952H1110.2V415.672C1110.2 417.512 1110.64 417.952 1112.48 417.952H1112.72ZM1123.8 419.952H1114.36V419.352C1116.88 419.152 1117.44 418.472 1117.44 416.272V397.512C1117.44 395.592 1117.04 394.952 1115.76 394.952C1115.44 394.952 1114.92 394.952 1114.28 395.032V394.392C1117.04 393.712 1118.52 393.312 1120.6 392.632L1120.8 392.792V416.472C1120.8 418.672 1121.24 419.192 1123.8 419.352V419.952ZM1144.29 418.272L1138.41 420.352L1138.25 420.232V417.672C1136.89 419.552 1135.37 420.352 1133.13 420.352C1128.69 420.352 1125.73 416.872 1125.73 411.752C1125.73 406.072 1129.45 401.552 1134.05 401.552C1135.65 401.552 1136.73 401.992 1138.25 403.272V397.032C1138.25 395.392 1137.89 394.992 1136.41 394.992C1136.09 394.992 1135.85 394.992 1135.53 395.032V394.392C1138.09 393.712 1139.49 393.312 1141.41 392.632L1141.61 392.712V415.392C1141.61 417.232 1141.93 417.672 1143.37 417.672C1143.57 417.672 1143.61 417.672 1144.29 417.632V418.272ZM1138.25 415.872V406.672C1138.25 404.552 1136.33 402.672 1134.17 402.672C1131.13 402.672 1129.17 405.632 1129.17 410.152C1129.17 415.072 1131.33 418.272 1134.69 418.272C1135.93 418.272 1136.93 417.832 1137.65 416.992C1138.01 416.592 1138.25 416.152 1138.25 415.872ZM1160.77 392.712V404.912C1161.61 402.872 1163.73 401.552 1166.17 401.552C1170.45 401.552 1173.37 405.392 1173.37 410.352C1173.37 416.272 1169.29 420.352 1164.01 420.352C1160.77 420.352 1157.41 419.072 1157.41 417.712V397.312C1157.41 395.312 1157.09 394.992 1155.45 394.992C1155.17 394.992 1154.97 395.032 1154.77 395.072V394.392L1155.97 394.032C1157.85 393.472 1158.89 393.232 1160.57 392.632L1160.77 392.712ZM1160.77 407.232V416.992C1160.77 418.272 1162.57 419.072 1164.65 419.072C1166.21 419.072 1167.49 418.472 1168.37 417.352C1169.33 416.152 1169.85 414.392 1169.85 412.072C1169.85 409.672 1169.29 407.352 1168.29 405.952C1167.45 404.752 1166.17 404.072 1164.73 404.072C1162.61 404.072 1160.77 405.552 1160.77 407.232ZM1190.97 413.392L1191.61 413.672C1190.05 418.032 1187.25 420.352 1183.25 420.352C1178.53 420.352 1175.65 416.792 1175.65 411.272C1175.65 405.632 1178.89 401.552 1183.93 401.552C1186.41 401.552 1188.21 402.512 1189.49 404.312C1190.29 405.432 1190.69 406.712 1190.85 408.872H1178.53C1178.73 411.912 1178.93 413.472 1180.37 415.392C1181.49 416.872 1182.97 417.592 1184.81 417.592C1187.49 417.592 1189.01 416.352 1190.97 413.392ZM1178.61 407.592H1186.77C1186.33 404.352 1185.49 402.992 1182.85 402.992C1180.61 402.992 1179.05 404.592 1178.61 407.592ZM1213.07 416.872L1213.59 417.312C1212.27 419.392 1210.75 420.352 1208.75 420.352C1206.43 420.352 1205.23 418.632 1205.23 415.272V403.232H1203.11C1202.99 403.152 1202.95 403.072 1202.95 402.952C1202.95 402.712 1203.19 402.472 1203.63 402.192C1204.67 401.592 1205.99 400.112 1207.51 397.912C1207.75 397.552 1208.07 397.192 1208.31 396.792C1208.51 396.792 1208.59 396.912 1208.59 397.312V401.952H1212.63V403.232H1208.59V414.672C1208.59 417.232 1209.19 418.272 1210.67 418.272C1211.55 418.272 1212.19 417.912 1213.07 416.872ZM1233.35 419.952H1224.87V419.352C1227.19 419.112 1227.59 418.632 1227.59 415.872V407.952C1227.59 405.152 1226.59 403.712 1224.63 403.712C1223.03 403.712 1221.83 404.392 1220.15 406.232V415.872C1220.15 418.632 1220.55 419.112 1222.87 419.352V419.952H1214.23V419.352C1216.55 419.032 1216.79 418.672 1216.79 415.872V397.032C1216.79 395.312 1216.47 394.992 1214.75 394.992C1214.59 394.992 1214.39 394.992 1214.27 395.032V394.392L1215.35 394.072C1217.63 393.392 1218.55 393.112 1219.95 392.632L1220.15 392.752V404.912C1221.99 402.512 1223.67 401.552 1226.03 401.552C1229.31 401.552 1230.95 403.712 1230.95 407.912V415.872C1230.95 418.632 1231.19 418.952 1233.35 419.352V419.952ZM1250.19 413.392L1250.83 413.672C1249.27 418.032 1246.47 420.352 1242.47 420.352C1237.75 420.352 1234.87 416.792 1234.87 411.272C1234.87 405.632 1238.11 401.552 1243.15 401.552C1245.63 401.552 1247.43 402.512 1248.71 404.312C1249.51 405.432 1249.91 406.712 1250.07 408.872H1237.75C1237.95 411.912 1238.15 413.472 1239.59 415.392C1240.71 416.872 1242.19 417.592 1244.03 417.592C1246.71 417.592 1248.23 416.352 1250.19 413.392ZM1237.83 407.592H1245.99C1245.55 404.352 1244.71 402.992 1242.07 402.992C1239.83 402.992 1238.27 404.592 1237.83 407.592ZM1267.89 407.912L1272.05 410.432C1274.61 411.992 1275.57 413.072 1275.57 415.352C1275.57 418.032 1273.01 420.352 1269.97 420.352C1269.13 420.352 1267.97 420.312 1267.05 419.992C1266.09 419.672 1265.65 419.632 1265.21 419.632C1264.73 419.632 1264.49 419.712 1264.25 420.112H1263.73V413.832H1264.37C1265.21 417.712 1266.69 419.472 1269.45 419.472C1271.49 419.472 1272.77 418.152 1272.77 416.512C1272.77 415.272 1271.97 414.232 1270.65 413.512L1268.49 412.312C1265.17 410.472 1263.69 408.552 1263.69 406.512C1263.69 403.352 1265.93 401.592 1269.21 401.592C1270.17 401.592 1271.05 401.632 1271.89 402.032C1272.33 402.232 1272.73 402.352 1273.01 402.352C1273.17 402.352 1273.33 402.312 1273.65 401.952H1274.09L1274.29 407.392H1273.69C1272.77 403.792 1271.57 402.472 1269.17 402.472C1267.45 402.472 1266.17 403.312 1266.17 405.192C1266.17 406.072 1266.77 407.232 1267.89 407.912ZM1293.51 413.392L1294.15 413.672C1292.59 418.032 1289.79 420.352 1285.79 420.352C1281.07 420.352 1278.19 416.792 1278.19 411.272C1278.19 405.632 1281.43 401.552 1286.47 401.552C1288.95 401.552 1290.75 402.512 1292.03 404.312C1292.83 405.432 1293.23 406.712 1293.39 408.872H1281.07C1281.27 411.912 1281.47 413.472 1282.91 415.392C1284.03 416.872 1285.51 417.592 1287.35 417.592C1290.03 417.592 1291.55 416.352 1293.51 413.392ZM1281.15 407.592H1289.31C1288.87 404.352 1288.03 402.992 1285.39 402.992C1283.15 402.992 1281.59 404.592 1281.15 407.592ZM1305.25 416.872L1305.77 417.312C1304.45 419.392 1302.93 420.352 1300.93 420.352C1298.61 420.352 1297.41 418.632 1297.41 415.272V403.232H1295.29C1295.17 403.152 1295.13 403.072 1295.13 402.952C1295.13 402.712 1295.37 402.472 1295.81 402.192C1296.85 401.592 1298.17 400.112 1299.69 397.912C1299.93 397.552 1300.25 397.192 1300.49 396.792C1300.69 396.792 1300.77 396.912 1300.77 397.312V401.952H1304.81V403.232H1300.77V414.672C1300.77 417.232 1301.37 418.272 1302.85 418.272C1303.73 418.272 1304.37 417.912 1305.25 416.872Z" fill="black"/>
<g id="\left\{(x,y)&#226;&#136;&#136; \mathbb R^2\ :\ x^2+y^2-1=0, \text{ and }xy\ge 0\right\}" clip-path="url(#clip0_69_1112)">
<g id="page1">
<path id="Vector" d="M387.954 518.919C387.954 523.159 385.834 525.46 379.716 527.883C379.414 528.004 379.232 528.247 379.232 528.61C379.232 529.095 379.353 529.276 379.838 529.458C387.954 532.608 387.954 535.878 387.954 539.27V555.988C388.015 557.623 388.923 559.864 391.588 561.681C394.556 563.68 399.462 564.952 400.007 564.952C400.613 564.952 400.795 564.71 400.795 564.165C400.795 563.619 400.674 563.559 399.765 563.256C398.009 562.59 393.284 560.712 392.315 557.017C392.133 556.29 392.133 556.169 392.133 553.928V539.089C392.133 535.939 392.133 531.517 382.26 528.671C392.133 525.642 392.133 521.523 392.133 518.131V503.292C392.133 499.96 392.133 496.811 400.371 493.782C400.795 493.661 400.795 493.237 400.795 493.116C400.795 492.571 400.613 492.329 400.007 492.329C399.583 492.329 391.043 494.267 388.923 498.264C387.954 500.082 387.954 500.627 387.954 503.231V518.919Z" fill="black"/>
<path id="Vector_2" d="M427.405 558.532C427.405 558.35 427.405 558.229 426.375 557.199C420.318 551.082 416.927 541.088 416.927 528.731C416.927 516.981 419.773 506.866 426.799 499.718C427.405 499.173 427.405 499.052 427.405 498.87C427.405 498.507 427.102 498.386 426.86 498.386C426.073 498.386 421.106 502.747 418.138 508.683C415.049 514.8 413.656 521.281 413.656 528.731C413.656 534.122 414.504 541.33 417.653 547.811C421.227 555.079 426.194 559.016 426.86 559.016C427.102 559.016 427.405 558.895 427.405 558.532Z" fill="black"/>
<path id="Vector_3" d="M459.495 519.101C457.556 519.465 456.83 520.918 456.83 522.069C456.83 523.523 457.98 524.008 458.828 524.008C460.645 524.008 461.917 522.433 461.917 520.797C461.917 518.253 459.01 517.103 456.466 517.103C452.771 517.103 450.712 520.737 450.167 521.888C448.774 517.345 445.018 517.103 443.928 517.103C437.75 517.103 434.479 525.037 434.479 526.37C434.479 526.612 434.722 526.915 435.146 526.915C435.63 526.915 435.751 526.551 435.872 526.309C437.932 519.586 441.99 518.314 443.746 518.314C446.472 518.314 447.017 520.858 447.017 522.312C447.017 523.644 446.654 525.037 445.927 527.945L443.868 536.243C442.959 539.877 441.203 543.208 437.992 543.208C437.689 543.208 436.175 543.208 434.903 542.421C437.084 541.997 437.568 540.18 437.568 539.453C437.568 538.241 436.66 537.515 435.509 537.515C434.055 537.515 432.48 538.787 432.48 540.725C432.48 543.269 435.327 544.42 437.932 544.42C440.839 544.42 442.898 542.118 444.17 539.635C445.14 543.208 448.168 544.42 450.409 544.42C456.587 544.42 459.858 536.485 459.858 535.152C459.858 534.85 459.616 534.607 459.252 534.607C458.707 534.607 458.647 534.91 458.465 535.395C456.83 540.725 453.317 543.208 450.591 543.208C448.471 543.208 447.32 541.633 447.32 539.15C447.32 537.817 447.562 536.848 448.531 532.851L450.651 524.613C451.56 520.979 453.619 518.314 456.406 518.314C456.527 518.314 458.223 518.314 459.495 519.101Z" fill="black"/>
<path id="Vector_4" d="M476.298 544.056C476.298 540.543 475.147 537.938 472.664 537.938C470.725 537.938 469.756 539.513 469.756 540.846C469.756 542.178 470.665 543.814 472.724 543.814C473.512 543.814 474.178 543.571 474.723 543.026C474.844 542.905 474.905 542.905 474.965 542.905C475.086 542.905 475.086 543.753 475.086 544.056C475.086 546.055 474.723 549.992 471.21 553.929C470.544 554.656 470.544 554.777 470.544 554.898C470.544 555.201 470.847 555.504 471.149 555.504C471.634 555.504 476.298 551.022 476.298 544.056Z" fill="black"/>
<path id="Vector_5" d="M506.985 550.598C505.35 552.899 502.988 554.959 500.02 554.959C499.293 554.959 496.386 554.838 495.477 552.051C495.659 552.112 495.962 552.112 496.083 552.112C497.9 552.112 499.111 550.537 499.111 549.144C499.111 547.751 497.96 547.266 497.052 547.266C496.083 547.266 493.963 547.993 493.963 550.961C493.963 554.05 496.567 556.17 500.02 556.17C506.077 556.17 512.194 550.598 513.89 543.874L519.826 520.252C519.887 519.949 520.008 519.586 520.008 519.222C520.008 518.314 519.281 517.708 518.373 517.708C517.827 517.708 516.555 517.951 516.071 519.768L511.589 537.575C511.286 538.665 511.286 538.787 510.801 539.453C509.59 541.149 507.591 543.208 504.684 543.208C501.292 543.208 500.989 539.877 500.989 538.241C500.989 534.789 502.624 530.125 504.26 525.764C504.926 524.008 505.289 523.16 505.289 521.948C505.289 519.404 503.472 517.103 500.504 517.103C494.932 517.103 492.691 525.885 492.691 526.37C492.691 526.612 492.933 526.915 493.357 526.915C493.902 526.915 493.963 526.673 494.205 525.825C495.659 520.737 497.96 518.314 500.323 518.314C500.868 518.314 501.898 518.314 501.898 520.313C501.898 521.888 501.231 523.644 500.323 525.946C497.355 533.88 497.355 535.879 497.355 537.333C497.355 543.087 501.474 544.42 504.502 544.42C506.259 544.42 508.439 543.874 510.559 541.633L510.62 541.694C509.711 545.268 509.105 547.63 506.985 550.598Z" fill="black"/>
<path id="Vector_6" d="M539.227 528.731C539.227 524.128 538.622 516.617 535.23 509.591C531.656 502.323 526.689 498.386 526.023 498.386C525.781 498.386 525.478 498.507 525.478 498.87C525.478 499.052 525.478 499.173 526.508 500.203C532.565 506.32 535.957 516.314 535.957 528.671C535.957 540.421 533.11 550.536 526.084 557.684C525.478 558.229 525.478 558.35 525.478 558.532C525.478 558.895 525.781 559.016 526.023 559.016C526.811 559.016 531.777 554.655 534.745 548.719C537.834 542.541 539.227 536 539.227 528.731Z" fill="black"/>
<path id="Vector_7" d="M595.228 529.883C596.258 529.883 597.348 529.883 597.348 528.671C597.348 527.46 596.258 527.46 595.228 527.46H569.546C570.273 519.343 577.239 513.529 585.779 513.529H595.228C596.258 513.529 597.348 513.529 597.348 512.317C597.348 511.106 596.258 511.106 595.228 511.106H585.658C575.301 511.106 567.063 518.98 567.063 528.671C567.063 538.362 575.301 546.237 585.658 546.237H595.228C596.258 546.237 597.348 546.237 597.348 545.025C597.348 543.814 596.258 543.814 595.228 543.814H585.779C577.239 543.814 570.273 537.999 569.546 529.883H595.228Z" fill="black"/>
<path id="Vector_8" d="M635.473 524.795H637.653L646.739 538.847C647.344 539.816 648.798 542.178 649.464 543.087C649.888 543.814 650.07 543.814 651.463 543.814H659.822C660.912 543.814 661.821 543.814 661.821 542.723C661.821 542.239 661.457 541.815 660.912 541.694C658.671 541.209 655.703 537.212 654.249 535.273C653.825 534.668 650.797 530.67 646.739 524.128C652.129 523.159 657.338 520.858 657.338 513.65C657.338 505.231 648.435 502.323 641.287 502.323H622.268C621.178 502.323 620.209 502.323 620.209 503.414C620.209 504.443 621.36 504.443 621.844 504.443C625.297 504.443 625.6 504.867 625.6 507.896V538.241C625.6 541.27 625.297 541.694 621.844 541.694C621.36 541.694 620.209 541.694 620.209 542.723C620.209 543.814 621.178 543.814 622.268 543.814H638.865C639.955 543.814 640.863 543.814 640.863 542.723C640.863 541.694 639.834 541.694 639.167 541.694C635.715 541.694 635.473 541.209 635.473 538.241V524.795ZM647.163 521.827C648.859 519.586 649.04 516.375 649.04 513.71C649.04 510.803 648.677 507.593 646.739 505.109C649.222 505.655 655.218 507.532 655.218 513.65C655.218 517.587 653.401 520.676 647.163 521.827ZM635.473 507.714C635.473 506.442 635.473 504.443 639.228 504.443C644.376 504.443 646.92 506.563 646.92 513.71C646.92 521.524 645.043 522.675 635.473 522.675V507.714ZM627.235 541.694C627.72 540.603 627.72 538.907 627.72 538.362V507.775C627.72 507.169 627.72 505.533 627.235 504.443H634.14C633.353 505.412 633.353 506.624 633.353 507.532V538.362C633.353 538.968 633.353 540.603 633.837 541.694H627.235ZM640.136 524.795C640.56 524.734 640.803 524.674 641.287 524.674C642.196 524.674 643.528 524.552 644.437 524.431C645.346 525.885 651.887 536.666 656.914 541.694H651.039L640.136 524.795Z" fill="black"/>
<path id="Vector_9" d="M674.372 510.567C675.018 509.962 676.714 508.629 677.36 508.064C679.864 505.762 682.246 503.541 682.246 499.867C682.246 495.061 678.208 491.952 673.161 491.952C668.315 491.952 665.125 495.627 665.125 499.221C665.125 501.199 666.7 501.482 667.265 501.482C668.113 501.482 669.365 500.876 669.365 499.342C669.365 497.242 667.346 497.242 666.861 497.242C668.032 494.294 670.738 493.285 672.716 493.285C676.472 493.285 678.41 496.475 678.41 499.867C678.41 504.066 675.462 507.135 670.697 512.021L665.61 517.27C665.125 517.715 665.125 517.795 665.125 518.805H681.075L682.246 511.577H680.994C680.873 512.384 680.55 514.403 680.066 515.171C679.823 515.494 676.754 515.494 676.108 515.494H668.921L674.372 510.567Z" fill="black"/>
<path id="Vector_10" d="M734.699 520.616C734.699 518.98 733.306 517.708 731.792 517.708C730.035 517.708 728.824 519.102 728.824 520.616C728.824 522.433 730.338 523.584 731.731 523.584C733.366 523.584 734.699 522.312 734.699 520.616ZM734.699 540.846C734.699 539.211 733.306 537.939 731.792 537.939C730.035 537.939 728.824 539.332 728.824 540.846C728.824 542.663 730.338 543.814 731.731 543.814C733.366 543.814 734.699 542.542 734.699 540.846Z" fill="black"/>
<path id="Vector_11" d="M805.334 519.101C803.395 519.465 802.668 520.918 802.668 522.069C802.668 523.523 803.819 524.008 804.667 524.008C806.484 524.008 807.756 522.433 807.756 520.797C807.756 518.253 804.849 517.103 802.305 517.103C798.61 517.103 796.551 520.737 796.006 521.888C794.613 517.345 790.857 517.103 789.767 517.103C783.589 517.103 780.318 525.037 780.318 526.37C780.318 526.612 780.56 526.915 780.984 526.915C781.469 526.915 781.59 526.551 781.711 526.309C783.771 519.586 787.829 518.314 789.585 518.314C792.311 518.314 792.856 520.858 792.856 522.312C792.856 523.644 792.493 525.037 791.766 527.945L789.706 536.243C788.798 539.877 787.041 543.208 783.831 543.208C783.528 543.208 782.014 543.208 780.742 542.421C782.923 541.997 783.407 540.18 783.407 539.453C783.407 538.241 782.499 537.515 781.348 537.515C779.894 537.515 778.319 538.787 778.319 540.725C778.319 543.269 781.166 544.42 783.771 544.42C786.678 544.42 788.737 542.118 790.009 539.635C790.978 543.208 794.007 544.42 796.248 544.42C802.426 544.42 805.697 536.485 805.697 535.152C805.697 534.85 805.455 534.607 805.091 534.607C804.546 534.607 804.486 534.91 804.304 535.395C802.668 540.725 799.155 543.208 796.43 543.208C794.31 543.208 793.159 541.633 793.159 539.15C793.159 537.817 793.401 536.848 794.37 532.851L796.49 524.613C797.399 520.979 799.458 518.314 802.244 518.314C802.366 518.314 804.062 518.314 805.334 519.101Z" fill="black"/>
<path id="Vector_12" d="M821.713 510.567C822.359 509.962 824.055 508.629 824.701 508.064C827.205 505.762 829.587 503.541 829.587 499.867C829.587 495.061 825.549 491.952 820.501 491.952C815.656 491.952 812.466 495.627 812.466 499.221C812.466 501.199 814.041 501.482 814.606 501.482C815.454 501.482 816.706 500.876 816.706 499.342C816.706 497.242 814.687 497.242 814.202 497.242C815.373 494.294 818.079 493.285 820.057 493.285C823.813 493.285 825.751 496.475 825.751 499.867C825.751 504.066 822.803 507.135 818.038 512.021L812.95 517.27C812.466 517.715 812.466 517.795 812.466 518.805H828.416L829.587 511.577H828.335C828.214 512.384 827.891 514.403 827.406 515.171C827.164 515.494 824.095 515.494 823.449 515.494H816.262L821.713 510.567Z" fill="black"/>
<path id="Vector_13" d="M871.929 529.822H888.646C889.494 529.822 890.584 529.822 890.584 528.732C890.584 527.581 889.555 527.581 888.646 527.581H871.929V510.864C871.929 510.016 871.929 508.926 870.839 508.926C869.688 508.926 869.688 509.955 869.688 510.864V527.581H852.97C852.122 527.581 851.032 527.581 851.032 528.672C851.032 529.822 852.062 529.822 852.97 529.822H869.688V546.54C869.688 547.388 869.688 548.478 870.778 548.478C871.929 548.478 871.929 547.448 871.929 546.54V529.822Z" fill="black"/>
<path id="Vector_14" d="M923.278 550.598C921.643 552.899 919.281 554.959 916.313 554.959C915.586 554.959 912.679 554.838 911.77 552.051C911.952 552.112 912.255 552.112 912.376 552.112C914.193 552.112 915.404 550.537 915.404 549.144C915.404 547.751 914.253 547.266 913.345 547.266C912.376 547.266 910.256 547.993 910.256 550.961C910.256 554.05 912.86 556.17 916.313 556.17C922.37 556.17 928.487 550.598 930.183 543.874L936.119 520.252C936.18 519.949 936.301 519.586 936.301 519.222C936.301 518.314 935.574 517.708 934.666 517.708C934.12 517.708 932.848 517.951 932.364 519.768L927.882 537.575C927.579 538.665 927.579 538.787 927.094 539.453C925.883 541.149 923.884 543.208 920.977 543.208C917.585 543.208 917.282 539.877 917.282 538.241C917.282 534.789 918.917 530.125 920.553 525.764C921.219 524.008 921.582 523.16 921.582 521.948C921.582 519.404 919.765 517.103 916.797 517.103C911.225 517.103 908.984 525.885 908.984 526.37C908.984 526.612 909.226 526.915 909.65 526.915C910.195 526.915 910.256 526.673 910.498 525.825C911.952 520.737 914.253 518.314 916.616 518.314C917.161 518.314 918.191 518.314 918.191 520.313C918.191 521.888 917.524 523.644 916.616 525.946C913.648 533.88 913.648 535.879 913.648 537.333C913.648 543.087 917.767 544.42 920.795 544.42C922.552 544.42 924.732 543.874 926.852 541.633L926.913 541.694C926.004 545.268 925.398 547.63 923.278 550.598Z" fill="black"/>
<path id="Vector_15" d="M949.827 510.567C950.473 509.962 952.169 508.629 952.815 508.064C955.318 505.762 957.701 503.541 957.701 499.867C957.701 495.061 953.663 491.952 948.615 491.952C943.77 491.952 940.58 495.627 940.58 499.221C940.58 501.199 942.154 501.482 942.72 501.482C943.568 501.482 944.819 500.876 944.819 499.342C944.819 497.242 942.8 497.242 942.316 497.242C943.487 494.294 946.192 493.285 948.171 493.285C951.926 493.285 953.865 496.475 953.865 499.867C953.865 504.066 950.917 507.135 946.152 512.021L941.064 517.27C940.58 517.715 940.58 517.795 940.58 518.805H956.53L957.701 511.577H956.449C956.328 512.384 956.005 514.403 955.52 515.171C955.278 515.494 952.209 515.494 951.563 515.494H944.375L949.827 510.567Z" fill="black"/>
<path id="Vector_16" d="M1015.79 529.883C1016.82 529.883 1017.91 529.883 1017.91 528.671C1017.91 527.46 1016.82 527.46 1015.79 527.46H983.023C981.993 527.46 980.903 527.46 980.903 528.671C980.903 529.883 981.993 529.883 983.023 529.883H1015.79Z" fill="black"/>
<path id="Vector_17" d="M1053.89 504.988C1053.89 503.595 1053.89 503.534 1052.68 503.534C1051.22 505.17 1048.2 507.411 1041.96 507.411V509.167C1043.35 509.167 1046.38 509.167 1049.71 507.592V539.149C1049.71 541.33 1049.53 542.057 1044.2 542.057H1042.32V543.813C1043.96 543.692 1049.83 543.692 1051.83 543.692C1053.83 543.692 1059.64 543.692 1061.28 543.813V542.057H1059.4C1054.07 542.057 1053.89 541.33 1053.89 539.149V504.988Z" fill="black"/>
<path id="Vector_18" d="M1123.81 524.189C1124.66 524.189 1125.75 524.189 1125.75 523.099C1125.75 521.948 1124.72 521.948 1123.81 521.948H1088.13C1087.28 521.948 1086.19 521.948 1086.19 523.038C1086.19 524.189 1087.22 524.189 1088.13 524.189H1123.81ZM1123.81 535.455C1124.66 535.455 1125.75 535.455 1125.75 534.365C1125.75 533.214 1124.72 533.214 1123.81 533.214H1088.13C1087.28 533.214 1086.19 533.214 1086.19 534.304C1086.19 535.455 1087.22 535.455 1088.13 535.455H1123.81Z" fill="black"/>
<path id="Vector_19" d="M1173.01 524.431C1173.01 519.404 1172.71 514.497 1170.53 509.894C1168.05 504.867 1163.69 503.534 1160.72 503.534C1157.2 503.534 1152.9 505.291 1150.66 510.318C1148.97 514.134 1148.36 517.889 1148.36 524.431C1148.36 530.306 1148.78 534.728 1150.97 539.028C1153.33 543.631 1157.51 545.085 1160.66 545.085C1165.93 545.085 1168.95 541.936 1170.71 538.422C1172.89 533.88 1173.01 527.944 1173.01 524.431ZM1160.66 543.874C1158.72 543.874 1154.78 542.784 1153.63 536.181C1152.96 532.547 1152.96 527.944 1152.96 523.704C1152.96 518.737 1152.96 514.255 1153.93 510.681C1154.96 506.623 1158.05 504.746 1160.66 504.746C1162.96 504.746 1166.47 506.139 1167.62 511.348C1168.41 514.8 1168.41 519.585 1168.41 523.704C1168.41 527.762 1168.41 532.365 1167.74 536.06C1166.59 542.723 1162.78 543.874 1160.66 543.874Z" fill="black"/>
<path id="Vector_20" d="M1187.34 544.056C1187.34 540.543 1186.19 537.938 1183.71 537.938C1181.77 537.938 1180.8 539.513 1180.8 540.846C1180.8 542.178 1181.71 543.814 1183.77 543.814C1184.56 543.814 1185.22 543.571 1185.77 543.026C1185.89 542.905 1185.95 542.905 1186.01 542.905C1186.13 542.905 1186.13 543.753 1186.13 544.056C1186.13 546.055 1185.77 549.992 1182.25 553.929C1181.59 554.656 1181.59 554.777 1181.59 554.898C1181.59 555.201 1181.89 555.504 1182.19 555.504C1182.68 555.504 1187.34 551.022 1187.34 544.056Z" fill="black"/>
<path id="Vector_21" d="M1245.25 527.642C1245.25 524.371 1245.25 521.948 1242.58 519.586C1240.46 517.648 1237.74 516.8 1235.07 516.8C1230.11 516.8 1226.29 520.071 1226.29 524.008C1226.29 525.764 1227.44 526.612 1228.83 526.612C1230.29 526.612 1231.32 525.582 1231.32 524.129C1231.32 521.645 1229.14 521.645 1228.23 521.645C1229.62 519.101 1232.53 518.011 1234.95 518.011C1237.74 518.011 1241.31 520.313 1241.31 525.764V528.187C1229.14 528.369 1224.53 533.457 1224.53 538.12C1224.53 542.905 1230.11 544.42 1233.8 544.42C1237.8 544.42 1240.52 541.997 1241.67 539.09C1241.92 541.936 1243.79 544.117 1246.4 544.117C1247.67 544.117 1251.18 543.269 1251.18 538.423V535.031H1249.85V538.423C1249.85 541.876 1248.4 542.36 1247.55 542.36C1245.25 542.36 1245.25 539.15 1245.25 538.242V527.642ZM1241.31 535.274C1241.31 541.209 1236.89 543.208 1234.28 543.208C1231.32 543.208 1228.83 541.028 1228.83 538.12C1228.83 530.125 1239.13 529.398 1241.31 529.277V535.274Z" fill="black"/>
<path id="Vector_22" d="M1278.48 529.095C1278.48 523.462 1278.48 521.766 1277.08 519.828C1275.33 517.466 1272.48 517.103 1270.42 517.103C1264.54 517.103 1262.24 522.13 1261.76 523.341H1261.7V517.103L1253.46 517.769V519.525C1257.58 519.525 1258.06 519.949 1258.06 522.917V539.332C1258.06 542.057 1257.4 542.057 1253.46 542.057V543.814C1255.04 543.693 1258.31 543.693 1260 543.693C1261.76 543.693 1265.03 543.693 1266.6 543.814V542.057C1262.73 542.057 1262 542.057 1262 539.332V528.066C1262 521.706 1266.18 518.314 1269.94 518.314C1273.69 518.314 1274.54 521.403 1274.54 525.098V539.332C1274.54 542.057 1273.87 542.057 1269.94 542.057V543.814C1271.51 543.693 1274.78 543.693 1276.48 543.693C1278.23 543.693 1281.5 543.693 1283.08 543.814V542.057C1280.05 542.057 1278.54 542.057 1278.48 540.24V529.095Z" fill="black"/>
<path id="Vector_23" d="M1302.64 502.445V504.201C1306.76 504.201 1307.25 504.625 1307.25 507.593V520.979C1305.97 519.222 1303.37 517.103 1299.67 517.103C1292.65 517.103 1286.59 523.038 1286.59 530.791C1286.59 538.484 1292.35 544.42 1299.01 544.42C1303.61 544.42 1306.28 541.391 1307.12 540.24V544.42L1315.66 543.814V542.057C1311.55 542.057 1311.06 541.633 1311.06 538.665V501.778L1302.64 502.445ZM1307.12 536.727C1307.12 537.817 1307.12 537.999 1306.28 539.332C1304.82 541.452 1302.34 543.208 1299.31 543.208C1297.74 543.208 1291.19 542.602 1291.19 530.852C1291.19 526.491 1291.92 524.068 1293.25 522.069C1294.47 520.192 1296.89 518.314 1299.92 518.314C1303.67 518.314 1305.79 521.04 1306.4 522.009C1307.12 523.038 1307.12 523.16 1307.12 524.25V536.727Z" fill="black"/>
<path id="Vector_24" d="M1365.9 519.101C1363.96 519.465 1363.23 520.918 1363.23 522.069C1363.23 523.523 1364.39 524.008 1365.23 524.008C1367.05 524.008 1368.32 522.433 1368.32 520.797C1368.32 518.253 1365.41 517.103 1362.87 517.103C1359.18 517.103 1357.12 520.737 1356.57 521.888C1355.18 517.345 1351.42 517.103 1350.33 517.103C1344.15 517.103 1340.88 525.037 1340.88 526.37C1340.88 526.612 1341.13 526.915 1341.55 526.915C1342.03 526.915 1342.16 526.551 1342.28 526.309C1344.34 519.586 1348.39 518.314 1350.15 518.314C1352.88 518.314 1353.42 520.858 1353.42 522.312C1353.42 523.644 1353.06 525.037 1352.33 527.945L1350.27 536.243C1349.36 539.877 1347.61 543.208 1344.4 543.208C1344.09 543.208 1342.58 543.208 1341.31 542.421C1343.49 541.997 1343.97 540.18 1343.97 539.453C1343.97 538.241 1343.06 537.515 1341.91 537.515C1340.46 537.515 1338.89 538.787 1338.89 540.725C1338.89 543.269 1341.73 544.42 1344.34 544.42C1347.24 544.42 1349.3 542.118 1350.58 539.635C1351.54 543.208 1354.57 544.42 1356.81 544.42C1362.99 544.42 1366.26 536.485 1366.26 535.152C1366.26 534.85 1366.02 534.607 1365.66 534.607C1365.11 534.607 1365.05 534.91 1364.87 535.395C1363.23 540.725 1359.72 543.208 1357 543.208C1354.88 543.208 1353.72 541.633 1353.72 539.15C1353.72 537.817 1353.97 536.848 1354.94 532.851L1357.06 524.613C1357.96 520.979 1360.02 518.314 1362.81 518.314C1362.93 518.314 1364.63 518.314 1365.9 519.101Z" fill="black"/>
<path id="Vector_25" d="M1386.82 550.598C1385.19 552.899 1382.82 554.959 1379.86 554.959C1379.13 554.959 1376.22 554.838 1375.31 552.051C1375.49 552.112 1375.8 552.112 1375.92 552.112C1377.74 552.112 1378.95 550.537 1378.95 549.144C1378.95 547.751 1377.8 547.266 1376.89 547.266C1375.92 547.266 1373.8 547.993 1373.8 550.961C1373.8 554.05 1376.4 556.17 1379.86 556.17C1385.91 556.17 1392.03 550.598 1393.73 543.874L1399.66 520.252C1399.72 519.949 1399.84 519.586 1399.84 519.222C1399.84 518.314 1399.12 517.708 1398.21 517.708C1397.66 517.708 1396.39 517.951 1395.91 519.768L1391.42 537.575C1391.12 538.665 1391.12 538.787 1390.64 539.453C1389.43 541.149 1387.43 543.208 1384.52 543.208C1381.13 543.208 1380.82 539.877 1380.82 538.241C1380.82 534.789 1382.46 530.125 1384.1 525.764C1384.76 524.008 1385.13 523.16 1385.13 521.948C1385.13 519.404 1383.31 517.103 1380.34 517.103C1374.77 517.103 1372.53 525.885 1372.53 526.37C1372.53 526.612 1372.77 526.915 1373.19 526.915C1373.74 526.915 1373.8 526.673 1374.04 525.825C1375.49 520.737 1377.8 518.314 1380.16 518.314C1380.7 518.314 1381.73 518.314 1381.73 520.313C1381.73 521.888 1381.07 523.644 1380.16 525.946C1377.19 533.88 1377.19 535.879 1377.19 537.333C1377.19 543.087 1381.31 544.42 1384.34 544.42C1386.09 544.42 1388.28 543.874 1390.39 541.633L1390.46 541.694C1389.55 545.268 1388.94 547.63 1386.82 550.598Z" fill="black"/>
<path id="Vector_26" d="M1459.63 524.189C1460.48 523.825 1460.84 523.401 1460.84 522.856C1460.84 522.251 1460.6 521.887 1459.63 521.463L1426.26 505.715C1425.41 505.291 1425.17 505.291 1425.04 505.291C1424.32 505.291 1423.83 505.836 1423.83 506.502C1423.83 507.229 1424.32 507.532 1424.98 507.835L1456.78 522.796L1425.11 537.757C1423.89 538.302 1423.83 538.786 1423.83 539.15C1423.83 539.816 1424.38 540.361 1425.04 540.361C1425.23 540.361 1425.35 540.361 1426.14 539.937L1459.63 524.189ZM1458.72 552.112C1459.75 552.112 1460.84 552.112 1460.84 550.9C1460.84 549.689 1459.57 549.689 1458.66 549.689H1426.01C1425.11 549.689 1423.83 549.689 1423.83 550.9C1423.83 552.112 1424.92 552.112 1425.95 552.112H1458.72Z" fill="black"/>
<path id="Vector_27" d="M1509.88 524.431C1509.88 519.404 1509.57 514.497 1507.39 509.894C1504.91 504.867 1500.55 503.534 1497.58 503.534C1494.07 503.534 1489.77 505.291 1487.53 510.318C1485.83 514.134 1485.23 517.889 1485.23 524.431C1485.23 530.306 1485.65 534.728 1487.83 539.028C1490.19 543.631 1494.37 545.085 1497.52 545.085C1502.79 545.085 1505.82 541.936 1507.58 538.422C1509.76 533.88 1509.88 527.944 1509.88 524.431ZM1497.52 543.874C1495.58 543.874 1491.65 542.784 1490.49 536.181C1489.83 532.547 1489.83 527.944 1489.83 523.704C1489.83 518.737 1489.83 514.255 1490.8 510.681C1491.83 506.623 1494.92 504.746 1497.52 504.746C1499.82 504.746 1503.34 506.139 1504.49 511.348C1505.27 514.8 1505.27 519.585 1505.27 523.704C1505.27 527.762 1505.27 532.365 1504.61 536.06C1503.46 542.723 1499.64 543.874 1497.52 543.874Z" fill="black"/>
<path id="Vector_28" d="M1532.14 538.362C1532.14 536.363 1532.14 532.608 1539.89 529.519C1540.68 529.216 1540.8 529.216 1540.8 528.61C1540.8 528.489 1540.8 528.065 1540.38 527.944C1532.14 524.734 1532.14 521.463 1532.14 518.01V501.293C1532.02 498.022 1529.35 496.145 1528.39 495.478C1525.78 493.722 1520.69 492.329 1520.03 492.329C1519.42 492.329 1519.24 492.631 1519.24 493.116C1519.24 493.661 1519.54 493.782 1519.97 493.903C1527.96 496.932 1527.96 499.96 1527.96 503.352V518.192C1527.96 521.523 1527.96 525.642 1537.77 528.61C1527.96 531.881 1527.96 535.394 1527.96 539.149V553.989C1527.96 557.138 1527.96 560.349 1520.21 563.256C1519.48 563.559 1519.24 563.619 1519.24 564.165C1519.24 564.649 1519.42 564.952 1520.03 564.952C1520.09 564.952 1528.08 563.438 1530.93 559.44C1532.14 557.684 1532.14 556.351 1532.14 554.049V538.362Z" fill="black"/>
</g>
</g>
<path id="Semialgebraic_sets" d="M822.592 665.992H821.472C820.672 663.392 820.032 662.192 818.672 660.792C817.232 659.312 815.552 658.552 813.752 658.552C810.992 658.552 809.352 660.232 809.352 662.512C809.352 664.472 810.272 665.392 813.472 667.072C815.432 668.112 817.352 669.032 819.392 670.152C821.952 671.552 823.752 674.152 823.752 677.192C823.752 682.232 819.752 685.712 813.832 685.712C812.072 685.712 810.592 685.432 808.632 684.752C807.752 684.472 807.312 684.352 806.992 684.352C806.352 684.352 806.032 684.672 805.792 685.712H804.632V675.792H805.792C806.472 678.632 807.032 680.032 808.192 681.512C809.712 683.432 811.632 684.392 813.952 684.392C817.032 684.392 818.992 682.632 818.992 679.872C818.992 678.432 818.072 677.312 816.712 676.352C815.352 675.392 813.552 674.592 811.832 673.752C807.312 671.592 804.992 669.392 804.992 665.352C804.992 660.272 808.312 657.312 813.752 657.312C815.312 657.312 816.592 657.552 818.432 658.232C819.272 658.512 819.752 658.632 820.112 658.632C820.832 658.632 821.112 658.352 821.392 657.272H822.592V665.992ZM841.578 679.912L842.538 680.472C840.138 684.272 838.018 685.512 834.618 685.512C829.778 685.512 826.458 681.472 826.458 675.992C826.458 670.032 829.818 666.032 834.818 666.032C837.138 666.032 838.778 666.752 839.938 668.032C841.418 669.672 842.138 672.192 842.298 675.152H832.218C832.458 678.952 833.058 682.632 836.978 682.632C838.698 682.632 839.938 681.872 841.578 679.912ZM837.378 673.672V672.832C837.378 670.752 837.378 669.912 837.018 669.152C836.458 667.952 835.978 667.272 834.818 667.272C832.978 667.272 832.018 668.872 832.018 673.672H837.378ZM875.792 684.952H866.312V683.992C867.832 683.872 868.232 683.312 868.232 681.632V672.512C868.232 670.032 867.632 668.712 866.112 668.712C865.392 668.712 864.632 668.992 863.792 669.712C863.272 670.112 862.712 670.832 862.712 671.032V681.632C862.712 683.152 863.152 683.832 864.552 683.992V684.952H855.272V683.992C856.752 683.872 857.152 683.272 857.152 681.632V672.032C857.152 669.632 856.552 668.712 854.992 668.712C854.072 668.712 851.632 670.232 851.632 671.192V681.632C851.632 683.152 852.032 683.792 853.432 683.992V684.952H843.872V683.992C845.632 683.672 846.072 683.152 846.072 681.512V670.032C846.072 668.152 845.592 667.712 843.832 667.472V666.512H851.512V669.512H851.632C853.152 667.072 854.832 666.032 857.392 666.032C859.912 666.032 861.312 666.992 862.512 669.512C864.592 666.952 866.112 666.032 868.392 666.032C871.672 666.032 873.792 668.152 873.792 671.712V681.632C873.792 683.352 874.232 683.912 875.792 683.992V684.952ZM885.152 660.432C885.152 662.192 883.792 663.512 882.032 663.512C880.272 663.512 878.952 662.192 878.952 660.432C878.952 658.672 880.312 657.312 882.112 657.312C883.792 657.312 885.152 658.712 885.152 660.432ZM886.792 684.952H877.192V683.992C879.032 683.552 879.312 683.272 879.312 681.432V670.032C879.312 668.232 878.912 667.832 877.152 667.472V666.512H884.872V681.552C884.872 683.272 885.392 683.792 886.792 683.992V684.952ZM906.605 682.392L907.205 683.232C905.685 684.872 904.445 685.512 902.725 685.512C900.765 685.512 899.885 684.792 899.445 682.752C897.245 684.752 895.405 685.512 893.085 685.512C890.525 685.512 888.685 684.232 888.685 681.272C888.685 679.512 889.565 677.992 891.365 676.792C892.885 675.792 894.765 675.072 899.405 673.752V671.032C899.405 668.472 898.525 667.312 896.165 667.312C894.725 667.312 893.565 667.832 893.565 668.792C893.565 669.032 893.645 669.312 894.005 669.712C894.525 670.352 894.765 670.832 894.765 671.392C894.765 672.752 893.645 673.792 892.045 673.792C890.405 673.792 889.445 672.752 889.445 671.072C889.445 667.872 892.565 666.032 897.085 666.032C901.965 666.032 904.925 667.952 904.925 671.392V681.832C904.925 682.512 905.205 682.952 905.765 682.952C905.965 682.952 906.085 682.912 906.205 682.792L906.605 682.392ZM899.405 681.072V675.152C896.205 676.032 894.525 677.672 894.525 679.992C894.525 681.752 895.405 682.672 896.605 682.672C897.565 682.672 898.525 682.312 899.405 681.072ZM917.925 684.952H908.325V683.992C909.685 683.872 910.365 683.232 910.365 681.472V661.472C910.365 659.992 909.685 658.992 908.285 658.872V657.912H915.925V681.472C915.925 683.312 916.605 683.952 917.925 683.992V684.952ZM928.978 682.232H931.058C935.378 682.232 938.138 684.072 938.138 687.032C938.138 690.792 934.378 693.192 927.698 693.192C922.658 693.192 919.938 691.912 919.938 689.512C919.938 687.872 921.258 686.872 923.778 686.512C921.218 685.592 920.498 684.712 920.498 683.232C920.498 680.872 922.058 679.472 925.258 678.552C922.418 677.752 920.298 675.512 920.298 672.472C920.298 668.512 923.658 666.032 928.418 666.032C930.018 666.032 931.138 666.272 932.898 666.912H938.058V669.032H934.858C935.978 670.032 936.458 671.352 936.458 672.952C936.458 675.472 935.218 677.232 932.778 678.232C931.458 678.792 931.338 678.792 927.698 678.792C926.138 678.792 924.938 679.552 924.938 680.752C924.938 681.832 925.778 682.232 928.978 682.232ZM931.058 672.472C931.058 668.752 930.298 667.272 928.378 667.272C926.498 667.272 925.778 668.592 925.778 672.512C925.778 676.232 926.498 677.672 928.418 677.672C930.338 677.672 931.058 676.232 931.058 672.472ZM931.418 687.032H924.858C923.738 687.952 923.458 688.392 923.458 689.232C923.458 690.992 925.298 691.912 928.818 691.912C932.778 691.912 934.978 690.792 934.978 689.272C934.978 687.912 934.018 687.032 931.418 687.032ZM954.274 679.912L955.234 680.472C952.834 684.272 950.714 685.512 947.314 685.512C942.474 685.512 939.154 681.472 939.154 675.992C939.154 670.032 942.514 666.032 947.514 666.032C949.834 666.032 951.474 666.752 952.634 668.032C954.114 669.672 954.834 672.192 954.994 675.152H944.914C945.154 678.952 945.754 682.632 949.674 682.632C951.394 682.632 952.634 681.872 954.274 679.912ZM950.074 673.672V672.832C950.074 670.752 950.074 669.912 949.714 669.152C949.154 667.952 948.674 667.272 947.514 667.272C945.674 667.272 944.714 668.872 944.714 673.672H950.074ZM964.367 657.912V668.272C965.887 666.672 967.287 666.032 969.247 666.032C973.687 666.032 976.767 669.832 976.767 675.392C976.767 681.392 973.087 685.512 967.727 685.512C965.727 685.512 964.287 684.912 962.447 683.232L959.287 685.472H958.807V661.192C958.807 659.592 958.447 659.232 956.607 658.872V657.912H964.367ZM964.367 670.552V681.072C964.367 682.992 965.447 684.232 967.127 684.232C969.687 684.232 970.887 681.672 970.887 676.112C970.887 670.832 969.647 668.192 967.167 668.192C965.847 668.192 965.087 668.832 964.367 670.552ZM986.874 666.512V669.792C988.754 667.072 990.274 666.032 992.274 666.032C994.154 666.032 995.514 667.352 995.514 669.192C995.514 670.792 994.474 671.912 992.994 671.912C991.954 671.912 991.274 671.512 990.594 670.392C990.154 669.672 989.794 669.472 989.474 669.472C988.074 669.472 987.034 671.272 987.034 673.632V680.712C987.034 683.272 987.474 683.832 989.914 683.992V684.952H979.314V683.992C981.074 683.672 981.474 683.232 981.474 681.592V670.032C981.474 668.152 980.994 667.712 979.274 667.472V666.512H986.874ZM1014.69 682.392L1015.29 683.232C1013.77 684.872 1012.53 685.512 1010.81 685.512C1008.85 685.512 1007.97 684.792 1007.53 682.752C1005.33 684.752 1003.49 685.512 1001.17 685.512C998.611 685.512 996.771 684.232 996.771 681.272C996.771 679.512 997.651 677.992 999.451 676.792C1000.97 675.792 1002.85 675.072 1007.49 673.752V671.032C1007.49 668.472 1006.61 667.312 1004.25 667.312C1002.81 667.312 1001.65 667.832 1001.65 668.792C1001.65 669.032 1001.73 669.312 1002.09 669.712C1002.61 670.352 1002.85 670.832 1002.85 671.392C1002.85 672.752 1001.73 673.792 1000.13 673.792C998.491 673.792 997.531 672.752 997.531 671.072C997.531 667.872 1000.65 666.032 1005.17 666.032C1010.05 666.032 1013.01 667.952 1013.01 671.392V681.832C1013.01 682.512 1013.29 682.952 1013.85 682.952C1014.05 682.952 1014.17 682.912 1014.29 682.792L1014.69 682.392ZM1007.49 681.072V675.152C1004.29 676.032 1002.61 677.672 1002.61 679.992C1002.61 681.752 1003.49 682.672 1004.69 682.672C1005.65 682.672 1006.61 682.312 1007.49 681.072ZM1024.37 660.432C1024.37 662.192 1023.01 663.512 1021.25 663.512C1019.49 663.512 1018.17 662.192 1018.17 660.432C1018.17 658.672 1019.53 657.312 1021.33 657.312C1023.01 657.312 1024.37 658.712 1024.37 660.432ZM1026.01 684.952H1016.41V683.992C1018.25 683.552 1018.53 683.272 1018.53 681.432V670.032C1018.53 668.232 1018.13 667.832 1016.37 667.472V666.512H1024.09V681.552C1024.09 683.272 1024.61 683.792 1026.01 683.992V684.952ZM1043.38 680.592L1044.1 681.312C1041.9 684.312 1039.66 685.512 1036.46 685.512C1031.46 685.512 1027.9 681.792 1027.9 676.072C1027.9 670.112 1032.06 666.032 1037.38 666.032C1040.86 666.032 1043.54 667.872 1043.54 670.432C1043.54 671.992 1042.5 672.992 1040.82 672.992C1039.46 672.992 1038.58 671.992 1038.58 670.072C1038.58 668.192 1038.58 667.272 1036.9 667.272C1034.94 667.272 1033.54 669.672 1033.54 674.032C1033.54 679.472 1035.62 682.832 1039.1 682.832C1040.74 682.832 1041.9 682.272 1043.38 680.592ZM1068.28 671.912H1067.28C1066.68 670.192 1066.24 669.432 1065.4 668.632C1064.52 667.792 1063.48 667.352 1062.4 667.352C1060.88 667.352 1059.76 668.352 1059.76 669.672C1059.76 671.032 1060.88 672.072 1063.6 673.192C1067.6 674.872 1069.12 676.592 1069.12 679.432C1069.12 683.032 1066.6 685.512 1062.96 685.512C1061.84 685.512 1059.8 685.072 1058.64 684.592C1058.24 684.432 1057.92 684.352 1057.72 684.352C1057.36 684.352 1057.12 684.632 1056.68 685.472H1055.68V678.872H1056.8C1057.64 682.352 1059.48 684.152 1062.28 684.152C1064.08 684.152 1065.28 683.112 1065.28 681.552C1065.28 680.272 1064.2 679.272 1061.44 678.072C1057.4 676.352 1055.76 674.512 1055.76 671.872C1055.76 668.512 1058.4 666.032 1062.04 666.032C1062.96 666.032 1063.88 666.192 1065.16 666.632C1065.8 666.832 1066.16 666.912 1066.4 666.912C1066.92 666.912 1067.16 666.712 1067.4 666.112H1068.28V671.912ZM1086.34 679.912L1087.3 680.472C1084.9 684.272 1082.78 685.512 1079.38 685.512C1074.54 685.512 1071.22 681.472 1071.22 675.992C1071.22 670.032 1074.58 666.032 1079.58 666.032C1081.9 666.032 1083.54 666.752 1084.7 668.032C1086.18 669.672 1086.9 672.192 1087.06 675.152H1076.98C1077.22 678.952 1077.82 682.632 1081.74 682.632C1083.46 682.632 1084.7 681.872 1086.34 679.912ZM1082.14 673.672V672.832C1082.14 670.752 1082.14 669.912 1081.78 669.152C1081.22 667.952 1080.74 667.272 1079.58 667.272C1077.74 667.272 1076.78 668.872 1076.78 673.672H1082.14ZM1099.93 680.472L1100.93 680.912C1099.29 684.192 1097.69 685.432 1095.01 685.432C1092.25 685.432 1090.53 683.832 1090.53 681.152V668.272H1088.41V667.192C1091.29 665.232 1092.77 663.112 1095.09 659.752H1096.09V666.512H1099.89V668.272H1096.09V680.192C1096.09 681.792 1096.53 682.592 1097.65 682.592C1098.49 682.592 1099.13 681.992 1099.93 680.472ZM1114.57 671.912H1113.57C1112.97 670.192 1112.53 669.432 1111.69 668.632C1110.81 667.792 1109.77 667.352 1108.69 667.352C1107.17 667.352 1106.05 668.352 1106.05 669.672C1106.05 671.032 1107.17 672.072 1109.89 673.192C1113.89 674.872 1115.41 676.592 1115.41 679.432C1115.41 683.032 1112.89 685.512 1109.25 685.512C1108.13 685.512 1106.09 685.072 1104.93 684.592C1104.53 684.432 1104.21 684.352 1104.01 684.352C1103.65 684.352 1103.41 684.632 1102.97 685.472H1101.97V678.872H1103.09C1103.93 682.352 1105.77 684.152 1108.57 684.152C1110.37 684.152 1111.57 683.112 1111.57 681.552C1111.57 680.272 1110.49 679.272 1107.73 678.072C1103.69 676.352 1102.05 674.512 1102.05 671.872C1102.05 668.512 1104.69 666.032 1108.33 666.032C1109.25 666.032 1110.17 666.192 1111.45 666.632C1112.09 666.832 1112.45 666.912 1112.69 666.912C1113.21 666.912 1113.45 666.712 1113.69 666.112H1114.57V671.912Z" fill="black"/>
</g>
<defs>
<clipPath id="clip0_69_1112">
<rect width="1161.57" height="73" fill="white" transform="translate(379.232 491.952)"/>
</clipPath>
</defs>
</svg>
