<svg width="1920" height="1080" viewBox="0 0 1920 1080" fill="none" xmlns="http://www.w3.org/2000/svg">
<g id="reviewers 2">
<rect width="1920" height="1080" fill="white"/>
<path id="In summer I asked both: Can you review a research grant proposal I am submitting, it has x many pages you have 3 weeks to complete it" d="M137.594 820.426C137.594 817.426 137.514 814.706 137.194 812.426L137.274 812.306C137.754 812.386 138.834 812.426 139.314 812.426C139.794 812.426 140.874 812.386 141.354 812.306L141.434 812.426C141.114 814.546 141.034 817.426 141.034 820.426V830.226C141.034 833.226 141.114 835.946 141.434 838.226L141.354 838.346C140.874 838.266 139.794 838.226 139.314 838.226C138.834 838.226 137.754 838.266 137.274 838.346L137.194 838.226C137.514 836.066 137.594 833.226 137.594 830.226V820.426ZM163.591 831.026C163.591 834.066 163.631 835.946 163.951 838.226L163.871 838.346C163.391 838.266 162.471 838.226 161.991 838.226C161.511 838.226 160.591 838.266 160.111 838.346L160.031 838.226C160.311 836.106 160.391 834.026 160.391 831.026V827.106C160.391 823.866 159.551 823.066 157.511 823.066C156.071 823.066 153.751 823.946 151.711 826.346V831.026C151.711 834.066 151.751 835.946 152.071 838.226L151.991 838.346C151.511 838.266 150.591 838.226 150.111 838.226C149.631 838.226 148.711 838.266 148.231 838.346L148.151 838.226C148.471 836.066 148.511 834.026 148.511 831.026V828.826C148.511 825.826 148.431 822.826 148.151 821.066L148.231 820.946C149.111 821.066 150.551 821.026 151.471 820.826C151.631 820.826 151.671 820.946 151.711 821.226V824.146L151.791 824.266C154.351 821.266 157.191 820.666 158.711 820.666C162.311 820.666 163.671 822.826 163.671 826.986C163.671 828.266 163.591 829.746 163.591 831.026ZM178.754 834.186L179.354 834.146C180.474 835.706 182.154 837.026 184.074 837.026C186.194 837.026 187.754 835.826 187.754 833.706C187.754 831.746 186.034 831.106 183.714 830.466C181.274 829.826 178.914 828.746 178.914 825.546C178.914 822.226 181.994 820.666 184.954 820.666C186.994 820.666 189.194 821.266 190.354 821.866L190.434 821.986L189.634 824.946L189.074 824.986C188.154 823.906 186.874 822.266 184.794 822.266C183.074 822.266 181.754 823.146 181.754 824.786C181.754 826.786 183.954 827.546 185.474 827.906C188.314 828.586 190.914 829.866 190.914 833.146C190.914 835.346 189.634 838.626 184.114 838.626C182.594 838.626 180.354 838.346 178.074 837.546L178.754 834.186ZM207.213 834.546C205.893 836.586 203.653 838.626 201.173 838.626C197.213 838.626 195.933 835.826 195.933 833.066V828.266C195.933 825.226 195.893 823.346 195.573 821.066L195.653 820.946C196.133 821.026 197.053 821.066 197.533 821.066C198.013 821.066 198.933 821.026 199.413 820.946L199.493 821.066C199.173 823.186 199.133 825.266 199.133 828.266V832.226C199.133 835.946 200.413 836.386 201.813 836.386C203.773 836.386 206.053 834.266 207.293 832.186V828.266C207.293 825.226 207.213 823.386 206.933 821.066L207.013 820.946C207.493 821.026 208.413 821.066 208.893 821.066C209.373 821.066 210.293 821.026 210.773 820.946L210.853 821.066C210.533 823.186 210.493 825.266 210.493 828.266V830.546C210.493 833.546 210.853 836.506 211.173 838.226L211.093 838.346C210.573 838.266 209.813 838.226 209.293 838.226C208.733 838.226 208.253 838.306 207.733 838.346C207.613 838.346 207.573 838.306 207.573 838.226L207.373 834.666L207.213 834.546ZM220.578 824.146L220.698 824.266C222.578 822.266 224.938 820.666 227.418 820.666C229.658 820.666 231.298 821.906 231.658 823.826C233.938 821.426 236.258 820.666 238.418 820.666C242.738 820.666 243.378 823.466 243.378 827.026V831.026C243.378 834.066 243.418 835.946 243.738 838.226L243.658 838.346C243.178 838.266 242.258 838.226 241.778 838.226C241.298 838.226 240.378 838.266 239.898 838.346L239.818 838.226C240.138 836.066 240.178 834.026 240.178 831.026V826.626C240.178 823.946 239.138 823.066 236.978 823.066C235.418 823.066 233.818 823.346 231.898 825.466C231.938 825.946 231.938 826.426 231.938 826.986V831.026C231.938 834.066 231.978 835.946 232.298 838.226L232.218 838.346C231.738 838.266 230.818 838.226 230.338 838.226C229.858 838.226 228.938 838.266 228.458 838.346L228.378 838.226C228.698 836.066 228.738 834.026 228.738 831.026V826.626C228.738 823.946 227.618 823.066 226.098 823.066C224.698 823.066 222.458 824.266 220.578 826.186V831.026C220.578 834.066 220.618 835.946 220.938 838.226L220.858 838.346C220.378 838.266 219.458 838.226 218.978 838.226C218.498 838.226 217.578 838.266 217.098 838.346L217.018 838.226C217.338 836.066 217.378 834.026 217.378 831.026V828.826C217.378 825.826 217.298 822.826 217.018 821.066L217.098 820.946C217.978 821.066 219.418 821.026 220.338 820.826C220.498 820.826 220.578 820.946 220.578 821.226V824.146ZM252.843 824.146L252.963 824.266C254.843 822.266 257.203 820.666 259.683 820.666C261.923 820.666 263.563 821.906 263.923 823.826C266.203 821.426 268.523 820.666 270.683 820.666C275.003 820.666 275.643 823.466 275.643 827.026V831.026C275.643 834.066 275.683 835.946 276.003 838.226L275.923 838.346C275.443 838.266 274.523 838.226 274.043 838.226C273.563 838.226 272.643 838.266 272.163 838.346L272.083 838.226C272.403 836.066 272.443 834.026 272.443 831.026V826.626C272.443 823.946 271.403 823.066 269.243 823.066C267.683 823.066 266.083 823.346 264.163 825.466C264.203 825.946 264.203 826.426 264.203 826.986V831.026C264.203 834.066 264.243 835.946 264.563 838.226L264.483 838.346C264.003 838.266 263.083 838.226 262.603 838.226C262.123 838.226 261.203 838.266 260.723 838.346L260.643 838.226C260.963 836.066 261.003 834.026 261.003 831.026V826.626C261.003 823.946 259.883 823.066 258.363 823.066C256.963 823.066 254.723 824.266 252.843 826.186V831.026C252.843 834.066 252.883 835.946 253.203 838.226L253.123 838.346C252.643 838.266 251.723 838.226 251.243 838.226C250.763 838.226 249.843 838.266 249.363 838.346L249.283 838.226C249.603 836.066 249.643 834.026 249.643 831.026V828.826C249.643 825.826 249.563 822.826 249.283 821.066L249.363 820.946C250.243 821.066 251.683 821.026 252.603 820.826C252.763 820.826 252.843 820.946 252.843 821.226V824.146ZM283.629 827.306H290.989C291.389 827.306 291.549 827.106 291.549 826.746C291.549 823.746 289.749 822.266 288.189 822.266C286.909 822.266 284.309 823.146 283.629 827.306ZM294.309 834.066L295.109 835.066C293.589 837.146 291.029 838.626 288.149 838.626C285.429 838.626 283.149 837.666 281.789 835.986C280.429 834.386 279.989 832.146 279.989 829.866C279.989 823.986 284.069 820.666 288.189 820.666C293.469 820.666 295.109 824.866 295.109 828.226C295.109 828.666 294.829 828.906 294.389 828.906H283.509C283.509 831.266 283.749 832.866 284.469 833.986C285.549 835.746 287.429 836.266 288.829 836.266C291.029 836.266 292.909 835.586 294.309 834.066ZM303.434 824.866L303.554 824.946C305.314 821.906 306.474 820.666 308.634 820.666C309.354 820.666 309.394 820.746 310.074 820.946L310.234 821.106L309.434 824.066L309.114 824.146C308.594 823.666 307.834 823.586 307.034 823.586C306.274 823.586 305.354 824.106 304.794 824.986C303.914 826.306 303.434 827.266 303.434 828.946V831.026C303.434 834.066 303.474 835.946 303.794 838.226L303.714 838.346C303.234 838.266 302.314 838.226 301.834 838.226C301.354 838.226 300.434 838.266 299.954 838.346L299.874 838.226C300.154 836.106 300.234 834.026 300.234 831.026V828.826C300.234 825.826 300.154 822.826 299.874 821.066L299.954 820.946C300.834 821.066 302.274 821.026 303.194 820.826C303.354 820.826 303.434 820.946 303.434 821.226V824.866ZM325.133 820.426C325.133 817.426 325.053 814.706 324.733 812.426L324.813 812.306C325.293 812.386 326.373 812.426 326.853 812.426C327.333 812.426 328.413 812.386 328.893 812.306L328.973 812.426C328.653 814.546 328.573 817.426 328.573 820.426V830.226C328.573 833.226 328.653 835.946 328.973 838.226L328.893 838.346C328.413 838.266 327.333 838.226 326.853 838.226C326.373 838.226 325.293 838.266 324.813 838.346L324.733 838.226C325.053 836.066 325.133 833.226 325.133 830.226V820.426ZM355.13 829.226L351.73 830.146C348.61 830.986 347.77 832.346 347.77 834.146C347.77 835.386 348.93 836.586 350.73 836.586C351.93 836.586 353.29 835.866 354.41 835.026C354.73 834.786 354.97 834.506 354.97 833.986L355.13 829.226ZM355.13 836.306H354.97C352.85 838.106 351.73 838.626 349.53 838.626C346.57 838.626 344.53 837.266 344.53 834.306C344.53 831.586 347.09 829.426 351.17 828.506L354.89 827.666C355.01 827.626 355.17 827.466 355.17 827.186C355.17 822.666 352.77 822.466 351.33 822.466C349.41 822.466 348.05 824.066 346.93 825.866L346.41 825.826L345.73 823.146L345.85 822.986C346.85 822.146 348.69 820.666 351.73 820.666C354.77 820.666 358.33 821.746 358.33 827.146C358.33 827.586 358.21 832.026 358.21 833.186C358.21 834.986 358.45 835.946 358.85 836.306C359.13 836.546 359.65 836.626 360.05 836.626C360.33 836.626 360.69 836.586 361.13 836.426L361.41 837.386C360.49 838.386 359.25 838.626 358.25 838.626C356.77 838.626 355.57 837.906 355.13 836.306ZM363.988 834.186L364.588 834.146C365.708 835.706 367.388 837.026 369.308 837.026C371.428 837.026 372.988 835.826 372.988 833.706C372.988 831.746 371.268 831.106 368.948 830.466C366.508 829.826 364.148 828.746 364.148 825.546C364.148 822.226 367.228 820.666 370.188 820.666C372.228 820.666 374.428 821.266 375.588 821.866L375.668 821.986L374.868 824.946L374.308 824.986C373.388 823.906 372.108 822.266 370.028 822.266C368.308 822.266 366.988 823.146 366.988 824.786C366.988 826.786 369.188 827.546 370.708 827.906C373.548 828.586 376.148 829.866 376.148 833.146C376.148 835.346 374.868 838.626 369.348 838.626C367.828 838.626 365.588 838.346 363.308 837.546L363.988 834.186ZM381.448 830.226V818.946C381.448 815.906 381.368 812.946 381.088 811.226L381.168 811.106C382.768 810.986 383.608 810.706 384.648 810.306C384.888 810.306 385.008 810.426 385.008 810.706C384.808 813.266 384.648 815.226 384.648 818.226V828.626C385.168 828.586 385.888 828.426 386.408 828.026C387.968 826.826 390.968 823.586 392.728 821.066C393.808 821.066 396.008 821.066 396.768 820.946L396.848 821.066C394.248 823.306 390.328 827.106 388.768 828.706C392.568 833.346 394.688 835.106 397.688 838.226L397.608 838.346C397.248 838.306 395.848 838.226 395.208 838.226C394.528 838.226 393.168 838.306 392.568 838.346C389.848 834.426 388.888 832.986 386.288 830.266C385.928 829.986 384.968 829.866 384.648 829.826V830.226C384.648 833.266 384.688 835.946 385.008 838.226L384.928 838.346C384.448 838.266 383.528 838.226 383.048 838.226C382.568 838.226 381.648 838.266 381.168 838.346L381.088 838.226C381.368 836.106 381.448 833.226 381.448 830.226ZM402.965 827.306H410.325C410.725 827.306 410.885 827.106 410.885 826.746C410.885 823.746 409.085 822.266 407.525 822.266C406.245 822.266 403.645 823.146 402.965 827.306ZM413.645 834.066L414.445 835.066C412.925 837.146 410.365 838.626 407.485 838.626C404.765 838.626 402.485 837.666 401.125 835.986C399.765 834.386 399.325 832.146 399.325 829.866C399.325 823.986 403.405 820.666 407.525 820.666C412.805 820.666 414.445 824.866 414.445 828.226C414.445 828.666 414.165 828.906 413.725 828.906H402.845C402.845 831.266 403.085 832.866 403.805 833.986C404.885 835.746 406.765 836.266 408.165 836.266C410.365 836.266 412.245 835.586 413.645 834.066ZM430.803 833.706V824.586C429.843 823.066 428.883 822.266 427.003 822.266C425.043 822.266 421.883 823.386 421.883 829.386C421.883 834.386 423.723 836.546 425.883 836.546C427.483 836.546 429.323 835.586 430.803 833.706ZM430.803 835.906C429.363 837.786 427.563 838.626 425.643 838.626C421.323 838.626 418.403 834.626 418.403 829.706C418.403 824.266 422.203 820.666 427.443 820.666C428.243 820.666 429.883 821.026 430.803 821.546V818.946C430.803 815.906 430.723 812.946 430.443 811.226L430.523 811.106C432.123 810.986 432.963 810.706 434.003 810.306C434.243 810.306 434.363 810.426 434.363 810.706C434.163 813.186 434.003 815.266 434.003 818.226V830.546C434.003 833.546 434.363 836.506 434.683 838.226L434.603 838.346C434.083 838.266 433.323 838.226 432.803 838.226C432.243 838.226 431.963 838.306 431.443 838.346C431.203 838.346 431.083 838.306 431.083 838.226L430.883 835.906H430.803ZM454.054 834.986C454.854 835.986 456.334 837.026 457.574 837.026C461.374 837.026 462.854 834.226 462.854 829.266C462.854 824.306 460.694 822.266 458.254 822.266C456.614 822.266 455.614 823.026 454.054 824.626V834.986ZM454.054 818.226V822.666C455.414 821.186 457.134 820.666 459.054 820.666C462.934 820.666 466.414 824.066 466.414 828.946C466.414 835.746 461.894 838.626 457.814 838.626C456.094 838.626 454.254 837.666 453.094 836.666C452.654 837.466 452.214 838.146 451.774 838.626C451.334 838.626 450.894 838.546 450.654 838.306C450.814 837.466 450.854 836.866 450.854 835.306V818.946C450.854 815.906 450.654 812.946 450.374 811.226L450.454 811.106C452.054 810.986 452.894 810.706 453.934 810.306C454.174 810.306 454.294 810.426 454.294 810.706C454.094 813.186 454.054 815.266 454.054 818.226ZM469.641 830.026C469.641 824.346 473.041 820.666 478.281 820.666C483.681 820.666 486.601 824.226 486.601 829.666C486.601 834.906 483.401 838.626 478.121 838.626C472.801 838.626 469.641 834.826 469.641 830.026ZM478.001 822.266C474.241 822.266 473.161 825.866 473.161 829.346C473.161 832.426 474.241 837.026 478.481 837.026C481.161 837.026 483.081 834.226 483.081 830.386C483.081 825.546 482.241 822.266 478.001 822.266ZM491.921 821.066C491.921 818.746 492.001 817.346 492.081 815.946L492.161 815.826C493.441 815.666 493.921 815.226 494.961 814.826C495.201 814.826 495.321 814.946 495.321 815.226C495.121 817.546 495.121 818.106 495.121 821.066H497.001C497.921 821.066 499.081 821.026 499.801 820.986L500.001 821.266C499.761 821.866 499.641 822.266 499.521 822.906C498.961 822.866 497.601 822.826 496.641 822.826H495.121V827.866C495.121 830.266 495.001 831.986 495.001 833.186C495.001 835.386 495.361 836.346 496.321 836.466C497.321 836.626 498.241 836.586 499.441 836.186L499.961 837.146C498.281 838.226 497.001 838.626 495.321 838.626C493.481 838.626 491.801 837.386 491.801 834.786C491.801 833.586 491.921 830.706 491.921 828.306V822.826C491.001 822.866 489.761 822.866 489.081 822.906L488.881 822.626C489.241 822.026 489.481 821.666 489.761 820.986C490.241 821.066 491.081 821.066 491.921 821.066ZM508.515 824.146L508.595 824.266C511.155 821.266 513.995 820.666 515.515 820.666C519.115 820.666 520.475 822.826 520.475 826.986C520.475 828.266 520.395 829.746 520.395 831.026C520.395 834.066 520.435 835.946 520.755 838.226L520.675 838.346C520.195 838.266 519.275 838.226 518.795 838.226C518.315 838.226 517.395 838.266 516.915 838.346L516.835 838.226C517.155 836.106 517.195 834.026 517.195 831.026V827.106C517.195 823.866 516.355 823.066 514.315 823.066C512.875 823.066 510.555 823.946 508.515 826.346V831.026C508.515 834.066 508.555 835.946 508.875 838.226L508.795 838.346C508.315 838.266 507.395 838.226 506.915 838.226C506.435 838.226 505.515 838.266 505.035 838.346L504.955 838.226C505.235 835.986 505.315 834.026 505.315 831.026V818.986C505.315 815.946 505.235 812.946 504.955 811.226L505.035 811.106C506.635 810.986 507.475 810.706 508.515 810.306C508.755 810.306 508.875 810.426 508.875 810.706C508.675 813.186 508.515 815.226 508.515 818.186V824.146ZM526.108 823.986V823.826C526.468 822.786 527.028 822.186 528.268 821.666H528.428C529.588 822.106 530.188 822.706 530.588 823.826V823.986C530.148 825.306 529.548 825.866 528.428 826.146H528.268C526.988 825.866 526.428 825.346 526.108 823.986ZM526.108 834.506V834.346C526.468 833.306 527.028 832.706 528.268 832.186H528.428C529.588 832.626 530.188 833.226 530.588 834.346V834.506C530.148 835.826 529.548 836.386 528.428 836.666H528.268C526.988 836.386 526.428 835.866 526.108 834.506ZM557.657 811.906C562.537 811.906 566.377 813.906 566.377 813.906L566.457 814.026C566.017 815.746 565.857 816.426 565.737 818.466L565.257 818.506C563.617 815.226 560.697 813.786 557.097 813.786C553.817 813.786 548.657 816.746 548.657 824.866C548.657 831.106 552.377 836.586 557.457 836.586C561.177 836.586 563.577 835.546 566.417 832.426L566.697 832.546C566.817 832.906 566.897 833.786 566.937 834.266C564.257 837.506 560.777 838.626 557.097 838.626C548.497 838.626 544.537 832.546 544.537 825.626C544.537 817.746 550.897 811.906 557.657 811.906ZM581.927 829.226L578.527 830.146C575.407 830.986 574.567 832.346 574.567 834.146C574.567 835.386 575.727 836.586 577.527 836.586C578.727 836.586 580.087 835.866 581.207 835.026C581.527 834.786 581.767 834.506 581.767 833.986L581.927 829.226ZM581.927 836.306H581.767C579.647 838.106 578.527 838.626 576.327 838.626C573.367 838.626 571.327 837.266 571.327 834.306C571.327 831.586 573.887 829.426 577.967 828.506L581.687 827.666C581.807 827.626 581.967 827.466 581.967 827.186C581.967 822.666 579.567 822.466 578.127 822.466C576.207 822.466 574.847 824.066 573.727 825.866L573.207 825.826L572.527 823.146L572.647 822.986C573.647 822.146 575.487 820.666 578.527 820.666C581.567 820.666 585.127 821.746 585.127 827.146C585.127 827.586 585.007 832.026 585.007 833.186C585.007 834.986 585.247 835.946 585.647 836.306C585.927 836.546 586.447 836.626 586.847 836.626C587.127 836.626 587.487 836.586 587.927 836.426L588.207 837.386C587.287 838.386 586.047 838.626 585.047 838.626C583.567 838.626 582.367 837.906 581.927 836.306ZM607.185 831.026C607.185 834.066 607.225 835.946 607.545 838.226L607.465 838.346C606.985 838.266 606.065 838.226 605.585 838.226C605.105 838.226 604.185 838.266 603.705 838.346L603.625 838.226C603.905 836.106 603.985 834.026 603.985 831.026V827.106C603.985 823.866 603.145 823.066 601.105 823.066C599.665 823.066 597.345 823.946 595.305 826.346V831.026C595.305 834.066 595.345 835.946 595.665 838.226L595.585 838.346C595.105 838.266 594.185 838.226 593.705 838.226C593.225 838.226 592.305 838.266 591.825 838.346L591.745 838.226C592.065 836.066 592.105 834.026 592.105 831.026V828.826C592.105 825.826 592.025 822.826 591.745 821.066L591.825 820.946C592.705 821.066 594.145 821.026 595.065 820.826C595.225 820.826 595.265 820.946 595.305 821.226V824.146L595.385 824.266C597.945 821.266 600.785 820.666 602.305 820.666C605.905 820.666 607.265 822.826 607.265 826.986C607.265 828.266 607.185 829.746 607.185 831.026ZM621.468 820.946C622.028 821.066 623.028 821.066 623.548 821.066C624.108 821.066 624.988 821.066 625.508 820.946C626.988 825.546 628.868 829.986 630.828 834.746H630.908C632.868 830.586 634.748 825.466 636.188 820.946C636.588 821.066 637.348 821.066 637.748 821.066C638.148 821.066 639.068 821.066 639.468 820.946C638.148 823.626 629.388 842.706 627.868 847.706C627.468 847.586 626.308 847.506 625.908 847.506C625.508 847.506 624.908 847.586 624.508 847.706C626.308 844.706 627.948 841.626 629.228 838.626C627.788 834.826 623.028 824.506 621.468 820.946ZM641.79 830.026C641.79 824.346 645.19 820.666 650.43 820.666C655.83 820.666 658.75 824.226 658.75 829.666C658.75 834.906 655.55 838.626 650.27 838.626C644.95 838.626 641.79 834.826 641.79 830.026ZM650.15 822.266C646.39 822.266 645.31 825.866 645.31 829.346C645.31 832.426 646.39 837.026 650.63 837.026C653.31 837.026 655.23 834.226 655.23 830.386C655.23 825.546 654.39 822.266 650.15 822.266ZM674.87 834.546C673.55 836.586 671.31 838.626 668.83 838.626C664.87 838.626 663.59 835.826 663.59 833.066V828.266C663.59 825.226 663.55 823.346 663.23 821.066L663.31 820.946C663.79 821.026 664.71 821.066 665.19 821.066C665.67 821.066 666.59 821.026 667.07 820.946L667.15 821.066C666.83 823.186 666.79 825.266 666.79 828.266V832.226C666.79 835.946 668.07 836.386 669.47 836.386C671.43 836.386 673.71 834.266 674.95 832.186V828.266C674.95 825.226 674.87 823.386 674.59 821.066L674.67 820.946C675.15 821.026 676.07 821.066 676.55 821.066C677.03 821.066 677.95 821.026 678.43 820.946L678.51 821.066C678.19 823.186 678.15 825.266 678.15 828.266V830.546C678.15 833.546 678.51 836.506 678.83 838.226L678.75 838.346C678.23 838.266 677.47 838.226 676.95 838.226C676.39 838.226 675.91 838.306 675.39 838.346C675.27 838.346 675.23 838.306 675.23 838.226L675.03 834.666L674.87 834.546ZM698.434 824.866L698.554 824.946C700.314 821.906 701.474 820.666 703.634 820.666C704.354 820.666 704.394 820.746 705.074 820.946L705.234 821.106L704.434 824.066L704.114 824.146C703.594 823.666 702.834 823.586 702.034 823.586C701.274 823.586 700.354 824.106 699.794 824.986C698.914 826.306 698.434 827.266 698.434 828.946V831.026C698.434 834.066 698.474 835.946 698.794 838.226L698.714 838.346C698.234 838.266 697.314 838.226 696.834 838.226C696.354 838.226 695.434 838.266 694.954 838.346L694.874 838.226C695.154 836.106 695.234 834.026 695.234 831.026V828.826C695.234 825.826 695.154 822.826 694.874 821.066L694.954 820.946C695.834 821.066 697.274 821.026 698.194 820.826C698.354 820.826 698.434 820.946 698.434 821.226V824.866ZM710.66 827.306H718.02C718.42 827.306 718.58 827.106 718.58 826.746C718.58 823.746 716.78 822.266 715.22 822.266C713.94 822.266 711.34 823.146 710.66 827.306ZM721.34 834.066L722.14 835.066C720.62 837.146 718.06 838.626 715.18 838.626C712.46 838.626 710.18 837.666 708.82 835.986C707.46 834.386 707.02 832.146 707.02 829.866C707.02 823.986 711.1 820.666 715.22 820.666C720.5 820.666 722.14 824.866 722.14 828.226C722.14 828.666 721.86 828.906 721.42 828.906H710.54C710.54 831.266 710.78 832.866 711.5 833.986C712.58 835.746 714.46 836.266 715.86 836.266C718.06 836.266 719.94 835.586 721.34 834.066ZM731.592 838.346C729.352 832.506 726.992 826.826 724.312 820.946C724.952 821.066 725.992 821.066 726.632 821.066C727.192 821.066 728.112 821.066 728.632 820.946C730.072 825.546 731.352 830.066 733.352 834.626H733.432C735.272 830.706 736.672 825.506 738.312 820.946C738.672 821.066 739.272 821.066 739.672 821.066C740.072 821.066 740.832 821.066 741.192 820.946C738.592 826.826 736.112 832.506 734.032 838.346C733.672 838.226 733.232 838.226 732.832 838.226C732.432 838.226 731.992 838.226 731.592 838.346ZM745.188 814.346C745.188 813.266 746.148 812.306 747.228 812.306C748.308 812.306 749.268 813.266 749.268 814.346C749.268 815.426 748.308 816.386 747.228 816.386C746.148 816.386 745.188 815.426 745.188 814.346ZM745.588 828.826C745.588 825.826 745.468 822.786 745.228 821.066L745.308 820.946C746.148 821.026 747.868 821.026 748.788 820.906C749.068 820.906 749.148 820.946 749.148 821.306C748.868 823.746 748.788 825.186 748.788 828.186V831.026C748.788 834.066 748.828 835.986 749.148 838.226L749.068 838.346C748.588 838.266 747.668 838.226 747.188 838.226C746.708 838.226 745.788 838.266 745.308 838.346L745.228 838.226C745.508 836.066 745.588 834.026 745.588 831.026V828.826ZM757.379 827.306H764.739C765.139 827.306 765.299 827.106 765.299 826.746C765.299 823.746 763.499 822.266 761.939 822.266C760.659 822.266 758.059 823.146 757.379 827.306ZM768.059 834.066L768.859 835.066C767.339 837.146 764.779 838.626 761.899 838.626C759.179 838.626 756.899 837.666 755.539 835.986C754.179 834.386 753.739 832.146 753.739 829.866C753.739 823.986 757.819 820.666 761.939 820.666C767.219 820.666 768.859 824.866 768.859 828.226C768.859 828.666 768.579 828.906 768.139 828.906H757.259C757.259 831.266 757.499 832.866 758.219 833.986C759.299 835.746 761.179 836.266 762.579 836.266C764.779 836.266 766.659 835.586 768.059 834.066ZM778.43 838.386C776.19 832.546 773.71 826.866 771.03 820.986C771.67 821.106 772.71 821.106 773.35 821.106C773.91 821.106 774.83 821.106 775.35 820.986C776.79 825.586 778.11 830.106 780.11 834.666H780.35C781.51 832.186 782.63 829.186 783.67 826.186C782.99 824.346 782.35 822.586 781.83 820.946C782.47 821.066 783.51 821.066 784.15 821.066C784.71 821.066 785.63 821.066 786.15 820.946C787.07 825.186 788.31 830.226 789.95 834.626H790.27C791.95 830.786 793.75 825.666 795.23 820.946C795.59 821.066 796.19 821.066 796.59 821.066C796.99 821.066 797.95 821.066 798.31 820.946C796.03 825.946 792.83 833.626 790.87 838.346C790.51 838.226 789.79 838.226 789.39 838.226C788.99 838.226 788.75 838.226 788.35 838.346C787.19 835.266 785.91 832.026 784.71 828.906C783.43 832.026 782.27 835.346 781.19 838.386C780.83 838.266 780.15 838.266 779.75 838.266C779.35 838.266 778.83 838.266 778.43 838.386ZM821.498 829.226L818.098 830.146C814.978 830.986 814.138 832.346 814.138 834.146C814.138 835.386 815.298 836.586 817.098 836.586C818.298 836.586 819.658 835.866 820.778 835.026C821.098 834.786 821.338 834.506 821.338 833.986L821.498 829.226ZM821.498 836.306H821.338C819.218 838.106 818.098 838.626 815.898 838.626C812.938 838.626 810.898 837.266 810.898 834.306C810.898 831.586 813.458 829.426 817.538 828.506L821.258 827.666C821.378 827.626 821.538 827.466 821.538 827.186C821.538 822.666 819.138 822.466 817.698 822.466C815.778 822.466 814.418 824.066 813.298 825.866L812.778 825.826L812.098 823.146L812.218 822.986C813.218 822.146 815.058 820.666 818.098 820.666C821.138 820.666 824.698 821.746 824.698 827.146C824.698 827.586 824.578 832.026 824.578 833.186C824.578 834.986 824.818 835.946 825.218 836.306C825.498 836.546 826.018 836.626 826.418 836.626C826.698 836.626 827.058 836.586 827.498 836.426L827.778 837.386C826.858 838.386 825.618 838.626 824.618 838.626C823.138 838.626 821.938 837.906 821.498 836.306ZM845.035 824.866L845.155 824.946C846.915 821.906 848.075 820.666 850.235 820.666C850.955 820.666 850.995 820.746 851.675 820.946L851.835 821.106L851.035 824.066L850.715 824.146C850.195 823.666 849.435 823.586 848.635 823.586C847.875 823.586 846.955 824.106 846.395 824.986C845.515 826.306 845.035 827.266 845.035 828.946V831.026C845.035 834.066 845.075 835.946 845.395 838.226L845.315 838.346C844.835 838.266 843.915 838.226 843.435 838.226C842.955 838.226 842.035 838.266 841.555 838.346L841.475 838.226C841.755 836.106 841.835 834.026 841.835 831.026V828.826C841.835 825.826 841.755 822.826 841.475 821.066L841.555 820.946C842.435 821.066 843.875 821.026 844.795 820.826C844.955 820.826 845.035 820.946 845.035 821.226V824.866ZM857.262 827.306H864.622C865.022 827.306 865.182 827.106 865.182 826.746C865.182 823.746 863.382 822.266 861.822 822.266C860.542 822.266 857.942 823.146 857.262 827.306ZM867.942 834.066L868.742 835.066C867.222 837.146 864.662 838.626 861.782 838.626C859.062 838.626 856.782 837.666 855.422 835.986C854.062 834.386 853.622 832.146 853.622 829.866C853.622 823.986 857.702 820.666 861.822 820.666C867.102 820.666 868.742 824.866 868.742 828.226C868.742 828.666 868.462 828.906 868.022 828.906H857.142C857.142 831.266 857.382 832.866 858.102 833.986C859.182 835.746 861.062 836.266 862.462 836.266C864.662 836.266 866.542 835.586 867.942 834.066ZM872.387 834.186L872.987 834.146C874.107 835.706 875.787 837.026 877.707 837.026C879.827 837.026 881.387 835.826 881.387 833.706C881.387 831.746 879.667 831.106 877.347 830.466C874.907 829.826 872.547 828.746 872.547 825.546C872.547 822.226 875.627 820.666 878.587 820.666C880.627 820.666 882.827 821.266 883.987 821.866L884.067 821.986L883.267 824.946L882.707 824.986C881.787 823.906 880.507 822.266 878.427 822.266C876.707 822.266 875.387 823.146 875.387 824.786C875.387 826.786 877.587 827.546 879.107 827.906C881.947 828.586 884.547 829.866 884.547 833.146C884.547 835.346 883.267 838.626 877.747 838.626C876.227 838.626 873.987 838.346 871.707 837.546L872.387 834.186ZM891.246 827.306H898.606C899.006 827.306 899.166 827.106 899.166 826.746C899.166 823.746 897.366 822.266 895.806 822.266C894.526 822.266 891.926 823.146 891.246 827.306ZM901.926 834.066L902.726 835.066C901.206 837.146 898.646 838.626 895.766 838.626C893.046 838.626 890.766 837.666 889.406 835.986C888.046 834.386 887.606 832.146 887.606 829.866C887.606 823.986 891.686 820.666 895.806 820.666C901.086 820.666 902.726 824.866 902.726 828.226C902.726 828.666 902.446 828.906 902.006 828.906H891.126C891.126 831.266 891.366 832.866 892.086 833.986C893.166 835.746 895.046 836.266 896.446 836.266C898.646 836.266 900.526 835.586 901.926 834.066ZM916.771 829.226L913.371 830.146C910.251 830.986 909.411 832.346 909.411 834.146C909.411 835.386 910.571 836.586 912.371 836.586C913.571 836.586 914.931 835.866 916.051 835.026C916.371 834.786 916.611 834.506 916.611 833.986L916.771 829.226ZM916.771 836.306H916.611C914.491 838.106 913.371 838.626 911.171 838.626C908.211 838.626 906.171 837.266 906.171 834.306C906.171 831.586 908.731 829.426 912.811 828.506L916.531 827.666C916.651 827.626 916.811 827.466 916.811 827.186C916.811 822.666 914.411 822.466 912.971 822.466C911.051 822.466 909.691 824.066 908.571 825.866L908.051 825.826L907.371 823.146L907.491 822.986C908.491 822.146 910.331 820.666 913.371 820.666C916.411 820.666 919.971 821.746 919.971 827.146C919.971 827.586 919.851 832.026 919.851 833.186C919.851 834.986 920.091 835.946 920.491 836.306C920.771 836.546 921.291 836.626 921.691 836.626C921.971 836.626 922.331 836.586 922.771 836.426L923.051 837.386C922.131 838.386 920.891 838.626 919.891 838.626C918.411 838.626 917.211 837.906 916.771 836.306ZM930.309 824.866L930.429 824.946C932.189 821.906 933.349 820.666 935.509 820.666C936.229 820.666 936.269 820.746 936.949 820.946L937.109 821.106L936.309 824.066L935.989 824.146C935.469 823.666 934.709 823.586 933.909 823.586C933.149 823.586 932.229 824.106 931.669 824.986C930.789 826.306 930.309 827.266 930.309 828.946V831.026C930.309 834.066 930.349 835.946 930.669 838.226L930.589 838.346C930.109 838.266 929.189 838.226 928.709 838.226C928.229 838.226 927.309 838.266 926.829 838.346L926.749 838.226C927.029 836.106 927.109 834.026 927.109 831.026V828.826C927.109 825.826 927.029 822.826 926.749 821.066L926.829 820.946C927.709 821.066 929.149 821.026 930.069 820.826C930.229 820.826 930.309 820.946 930.309 821.226V824.866ZM947.535 822.266C944.895 822.266 942.575 824.906 942.575 829.306C942.575 833.986 944.855 836.626 947.775 836.626C949.255 836.626 950.535 836.306 952.055 834.946H952.215L952.975 835.786C951.375 837.826 949.495 838.626 947.095 838.626C942.215 838.626 939.055 835.106 939.055 829.506C939.055 824.066 943.415 820.666 947.575 820.666C949.575 820.666 951.655 821.146 952.895 821.786L952.975 821.906L952.055 825.186L951.535 825.226C950.455 823.426 949.055 822.266 947.535 822.266ZM961.484 824.146L961.564 824.266C964.124 821.266 966.964 820.666 968.484 820.666C972.084 820.666 973.444 822.826 973.444 826.986C973.444 828.266 973.364 829.746 973.364 831.026C973.364 834.066 973.404 835.946 973.724 838.226L973.644 838.346C973.164 838.266 972.244 838.226 971.764 838.226C971.284 838.226 970.364 838.266 969.884 838.346L969.804 838.226C970.124 836.106 970.164 834.026 970.164 831.026V827.106C970.164 823.866 969.324 823.066 967.284 823.066C965.844 823.066 963.524 823.946 961.484 826.346V831.026C961.484 834.066 961.524 835.946 961.844 838.226L961.764 838.346C961.284 838.266 960.364 838.226 959.884 838.226C959.404 838.226 958.484 838.266 958.004 838.346L957.924 838.226C958.204 835.986 958.284 834.026 958.284 831.026V818.986C958.284 815.946 958.204 812.946 957.924 811.226L958.004 811.106C959.604 810.986 960.444 810.706 961.484 810.306C961.724 810.306 961.844 810.426 961.844 810.706C961.644 813.186 961.484 815.226 961.484 818.186V824.146ZM990.677 842.386C990.677 845.106 993.317 845.986 995.917 845.986C999.357 845.986 1002.64 844.706 1002.64 842.266C1002.64 841.226 1002.24 840.066 1001.08 839.386C999.957 838.746 998.757 838.706 996.837 838.706C996.277 838.706 994.437 838.826 993.277 838.826C991.877 839.586 990.677 841.066 990.677 842.386ZM1002.24 826.826C1002.24 829.986 999.757 832.786 995.597 832.786C994.357 832.786 993.157 832.506 992.637 832.226C991.757 832.986 991.557 833.666 991.557 834.466C991.557 836.186 992.757 836.346 993.877 836.346C994.077 836.346 994.477 836.306 995.037 836.266C995.957 836.146 997.557 836.066 998.237 836.066C999.637 836.066 1002.36 836.106 1003.88 837.386C1005 838.346 1005.56 839.586 1005.56 841.346C1005.56 845.106 1001.84 847.706 995.597 847.706C991.357 847.706 987.917 846.346 987.917 843.186C987.917 842.466 988.317 841.306 988.837 840.546C989.837 839.746 991.117 838.986 992.197 838.546C990.077 838.146 989.117 836.706 989.117 835.066C989.117 833.706 990.517 832.546 991.677 831.746C990.557 831.106 988.837 829.746 988.837 826.746C988.837 822.786 992.477 820.666 995.637 820.666C996.477 820.666 997.357 820.786 998.077 821.026C1001.04 820.866 1002.48 820.466 1004.4 820.266L1004.52 820.386C1004.44 820.746 1004.4 821.066 1004.4 821.426C1004.4 821.786 1004.44 822.106 1004.52 822.466L1004.4 822.586C1002.72 822.426 1001.4 822.266 1000.2 822.186C1001.16 822.786 1002.24 824.066 1002.24 826.826ZM999.117 826.866C999.117 824.026 998.077 822.186 995.477 822.186C993.157 822.186 991.957 823.906 991.957 826.546C991.957 829.306 992.837 831.186 995.717 831.186C998.117 831.186 999.117 829.306 999.117 826.866ZM1013.28 824.866L1013.4 824.946C1015.16 821.906 1016.32 820.666 1018.48 820.666C1019.2 820.666 1019.24 820.746 1019.92 820.946L1020.08 821.106L1019.28 824.066L1018.96 824.146C1018.44 823.666 1017.68 823.586 1016.88 823.586C1016.12 823.586 1015.2 824.106 1014.64 824.986C1013.76 826.306 1013.28 827.266 1013.28 828.946V831.026C1013.28 834.066 1013.32 835.946 1013.64 838.226L1013.56 838.346C1013.08 838.266 1012.16 838.226 1011.68 838.226C1011.2 838.226 1010.28 838.266 1009.8 838.346L1009.72 838.226C1010 836.106 1010.08 834.026 1010.08 831.026V828.826C1010.08 825.826 1010 822.826 1009.72 821.066L1009.8 820.946C1010.68 821.066 1012.12 821.026 1013.04 820.826C1013.2 820.826 1013.28 820.946 1013.28 821.226V824.866ZM1033.22 829.226L1029.82 830.146C1026.7 830.986 1025.86 832.346 1025.86 834.146C1025.86 835.386 1027.02 836.586 1028.82 836.586C1030.02 836.586 1031.38 835.866 1032.5 835.026C1032.82 834.786 1033.06 834.506 1033.06 833.986L1033.22 829.226ZM1033.22 836.306H1033.06C1030.94 838.106 1029.82 838.626 1027.62 838.626C1024.66 838.626 1022.62 837.266 1022.62 834.306C1022.62 831.586 1025.18 829.426 1029.26 828.506L1032.98 827.666C1033.1 827.626 1033.26 827.466 1033.26 827.186C1033.26 822.666 1030.86 822.466 1029.42 822.466C1027.5 822.466 1026.14 824.066 1025.02 825.866L1024.5 825.826L1023.82 823.146L1023.94 822.986C1024.94 822.146 1026.78 820.666 1029.82 820.666C1032.86 820.666 1036.42 821.746 1036.42 827.146C1036.42 827.586 1036.3 832.026 1036.3 833.186C1036.3 834.986 1036.54 835.946 1036.94 836.306C1037.22 836.546 1037.74 836.626 1038.14 836.626C1038.42 836.626 1038.78 836.586 1039.22 836.426L1039.5 837.386C1038.58 838.386 1037.34 838.626 1036.34 838.626C1034.86 838.626 1033.66 837.906 1033.22 836.306ZM1058.47 831.026C1058.47 834.066 1058.51 835.946 1058.83 838.226L1058.75 838.346C1058.27 838.266 1057.35 838.226 1056.87 838.226C1056.39 838.226 1055.47 838.266 1054.99 838.346L1054.91 838.226C1055.19 836.106 1055.27 834.026 1055.27 831.026V827.106C1055.27 823.866 1054.43 823.066 1052.39 823.066C1050.95 823.066 1048.63 823.946 1046.59 826.346V831.026C1046.59 834.066 1046.63 835.946 1046.95 838.226L1046.87 838.346C1046.39 838.266 1045.47 838.226 1044.99 838.226C1044.51 838.226 1043.59 838.266 1043.11 838.346L1043.03 838.226C1043.35 836.066 1043.39 834.026 1043.39 831.026V828.826C1043.39 825.826 1043.31 822.826 1043.03 821.066L1043.11 820.946C1043.99 821.066 1045.43 821.026 1046.35 820.826C1046.51 820.826 1046.55 820.946 1046.59 821.226V824.146L1046.67 824.266C1049.23 821.266 1052.07 820.666 1053.59 820.666C1057.19 820.666 1058.55 822.826 1058.55 826.986C1058.55 828.266 1058.47 829.746 1058.47 831.026ZM1065.44 821.066C1065.44 818.746 1065.52 817.346 1065.6 815.946L1065.68 815.826C1066.96 815.666 1067.44 815.226 1068.48 814.826C1068.72 814.826 1068.84 814.946 1068.84 815.226C1068.64 817.546 1068.64 818.106 1068.64 821.066H1070.52C1071.44 821.066 1072.6 821.026 1073.32 820.986L1073.52 821.266C1073.28 821.866 1073.16 822.266 1073.04 822.906C1072.48 822.866 1071.12 822.826 1070.16 822.826H1068.64V827.866C1068.64 830.266 1068.52 831.986 1068.52 833.186C1068.52 835.386 1068.88 836.346 1069.84 836.466C1070.84 836.626 1071.76 836.586 1072.96 836.186L1073.48 837.146C1071.8 838.226 1070.52 838.626 1068.84 838.626C1067 838.626 1065.32 837.386 1065.32 834.786C1065.32 833.586 1065.44 830.706 1065.44 828.306V822.826C1064.52 822.866 1063.28 822.866 1062.6 822.906L1062.4 822.626C1062.76 822.026 1063 821.666 1063.28 820.986C1063.76 821.066 1064.6 821.066 1065.44 821.066ZM1091.71 826.466V835.226C1093.11 836.866 1094.79 837.026 1095.43 837.026C1099.71 837.026 1100.63 832.786 1100.63 829.506C1100.63 824.986 1099.23 822.506 1096.51 822.506C1094.95 822.506 1092.59 824.346 1091.71 826.466ZM1091.71 824.146L1091.79 824.266C1093.63 821.466 1095.63 820.666 1097.19 820.666C1101.67 820.666 1104.15 824.746 1104.15 828.986C1104.15 834.626 1100.95 838.626 1095.67 838.626C1094.23 838.626 1092.75 838.306 1091.71 837.746V839.506C1091.71 842.546 1091.75 845.226 1092.07 847.506L1091.99 847.626C1091.51 847.546 1090.59 847.506 1090.11 847.506C1089.63 847.506 1088.71 847.546 1088.23 847.626L1088.15 847.506C1088.43 845.386 1088.51 842.506 1088.51 839.506V828.826C1088.51 825.826 1088.43 822.826 1088.15 821.066L1088.23 820.946C1089.11 821.066 1090.55 821.026 1091.47 820.826C1091.63 820.826 1091.71 820.946 1091.71 821.226V824.146ZM1112.85 824.866L1112.97 824.946C1114.73 821.906 1115.89 820.666 1118.05 820.666C1118.77 820.666 1118.81 820.746 1119.49 820.946L1119.65 821.106L1118.85 824.066L1118.53 824.146C1118.01 823.666 1117.25 823.586 1116.45 823.586C1115.69 823.586 1114.77 824.106 1114.21 824.986C1113.33 826.306 1112.85 827.266 1112.85 828.946V831.026C1112.85 834.066 1112.89 835.946 1113.21 838.226L1113.13 838.346C1112.65 838.266 1111.73 838.226 1111.25 838.226C1110.77 838.226 1109.85 838.266 1109.37 838.346L1109.29 838.226C1109.57 836.106 1109.65 834.026 1109.65 831.026V828.826C1109.65 825.826 1109.57 822.826 1109.29 821.066L1109.37 820.946C1110.25 821.066 1111.69 821.026 1112.61 820.826C1112.77 820.826 1112.85 820.946 1112.85 821.226V824.866ZM1121.59 830.026C1121.59 824.346 1124.99 820.666 1130.23 820.666C1135.63 820.666 1138.55 824.226 1138.55 829.666C1138.55 834.906 1135.35 838.626 1130.07 838.626C1124.75 838.626 1121.59 834.826 1121.59 830.026ZM1129.95 822.266C1126.19 822.266 1125.11 825.866 1125.11 829.346C1125.11 832.426 1126.19 837.026 1130.43 837.026C1133.11 837.026 1135.03 834.226 1135.03 830.386C1135.03 825.546 1134.19 822.266 1129.95 822.266ZM1146.55 826.466V835.226C1147.95 836.866 1149.63 837.026 1150.27 837.026C1154.55 837.026 1155.47 832.786 1155.47 829.506C1155.47 824.986 1154.07 822.506 1151.35 822.506C1149.79 822.506 1147.43 824.346 1146.55 826.466ZM1146.55 824.146L1146.63 824.266C1148.47 821.466 1150.47 820.666 1152.03 820.666C1156.51 820.666 1158.99 824.746 1158.99 828.986C1158.99 834.626 1155.79 838.626 1150.51 838.626C1149.07 838.626 1147.59 838.306 1146.55 837.746V839.506C1146.55 842.546 1146.59 845.226 1146.91 847.506L1146.83 847.626C1146.35 847.546 1145.43 847.506 1144.95 847.506C1144.47 847.506 1143.55 847.546 1143.07 847.626L1142.99 847.506C1143.27 845.386 1143.35 842.506 1143.35 839.506V828.826C1143.35 825.826 1143.27 822.826 1142.99 821.066L1143.07 820.946C1143.95 821.066 1145.39 821.026 1146.31 820.826C1146.47 820.826 1146.55 820.946 1146.55 821.226V824.146ZM1162.81 830.026C1162.81 824.346 1166.21 820.666 1171.45 820.666C1176.85 820.666 1179.77 824.226 1179.77 829.666C1179.77 834.906 1176.57 838.626 1171.29 838.626C1165.97 838.626 1162.81 834.826 1162.81 830.026ZM1171.17 822.266C1167.41 822.266 1166.33 825.866 1166.33 829.346C1166.33 832.426 1167.41 837.026 1171.65 837.026C1174.33 837.026 1176.25 834.226 1176.25 830.386C1176.25 825.546 1175.41 822.266 1171.17 822.266ZM1183.29 834.186L1183.89 834.146C1185.01 835.706 1186.69 837.026 1188.61 837.026C1190.73 837.026 1192.29 835.826 1192.29 833.706C1192.29 831.746 1190.57 831.106 1188.25 830.466C1185.81 829.826 1183.45 828.746 1183.45 825.546C1183.45 822.226 1186.53 820.666 1189.49 820.666C1191.53 820.666 1193.73 821.266 1194.89 821.866L1194.97 821.986L1194.17 824.946L1193.61 824.986C1192.69 823.906 1191.41 822.266 1189.33 822.266C1187.61 822.266 1186.29 823.146 1186.29 824.786C1186.29 826.786 1188.49 827.546 1190.01 827.906C1192.85 828.586 1195.45 829.866 1195.45 833.146C1195.45 835.346 1194.17 838.626 1188.65 838.626C1187.13 838.626 1184.89 838.346 1182.61 837.546L1183.29 834.186ZM1209.54 829.226L1206.14 830.146C1203.02 830.986 1202.18 832.346 1202.18 834.146C1202.18 835.386 1203.34 836.586 1205.14 836.586C1206.34 836.586 1207.7 835.866 1208.82 835.026C1209.14 834.786 1209.38 834.506 1209.38 833.986L1209.54 829.226ZM1209.54 836.306H1209.38C1207.26 838.106 1206.14 838.626 1203.94 838.626C1200.98 838.626 1198.94 837.266 1198.94 834.306C1198.94 831.586 1201.5 829.426 1205.58 828.506L1209.3 827.666C1209.42 827.626 1209.58 827.466 1209.58 827.186C1209.58 822.666 1207.18 822.466 1205.74 822.466C1203.82 822.466 1202.46 824.066 1201.34 825.866L1200.82 825.826L1200.14 823.146L1200.26 822.986C1201.26 822.146 1203.1 820.666 1206.14 820.666C1209.18 820.666 1212.74 821.746 1212.74 827.146C1212.74 827.586 1212.62 832.026 1212.62 833.186C1212.62 834.986 1212.86 835.946 1213.26 836.306C1213.54 836.546 1214.06 836.626 1214.46 836.626C1214.74 836.626 1215.1 836.586 1215.54 836.426L1215.82 837.386C1214.9 838.386 1213.66 838.626 1212.66 838.626C1211.18 838.626 1209.98 837.906 1209.54 836.306ZM1220 830.226V818.946C1220 815.906 1219.92 812.946 1219.64 811.226L1219.72 811.106C1221.32 810.986 1222.16 810.706 1223.2 810.306C1223.44 810.306 1223.56 810.426 1223.56 810.706C1223.36 813.266 1223.2 815.226 1223.2 818.226V830.226C1223.2 833.266 1223.24 835.946 1223.56 838.226L1223.48 838.346C1223 838.266 1222.08 838.226 1221.6 838.226C1221.12 838.226 1220.2 838.266 1219.72 838.346L1219.64 838.226C1219.92 836.106 1220 833.226 1220 830.226ZM1240.64 820.426C1240.64 817.426 1240.56 814.706 1240.24 812.426L1240.32 812.306C1240.8 812.386 1241.88 812.426 1242.36 812.426C1242.84 812.426 1243.92 812.386 1244.4 812.306L1244.48 812.426C1244.16 814.546 1244.08 817.426 1244.08 820.426V830.226C1244.08 833.226 1244.16 835.946 1244.48 838.226L1244.4 838.346C1243.92 838.266 1242.84 838.226 1242.36 838.226C1241.88 838.226 1240.8 838.266 1240.32 838.346L1240.24 838.226C1240.56 836.066 1240.64 833.226 1240.64 830.226V820.426ZM1270.64 829.226L1267.24 830.146C1264.12 830.986 1263.28 832.346 1263.28 834.146C1263.28 835.386 1264.44 836.586 1266.24 836.586C1267.44 836.586 1268.8 835.866 1269.92 835.026C1270.24 834.786 1270.48 834.506 1270.48 833.986L1270.64 829.226ZM1270.64 836.306H1270.48C1268.36 838.106 1267.24 838.626 1265.04 838.626C1262.08 838.626 1260.04 837.266 1260.04 834.306C1260.04 831.586 1262.6 829.426 1266.68 828.506L1270.4 827.666C1270.52 827.626 1270.68 827.466 1270.68 827.186C1270.68 822.666 1268.28 822.466 1266.84 822.466C1264.92 822.466 1263.56 824.066 1262.44 825.866L1261.92 825.826L1261.24 823.146L1261.36 822.986C1262.36 822.146 1264.2 820.666 1267.24 820.666C1270.28 820.666 1273.84 821.746 1273.84 827.146C1273.84 827.586 1273.72 832.026 1273.72 833.186C1273.72 834.986 1273.96 835.946 1274.36 836.306C1274.64 836.546 1275.16 836.626 1275.56 836.626C1275.84 836.626 1276.2 836.586 1276.64 836.426L1276.92 837.386C1276 838.386 1274.76 838.626 1273.76 838.626C1272.28 838.626 1271.08 837.906 1270.64 836.306ZM1283.98 824.146L1284.1 824.266C1285.98 822.266 1288.34 820.666 1290.82 820.666C1293.06 820.666 1294.7 821.906 1295.06 823.826C1297.34 821.426 1299.66 820.666 1301.82 820.666C1306.14 820.666 1306.78 823.466 1306.78 827.026V831.026C1306.78 834.066 1306.82 835.946 1307.14 838.226L1307.06 838.346C1306.58 838.266 1305.66 838.226 1305.18 838.226C1304.7 838.226 1303.78 838.266 1303.3 838.346L1303.22 838.226C1303.54 836.066 1303.58 834.026 1303.58 831.026V826.626C1303.58 823.946 1302.54 823.066 1300.38 823.066C1298.82 823.066 1297.22 823.346 1295.3 825.466C1295.34 825.946 1295.34 826.426 1295.34 826.986V831.026C1295.34 834.066 1295.38 835.946 1295.7 838.226L1295.62 838.346C1295.14 838.266 1294.22 838.226 1293.74 838.226C1293.26 838.226 1292.34 838.266 1291.86 838.346L1291.78 838.226C1292.1 836.066 1292.14 834.026 1292.14 831.026V826.626C1292.14 823.946 1291.02 823.066 1289.5 823.066C1288.1 823.066 1285.86 824.266 1283.98 826.186V831.026C1283.98 834.066 1284.02 835.946 1284.34 838.226L1284.26 838.346C1283.78 838.266 1282.86 838.226 1282.38 838.226C1281.9 838.226 1280.98 838.266 1280.5 838.346L1280.42 838.226C1280.74 836.066 1280.78 834.026 1280.78 831.026V828.826C1280.78 825.826 1280.7 822.826 1280.42 821.066L1280.5 820.946C1281.38 821.066 1282.82 821.026 1283.74 820.826C1283.9 820.826 1283.98 820.946 1283.98 821.226V824.146ZM1321.76 834.186L1322.36 834.146C1323.48 835.706 1325.16 837.026 1327.08 837.026C1329.2 837.026 1330.76 835.826 1330.76 833.706C1330.76 831.746 1329.04 831.106 1326.72 830.466C1324.28 829.826 1321.92 828.746 1321.92 825.546C1321.92 822.226 1325 820.666 1327.96 820.666C1330 820.666 1332.2 821.266 1333.36 821.866L1333.44 821.986L1332.64 824.946L1332.08 824.986C1331.16 823.906 1329.88 822.266 1327.8 822.266C1326.08 822.266 1324.76 823.146 1324.76 824.786C1324.76 826.786 1326.96 827.546 1328.48 827.906C1331.32 828.586 1333.92 829.866 1333.92 833.146C1333.92 835.346 1332.64 838.626 1327.12 838.626C1325.6 838.626 1323.36 838.346 1321.08 837.546L1321.76 834.186ZM1350.22 834.546C1348.9 836.586 1346.66 838.626 1344.18 838.626C1340.22 838.626 1338.94 835.826 1338.94 833.066V828.266C1338.94 825.226 1338.9 823.346 1338.58 821.066L1338.66 820.946C1339.14 821.026 1340.06 821.066 1340.54 821.066C1341.02 821.066 1341.94 821.026 1342.42 820.946L1342.5 821.066C1342.18 823.186 1342.14 825.266 1342.14 828.266V832.226C1342.14 835.946 1343.42 836.386 1344.82 836.386C1346.78 836.386 1349.06 834.266 1350.3 832.186V828.266C1350.3 825.226 1350.22 823.386 1349.94 821.066L1350.02 820.946C1350.5 821.026 1351.42 821.066 1351.9 821.066C1352.38 821.066 1353.3 821.026 1353.78 820.946L1353.86 821.066C1353.54 823.186 1353.5 825.266 1353.5 828.266V830.546C1353.5 833.546 1353.86 836.506 1354.18 838.226L1354.1 838.346C1353.58 838.266 1352.82 838.226 1352.3 838.226C1351.74 838.226 1351.26 838.306 1350.74 838.346C1350.62 838.346 1350.58 838.306 1350.58 838.226L1350.38 834.666L1350.22 834.546ZM1363.59 834.986C1364.39 835.986 1365.87 837.026 1367.11 837.026C1370.91 837.026 1372.39 834.226 1372.39 829.266C1372.39 824.306 1370.23 822.266 1367.79 822.266C1366.15 822.266 1365.15 823.026 1363.59 824.626V834.986ZM1363.59 818.226V822.666C1364.95 821.186 1366.67 820.666 1368.59 820.666C1372.47 820.666 1375.95 824.066 1375.95 828.946C1375.95 835.746 1371.43 838.626 1367.35 838.626C1365.63 838.626 1363.79 837.666 1362.63 836.666C1362.19 837.466 1361.75 838.146 1361.31 838.626C1360.87 838.626 1360.43 838.546 1360.19 838.306C1360.35 837.466 1360.39 836.866 1360.39 835.306V818.946C1360.39 815.906 1360.19 812.946 1359.91 811.226L1359.99 811.106C1361.59 810.986 1362.43 810.706 1363.47 810.306C1363.71 810.306 1363.83 810.426 1363.83 810.706C1363.63 813.186 1363.59 815.266 1363.59 818.226ZM1383.74 824.146L1383.86 824.266C1385.74 822.266 1388.1 820.666 1390.58 820.666C1392.82 820.666 1394.46 821.906 1394.82 823.826C1397.1 821.426 1399.42 820.666 1401.58 820.666C1405.9 820.666 1406.54 823.466 1406.54 827.026V831.026C1406.54 834.066 1406.58 835.946 1406.9 838.226L1406.82 838.346C1406.34 838.266 1405.42 838.226 1404.94 838.226C1404.46 838.226 1403.54 838.266 1403.06 838.346L1402.98 838.226C1403.3 836.066 1403.34 834.026 1403.34 831.026V826.626C1403.34 823.946 1402.3 823.066 1400.14 823.066C1398.58 823.066 1396.98 823.346 1395.06 825.466C1395.1 825.946 1395.1 826.426 1395.1 826.986V831.026C1395.1 834.066 1395.14 835.946 1395.46 838.226L1395.38 838.346C1394.9 838.266 1393.98 838.226 1393.5 838.226C1393.02 838.226 1392.1 838.266 1391.62 838.346L1391.54 838.226C1391.86 836.066 1391.9 834.026 1391.9 831.026V826.626C1391.9 823.946 1390.78 823.066 1389.26 823.066C1387.86 823.066 1385.62 824.266 1383.74 826.186V831.026C1383.74 834.066 1383.78 835.946 1384.1 838.226L1384.02 838.346C1383.54 838.266 1382.62 838.226 1382.14 838.226C1381.66 838.226 1380.74 838.266 1380.26 838.346L1380.18 838.226C1380.5 836.066 1380.54 834.026 1380.54 831.026V828.826C1380.54 825.826 1380.46 822.826 1380.18 821.066L1380.26 820.946C1381.14 821.066 1382.58 821.026 1383.5 820.826C1383.66 820.826 1383.74 820.946 1383.74 821.226V824.146ZM1412.73 814.346C1412.73 813.266 1413.69 812.306 1414.77 812.306C1415.85 812.306 1416.81 813.266 1416.81 814.346C1416.81 815.426 1415.85 816.386 1414.77 816.386C1413.69 816.386 1412.73 815.426 1412.73 814.346ZM1413.13 828.826C1413.13 825.826 1413.01 822.786 1412.77 821.066L1412.85 820.946C1413.69 821.026 1415.41 821.026 1416.33 820.906C1416.61 820.906 1416.69 820.946 1416.69 821.306C1416.41 823.746 1416.33 825.186 1416.33 828.186V831.026C1416.33 834.066 1416.37 835.986 1416.69 838.226L1416.61 838.346C1416.13 838.266 1415.21 838.226 1414.73 838.226C1414.25 838.226 1413.33 838.266 1412.85 838.346L1412.77 838.226C1413.05 836.066 1413.13 834.026 1413.13 831.026V828.826ZM1435.4 822.826H1426.92V828.546C1426.92 830.946 1426.8 832.546 1426.8 833.746C1426.8 835.386 1427.04 836.226 1428.12 836.226C1429.16 836.226 1429.8 836.146 1430.84 835.546L1431.36 836.626C1429.8 838.066 1428.4 838.626 1426.72 838.626C1424.88 838.626 1423.6 837.346 1423.6 835.466C1423.6 834.266 1423.72 831.386 1423.72 828.986V822.826C1422.8 822.866 1421.56 822.866 1420.88 822.906L1420.68 822.626C1421.04 822.026 1421.28 821.666 1421.56 820.986C1422.04 821.066 1422.88 821.066 1423.72 821.066C1423.72 818.746 1423.88 817.506 1423.88 815.946L1423.96 815.826C1425.24 815.666 1425.72 815.226 1426.76 814.826C1427 814.826 1427.12 814.946 1427.12 815.226C1426.92 817.546 1426.92 818.106 1426.92 821.066H1435.4C1435.4 818.746 1435.56 817.506 1435.56 815.946L1435.64 815.826C1436.92 815.666 1437.4 815.226 1438.44 814.826C1438.68 814.826 1438.8 814.946 1438.8 815.226C1438.6 817.546 1438.6 818.106 1438.6 821.066H1440.48C1441.4 821.066 1442.72 821.026 1443.28 820.986L1443.48 821.266C1443.24 821.866 1443.12 822.266 1443 822.906C1442.44 822.866 1441.08 822.826 1440.12 822.826H1438.6V827.866C1438.6 830.266 1438.48 831.986 1438.48 833.186C1438.48 835.386 1438.84 836.346 1439.8 836.466C1440.8 836.626 1441.72 836.586 1442.92 836.186L1443.44 837.146C1441.76 838.226 1440.48 838.626 1438.8 838.626C1436.96 838.626 1435.28 837.386 1435.28 834.786C1435.28 833.586 1435.4 830.706 1435.4 828.306V822.826ZM1447.18 814.346C1447.18 813.266 1448.14 812.306 1449.22 812.306C1450.3 812.306 1451.26 813.266 1451.26 814.346C1451.26 815.426 1450.3 816.386 1449.22 816.386C1448.14 816.386 1447.18 815.426 1447.18 814.346ZM1447.58 828.826C1447.58 825.826 1447.46 822.786 1447.22 821.066L1447.3 820.946C1448.14 821.026 1449.86 821.026 1450.78 820.906C1451.06 820.906 1451.14 820.946 1451.14 821.306C1450.86 823.746 1450.78 825.186 1450.78 828.186V831.026C1450.78 834.066 1450.82 835.986 1451.14 838.226L1451.06 838.346C1450.58 838.266 1449.66 838.226 1449.18 838.226C1448.7 838.226 1447.78 838.266 1447.3 838.346L1447.22 838.226C1447.5 836.066 1447.58 834.026 1447.58 831.026V828.826ZM1472.77 831.026C1472.77 834.066 1472.81 835.946 1473.13 838.226L1473.05 838.346C1472.57 838.266 1471.65 838.226 1471.17 838.226C1470.69 838.226 1469.77 838.266 1469.29 838.346L1469.21 838.226C1469.49 836.106 1469.57 834.026 1469.57 831.026V827.106C1469.57 823.866 1468.73 823.066 1466.69 823.066C1465.25 823.066 1462.93 823.946 1460.89 826.346V831.026C1460.89 834.066 1460.93 835.946 1461.25 838.226L1461.17 838.346C1460.69 838.266 1459.77 838.226 1459.29 838.226C1458.81 838.226 1457.89 838.266 1457.41 838.346L1457.33 838.226C1457.65 836.066 1457.69 834.026 1457.69 831.026V828.826C1457.69 825.826 1457.61 822.826 1457.33 821.066L1457.41 820.946C1458.29 821.066 1459.73 821.026 1460.65 820.826C1460.81 820.826 1460.85 820.946 1460.89 821.226V824.146L1460.97 824.266C1463.53 821.266 1466.37 820.666 1467.89 820.666C1471.49 820.666 1472.85 822.826 1472.85 826.986C1472.85 828.266 1472.77 829.746 1472.77 831.026ZM1479.97 842.386C1479.97 845.106 1482.61 845.986 1485.21 845.986C1488.65 845.986 1491.93 844.706 1491.93 842.266C1491.93 841.226 1491.53 840.066 1490.37 839.386C1489.25 838.746 1488.05 838.706 1486.13 838.706C1485.57 838.706 1483.73 838.826 1482.57 838.826C1481.17 839.586 1479.97 841.066 1479.97 842.386ZM1491.53 826.826C1491.53 829.986 1489.05 832.786 1484.89 832.786C1483.65 832.786 1482.45 832.506 1481.93 832.226C1481.05 832.986 1480.85 833.666 1480.85 834.466C1480.85 836.186 1482.05 836.346 1483.17 836.346C1483.37 836.346 1483.77 836.306 1484.33 836.266C1485.25 836.146 1486.85 836.066 1487.53 836.066C1488.93 836.066 1491.65 836.106 1493.17 837.386C1494.29 838.346 1494.85 839.586 1494.85 841.346C1494.85 845.106 1491.13 847.706 1484.89 847.706C1480.65 847.706 1477.21 846.346 1477.21 843.186C1477.21 842.466 1477.61 841.306 1478.13 840.546C1479.13 839.746 1480.41 838.986 1481.49 838.546C1479.37 838.146 1478.41 836.706 1478.41 835.066C1478.41 833.706 1479.81 832.546 1480.97 831.746C1479.85 831.106 1478.13 829.746 1478.13 826.746C1478.13 822.786 1481.77 820.666 1484.93 820.666C1485.77 820.666 1486.65 820.786 1487.37 821.026C1490.33 820.866 1491.77 820.466 1493.69 820.266L1493.81 820.386C1493.73 820.746 1493.69 821.066 1493.69 821.426C1493.69 821.786 1493.73 822.106 1493.81 822.466L1493.69 822.586C1492.01 822.426 1490.69 822.266 1489.49 822.186C1490.45 822.786 1491.53 824.066 1491.53 826.826ZM1488.41 826.866C1488.41 824.026 1487.37 822.186 1484.77 822.186C1482.45 822.186 1481.25 823.906 1481.25 826.546C1481.25 829.306 1482.13 831.186 1485.01 831.186C1487.41 831.186 1488.41 829.306 1488.41 826.866ZM1497.81 836.466V836.306C1498.17 835.266 1498.73 834.666 1499.97 834.146H1500.13C1501.57 834.706 1502.69 835.786 1502.69 838.346C1502.69 841.626 1500.69 842.746 1498.53 843.986C1498.25 843.786 1498.01 843.546 1498.01 843.146C1499.97 841.826 1501.13 840.706 1501.13 839.386C1501.13 838.426 1500.45 838.346 1499.97 838.346C1498.69 838.066 1498.13 837.826 1497.81 836.466ZM1517.88 814.346C1517.88 813.266 1518.84 812.306 1519.92 812.306C1521 812.306 1521.96 813.266 1521.96 814.346C1521.96 815.426 1521 816.386 1519.92 816.386C1518.84 816.386 1517.88 815.426 1517.88 814.346ZM1518.28 828.826C1518.28 825.826 1518.16 822.786 1517.92 821.066L1518 820.946C1518.84 821.026 1520.56 821.026 1521.48 820.906C1521.76 820.906 1521.84 820.946 1521.84 821.306C1521.56 823.746 1521.48 825.186 1521.48 828.186V831.026C1521.48 834.066 1521.52 835.986 1521.84 838.226L1521.76 838.346C1521.28 838.266 1520.36 838.226 1519.88 838.226C1519.4 838.226 1518.48 838.266 1518 838.346L1517.92 838.226C1518.2 836.066 1518.28 834.026 1518.28 831.026V828.826ZM1528.87 821.066C1528.87 818.746 1528.95 817.346 1529.03 815.946L1529.11 815.826C1530.39 815.666 1530.87 815.226 1531.91 814.826C1532.15 814.826 1532.27 814.946 1532.27 815.226C1532.07 817.546 1532.07 818.106 1532.07 821.066H1533.95C1534.87 821.066 1536.03 821.026 1536.75 820.986L1536.95 821.266C1536.71 821.866 1536.59 822.266 1536.47 822.906C1535.91 822.866 1534.55 822.826 1533.59 822.826H1532.07V827.866C1532.07 830.266 1531.95 831.986 1531.95 833.186C1531.95 835.386 1532.31 836.346 1533.27 836.466C1534.27 836.626 1535.19 836.586 1536.39 836.186L1536.91 837.146C1535.23 838.226 1533.95 838.626 1532.27 838.626C1530.43 838.626 1528.75 837.386 1528.75 834.786C1528.75 833.586 1528.87 830.706 1528.87 828.306V822.826C1527.95 822.866 1526.71 822.866 1526.03 822.906L1525.83 822.626C1526.19 822.026 1526.43 821.666 1526.71 820.986C1527.19 821.066 1528.03 821.066 1528.87 821.066ZM1555.47 824.146L1555.55 824.266C1558.11 821.266 1560.95 820.666 1562.47 820.666C1566.07 820.666 1567.43 822.826 1567.43 826.986C1567.43 828.266 1567.35 829.746 1567.35 831.026C1567.35 834.066 1567.39 835.946 1567.71 838.226L1567.63 838.346C1567.15 838.266 1566.23 838.226 1565.75 838.226C1565.27 838.226 1564.35 838.266 1563.87 838.346L1563.79 838.226C1564.11 836.106 1564.15 834.026 1564.15 831.026V827.106C1564.15 823.866 1563.31 823.066 1561.27 823.066C1559.83 823.066 1557.51 823.946 1555.47 826.346V831.026C1555.47 834.066 1555.51 835.946 1555.83 838.226L1555.75 838.346C1555.27 838.266 1554.35 838.226 1553.87 838.226C1553.39 838.226 1552.47 838.266 1551.99 838.346L1551.91 838.226C1552.19 835.986 1552.27 834.026 1552.27 831.026V818.986C1552.27 815.946 1552.19 812.946 1551.91 811.226L1551.99 811.106C1553.59 810.986 1554.43 810.706 1555.47 810.306C1555.71 810.306 1555.83 810.426 1555.83 810.706C1555.63 813.186 1555.47 815.226 1555.47 818.186V824.146ZM1583.02 829.226L1579.62 830.146C1576.5 830.986 1575.66 832.346 1575.66 834.146C1575.66 835.386 1576.82 836.586 1578.62 836.586C1579.82 836.586 1581.18 835.866 1582.3 835.026C1582.62 834.786 1582.86 834.506 1582.86 833.986L1583.02 829.226ZM1583.02 836.306H1582.86C1580.74 838.106 1579.62 838.626 1577.42 838.626C1574.46 838.626 1572.42 837.266 1572.42 834.306C1572.42 831.586 1574.98 829.426 1579.06 828.506L1582.78 827.666C1582.9 827.626 1583.06 827.466 1583.06 827.186C1583.06 822.666 1580.66 822.466 1579.22 822.466C1577.3 822.466 1575.94 824.066 1574.82 825.866L1574.3 825.826L1573.62 823.146L1573.74 822.986C1574.74 822.146 1576.58 820.666 1579.62 820.666C1582.66 820.666 1586.22 821.746 1586.22 827.146C1586.22 827.586 1586.1 832.026 1586.1 833.186C1586.1 834.986 1586.34 835.946 1586.74 836.306C1587.02 836.546 1587.54 836.626 1587.94 836.626C1588.22 836.626 1588.58 836.586 1589.02 836.426L1589.3 837.386C1588.38 838.386 1587.14 838.626 1586.14 838.626C1584.66 838.626 1583.46 837.906 1583.02 836.306ZM1591.88 834.186L1592.48 834.146C1593.6 835.706 1595.28 837.026 1597.2 837.026C1599.32 837.026 1600.88 835.826 1600.88 833.706C1600.88 831.746 1599.16 831.106 1596.84 830.466C1594.4 829.826 1592.04 828.746 1592.04 825.546C1592.04 822.226 1595.12 820.666 1598.08 820.666C1600.12 820.666 1602.32 821.266 1603.48 821.866L1603.56 821.986L1602.76 824.946L1602.2 824.986C1601.28 823.906 1600 822.266 1597.92 822.266C1596.2 822.266 1594.88 823.146 1594.88 824.786C1594.88 826.786 1597.08 827.546 1598.6 827.906C1601.44 828.586 1604.04 829.866 1604.04 833.146C1604.04 835.346 1602.76 838.626 1597.24 838.626C1595.72 838.626 1593.48 838.346 1591.2 837.546L1591.88 834.186ZM1623.1 829.986L1616.7 820.946C1617.34 821.066 1618.38 821.066 1619.02 821.066C1619.7 821.066 1620.46 821.066 1621.18 820.946C1622.5 823.186 1623.62 825.306 1625.22 827.506C1626.9 825.306 1628.14 823.186 1629.7 820.946C1630.1 821.066 1630.74 821.066 1631.18 821.066C1631.58 821.066 1632.46 821.066 1632.98 820.946L1626.38 829.026C1628.54 832.146 1630.5 835.226 1632.94 838.346C1632.3 838.306 1631.26 838.226 1630.66 838.226C1630.02 838.226 1629.18 838.266 1628.62 838.346C1627.14 836.066 1625.98 833.866 1624.38 831.626C1622.78 833.866 1621.58 836.066 1620.06 838.346C1619.62 838.306 1618.7 838.226 1618.3 838.226C1617.9 838.226 1617.22 838.306 1616.86 838.346L1623.1 829.986ZM1650.42 824.146L1650.54 824.266C1652.42 822.266 1654.78 820.666 1657.26 820.666C1659.5 820.666 1661.14 821.906 1661.5 823.826C1663.78 821.426 1666.1 820.666 1668.26 820.666C1672.58 820.666 1673.22 823.466 1673.22 827.026V831.026C1673.22 834.066 1673.26 835.946 1673.58 838.226L1673.5 838.346C1673.02 838.266 1672.1 838.226 1671.62 838.226C1671.14 838.226 1670.22 838.266 1669.74 838.346L1669.66 838.226C1669.98 836.066 1670.02 834.026 1670.02 831.026V826.626C1670.02 823.946 1668.98 823.066 1666.82 823.066C1665.26 823.066 1663.66 823.346 1661.74 825.466C1661.78 825.946 1661.78 826.426 1661.78 826.986V831.026C1661.78 834.066 1661.82 835.946 1662.14 838.226L1662.06 838.346C1661.58 838.266 1660.66 838.226 1660.18 838.226C1659.7 838.226 1658.78 838.266 1658.3 838.346L1658.22 838.226C1658.54 836.066 1658.58 834.026 1658.58 831.026V826.626C1658.58 823.946 1657.46 823.066 1655.94 823.066C1654.54 823.066 1652.3 824.266 1650.42 826.186V831.026C1650.42 834.066 1650.46 835.946 1650.78 838.226L1650.7 838.346C1650.22 838.266 1649.3 838.226 1648.82 838.226C1648.34 838.226 1647.42 838.266 1646.94 838.346L1646.86 838.226C1647.18 836.066 1647.22 834.026 1647.22 831.026V828.826C1647.22 825.826 1647.14 822.826 1646.86 821.066L1646.94 820.946C1647.82 821.066 1649.26 821.026 1650.18 820.826C1650.34 820.826 1650.42 820.946 1650.42 821.226V824.146ZM1688.61 829.226L1685.21 830.146C1682.09 830.986 1681.25 832.346 1681.25 834.146C1681.25 835.386 1682.41 836.586 1684.21 836.586C1685.41 836.586 1686.77 835.866 1687.89 835.026C1688.21 834.786 1688.45 834.506 1688.45 833.986L1688.61 829.226ZM1688.61 836.306H1688.45C1686.33 838.106 1685.21 838.626 1683.01 838.626C1680.05 838.626 1678.01 837.266 1678.01 834.306C1678.01 831.586 1680.57 829.426 1684.65 828.506L1688.37 827.666C1688.49 827.626 1688.65 827.466 1688.65 827.186C1688.65 822.666 1686.25 822.466 1684.81 822.466C1682.89 822.466 1681.53 824.066 1680.41 825.866L1679.89 825.826L1679.21 823.146L1679.33 822.986C1680.33 822.146 1682.17 820.666 1685.21 820.666C1688.25 820.666 1691.81 821.746 1691.81 827.146C1691.81 827.586 1691.69 832.026 1691.69 833.186C1691.69 834.986 1691.93 835.946 1692.33 836.306C1692.61 836.546 1693.13 836.626 1693.53 836.626C1693.81 836.626 1694.17 836.586 1694.61 836.426L1694.89 837.386C1693.97 838.386 1692.73 838.626 1691.73 838.626C1690.25 838.626 1689.05 837.906 1688.61 836.306ZM1713.86 831.026C1713.86 834.066 1713.9 835.946 1714.22 838.226L1714.14 838.346C1713.66 838.266 1712.74 838.226 1712.26 838.226C1711.78 838.226 1710.86 838.266 1710.38 838.346L1710.3 838.226C1710.58 836.106 1710.66 834.026 1710.66 831.026V827.106C1710.66 823.866 1709.82 823.066 1707.78 823.066C1706.34 823.066 1704.02 823.946 1701.98 826.346V831.026C1701.98 834.066 1702.02 835.946 1702.34 838.226L1702.26 838.346C1701.78 838.266 1700.86 838.226 1700.38 838.226C1699.9 838.226 1698.98 838.266 1698.5 838.346L1698.42 838.226C1698.74 836.066 1698.78 834.026 1698.78 831.026V828.826C1698.78 825.826 1698.7 822.826 1698.42 821.066L1698.5 820.946C1699.38 821.066 1700.82 821.026 1701.74 820.826C1701.9 820.826 1701.94 820.946 1701.98 821.226V824.146L1702.06 824.266C1704.62 821.266 1707.46 820.666 1708.98 820.666C1712.58 820.666 1713.94 822.826 1713.94 826.986C1713.94 828.266 1713.86 829.746 1713.86 831.026ZM1718.15 820.946C1718.71 821.066 1719.71 821.066 1720.23 821.066C1720.79 821.066 1721.67 821.066 1722.19 820.946C1723.67 825.546 1725.55 829.986 1727.51 834.746H1727.59C1729.55 830.586 1731.43 825.466 1732.87 820.946C1733.27 821.066 1734.03 821.066 1734.43 821.066C1734.83 821.066 1735.75 821.066 1736.15 820.946C1734.83 823.626 1726.07 842.706 1724.55 847.706C1724.15 847.586 1722.99 847.506 1722.59 847.506C1722.19 847.506 1721.59 847.586 1721.19 847.706C1722.99 844.706 1724.63 841.626 1725.91 838.626C1724.47 834.826 1719.71 824.506 1718.15 820.946ZM1753.74 826.466V835.226C1755.14 836.866 1756.82 837.026 1757.46 837.026C1761.74 837.026 1762.66 832.786 1762.66 829.506C1762.66 824.986 1761.26 822.506 1758.54 822.506C1756.98 822.506 1754.62 824.346 1753.74 826.466ZM1753.74 824.146L1753.82 824.266C1755.66 821.466 1757.66 820.666 1759.22 820.666C1763.7 820.666 1766.18 824.746 1766.18 828.986C1766.18 834.626 1762.98 838.626 1757.7 838.626C1756.26 838.626 1754.78 838.306 1753.74 837.746V839.506C1753.74 842.546 1753.78 845.226 1754.1 847.506L1754.02 847.626C1753.54 847.546 1752.62 847.506 1752.14 847.506C1751.66 847.506 1750.74 847.546 1750.26 847.626L1750.18 847.506C1750.46 845.386 1750.54 842.506 1750.54 839.506V828.826C1750.54 825.826 1750.46 822.826 1750.18 821.066L1750.26 820.946C1751.14 821.066 1752.58 821.026 1753.5 820.826C1753.66 820.826 1753.74 820.946 1753.74 821.226V824.146ZM1780.6 829.226L1777.2 830.146C1774.08 830.986 1773.24 832.346 1773.24 834.146C1773.24 835.386 1774.4 836.586 1776.2 836.586C1777.4 836.586 1778.76 835.866 1779.88 835.026C1780.2 834.786 1780.44 834.506 1780.44 833.986L1780.6 829.226ZM1780.6 836.306H1780.44C1778.32 838.106 1777.2 838.626 1775 838.626C1772.04 838.626 1770 837.266 1770 834.306C1770 831.586 1772.56 829.426 1776.64 828.506L1780.36 827.666C1780.48 827.626 1780.64 827.466 1780.64 827.186C1780.64 822.666 1778.24 822.466 1776.8 822.466C1774.88 822.466 1773.52 824.066 1772.4 825.866L1771.88 825.826L1771.2 823.146L1771.32 822.986C1772.32 822.146 1774.16 820.666 1777.2 820.666C1780.24 820.666 1783.8 821.746 1783.8 827.146C1783.8 827.586 1783.68 832.026 1783.68 833.186C1783.68 834.986 1783.92 835.946 1784.32 836.306C1784.6 836.546 1785.12 836.626 1785.52 836.626C1785.8 836.626 1786.16 836.586 1786.6 836.426L1786.88 837.386C1785.96 838.386 1784.72 838.626 1783.72 838.626C1782.24 838.626 1781.04 837.906 1780.6 836.306ZM1791.5 842.386C1791.5 845.106 1794.14 845.986 1796.74 845.986C1800.18 845.986 1803.46 844.706 1803.46 842.266C1803.46 841.226 1803.06 840.066 1801.9 839.386C1800.78 838.746 1799.58 838.706 1797.66 838.706C1797.1 838.706 1795.26 838.826 1794.1 838.826C1792.7 839.586 1791.5 841.066 1791.5 842.386ZM1803.06 826.826C1803.06 829.986 1800.58 832.786 1796.42 832.786C1795.18 832.786 1793.98 832.506 1793.46 832.226C1792.58 832.986 1792.38 833.666 1792.38 834.466C1792.38 836.186 1793.58 836.346 1794.7 836.346C1794.9 836.346 1795.3 836.306 1795.86 836.266C1796.78 836.146 1798.38 836.066 1799.06 836.066C1800.46 836.066 1803.18 836.106 1804.7 837.386C1805.82 838.346 1806.38 839.586 1806.38 841.346C1806.38 845.106 1802.66 847.706 1796.42 847.706C1792.18 847.706 1788.74 846.346 1788.74 843.186C1788.74 842.466 1789.14 841.306 1789.66 840.546C1790.66 839.746 1791.94 838.986 1793.02 838.546C1790.9 838.146 1789.94 836.706 1789.94 835.066C1789.94 833.706 1791.34 832.546 1792.5 831.746C1791.38 831.106 1789.66 829.746 1789.66 826.746C1789.66 822.786 1793.3 820.666 1796.46 820.666C1797.3 820.666 1798.18 820.786 1798.9 821.026C1801.86 820.866 1803.3 820.466 1805.22 820.266L1805.34 820.386C1805.26 820.746 1805.22 821.066 1805.22 821.426C1805.22 821.786 1805.26 822.106 1805.34 822.466L1805.22 822.586C1803.54 822.426 1802.22 822.266 1801.02 822.186C1801.98 822.786 1803.06 824.066 1803.06 826.826ZM1799.94 826.866C1799.94 824.026 1798.9 822.186 1796.3 822.186C1793.98 822.186 1792.78 823.906 1792.78 826.546C1792.78 829.306 1793.66 831.186 1796.54 831.186C1798.94 831.186 1799.94 829.306 1799.94 826.866ZM1812.42 827.306H1819.78C1820.18 827.306 1820.34 827.106 1820.34 826.746C1820.34 823.746 1818.54 822.266 1816.98 822.266C1815.7 822.266 1813.1 823.146 1812.42 827.306ZM1823.1 834.066L1823.9 835.066C1822.38 837.146 1819.82 838.626 1816.94 838.626C1814.22 838.626 1811.94 837.666 1810.58 835.986C1809.22 834.386 1808.78 832.146 1808.78 829.866C1808.78 823.986 1812.86 820.666 1816.98 820.666C1822.26 820.666 1823.9 824.866 1823.9 828.226C1823.9 828.666 1823.62 828.906 1823.18 828.906H1812.3C1812.3 831.266 1812.54 832.866 1813.26 833.986C1814.34 835.746 1816.22 836.266 1817.62 836.266C1819.82 836.266 1821.7 835.586 1823.1 834.066ZM1827.54 834.186L1828.14 834.146C1829.26 835.706 1830.94 837.026 1832.86 837.026C1834.98 837.026 1836.54 835.826 1836.54 833.706C1836.54 831.746 1834.82 831.106 1832.5 830.466C1830.06 829.826 1827.7 828.746 1827.7 825.546C1827.7 822.226 1830.78 820.666 1833.74 820.666C1835.78 820.666 1837.98 821.266 1839.14 821.866L1839.22 821.986L1838.42 824.946L1837.86 824.986C1836.94 823.906 1835.66 822.266 1833.58 822.266C1831.86 822.266 1830.54 823.146 1830.54 824.786C1830.54 826.786 1832.74 827.546 1834.26 827.906C1837.1 828.586 1839.7 829.866 1839.7 833.146C1839.7 835.346 1838.42 838.626 1832.9 838.626C1831.38 838.626 1829.14 838.346 1826.86 837.546L1827.54 834.186ZM134.554 866.946C135.114 867.066 136.114 867.066 136.634 867.066C137.194 867.066 138.074 867.066 138.594 866.946C140.074 871.546 141.954 875.986 143.914 880.746H143.994C145.954 876.586 147.834 871.466 149.274 866.946C149.674 867.066 150.434 867.066 150.834 867.066C151.234 867.066 152.154 867.066 152.554 866.946C151.234 869.626 142.474 888.706 140.954 893.706C140.554 893.586 139.394 893.506 138.994 893.506C138.594 893.506 137.994 893.586 137.594 893.706C139.394 890.706 141.034 887.626 142.314 884.626C140.874 880.826 136.114 870.506 134.554 866.946ZM154.875 876.026C154.875 870.346 158.275 866.666 163.515 866.666C168.915 866.666 171.835 870.226 171.835 875.666C171.835 880.906 168.635 884.626 163.355 884.626C158.035 884.626 154.875 880.826 154.875 876.026ZM163.235 868.266C159.475 868.266 158.395 871.866 158.395 875.346C158.395 878.426 159.475 883.026 163.715 883.026C166.395 883.026 168.315 880.226 168.315 876.386C168.315 871.546 167.475 868.266 163.235 868.266ZM187.955 880.546C186.635 882.586 184.395 884.626 181.915 884.626C177.955 884.626 176.675 881.826 176.675 879.066V874.266C176.675 871.226 176.635 869.346 176.315 867.066L176.395 866.946C176.875 867.026 177.795 867.066 178.275 867.066C178.755 867.066 179.675 867.026 180.155 866.946L180.235 867.066C179.915 869.186 179.875 871.266 179.875 874.266V878.226C179.875 881.946 181.155 882.386 182.555 882.386C184.515 882.386 186.795 880.266 188.035 878.186V874.266C188.035 871.226 187.955 869.386 187.675 867.066L187.755 866.946C188.235 867.026 189.155 867.066 189.635 867.066C190.115 867.066 191.035 867.026 191.515 866.946L191.595 867.066C191.275 869.186 191.235 871.266 191.235 874.266V876.546C191.235 879.546 191.595 882.506 191.915 884.226L191.835 884.346C191.315 884.266 190.555 884.226 190.035 884.226C189.475 884.226 188.995 884.306 188.475 884.346C188.355 884.346 188.315 884.306 188.315 884.226L188.115 880.666L187.955 880.546ZM211.64 870.146L211.72 870.266C214.28 867.266 217.12 866.666 218.64 866.666C222.24 866.666 223.6 868.826 223.6 872.986C223.6 874.266 223.52 875.746 223.52 877.026C223.52 880.066 223.56 881.946 223.88 884.226L223.8 884.346C223.32 884.266 222.4 884.226 221.92 884.226C221.44 884.226 220.52 884.266 220.04 884.346L219.96 884.226C220.28 882.106 220.32 880.026 220.32 877.026V873.106C220.32 869.866 219.48 869.066 217.44 869.066C216 869.066 213.68 869.946 211.64 872.346V877.026C211.64 880.066 211.68 881.946 212 884.226L211.92 884.346C211.44 884.266 210.52 884.226 210.04 884.226C209.56 884.226 208.64 884.266 208.16 884.346L208.08 884.226C208.36 881.986 208.44 880.026 208.44 877.026V864.986C208.44 861.946 208.36 858.946 208.08 857.226L208.16 857.106C209.76 856.986 210.6 856.706 211.64 856.306C211.88 856.306 212 856.426 212 856.706C211.8 859.186 211.64 861.226 211.64 864.186V870.146ZM239.193 875.226L235.793 876.146C232.673 876.986 231.833 878.346 231.833 880.146C231.833 881.386 232.993 882.586 234.793 882.586C235.993 882.586 237.353 881.866 238.473 881.026C238.793 880.786 239.033 880.506 239.033 879.986L239.193 875.226ZM239.193 882.306H239.033C236.913 884.106 235.793 884.626 233.593 884.626C230.633 884.626 228.593 883.266 228.593 880.306C228.593 877.586 231.153 875.426 235.233 874.506L238.953 873.666C239.073 873.626 239.233 873.466 239.233 873.186C239.233 868.666 236.833 868.466 235.393 868.466C233.473 868.466 232.113 870.066 230.993 871.866L230.473 871.826L229.793 869.146L229.913 868.986C230.913 868.146 232.753 866.666 235.793 866.666C238.833 866.666 242.393 867.746 242.393 873.146C242.393 873.586 242.273 878.026 242.273 879.186C242.273 880.986 242.513 881.946 242.913 882.306C243.193 882.546 243.713 882.626 244.113 882.626C244.393 882.626 244.753 882.586 245.193 882.426L245.473 883.386C244.553 884.386 243.313 884.626 242.313 884.626C240.833 884.626 239.633 883.906 239.193 882.306ZM254.131 884.346C251.891 878.506 249.531 872.826 246.851 866.946C247.491 867.066 248.531 867.066 249.171 867.066C249.731 867.066 250.651 867.066 251.171 866.946C252.611 871.546 253.891 876.066 255.891 880.626H255.971C257.811 876.706 259.211 871.506 260.851 866.946C261.211 867.066 261.811 867.066 262.211 867.066C262.611 867.066 263.371 867.066 263.731 866.946C261.131 872.826 258.651 878.506 256.571 884.346C256.211 884.226 255.771 884.226 255.371 884.226C254.971 884.226 254.531 884.226 254.131 884.346ZM269.215 873.306H276.575C276.975 873.306 277.135 873.106 277.135 872.746C277.135 869.746 275.335 868.266 273.775 868.266C272.495 868.266 269.895 869.146 269.215 873.306ZM279.895 880.066L280.695 881.066C279.175 883.146 276.615 884.626 273.735 884.626C271.015 884.626 268.735 883.666 267.375 881.986C266.015 880.386 265.575 878.146 265.575 875.866C265.575 869.986 269.655 866.666 273.775 866.666C279.055 866.666 280.695 870.866 280.695 874.226C280.695 874.666 280.415 874.906 279.975 874.906H269.095C269.095 877.266 269.335 878.866 270.055 879.986C271.135 881.746 273.015 882.266 274.415 882.266C276.615 882.266 278.495 881.586 279.895 880.066ZM300.7 883.066C302.14 883.066 305.94 882.186 305.94 877.346C305.94 875.786 305.42 874.386 304.38 873.506C303.26 872.586 301.74 872.226 300.46 872.226C300.1 872.226 299.26 872.226 298.78 872.306V870.546C299.34 870.626 299.78 870.666 300.26 870.666C301.62 870.666 302.78 870.306 303.58 869.546C304.5 868.666 305.1 867.386 305.1 865.626C305.1 863.026 303.34 861.386 301.78 861.386C299.38 861.386 298.1 862.546 297.14 864.786L296.54 864.746L295.7 862.186L295.82 862.066C296.82 861.186 299.06 859.826 302.14 859.826C306.1 859.826 308.58 862.146 308.58 865.026C308.58 868.346 305.94 870.666 303.86 871.146V871.346C306.94 871.626 309.38 873.866 309.38 877.026C309.38 882.306 304.02 884.626 300.62 884.626C297.42 884.626 295.7 883.586 294.66 882.706L294.54 882.586L295.42 879.586L296.02 879.546C297.1 881.866 297.54 883.066 300.7 883.066ZM329.134 884.386C326.894 878.546 324.414 872.866 321.734 866.986C322.374 867.106 323.414 867.106 324.054 867.106C324.614 867.106 325.534 867.106 326.054 866.986C327.494 871.586 328.814 876.106 330.814 880.666H331.054C332.214 878.186 333.334 875.186 334.374 872.186C333.694 870.346 333.054 868.586 332.534 866.946C333.174 867.066 334.214 867.066 334.854 867.066C335.414 867.066 336.334 867.066 336.854 866.946C337.774 871.186 339.014 876.226 340.654 880.626H340.974C342.654 876.786 344.454 871.666 345.934 866.946C346.294 867.066 346.894 867.066 347.294 867.066C347.694 867.066 348.654 867.066 349.014 866.946C346.734 871.946 343.534 879.626 341.574 884.346C341.214 884.226 340.494 884.226 340.094 884.226C339.694 884.226 339.454 884.226 339.054 884.346C337.894 881.266 336.614 878.026 335.414 874.906C334.134 878.026 332.974 881.346 331.894 884.386C331.534 884.266 330.854 884.266 330.454 884.266C330.054 884.266 329.534 884.266 329.134 884.386ZM354.488 873.306H361.848C362.248 873.306 362.408 873.106 362.408 872.746C362.408 869.746 360.608 868.266 359.048 868.266C357.768 868.266 355.168 869.146 354.488 873.306ZM365.168 880.066L365.968 881.066C364.448 883.146 361.888 884.626 359.008 884.626C356.288 884.626 354.008 883.666 352.648 881.986C351.288 880.386 350.848 878.146 350.848 875.866C350.848 869.986 354.928 866.666 359.048 866.666C364.328 866.666 365.968 870.866 365.968 874.226C365.968 874.666 365.688 874.906 365.248 874.906H354.368C354.368 877.266 354.608 878.866 355.328 879.986C356.408 881.746 358.288 882.266 359.688 882.266C361.888 882.266 363.768 881.586 365.168 880.066ZM372.887 873.306H380.247C380.647 873.306 380.807 873.106 380.807 872.746C380.807 869.746 379.007 868.266 377.447 868.266C376.167 868.266 373.567 869.146 372.887 873.306ZM383.567 880.066L384.367 881.066C382.847 883.146 380.287 884.626 377.407 884.626C374.687 884.626 372.407 883.666 371.047 881.986C369.687 880.386 369.247 878.146 369.247 875.866C369.247 869.986 373.327 866.666 377.447 866.666C382.727 866.666 384.367 870.866 384.367 874.226C384.367 874.666 384.087 874.906 383.647 874.906H372.767C372.767 877.266 373.007 878.866 373.727 879.986C374.807 881.746 376.687 882.266 378.087 882.266C380.287 882.266 382.167 881.586 383.567 880.066ZM389.612 876.226V864.946C389.612 861.906 389.532 858.946 389.252 857.226L389.332 857.106C390.932 856.986 391.772 856.706 392.812 856.306C393.052 856.306 393.172 856.426 393.172 856.706C392.972 859.266 392.812 861.226 392.812 864.226V874.626C393.332 874.586 394.052 874.426 394.572 874.026C396.132 872.826 399.132 869.586 400.892 867.066C401.972 867.066 404.172 867.066 404.932 866.946L405.012 867.066C402.412 869.306 398.492 873.106 396.932 874.706C400.732 879.346 402.852 881.106 405.852 884.226L405.772 884.346C405.412 884.306 404.012 884.226 403.372 884.226C402.692 884.226 401.332 884.306 400.732 884.346C398.012 880.426 397.052 878.986 394.452 876.266C394.092 875.986 393.132 875.866 392.812 875.826V876.226C392.812 879.266 392.852 881.946 393.172 884.226L393.092 884.346C392.612 884.266 391.692 884.226 391.212 884.226C390.732 884.226 389.812 884.266 389.332 884.346L389.252 884.226C389.532 882.106 389.612 879.226 389.612 876.226ZM408.129 880.186L408.729 880.146C409.849 881.706 411.529 883.026 413.449 883.026C415.569 883.026 417.129 881.826 417.129 879.706C417.129 877.746 415.409 877.106 413.089 876.466C410.649 875.826 408.289 874.746 408.289 871.546C408.289 868.226 411.369 866.666 414.329 866.666C416.369 866.666 418.569 867.266 419.729 867.866L419.809 867.986L419.009 870.946L418.449 870.986C417.529 869.906 416.249 868.266 414.169 868.266C412.449 868.266 411.129 869.146 411.129 870.786C411.129 872.786 413.329 873.546 414.849 873.906C417.689 874.586 420.289 875.866 420.289 879.146C420.289 881.346 419.009 884.626 413.489 884.626C411.969 884.626 409.729 884.346 407.449 883.546L408.129 880.186ZM435.788 867.066C435.788 864.746 435.868 863.346 435.948 861.946L436.028 861.826C437.308 861.666 437.788 861.226 438.828 860.826C439.068 860.826 439.188 860.946 439.188 861.226C438.988 863.546 438.988 864.106 438.988 867.066H440.868C441.788 867.066 442.948 867.026 443.668 866.986L443.868 867.266C443.628 867.866 443.508 868.266 443.388 868.906C442.828 868.866 441.468 868.826 440.508 868.826H438.988V873.866C438.988 876.266 438.868 877.986 438.868 879.186C438.868 881.386 439.228 882.346 440.188 882.466C441.188 882.626 442.108 882.586 443.308 882.186L443.828 883.146C442.148 884.226 440.868 884.626 439.188 884.626C437.348 884.626 435.668 883.386 435.668 880.786C435.668 879.586 435.788 876.706 435.788 874.306V868.826C434.868 868.866 433.628 868.866 432.948 868.906L432.748 868.626C433.108 868.026 433.348 867.666 433.628 866.986C434.108 867.066 434.948 867.066 435.788 867.066ZM447.102 876.026C447.102 870.346 450.502 866.666 455.742 866.666C461.142 866.666 464.062 870.226 464.062 875.666C464.062 880.906 460.862 884.626 455.582 884.626C450.262 884.626 447.102 880.826 447.102 876.026ZM455.462 868.266C451.702 868.266 450.622 871.866 450.622 875.346C450.622 878.426 451.702 883.026 455.942 883.026C458.622 883.026 460.542 880.226 460.542 876.386C460.542 871.546 459.702 868.266 455.462 868.266ZM485.582 868.266C482.942 868.266 480.622 870.906 480.622 875.306C480.622 879.986 482.902 882.626 485.822 882.626C487.302 882.626 488.582 882.306 490.102 880.946H490.262L491.022 881.786C489.422 883.826 487.542 884.626 485.142 884.626C480.262 884.626 477.102 881.106 477.102 875.506C477.102 870.066 481.462 866.666 485.622 866.666C487.622 866.666 489.702 867.146 490.942 867.786L491.022 867.906L490.102 871.186L489.582 871.226C488.502 869.426 487.102 868.266 485.582 868.266ZM494.25 876.026C494.25 870.346 497.65 866.666 502.89 866.666C508.29 866.666 511.21 870.226 511.21 875.666C511.21 880.906 508.01 884.626 502.73 884.626C497.41 884.626 494.25 880.826 494.25 876.026ZM502.61 868.266C498.85 868.266 497.77 871.866 497.77 875.346C497.77 878.426 498.85 883.026 503.09 883.026C505.77 883.026 507.69 880.226 507.69 876.386C507.69 871.546 506.85 868.266 502.61 868.266ZM519.21 870.146L519.33 870.266C521.21 868.266 523.57 866.666 526.05 866.666C528.29 866.666 529.93 867.906 530.29 869.826C532.57 867.426 534.89 866.666 537.05 866.666C541.37 866.666 542.01 869.466 542.01 873.026V877.026C542.01 880.066 542.05 881.946 542.37 884.226L542.29 884.346C541.81 884.266 540.89 884.226 540.41 884.226C539.93 884.226 539.01 884.266 538.53 884.346L538.45 884.226C538.77 882.066 538.81 880.026 538.81 877.026V872.626C538.81 869.946 537.77 869.066 535.61 869.066C534.05 869.066 532.45 869.346 530.53 871.466C530.57 871.946 530.57 872.426 530.57 872.986V877.026C530.57 880.066 530.61 881.946 530.93 884.226L530.85 884.346C530.37 884.266 529.45 884.226 528.97 884.226C528.49 884.226 527.57 884.266 527.09 884.346L527.01 884.226C527.33 882.066 527.37 880.026 527.37 877.026V872.626C527.37 869.946 526.25 869.066 524.73 869.066C523.33 869.066 521.09 870.266 519.21 872.186V877.026C519.21 880.066 519.25 881.946 519.57 884.226L519.49 884.346C519.01 884.266 518.09 884.226 517.61 884.226C517.13 884.226 516.21 884.266 515.73 884.346L515.65 884.226C515.97 882.066 516.01 880.026 516.01 877.026V874.826C516.01 871.826 515.93 868.826 515.65 867.066L515.73 866.946C516.61 867.066 518.05 867.026 518.97 866.826C519.13 866.826 519.21 866.946 519.21 867.226V870.146ZM551.476 872.466V881.226C552.876 882.866 554.556 883.026 555.196 883.026C559.476 883.026 560.396 878.786 560.396 875.506C560.396 870.986 558.996 868.506 556.276 868.506C554.716 868.506 552.356 870.346 551.476 872.466ZM551.476 870.146L551.556 870.266C553.396 867.466 555.396 866.666 556.956 866.666C561.436 866.666 563.916 870.746 563.916 874.986C563.916 880.626 560.716 884.626 555.436 884.626C553.996 884.626 552.516 884.306 551.476 883.746V885.506C551.476 888.546 551.516 891.226 551.836 893.506L551.756 893.626C551.276 893.546 550.356 893.506 549.876 893.506C549.396 893.506 548.476 893.546 547.996 893.626L547.916 893.506C548.196 891.386 548.276 888.506 548.276 885.506V874.826C548.276 871.826 548.196 868.826 547.916 867.066L547.996 866.946C548.876 867.066 550.316 867.026 551.236 866.826C551.396 866.826 551.476 866.946 551.476 867.226V870.146ZM569.534 876.226V864.946C569.534 861.906 569.454 858.946 569.174 857.226L569.254 857.106C570.854 856.986 571.694 856.706 572.734 856.306C572.974 856.306 573.094 856.426 573.094 856.706C572.894 859.266 572.734 861.226 572.734 864.226V876.226C572.734 879.266 572.774 881.946 573.094 884.226L573.014 884.346C572.534 884.266 571.614 884.226 571.134 884.226C570.654 884.226 569.734 884.266 569.254 884.346L569.174 884.226C569.454 882.106 569.534 879.226 569.534 876.226ZM581.012 873.306H588.372C588.772 873.306 588.932 873.106 588.932 872.746C588.932 869.746 587.132 868.266 585.572 868.266C584.292 868.266 581.692 869.146 581.012 873.306ZM591.692 880.066L592.492 881.066C590.972 883.146 588.412 884.626 585.532 884.626C582.812 884.626 580.532 883.666 579.172 881.986C577.812 880.386 577.372 878.146 577.372 875.866C577.372 869.986 581.452 866.666 585.572 866.666C590.852 866.666 592.492 870.866 592.492 874.226C592.492 874.666 592.212 874.906 591.772 874.906H580.892C580.892 877.266 581.132 878.866 581.852 879.986C582.932 881.746 584.812 882.266 586.212 882.266C588.412 882.266 590.292 881.586 591.692 880.066ZM597.937 867.066C597.937 864.746 598.017 863.346 598.097 861.946L598.177 861.826C599.457 861.666 599.937 861.226 600.977 860.826C601.217 860.826 601.337 860.946 601.337 861.226C601.137 863.546 601.137 864.106 601.137 867.066H603.017C603.937 867.066 605.097 867.026 605.817 866.986L606.017 867.266C605.777 867.866 605.657 868.266 605.537 868.906C604.977 868.866 603.617 868.826 602.657 868.826H601.137V873.866C601.137 876.266 601.017 877.986 601.017 879.186C601.017 881.386 601.377 882.346 602.337 882.466C603.337 882.626 604.257 882.586 605.457 882.186L605.977 883.146C604.297 884.226 603.017 884.626 601.337 884.626C599.497 884.626 597.817 883.386 597.817 880.786C597.817 879.586 597.937 876.706 597.937 874.306V868.826C597.017 868.866 595.777 868.866 595.097 868.906L594.897 868.626C595.257 868.026 595.497 867.666 595.777 866.986C596.257 867.066 597.097 867.066 597.937 867.066ZM612.73 873.306H620.09C620.49 873.306 620.65 873.106 620.65 872.746C620.65 869.746 618.85 868.266 617.29 868.266C616.01 868.266 613.41 869.146 612.73 873.306ZM623.41 880.066L624.21 881.066C622.69 883.146 620.13 884.626 617.25 884.626C614.53 884.626 612.25 883.666 610.89 881.986C609.53 880.386 609.09 878.146 609.09 875.866C609.09 869.986 613.17 866.666 617.29 866.666C622.57 866.666 624.21 870.866 624.21 874.226C624.21 874.666 623.93 874.906 623.49 874.906H612.61C612.61 877.266 612.85 878.866 613.57 879.986C614.65 881.746 616.53 882.266 617.93 882.266C620.13 882.266 622.01 881.586 623.41 880.066ZM639.055 860.346C639.055 859.266 640.015 858.306 641.095 858.306C642.175 858.306 643.135 859.266 643.135 860.346C643.135 861.426 642.175 862.386 641.095 862.386C640.015 862.386 639.055 861.426 639.055 860.346ZM639.455 874.826C639.455 871.826 639.335 868.786 639.095 867.066L639.175 866.946C640.015 867.026 641.735 867.026 642.655 866.906C642.935 866.906 643.015 866.946 643.015 867.306C642.735 869.746 642.655 871.186 642.655 874.186V877.026C642.655 880.066 642.695 881.986 643.015 884.226L642.935 884.346C642.455 884.266 641.535 884.226 641.055 884.226C640.575 884.226 639.655 884.266 639.175 884.346L639.095 884.226C639.375 882.066 639.455 880.026 639.455 877.026V874.826ZM650.046 867.066C650.046 864.746 650.126 863.346 650.206 861.946L650.286 861.826C651.566 861.666 652.046 861.226 653.086 860.826C653.326 860.826 653.446 860.946 653.446 861.226C653.246 863.546 653.246 864.106 653.246 867.066H655.126C656.046 867.066 657.206 867.026 657.926 866.986L658.126 867.266C657.886 867.866 657.766 868.266 657.646 868.906C657.086 868.866 655.726 868.826 654.766 868.826H653.246V873.866C653.246 876.266 653.126 877.986 653.126 879.186C653.126 881.386 653.486 882.346 654.446 882.466C655.446 882.626 656.366 882.586 657.566 882.186L658.086 883.146C656.406 884.226 655.126 884.626 653.446 884.626C651.606 884.626 649.926 883.386 649.926 880.786C649.926 879.586 650.046 876.706 650.046 874.306V868.826C649.126 868.866 647.886 868.866 647.206 868.906L647.006 868.626C647.366 868.026 647.606 867.666 647.886 866.986C648.366 867.066 649.206 867.066 650.046 867.066Z" fill="black"/>
<path id="Both_said_yes_" d="M141.034 981.866V989.386H144.154C147.474 989.386 149.754 988.386 149.754 984.986C149.754 980.906 146.914 980.026 144.674 980.026C141.434 980.026 141.034 980.546 141.034 981.866ZM141.034 991.106V1000.71C141.034 1002.03 142.114 1002.63 144.914 1002.63C150.674 1002.63 151.634 1000.43 151.634 997.626C151.634 994.026 149.434 991.106 144.754 991.106H141.034ZM139.314 978.426C141.314 978.426 142.994 978.306 144.394 978.306C151.834 978.306 153.234 981.826 153.234 984.506C153.234 986.706 151.554 988.826 149.514 989.826C152.994 990.826 155.594 993.026 155.594 996.866C155.594 1000.31 153.634 1004.35 145.674 1004.35C142.114 1004.35 141.794 1004.23 139.314 1004.23C137.914 1004.23 137.234 1004.35 137.234 1004.35L137.194 1004.23C137.514 1002.07 137.594 999.226 137.594 996.226V986.426C137.594 983.426 137.514 980.706 137.194 978.426L137.274 978.306C137.274 978.306 137.954 978.426 139.314 978.426ZM159.602 996.026C159.602 990.346 163.002 986.666 168.242 986.666C173.642 986.666 176.562 990.226 176.562 995.666C176.562 1000.91 173.362 1004.63 168.082 1004.63C162.762 1004.63 159.602 1000.83 159.602 996.026ZM167.962 988.266C164.202 988.266 163.122 991.866 163.122 995.346C163.122 998.426 164.202 1003.03 168.442 1003.03C171.122 1003.03 173.042 1000.23 173.042 996.386C173.042 991.546 172.202 988.266 167.962 988.266ZM181.882 987.066C181.882 984.746 181.962 983.346 182.042 981.946L182.122 981.826C183.402 981.666 183.882 981.226 184.922 980.826C185.162 980.826 185.282 980.946 185.282 981.226C185.082 983.546 185.082 984.106 185.082 987.066H186.962C187.882 987.066 189.042 987.026 189.762 986.986L189.962 987.266C189.722 987.866 189.602 988.266 189.482 988.906C188.922 988.866 187.562 988.826 186.602 988.826H185.082V993.866C185.082 996.266 184.962 997.986 184.962 999.186C184.962 1001.39 185.322 1002.35 186.282 1002.47C187.282 1002.63 188.202 1002.59 189.402 1002.19L189.922 1003.15C188.242 1004.23 186.962 1004.63 185.282 1004.63C183.442 1004.63 181.762 1003.39 181.762 1000.79C181.762 999.586 181.882 996.706 181.882 994.306V988.826C180.962 988.866 179.722 988.866 179.042 988.906L178.842 988.626C179.202 988.026 179.442 987.666 179.722 986.986C180.202 987.066 181.042 987.066 181.882 987.066ZM198.476 990.146L198.556 990.266C201.116 987.266 203.956 986.666 205.476 986.666C209.076 986.666 210.436 988.826 210.436 992.986C210.436 994.266 210.356 995.746 210.356 997.026C210.356 1000.07 210.396 1001.95 210.716 1004.23L210.636 1004.35C210.156 1004.27 209.236 1004.23 208.756 1004.23C208.276 1004.23 207.356 1004.27 206.876 1004.35L206.796 1004.23C207.116 1002.11 207.156 1000.03 207.156 997.026V993.106C207.156 989.866 206.316 989.066 204.276 989.066C202.836 989.066 200.516 989.946 198.476 992.346V997.026C198.476 1000.07 198.516 1001.95 198.836 1004.23L198.756 1004.35C198.276 1004.27 197.356 1004.23 196.876 1004.23C196.396 1004.23 195.476 1004.27 194.996 1004.35L194.916 1004.23C195.196 1001.99 195.276 1000.03 195.276 997.026V984.986C195.276 981.946 195.196 978.946 194.916 977.226L194.996 977.106C196.596 976.986 197.436 976.706 198.476 976.306C198.716 976.306 198.836 976.426 198.836 976.706C198.636 979.186 198.476 981.226 198.476 984.186V990.146ZM225.629 1000.19L226.229 1000.15C227.349 1001.71 229.029 1003.03 230.949 1003.03C233.069 1003.03 234.629 1001.83 234.629 999.706C234.629 997.746 232.909 997.106 230.589 996.466C228.149 995.826 225.789 994.746 225.789 991.546C225.789 988.226 228.869 986.666 231.829 986.666C233.869 986.666 236.069 987.266 237.229 987.866L237.309 987.986L236.509 990.946L235.949 990.986C235.029 989.906 233.749 988.266 231.669 988.266C229.949 988.266 228.629 989.146 228.629 990.786C228.629 992.786 230.829 993.546 232.349 993.906C235.189 994.586 237.789 995.866 237.789 999.146C237.789 1001.35 236.509 1004.63 230.989 1004.63C229.469 1004.63 227.229 1004.35 224.949 1003.55L225.629 1000.19ZM251.888 995.226L248.488 996.146C245.368 996.986 244.528 998.346 244.528 1000.15C244.528 1001.39 245.688 1002.59 247.488 1002.59C248.688 1002.59 250.048 1001.87 251.168 1001.03C251.488 1000.79 251.728 1000.51 251.728 999.986L251.888 995.226ZM251.888 1002.31H251.728C249.608 1004.11 248.488 1004.63 246.288 1004.63C243.328 1004.63 241.288 1003.27 241.288 1000.31C241.288 997.586 243.848 995.426 247.928 994.506L251.648 993.666C251.768 993.626 251.928 993.466 251.928 993.186C251.928 988.666 249.528 988.466 248.088 988.466C246.168 988.466 244.808 990.066 243.688 991.866L243.168 991.826L242.488 989.146L242.608 988.986C243.608 988.146 245.448 986.666 248.488 986.666C251.528 986.666 255.088 987.746 255.088 993.146C255.088 993.586 254.968 998.026 254.968 999.186C254.968 1000.99 255.208 1001.95 255.608 1002.31C255.888 1002.55 256.408 1002.63 256.808 1002.63C257.088 1002.63 257.448 1002.59 257.888 1002.43L258.168 1003.39C257.248 1004.39 256.008 1004.63 255.008 1004.63C253.528 1004.63 252.328 1003.91 251.888 1002.31ZM261.946 980.346C261.946 979.266 262.906 978.306 263.986 978.306C265.066 978.306 266.026 979.266 266.026 980.346C266.026 981.426 265.066 982.386 263.986 982.386C262.906 982.386 261.946 981.426 261.946 980.346ZM262.346 994.826C262.346 991.826 262.226 988.786 261.986 987.066L262.066 986.946C262.906 987.026 264.626 987.026 265.546 986.906C265.826 986.906 265.906 986.946 265.906 987.306C265.626 989.746 265.546 991.186 265.546 994.186V997.026C265.546 1000.07 265.586 1001.99 265.906 1004.23L265.826 1004.35C265.346 1004.27 264.426 1004.23 263.946 1004.23C263.466 1004.23 262.546 1004.27 262.066 1004.35L261.986 1004.23C262.266 1002.07 262.346 1000.03 262.346 997.026V994.826ZM283.577 999.706V990.586C282.617 989.066 281.657 988.266 279.777 988.266C277.817 988.266 274.657 989.386 274.657 995.386C274.657 1000.39 276.497 1002.55 278.657 1002.55C280.257 1002.55 282.097 1001.59 283.577 999.706ZM283.577 1001.91C282.137 1003.79 280.337 1004.63 278.417 1004.63C274.097 1004.63 271.177 1000.63 271.177 995.706C271.177 990.266 274.977 986.666 280.217 986.666C281.017 986.666 282.657 987.026 283.577 987.546V984.946C283.577 981.906 283.497 978.946 283.217 977.226L283.297 977.106C284.897 976.986 285.737 976.706 286.777 976.306C287.017 976.306 287.137 976.426 287.137 976.706C286.937 979.186 286.777 981.266 286.777 984.226V996.546C286.777 999.546 287.137 1002.51 287.457 1004.23L287.377 1004.35C286.857 1004.27 286.097 1004.23 285.577 1004.23C285.017 1004.23 284.737 1004.31 284.217 1004.35C283.977 1004.35 283.857 1004.31 283.857 1004.23L283.657 1001.91H283.577ZM301.468 986.946C302.028 987.066 303.028 987.066 303.548 987.066C304.108 987.066 304.988 987.066 305.508 986.946C306.988 991.546 308.868 995.986 310.828 1000.75H310.908C312.868 996.586 314.748 991.466 316.188 986.946C316.588 987.066 317.348 987.066 317.748 987.066C318.148 987.066 319.068 987.066 319.468 986.946C318.148 989.626 309.388 1008.71 307.868 1013.71C307.468 1013.59 306.308 1013.51 305.908 1013.51C305.508 1013.51 304.908 1013.59 304.508 1013.71C306.308 1010.71 307.948 1007.63 309.228 1004.63C307.788 1000.83 303.028 990.506 301.468 986.946ZM325.27 993.306H332.63C333.03 993.306 333.19 993.106 333.19 992.746C333.19 989.746 331.39 988.266 329.83 988.266C328.55 988.266 325.95 989.146 325.27 993.306ZM335.95 1000.07L336.75 1001.07C335.23 1003.15 332.67 1004.63 329.79 1004.63C327.07 1004.63 324.79 1003.67 323.43 1001.99C322.07 1000.39 321.63 998.146 321.63 995.866C321.63 989.986 325.71 986.666 329.83 986.666C335.11 986.666 336.75 990.866 336.75 994.226C336.75 994.666 336.47 994.906 336.03 994.906H325.15C325.15 997.266 325.39 998.866 326.11 999.986C327.19 1001.75 329.07 1002.27 330.47 1002.27C332.67 1002.27 334.55 1001.59 335.95 1000.07ZM340.395 1000.19L340.995 1000.15C342.115 1001.71 343.795 1003.03 345.715 1003.03C347.835 1003.03 349.395 1001.83 349.395 999.706C349.395 997.746 347.675 997.106 345.355 996.466C342.915 995.826 340.555 994.746 340.555 991.546C340.555 988.226 343.635 986.666 346.595 986.666C348.635 986.666 350.835 987.266 351.995 987.866L352.075 987.986L351.275 990.946L350.715 990.986C349.795 989.906 348.515 988.266 346.435 988.266C344.715 988.266 343.395 989.146 343.395 990.786C343.395 992.786 345.595 993.546 347.115 993.906C349.955 994.586 352.555 995.866 352.555 999.146C352.555 1001.35 351.275 1004.63 345.755 1004.63C344.235 1004.63 341.995 1004.35 339.715 1003.55L340.395 1000.19ZM356.414 1002.47V1002.31C356.774 1001.27 357.334 1000.67 358.574 1000.15H358.734C359.894 1000.59 360.494 1001.19 360.894 1002.31V1002.47C360.454 1003.79 359.854 1004.35 358.734 1004.63H358.574C357.294 1004.35 356.734 1003.83 356.414 1002.47Z" fill="black"/>
</g>
</svg>
