<?xml version="1.0" encoding="UTF-8" standalone="no"?>
<svg
   width="277"
   height="239.79288"
   viewBox="0 0 277 239.79288"
   version="1.1"
   id="svg58"
   sodipodi:docname="games.svg"
   inkscape:version="1.2.2 (b0a84865, 2022-12-01)"
   xmlns:inkscape="http://www.inkscape.org/namespaces/inkscape"
   xmlns:sodipodi="http://sodipodi.sourceforge.net/DTD/sodipodi-0.dtd"
   xmlns:xlink="http://www.w3.org/1999/xlink"
   xmlns="http://www.w3.org/2000/svg"
   xmlns:svg="http://www.w3.org/2000/svg">
  <sodipodi:namedview
     id="namedview60"
     pagecolor="#ffffff"
     bordercolor="#000000"
     borderopacity="0.25"
     inkscape:showpageshadow="2"
     inkscape:pageopacity="0.0"
     inkscape:pagecheckerboard="0"
     inkscape:deskcolor="#d1d1d1"
     showgrid="false"
     inkscape:zoom="1.246"
     inkscape:cx="292.9374"
     inkscape:cy="111.95827"
     inkscape:window-width="1390"
     inkscape:window-height="1205"
     inkscape:window-x="0"
     inkscape:window-y="25"
     inkscape:window-maximized="0"
     inkscape:current-layer="svg58" />
  <title
     id="title2">cex</title>
  <defs
     id="defs7">
    <polyline
       id="path-1"
       points="0.018 21.586 15.018 21.586 15.018 0.586 0.018 0.586" />
    <polyline
       id="path-3"
       points="0.45 27.172 13.45 27.172 13.45 0.172 0.45 0.172" />
    <polyline
       id="path-5"
       points="0.155672 21.586 21.155672 21.586 21.155672 0.586 0.155672 0.586" />
  </defs>
  <g
     id="cex"
     stroke="none"
     stroke-width="1"
     fill="none"
     fill-rule="evenodd"
     transform="translate(-328,-26.788026)">
    <circle
       id="Oval"
       fill-opacity="0.25"
       fill="#4a90e2"
       cx="348"
       cy="155"
       r="20" />
    <circle
       id="Oval-Copy"
       fill-opacity="0.25"
       fill="#d0021b"
       cx="585"
       cy="65"
       r="20" />
    <circle
       id="Oval-Copy-2"
       fill-opacity="0.25"
       fill="#d0021b"
       cx="585"
       cy="227"
       r="20" />
    <g
       id="Group-7"
       transform="translate(340,144)">
      <path
         d="m 7.5,11.5 c 6.1e-5,-1.08e-4 9.7e-5,-1.16e-4 1.01e-4,-1.2e-4 4e-6,4e-6 -6.9e-5,5e-6 3e-6,2.3e-5 -5.5e-5,2e-6 -6e-6,0 1.1e-5,-4e-6 -5.4e-5,4e-5 -5.4e-5,6.7e-5 -5.4e-5,4e-5 5.9e-5,-1.9e-5 4.2e-5,-2.4e-5 4.8e-5,0 -4.8e-5,0 -5.8e-5,-5e-5 -9e-6,-4.8e-5 -3.9e-5,4.8e-5 2e-6,4.8e-5 -2.5e-5,-6e-6 -2.7e-5,10e-7 2e-6,2.5e-5 3.9e-5,5.4e-5 -7e-6,0 -8e-5,0 -5.3e-5,0 0,0 -1.3e-5,0 4.4e-5,-3.8e-5 -5e-6,1.3e-5 -4.4e-5,2.1e-5 -8e-6,3.8e-5 1.9e-5,0 -3.6e-5,0 -4.7e-5,-5.3e-5 3.8e-5,5.3e-5 6e-5,5.3e-5 5.8e-5,1.6e-5 -2.4e-5,2.6e-5 -2e-5,-9e-6 -2.6e-5,2e-5 2.9e-5,4e-6 1.7e-5,-1.9e-5 -7e-6,-3e-6 3.3e-5,2e-6 1e-6,-2.2e-5 -1.4e-5,2e-5 0,1.8e-5 -1.3e-5,-5.9e-5 4.2e-5,-2.3e-5 0,10e-6 -1.6e-5,2.3e-5 -2.8e-5,7e-6 1.1e-5,-3.2e-5 3e-6,1.6e-5 -1.4e-5,-1.1e-5 0,1.5e-5 -10e-6,2e-6 0,-10e-6 2.1e-5,5.1e-5 4.3e-5,1.5e-5 4e-5,-7e-6 1.6e-5,4.4e-5 1.5e-5,3e-6 -5.8e-5,-4e-6 5.9e-5,4.8e-5 4.1e-5,6.2e-5 6.9e-5,4e-6 6e-6,3.3e-5 -9e-6,8e-6 -8e-6,-1.1e-5 -4.3e-5,1.2e-5 -1.4e-5,7e-6 -5.3e-5,5.5e-5 7e-5,-3.7e-5 5.1e-5,-3.7e-5 2.8e-5,-5.7e-5 3.4e-5,4.3e-5 3e-6,-10e-7 -1.8e-5,4.1e-5 4e-5,3e-5 4e-5,1.6e-5 0,1.6e-5 -1.8e-5,-5.8e-5 0,-4e-5 1.9e-5,-5.5e-5 3.2e-5,5.5e-5 -8e-6,5.5e-5 -1.9e-5,5.5e-5 -1.8e-5,-5.6e-5 6.1e-5,0 4.4e-5,0 -5.5e-5,-5.5e-5 3e-6,0 -3e-6,-1.8e-5 -5.3e-5,5e-6 -4e-6,-2.7e-5 3e-6,1.8e-5 1.1e-5,-5.1e-5 -4.4e-5,-1.1e-5 2e-6,0 -4.6e-5,-5.2e-5 -1.9e-5,-2e-5 -2.8e-5,0 -5e-6,0 -1.8e-5,-5.4e-5 -1.8e-5,-5.3e-5 4.4e-5,5.3e-5 0,3.9e-5 4.4e-5,2.7e-5 -3e-6,2.6e-5 -5.8e-5,1.5e-5 -5.6e-5,-1.1e-5 3.1e-5,5.1e-5 6.8e-5,3.7e-5 0,-5e-6 6e-5,-3e-6 3.5e-5,5.3e-5 5.5e-5,2.1e-5 -1.5e-5,-1.5e-5 -4.3e-5,-2.1e-5 9e-6,-3.3e-5 -2.7e-5,5.4e-5 -1.4e-5,5.4e-5 -5.2e-5,3.5e-5 1.1e-5,-1.8e-5 5.6e-5,4e-6 6.1e-5,-8e-6 -6.1e-5,2.7e-5 -7.2e-5,2.7e-5 -7.1e-5,-2.9e-5 10e-6,1.8e-5 5.1e-5,5.6e-5 10e-6,3.9e-5 0,-2.9e-5 0,-2.1e-5 2.2e-5,-3.6e-5 -2.2e-5,3.8e-5 -5e-6,6.5e-5 -1.1e-5,5.3e-5 -2.3e-5,-5.4e-5 -1.1e-5,-2.7e-5 -1.1e-5,-4.7e-5 5.1e-5,7e-6 0,5.9e-5 2e-5,1e-6 -3.2e-5,8e-6 2.2e-5,-3e-6 -1e-6,10e-7 -6e-6,3.1e-5 -1.9e-5,-5e-6 1.8e-5,4.5e-5 -3.7e-5,-2.2e-5 -3.7e-5,0 -2.3e-5,-2.7e-5 1.4e-5,2e-6 1.4e-5,2.7e-5 3.9e-5,1.5e-5 -5.3e-5,-7e-6 -2.5e-5,-1.6e-5 -2e-6,-3.3e-5 -2e-6,5.6e-5 0,2.5e-5 -5.1e-5,2.6e-5 1.3e-5,-2.9e-5 5.1e-5,-8e-6 2e-5,-10e-6 1.7e-5,2e-6 3.6e-5,-1.7e-5 2.5e-5,2.9e-5 -8e-6,-10e-6 -6.3e-5,-5.2e-5 -2.9e-5,-5.1e-5 10e-6,-1e-6 -1.6e-5,5.1e-5 -1.6e-5,3.1e-5 -1.3e-5,-3e-5 0,-3.9e-5 3.6e-5,-3.2e-5 -3.6e-5,3.9e-5 -4.9e-5,3.8e-5 0,3.4e-5 1e-6,3.6e-5 1.7e-5,-3.5e-5 -9e-6,-2.4e-5 -4.1e-5,5.3e-5 2.6e-5,-3e-6 2.1e-5,-2e-6 -2e-5,3.3e-5 -8e-6,2.2e-5 -3.1e-5,5.7e-5 8e-6,-3.4e-5 0,-6.5e-5 2.4e-5,-7e-5 -5.1e-5,3.7e-5 10e-6,4.4e-5 -1.3e-5,3.6e-5 2e-5,-1.5e-5 1.5e-5,-1.8e-5 -10e-6,-3.9e-5 3.4e-5,6e-5 3e-6,3.6e-5 -1.8e-5,0 0,3.9e-5 1.9e-5,1.8e-5 2.5e-5,1.1e-5 1.9e-5,-6e-6 -2.5e-5,2e-5 -4.3e-5,4.9e-5 1.8e-5,-2.4e-5 1.8e-5,1.8e-5 5.6e-5,-6.1e-5 1.4e-5,4e-6 -2.4e-5,4.5e-5 -3.8e-5,6e-6 3.6e-5,3.2e-5 4.8e-5,1.6e-5 2.5e-5,3.4e-5 2.5e-5,-3e-5 -2.5e-5,-3.6e-5 -5e-6,-3.2e-5 -2e-5,8e-6 3.7e-5,1.1e-5 -3.1e-5,6e-6 1.1e-5,-1.3e-5 1.1e-5,-8e-6 5e-5,2.6e-5 0,-8e-6 -2.4e-5,-2.5e-5 -1.6e-5,-1.6e-5 3.2e-5,-1.3e-5 -9e-6,-2.3e-5 2.6e-5,-1e-6 8e-6,-9e-6 -6.2e-5,-5e-6 8e-6,2.4e-5 -3.4e-5,-5e-6 -7e-6,-3.8e-5 -3.4e-5,-1.5e-5 -2.3e-5,9e-6 -2.3e-5,2e-6 1.7e-5,6e-6 -2.3e-5,2.3e-5 1e-5,2.3e-5 -4e-5,-3.1e-5 2.8e-5,1.1e-5 4.7e-5,6.5e-5 5.1e-5,3e-6 -3.3e-5,2.3e-5 -2.4e-5,5.1e-5 -6.1e-5,6e-6 6.1e-5,2.4e-5 -8e-6,-7e-6 3.8e-5,3.3e-5 -2.8e-5,-3e-5 -3.8e-5,-10e-6 -2e-6,-4.5e-5 -9e-6,5.7e-5 3.4e-5,9e-6 -3.9e-5,1.4e-5 3.3e-5,1e-6 2.9e-5,4.3e-5 -10e-7,2.6e-5 3e-6,-3.4e-5 4.2e-5,-7e-6 6.9e-5,-1.9e-5 -1e-6,-1.9e-5 -4e-6,-1.6e-5 -2.9e-5,1.5e-5 -2.6e-5,-2.7e-5 3.5e-5,-3.1e-5 3.1e-5,-1.9e-5 -3.1e-5,-8e-6 2e-6,2.4e-5 -3.8e-5,2.4e-5 3.1e-5,-3.4e-5 4e-6,10e-7 -1.9e-5,1.6e-5 0,-4.3e-5 4.8e-5,-3.6e-5 3.9e-5,0 1.8e-5,1.1e-5 -3.9e-5,-1.6e-5 6e-6,-4e-5 -4.5e-5,2.2e-5 -2.2e-5,-9e-6 -7e-6,3e-5 2.2e-5,-1.7e-5 -3.8e-5,-10e-6 -2.7e-5,-8e-6 -2.5e-5,3e-5 -2.4e-5,-4e-5 -1.1e-5,-3.5e-5 0,-8e-6 4.1e-5,2.5e-5 3.6e-5,6.7e-5 0,-2.4e-5 2.1e-5,-4e-5 -1.2e-5,-2.7e-5 -3.5e-5,2.4e-5 1.4e-5,-3.8e-5 -4.2e-5,1.3e-5 6.2e-5,-1.8e-5 7e-6,-1.2e-5 6.1e-5,-5.9e-5 0,3e-6 1.5e-5,2.2e-5 -6.1e-5,5.9e-5 1.8e-5,1.8e-5 1.8e-5,-5.2e-5 3.6e-5,-4.2e-5 -1.8e-5,5e-6 -1.8e-5,4.2e-5 9e-6,4.2e-5 -2.7e-5,-3.7e-5 1.5e-5,0 -2.7e-5,-3.6e-5 0,3.6e-5 5.1e-5,4.8e-5 1.2e-5,-2.1e-5 3.3e-5,7.5e-5 -1.2e-5,5.7e-5 7e-6,5.7e-5 -1.9e-5,-1.1e-5 5e-6,0 -1.9e-5,1.4e-5 4.7e-5,-5e-5 5.5e-5,-5.4e-5 5.9e-5,-5.8e-5 C 7.500116,11.499939 7.5,11.5 7.5,11.5 Z"
         id="Stroke-1"
         stroke-opacity="0"
         stroke="#000000" />
      <g
         id="Group-6">
        <polygon
           id="Stroke-2"
           stroke-opacity="0"
           stroke="#000000"
           stroke-width="1e-05"
           points="7.518,11.086 7.518,11.086 7.518,11.086 7.518,11.086 7.518,11.086 7.518,11.086 7.518,11.086 7.518,11.086 7.518,11.086 7.518,11.086 7.518,11.086 7.518,11.086 7.518,11.086 7.518,11.086 7.518,11.086 7.518,11.086 7.518,11.086 7.518,11.086 7.518,11.086 7.518,11.086 7.518,11.086 7.518,11.086 7.518,11.086 7.518,11.086 7.518,11.086 7.518,11.086 7.518,11.086 7.518,11.086 7.518,11.086 7.518,11.086 7.518,11.086 7.518,11.086 7.518,11.086 7.518,11.086 7.518,11.086 7.518,11.086 7.518,11.086 7.518,11.086 7.518,11.086 7.518,11.086 7.518,11.086 7.518,11.086 7.518,11.086 7.518,11.086 7.518,11.086 7.518,11.086 7.518,11.086 7.518,11.086 7.518,11.086 7.518,11.086 7.518,11.086 7.518,11.086 7.518,11.086 7.518,11.086 7.518,11.086 7.518,11.086 7.518,11.086 7.518,11.086 7.518,11.086 7.518,11.086 7.518,11.086 7.518,11.086 7.518,11.086 7.518,11.086 7.518,11.086 7.518,11.086 7.518,11.086 7.518,11.086 7.518,11.086 7.518,11.086 7.518,11.086 7.518,11.086 7.518,11.086 7.518,11.086 7.518,11.086 7.518,11.086 7.518,11.086 7.518,11.086 7.518,11.086 7.518,11.086 7.518,11.086 7.518,11.086 7.518,11.086 7.518,11.086 7.518,11.086 7.518,11.086 7.518,11.086 7.518,11.086 7.518,11.086 7.518,11.086 7.518,11.086 7.518,11.086 7.518,11.086 7.518,11.086 7.518,11.086 7.518,11.086 7.518,11.086 7.518,11.086 7.518,11.086 7.518,11.086 7.518,11.086 7.518,11.086 7.518,11.086 7.518,11.086 " />
        <mask
           id="mask-2"
           fill="#ffffff">
          <use
             xlink:href="#path-1"
             id="use14" />
        </mask>
        <g
           id="Clip-5" />
        <path
           d="m 5.29613,21.143812 h 0.6875 c 4.49217,0 7.19847,-2.475002 7.19847,-5.867192 0,-2.15625 -1.2391,-4.26402 -5.45629,-7.06092 -1.375,-0.9172 -1.83437,-1.7422 -1.83437,-2.8891 0,-1.6047 0.91719,-3.2547 2.88906,-3.2547 1.14531,0 1.925,0.3672 2.0625,1.3297 0.1375,1.1 0.9172,2.3844 2.1094,2.3844 1.2828,0 1.65,-0.8266 1.65,-1.5594 0,-1.65 -2.3844,-3.6672 -5.22659,-3.6672 -3.98906,0 -6.41875,2.9344 -6.41875,5.7297 0,1.8344 1.00938,3.8063 3.98907,5.82346 2.42968,1.65 2.79687,3.16406 2.79687,4.12656 0,2.52188 -1.83437,3.39219 -3.89687,3.39219 -1.19219,0 -1.83438,-0.22969 -1.97188,-1.2375 -0.1375,-1.05469 -0.77969,-2.42969 -2.15469,-2.42969 -1.329685,0 -1.6968725,1.1 -1.6968725,1.60469 0,1.69531 2.1093725,3.39219 5.2734425,3.575002"
           id="Fill-4"
           fill="#000000"
           mask="url(#mask-2)" />
      </g>
    </g>
    <g
       id="g34"
       transform="translate(578,51)">
      <path
         d="m 6.5,14.5 c 6e-5,-1.08e-4 9.7e-5,-1.16e-4 1.01e-4,-1.2e-4 4e-6,4e-6 -6.9e-5,5e-6 3e-6,2.3e-5 -5.5e-5,2e-6 -6e-6,0 1.1e-5,-4e-6 -5.5e-5,4.1e-5 -5.5e-5,6.7e-5 -5.5e-5,1.7e-5 4.7e-5,3.7e-5 2.5e-5,3.6e-5 1.8e-5,2.4e-5 9e-6,-4.8e-5 3.7e-5,1.2e-5 -1.8e-5,-2.4e-5 4.3e-5,2.4e-5 -1.1e-5,-1.7e-5 5.6e-5,2e-6 -4.2e-5,2.2e-5 -2.6e-5,-3.5e-5 -5.6e-5,-6e-6 5.1e-5,2.8e-5 -2.6e-5,2.8e-5 0,2.8e-5 0,0 -1.2e-5,0 4.5e-5,-3.9e-5 -5e-6,1.3e-5 -3.5e-5,2.1e-5 -8e-6,3.9e-5 1.9e-5,0 -3.7e-5,0 -3.7e-5,-5.4e-5 2.8e-5,5.4e-5 5e-5,5.4e-5 4.8e-5,1.6e-5 -2.4e-5,2.6e-5 -2e-5,-9e-6 -2.6e-5,2e-5 2.9e-5,4e-6 1.7e-5,-1.9e-5 -7e-6,-3e-6 3.3e-5,2e-6 1e-6,-2.2e-5 -5e-6,2.1e-5 -10e-6,1.7e-5 -2.2e-5,-6e-5 3.3e-5,-2.4e-5 0,10e-6 -1.6e-5,2.4e-5 -2.8e-5,7e-6 1.1e-5,-3.2e-5 3e-6,1.7e-5 -1.5e-5,-1.1e-5 0,1.5e-5 0,2e-6 0,-10e-6 2.2e-5,5.1e-5 4.4e-5,1.5e-5 4.1e-5,-7e-6 1.6e-5,4.5e-5 1.5e-5,3e-6 -5.8e-5,-4e-6 5.9e-5,4.9e-5 4.1e-5,6.2e-5 6.9e-5,4e-6 6e-6,3.3e-5 -9e-6,8e-6 -8e-6,-1.1e-5 -4.4e-5,1.2e-5 -1.4e-5,7e-6 -4.4e-5,5.6e-5 6.1e-5,-3.8e-5 4.2e-5,-3.8e-5 1.9e-5,-5.8e-5 3.4e-5,4.3e-5 3e-6,-10e-7 -9e-6,4.1e-5 3.1e-5,3e-5 3.1e-5,1.7e-5 1e-6,1.7e-5 -2.8e-5,-5.9e-5 -1.1e-5,-4.1e-5 9e-6,-5.6e-5 3.2e-5,5.6e-5 -8e-6,5.6e-5 -2e-5,5.6e-5 -1.7e-5,-5.7e-5 6.2e-5,0 4.5e-5,0 -4.5e-5,-5.6e-5 3e-6,0 -3e-6,-1.9e-5 -5.3e-5,5e-6 -4e-6,-2.7e-5 3e-6,1.9e-5 1.1e-5,-5.2e-5 -4.5e-5,-1.2e-5 2e-6,0 -4.7e-5,-5.3e-5 -1.9e-5,-2.1e-5 -2.8e-5,0 -5e-6,0 -1.9e-5,-5.5e-5 -1.9e-5,-5.4e-5 4.5e-5,5.4e-5 0,3.9e-5 4.5e-5,2.7e-5 -3e-6,2.7e-5 -5.8e-5,1.5e-5 -5.6e-5,-1.1e-5 3.1e-5,5.1e-5 6.8e-5,3.8e-5 0,-5e-6 6e-5,-3e-6 3.5e-5,5.3e-5 5.5e-5,2.1e-5 -1.5e-5,-1.5e-5 -4.4e-5,-2.1e-5 9e-6,-3.3e-5 -2.7e-5,5.5e-5 -1.4e-5,5.5e-5 -5.3e-5,3.5e-5 1.2e-5,-2e-5 2e-5,2e-5 3e-5,-2.6e-5 -3e-5,5e-6 -3e-5,4.6e-5 -3e-5,4.6e-5 0,-5.7e-5 1.8e-5,-4.4e-5 0,-1.1e-5 -1.7e-5,-1.2e-5 0,-8e-6 1.4e-5,-1.5e-5 -1.4e-5,8e-6 3.3e-5,2.6e-5 3.2e-5,-1.9e-5 -4.6e-5,5.5e-5 -5e-6,-9e-6 -6.3e-5,-1.6e-5 5e-6,3e-6 1.7e-5,2.4e-5 6.8e-5,3.8e-5 -2.2e-5,-3.4e-5 8e-6,-1.5e-5 -3e-6,-3.7e-5 -4.8e-5,1.2e-5 -7e-6,3.5e-5 -3e-5,7e-5 -1.8e-5,-2.4e-5 2.1e-5,-2.3e-5 3.2e-5,-2.6e-5 -3.3e-5,10e-7 5e-6,-2.4e-5 -2.4e-5,-3.9e-5 -2.6e-5,5e-6 -9e-6,3.8e-5 1e-6,-5e-6 -3e-6,-2e-6 -2e-6,9e-6 1.3e-5,4.8e-5 9e-6,-5e-5 -1.5e-5,-4.2e-5 1.3e-5,-5e-6 3e-6,-2.9e-5 -6.4e-5,-6e-6 -3.1e-5,-2.7e-5 -4e-6,-2e-6 -3.5e-5,4e-6 -2.2e-5,1.9e-5 5.4e-5,-1.5e-5 0,-1.3e-5 4.6e-5,2.5e-5 -9e-6,-2.5e-5 -7e-6,-5.9e-5 1e-5,-2.6e-5 -7.3e-5,2.6e-5 -5.6e-5,2.6e-5 -3.8e-5,1.4e-5 0,2.5e-5 -2.9e-5,2.3e-5 3.6e-5,-4.7e-5 -1.2e-5,5.9e-5 -2.8e-5,-1e-6 -3e-5,2.9e-5 -5e-6,3e-5 3.4e-5,3e-5 -1.3e-5,3e-5 4.2e-5,-4.3e-5 3.6e-5,1.1e-5 4.7e-5,0 -5.8e-5,-5.1e-5 -3.3e-5,-5.5e-5 -10e-7,-1.3e-5 -3.3e-5,-5e-6 -3.4e-5,-4.4e-5 -4.5e-5,-1.7e-5 1.6e-5,3e-5 1e-6,-1.5e-5 2.9e-5,3e-5 -4.1e-5,0 7e-6,-5.9e-5 -2.6e-5,0 4.7e-5,-2.7e-5 3e-5,-1.7e-5 -2.8e-5,0 1.3e-5,-4.5e-5 5.5e-5,1.3e-5 3.2e-5,-3e-5 -3e-5,2e-6 2.9e-5,1.1e-5 -1.9e-5,3e-6 5.6e-5,1.3e-5 6.2e-5,8e-6 1.5e-5,-2.4e-5 -2.7e-5,2.6e-5 -1.5e-5,9e-6 3.6e-5,2.5e-5 -5.1e-5,4e-6 -6.2e-5,-3.3e-5 -5.1e-5,3e-6 4.4e-5,-7e-6 4.5e-5,-1.8e-5 5.7e-5,-2.8e-5 -3.8e-5,4e-6 -7e-6,-10e-6 -5e-6,3e-6 -5.2e-5,6e-5 -4e-6,2.6e-5 -3e-5,-9e-6 -2.2e-5,5.7e-5 -2.2e-5,3.6e-5 6e-6,10e-7 -1.4e-5,6e-6 -3e-6,1.6e-5 -1.2e-5,1e-6 2.3e-5,4.2e-5 2.5e-5,10e-7 4.2e-5,4.1e-5 -9e-6,-3.1e-5 -3.3e-5,-1.1e-5 -1.4e-5,2.4e-5 1.1e-5,-3.1e-5 1.5e-5,-10e-6 -5.6e-5,2e-6 6.2e-5,-2.9e-5 6.6e-5,-1.2e-5 1.2e-5,-7.2e-5 -1.2e-5,1.7e-5 0,3.4e-5 1.7e-5,6e-5 2.5e-5,-5.9e-5 -1.7e-5,-5.2e-5 -1e-6,-2.8e-5 -5e-6,3.8e-5 1.4e-5,4e-6 2.1e-5,7e-6 1.6e-5,0 1.2e-5,-1.7e-5 -3.7e-5,-2.8e-5 3.8e-5,2.4e-5 5.7e-5,3.4e-5 0,-7e-6 2.5e-5,2.9e-5 -1.2e-5,5.6e-5 1.4e-5,4.3e-5 -1.4e-5,-1.1e-5 2.4e-5,2.4e-5 -1.4e-5,-3.7e-5 1.4e-5,2.6e-5 0,10e-7 10e-6,10e-7 1.5e-5,10e-6 6e-6,10e-7 -10e-6,9e-6 4.2e-5,1.9e-5 6.2e-5,4e-5 1.9e-5,4e-5 -1.9e-5,-6.2e-5 2.2e-5,-4.9e-5 3e-6,-5e-5 1.7e-5,0 3e-5,-1.2e-5 3.5e-5,5e-5 -2.7e-5,0 -1.3e-5,-1.3e-5 -1.1e-5,-5.8e-5 -4e-6,5.8e-5 -4.6e-5,2.9e-5 -5e-6,6.9e-5 -4.1e-5,-7.1e-5 1.7e-5,-6.6e-5 -2.3e-5,-3.9e-5 4e-5,2.8e-5 -1.8e-5,-2.6e-5 -3e-6,2.8e-5 -1.5e-5,-3.8e-5 4e-6,-2.5e-5 2.7e-5,-2.7e-5 -2e-5,1.5e-5 -4e-6,1e-5 -2.1e-5,2.7e-5 0,1.3e-5 1.6e-5,-1.8e-5 -3.4e-5,-2.7e-5 1.3e-5,4e-5 5.6e-5,3.8e-5 2.5e-5,6e-6 -1.2e-5,2.1e-5 -2.9e-5,2.1e-5 4.2e-5,2.1e-5 -1.3e-5,-5.6e-5 -3.3e-5,-2.7e-5 -6.7e-5,-1.8e-5 5.4e-5,-2.1e-5 3.8e-5,1.8e-5 1.3e-5,-10e-6 6.2e-5,4.1e-5 0,2.8e-5 3e-5,-2.3e-5 -3e-5,3.9e-5 -1e-6,5.1e-5 -3e-5,6.4e-5 4.8e-5,-5e-5 5.6e-5,-5.4e-5 6e-5,-5.8e-5 C 6.500116,14.49994 6.5,14.5 6.5,14.5 Z"
         id="path21"
         stroke-opacity="0"
         stroke="#000000" />
      <g
         id="g32">
        <polygon
           id="polygon23"
           stroke-opacity="0"
           stroke="#000000"
           stroke-width="1e-05"
           points="6.95,13.672 6.95,13.672 6.95,13.672 6.95,13.672 6.95,13.672 6.95,13.672 6.95,13.672 6.95,13.672 6.95,13.672 6.95,13.672 6.95,13.672 6.95,13.672 6.95,13.672 6.95,13.672 6.95,13.672 6.95,13.672 6.95,13.672 6.95,13.672 6.95,13.672 6.95,13.672 6.95,13.672 6.95,13.672 6.95,13.672 6.95,13.672 6.95,13.672 6.95,13.672 6.95,13.672 6.95,13.672 6.95,13.672 6.95,13.672 6.95,13.672 6.95,13.672 6.95,13.672 6.95,13.672 6.95,13.672 6.95,13.672 6.95,13.672 6.95,13.672 6.95,13.672 6.95,13.672 6.95,13.672 6.95,13.672 6.95,13.672 6.95,13.672 6.95,13.672 6.95,13.672 6.95,13.672 6.95,13.672 6.95,13.672 6.95,13.672 6.95,13.672 6.95,13.672 6.95,13.672 6.95,13.672 6.95,13.672 6.95,13.672 6.95,13.672 6.95,13.672 6.95,13.672 6.95,13.672 6.95,13.672 6.95,13.672 6.95,13.672 6.95,13.672 6.95,13.672 6.95,13.672 6.95,13.672 6.95,13.672 6.95,13.672 6.95,13.672 6.95,13.672 6.95,13.672 6.95,13.672 6.95,13.672 6.95,13.672 6.95,13.672 6.95,13.672 6.95,13.672 6.95,13.672 6.95,13.672 6.95,13.672 6.95,13.672 6.95,13.672 6.95,13.672 6.95,13.672 6.95,13.672 6.95,13.672 6.95,13.672 6.95,13.672 6.95,13.672 6.95,13.672 6.95,13.672 6.95,13.672 6.95,13.672 6.95,13.672 6.95,13.672 6.95,13.672 6.95,13.672 6.95,13.672 6.95,13.672 6.95,13.672 6.95,13.672 6.95,13.672 6.95,13.672 " />
        <mask
           id="mask-4"
           fill="#ffffff">
          <use
             xlink:href="#path-3"
             id="use25" />
        </mask>
        <g
           id="g28" />
        <path
           d="M 4.77813,6.2032 2.34844,6.3407 C 1.47656,6.3861 1.15625,6.7532 1.064063,7.1204 1.01875,7.2579 0.88125,7.8079 0.88125,7.9001 c 0,0.0906 0.1375,0.0906 0.275,0.0906 H 4.36563 L 1.56875,20.46262 c -0.321875,1.46719 -0.642187,2.8875 -0.642187,3.75938 0,1.65 0.824997,2.107812 2.246877,2.107812 2.0625,0 5.08906,-1.879692 6.64687,-4.721872 -0.1375,-0.59532 -0.45781,-0.87032 -1.00781,-0.87032 -2.10937,2.38282 -2.93437,2.84219 -3.66875,2.84219 -0.1375,0 -0.59531,-0.09219 -0.59531,-0.64219 0,-0.4125 0.1375,-1.32968 0.50469,-2.88906 L 7.75781,7.9907 h 4.49379 c 0.3656,-0.1375 0.6875,-0.7781 0.6875,-1.2375 0,-0.2296 -0.0922,-0.4125 -0.2297,-0.55 H 8.17031 L 8.62969,4.1407 C 8.8125,3.2689 9.225,1.9392 9.225,1.3892 9.225,0.6095 8.85781,0.1517 7.39063,0.1517 c -1.65,0 -1.55782,2.0625 -2.01719,3.7594 L 4.77813,6.2032"
           id="path30"
           fill="#000000"
           mask="url(#mask-4)" />
      </g>
    </g>
    <g
       id="g49"
       transform="translate(573,216)">
      <path
         d="m 10.5,11.5 c 6.1e-5,-1.08e-4 9.7e-5,-1.16e-4 1.01e-4,-1.2e-4 4e-6,4e-6 -6.9e-5,5e-6 3e-6,2.3e-5 -5.5e-5,2e-6 -6e-6,0 1.1e-5,-4e-6 -5.4e-5,4e-5 -5.4e-5,6.7e-5 -3e-6,1.7e-5 -2e-6,2.3e-5 -5.1e-5,-3.1e-5 2e-6,2.3e-5 -5.3e-5,-2.2e-5 -5.3e-5,-2.1e-5 -3.4e-5,1.3e-5 1.9e-5,-1.3e-5 3.7e-5,-1.3e-5 -1.9e-5,-5.1e-5 4.2e-5,-1.1e-5 2.7e-5,-4e-6 0,-2.2e-5 0,6e-5 -2.7e-5,6e-5 0,6e-5 0,0 -1.3e-5,0 4.4e-5,-3.8e-5 -5e-6,1.3e-5 -4.4e-5,2.1e-5 -8e-6,3.8e-5 1.9e-5,0 -3.6e-5,0 -4.7e-5,-5.3e-5 3.8e-5,5.3e-5 6e-5,5.3e-5 5.8e-5,1.6e-5 -2.4e-5,2.6e-5 -2e-5,-9e-6 -2.6e-5,2e-5 2.9e-5,4e-6 1.7e-5,-1.9e-5 -7e-6,-3e-6 3.3e-5,2e-6 10e-7,-2.2e-5 -1.4e-5,2e-5 0,1.8e-5 -1.3e-5,-5.9e-5 4.2e-5,-2.3e-5 0,10e-6 -1.6e-5,2.3e-5 -2.8e-5,7e-6 1.1e-5,-3.2e-5 3e-6,1.6e-5 -1.4e-5,-1.1e-5 0,1.5e-5 0,2e-6 0,-10e-6 2.1e-5,5.1e-5 4.3e-5,1.5e-5 4e-5,-7e-6 1.6e-5,4.4e-5 1.5e-5,3e-6 -5.8e-5,-4e-6 5.9e-5,4.8e-5 4.1e-5,6.2e-5 6.9e-5,4e-6 6e-6,3.3e-5 -9e-6,8e-6 -8e-6,-1.1e-5 -4.3e-5,1.2e-5 -1.4e-5,7e-6 -4.3e-5,5.5e-5 6e-5,-3.7e-5 4.1e-5,-3.7e-5 1.8e-5,-5.7e-5 3.4e-5,4.3e-5 3e-6,-10e-7 -1.8e-5,4.1e-5 4e-5,3e-5 4e-5,1.6e-5 10e-6,1.6e-5 -2.8e-5,-5.8e-5 -10e-6,-4e-5 9e-6,-5.5e-5 3.2e-5,5.5e-5 -8e-6,5.5e-5 -1.9e-5,5.5e-5 -1.8e-5,-5.6e-5 6.1e-5,0 4.4e-5,0 -5.5e-5,-5.5e-5 3e-6,0 -3e-6,-1.8e-5 -5.3e-5,5e-6 -4e-6,-2.7e-5 3e-6,1.8e-5 1.1e-5,-5.1e-5 -4.4e-5,-1.1e-5 2e-6,0 -4.6e-5,-5.2e-5 -1.9e-5,-2e-5 -2.8e-5,0 -5e-6,0 -1.8e-5,-5.4e-5 -1.8e-5,-5.3e-5 4.4e-5,5.3e-5 0,3.9e-5 4.4e-5,2.7e-5 -3e-6,2.6e-5 -5.8e-5,1.5e-5 -5.6e-5,-1.1e-5 3.1e-5,5.1e-5 6.8e-5,3.7e-5 0,-5e-6 6e-5,-3e-6 3.5e-5,5.3e-5 5.5e-5,2.1e-5 -1.5e-5,-1.5e-5 -4.3e-5,-2.1e-5 9e-6,-3.3e-5 -2.7e-5,5.4e-5 -1.4e-5,5.4e-5 -5.2e-5,3.5e-5 1.1e-5,-2e-5 3.8e-5,-8e-6 4.8e-5,3.3e-5 -6e-5,-1.4e-5 6e-6,-1.4e-5 9e-6,-5.2e-5 -6.8e-5,3.8e-5 -7.5e-5,2.7e-5 -7e-5,1e-6 1.3e-5,2.4e-5 2.9e-5,-1.3e-5 5.6e-5,10e-6 -5.6e-5,10e-7 -2e-6,-2.6e-5 -2.5e-5,1.2e-5 3.5e-5,-1.3e-5 -1.8e-5,-4.2e-5 -1.8e-5,10e-7 2.2e-5,-4e-5 1.7e-5,-3.9e-5 4.3e-5,-1.5e-5 9e-6,2.9e-5 -4.3e-5,1.1e-5 -2e-6,1.9e-5 -1.9e-5,-1.5e-5 1.8e-5,-1.1e-5 -4.1e-5,-4e-5 0,3e-6 5.8e-5,2.8e-5 2.4e-5,-6e-6 3.4e-5,5.6e-5 3.5e-5,6.7e-5 2e-6,5.6e-5 -1.6e-5,-4.1e-5 3.2e-5,-5.9e-5 -3e-6,-1.1e-5 -4e-6,-4.4e-5 3e-6,-3.1e-5 -3.6e-5,-7e-6 4e-5,10e-7 3.5e-5,-3.8e-5 5.9e-5,-4.2e-5 -5.7e-5,3e-6 -1.7e-5,4.8e-5 -3.6e-5,3.6e-5 -2.1e-5,8e-6 -10e-6,0 2.9e-5,1e-6 1.6e-5,2.3e-5 -2.6e-5,-3.4e-5 -2.3e-5,-3.6e-5 3.5e-5,3.9e-5 4.5e-5,1.5e-5 -2.8e-5,3.5e-5 1.2e-5,1e-6 6.6e-5,-10e-7 -1e-6,8e-6 7.4e-5,1.6e-5 4e-5,-1e-5 7e-5,1.6e-5 -7.1e-5,0 -3e-5,-10e-6 -4e-5,-2.4e-5 -3e-5,6e-6 -1.7e-5,-2.2e-5 2e-5,-2.6e-5 1.5e-5,6e-6 0,2.6e-5 -5.1e-5,3.1e-5 6.6e-5,-2.4e-5 3.6e-5,-3e-6 10e-7,-2.6e-5 2.9e-5,-2e-6 2.3e-5,4.5e-5 5.2e-5,-2e-6 -1.9e-5,3.3e-5 5e-6,4.7e-5 2.2e-5,1e-6 -3e-6,2e-6 -2e-5,4.6e-5 -8e-6,5e-6 -5.3e-5,5e-6 -4.1e-5,-2e-5 -5.3e-5,4.1e-5 0,0 6.1e-5,0 0,0 2.1e-5,-4e-5 2.4e-5,-2.8e-5 1.3e-5,-3.7e-5 -2.6e-5,3.7e-5 -10e-7,3.7e-5 3.9e-5,-2.4e-5 -3.1e-5,3.9e-5 -5.2e-5,4.3e-5 -9e-6,3.4e-5 -5.5e-5,1.6e-5 -2e-6,2.7e-5 1.2e-5,-9e-6 -3.8e-5,-10e-6 -4.2e-5,0 -5.5e-5,-9e-6 0,1e-6 2.3e-5,3.2e-5 4.8e-5,4.5e-5 -1.1e-5,-2.1e-5 -2.3e-5,-4.7e-5 -3.4e-5,0 2.7e-5,-3.7e-5 4.1e-5,0 2.6e-5,0 8e-6,-4.1e-5 -1.9e-5,-2.4e-5 8e-6,-6.1e-5 10e-6,2e-6 -5.9e-5,5e-6 -4.8e-5,1.3e-5 3.6e-5,3.4e-5 2.1e-5,4e-6 1.1e-5,1.9e-5 4.8e-5,6e-6 4e-6,-2.5e-5 1.2e-5,2.9e-5 1.5e-5,-5.9e-5 3.4e-5,0 3e-5,-1.1e-5 -3.1e-5,-5e-5 -5.3e-5,-1.3e-5 5e-6,-1e-5 3e-6,2.1e-5 -2e-6,3.4e-5 -3e-6,-1.9e-5 -1.8e-5,4e-5 -1.2e-5,2.3e-5 -4e-6,1.8e-5 -4e-6,2.2e-5 -2.2e-5,-3.5e-5 -5.1e-5,-1.4e-5 5.5e-5,1.4e-5 -1.3e-5,-1.5e-5 3.6e-5,-1.1e-5 3e-6,1e-5 -1.3e-5,4.7e-5 1.8e-5,2e-6 -4.1e-5,6e-6 -9e-6,2.1e-5 -1.4e-5,4.5e-5 1.5e-5,-1.7e-5 4e-6,-2.8e-5 0,-2.9e-5 -1.9e-5,9e-6 8e-6,2e-6 -2.3e-5,4.1e-5 4.2e-5,-1.2e-5 -1e-6,1e-6 -3.1e-5,0 5.5e-5,-6.7e-5 -4e-6,-4e-5 2.4e-5,-6.7e-5 -2.1e-5,1.6e-5 3.9e-5,3.7e-5 -10e-6,3.9e-5 4.6e-5,-4e-5 0,-2.6e-5 1.8e-5,-2.3e-5 -1.8e-5,-1.4e-5 3.3e-5,-2e-5 -3.2e-5,1.3e-5 7.5e-5,-2.2e-5 -4e-6,-3.2e-5 2e-6,4.4e-5 7e-5,-3.5e-5 5.2e-5,-1.8e-5 6.6e-5,-4e-5 1e-6,-3.2e-5 -5.4e-5,0 -5.4e-5,-2.9e-5 0,1.2e-5 5.4e-5,3e-5 1.1e-5,6e-6 -1.1e-5,2.8e-5 3.5e-5,4.5e-5 -1.1e-5,-5e-6 1.9e-5,5e-5 0,5e-5 2.9e-5,5e-5 -2.9e-5,0 2.9e-5,-1.3e-5 2.8e-5,-4.7e-5 -5.7e-5,4.7e-5 -5.7e-5,-6e-6 -7e-5,5.9e-5 1.3e-5,-7.1e-5 4e-5,-6.5e-5 3.4e-5,-3.1e-5 -2.1e-5,1.9e-5 -2.1e-5,1.9e-5 2.4e-5,-8e-6 -4.5e-5,1.6e-5 -7e-6,2.7e-5 -4.5e-5,4.1e-5 4.7e-5,-5e-5 5.5e-5,-5.4e-5 5.9e-5,-5.8e-5 C 10.500116,11.499939 10.5,11.5 10.5,11.5 Z"
         id="path36"
         stroke-opacity="0"
         stroke="#000000" />
      <g
         id="g47">
        <polygon
           id="polygon38"
           stroke-opacity="0"
           stroke="#000000"
           stroke-width="1e-05"
           points="10.655672,11.086 10.655672,11.086 10.655672,11.086 10.655672,11.086 10.655672,11.086 10.655672,11.086 10.655672,11.086 10.655672,11.086 10.655672,11.086 10.655672,11.086 10.655672,11.086 10.655672,11.086 10.655672,11.086 10.655672,11.086 10.655672,11.086 10.655672,11.086 10.655672,11.086 10.655672,11.086 10.655672,11.086 10.655672,11.086 10.655672,11.086 10.655672,11.086 10.655672,11.086 10.655672,11.086 10.655672,11.086 10.655672,11.086 10.655672,11.086 10.655672,11.086 10.655672,11.086 10.655672,11.086 10.655672,11.086 10.655672,11.086 10.655672,11.086 10.655672,11.086 10.655672,11.086 10.655672,11.086 10.655672,11.086 10.655672,11.086 10.655672,11.086 10.655672,11.086 10.655672,11.086 10.655672,11.086 10.655672,11.086 10.655672,11.086 10.655672,11.086 10.655672,11.086 10.655672,11.086 10.655672,11.086 10.655672,11.086 10.655672,11.086 10.655672,11.086 10.655672,11.086 10.655672,11.086 10.655672,11.086 10.655672,11.086 10.655672,11.086 10.655672,11.086 10.655672,11.086 10.655672,11.086 10.655672,11.086 10.655672,11.086 10.655672,11.086 10.655672,11.086 10.655672,11.086 10.655672,11.086 10.655672,11.086 10.655672,11.086 10.655672,11.086 10.655672,11.086 10.655672,11.086 10.655672,11.086 10.655672,11.086 10.655672,11.086 10.655672,11.086 10.655672,11.086 10.655672,11.086 10.655672,11.086 10.655672,11.086 10.655672,11.086 10.655672,11.086 10.655672,11.086 10.655672,11.086 10.655672,11.086 10.655672,11.086 10.655672,11.086 10.655672,11.086 10.655672,11.086 10.655672,11.086 10.655672,11.086 10.655672,11.086 10.655672,11.086 10.655672,11.086 10.655672,11.086 10.655672,11.086 10.655672,11.086 10.655672,11.086 10.655672,11.086 10.655672,11.086 10.655672,11.086 10.655672,11.086 10.655672,11.086 10.655672,11.086 10.655672,11.086 10.655672,11.086 " />
        <mask
           id="mask-6"
           fill="#ffffff">
          <use
             xlink:href="#path-5"
             id="use40" />
        </mask>
        <g
           id="g43" />
        <path
           d="m 19.65407,4.5469 c 0.1844,-0.825 0.5969,-2.2 0.5969,-2.75 0,-0.7797 -0.4594,-1.2375 -1.9265,-1.2375 -1.7422,0 -1.65,2.0172 -2.1079,3.7594 l -1.3296,5.0422 c -3.3938,5.77812 -5.639108,9.03281 -7.932858,9.03281 -0.825,0 -1.375,-0.45937 -1.375,-1.69687 0,-0.73282 0.09219,-1.69532 0.4125,-2.93438 L 7.963482,6.2891 c 0.36719,-1.4672 0.9625,-3.3469 0.9625,-4.2172 0,-0.8718 -0.275,-1.5125 -1.65,-1.5125 -2.20156,0 -4.81406,1.5578 -6.923435,4.2625 0.1375,0.4141 0.4125,0.7797 1.054685,0.7797 1.19219,-1.375 2.70469,-2.2922 3.16407,-2.2922 0.32031,0 0.45781,0.2297 0.45781,0.7797 0,0.4125 -0.275,1.4219 -0.59531,2.6125 l -2.01719,7.70315 c -0.32188,1.19219 -0.45938,2.20156 -0.45938,3.07187 0,2.61407 1.46719,3.667192 3.07188,3.667192 3.57656,0 5.868758,-2.842192 9.123458,-7.609372 l 0.1375,0.09062 -0.5031,1.78906 c -0.4141,1.46719 -0.7797,3.34688 -0.7797,4.21719 0,0.87188 0.3203,1.512502 1.6953,1.512502 2.2015,0 4.264,-1.557812 6.3734,-4.262502 -0.1375,-0.41406 -0.4125,-0.77969 -1.0547,-0.77969 -1.1922,1.375 -2.5218,2.29219 -2.9797,2.29219 -0.3218,0 -0.4593,-0.22969 -0.4593,-0.77969 0,-0.4125 0.2297,-1.42187 0.5047,-2.6125 L 19.65407,4.5469"
           id="path45"
           fill="#000000"
           mask="url(#mask-6)" />
      </g>
    </g>
    <path
       id="Path-5"
       d="m 556.71757,63.201219 7.37903,5.458931 0.7146,0.528653 -0.82287,0.336172 -8.49703,3.471357 -0.3782,-0.925726 6.7279,-2.749606 -5.973,-0.747951 C 474.25267,59.254381 409.96822,82.166628 362.95586,137.31515 l -1.41933,1.68104 -0.76711,-0.64151 C 407.6546,82.289747 471.91901,58.605042 553.5091,67.306554 l 2.47773,0.273596 5.97817,0.74785 -5.84216,-4.322858 z"
       fill="#9b9b9b"
       fill-rule="nonzero" />
    <path
       id="Path-6"
       d="m 365.78782,167.61834 c 67.67773,57.27963 130.68326,76.57253 189.04114,57.94344 l 1.76699,-0.57612 5.67705,-2.04566 -7.16784,-1.20577 0.16598,-0.98613 9.05146,1.52349 0.87656,0.14753 -0.58127,0.6725 -6.00229,6.94425 -0.75655,-0.65393 4.75495,-5.50094 -5.69072,2.04949 c -58.64486,19.52212 -121.89834,0.89564 -189.72475,-55.81856 l -2.05674,-1.73028 z"
       fill="#979797"
       fill-rule="nonzero" />
    <path
       id="Path-7"
       d="m 571.39143,207.48438 1.27236,1.50354 -0.76718,0.64144 C 530.38883,159.98531 466.65591,142.96845 380.6301,158.60421 l -2.61366,0.48381 -5.92644,1.17098 6.90565,2.26867 -0.31204,0.95007 -8.72049,-2.8641 -0.84451,-0.27736 0.67558,-0.57768 6.9761,-5.96524 0.64989,0.76002 -5.52618,4.72462 5.93293,-1.17185 c 86.80561,-16.35751 151.35108,0.0931 193.5645,49.37823 z"
       fill="#979797"
       fill-rule="nonzero" />
    <path
       id="Path-8"
       d="m 572.68564,80.62864 0.6696,0.74272 c -51.9835,46.8659 -117.13739,68.42842 -195.43649,64.68707 l -2.37672,-0.12112 -6.03303,-0.38631 6.09763,3.96192 -0.54486,0.83853 -7.69667,-5.00112 -0.74536,-0.48431 0.80095,-0.38549 8.27074,-3.98055 0.43367,0.90107 -6.5501,3.15195 6.02595,0.38606 c 79.09593,4.28127 144.78056,-17.15546 197.08469,-64.31042 z"
       fill="#979797"
       fill-rule="nonzero" />
    <path
       id="Path-9"
       d="m 583.23099,31.702801 0.20567,0.274853 3.26434,5.097346 -0.4151,-7.257248 0.99837,-0.05715 0.5246,9.163776 0.0508,0.887436 -0.78479,-0.417418 -8.10377,-4.310316 0.46959,-0.882881 6.4183,3.413804 -3.24508,-5.069951 c -3.55778,-4.799408 -5.99404,-5.833604 -7.58109,-3.57289 -1.75121,2.494551 -2.67271,8.742115 -2.70564,18.659297 l -9.2e-4,0.55473 h -1 c 0,-10.449549 0.94197,-17.016376 2.8881,-19.788595 2.10513,-2.998702 5.19062,-1.757194 9.01662,3.30521 z"
       fill="#979797"
       fill-rule="nonzero" />
    <path
       id="Path-10"
       d="m 574.98023,248.43517 c 0,9.58181 1.0475,15.19869 3.00016,16.72406 1.74107,1.36007 4.64441,-0.75702 8.61903,-6.67428 l 0.22192,-0.33265 3.13466,-5.2043 -6.3231,3.58994 -0.49368,-0.86964 7.98223,-4.53144 0.77302,-0.43883 -0.0264,0.8885 -0.27252,9.17473 -0.99956,-0.0297 0.216,-7.26857 -3.14553,5.22342 c -4.41284,6.66052 -7.81853,9.20063 -10.30168,7.26086 -2.26267,-1.76753 -3.34557,-7.38915 -3.38352,-16.98477 l -10e-4,-0.52734 z"
       fill="#979797"
       fill-rule="nonzero" />
  </g>
</svg>
