<?xml version="1.0" encoding="UTF-8" standalone="no"?>
<!-- Created with Inkscape (http://www.inkscape.org/) -->

<svg
   version="1.1"
   id="svg2"
   width="400"
   height="266.66666"
   viewBox="0 0 400 266.66666"
   xmlns="http://www.w3.org/2000/svg"
   xmlns:svg="http://www.w3.org/2000/svg">
  <defs
     id="defs6">
    <clipPath
       clipPathUnits="userSpaceOnUse"
       id="clipPath18">
      <path
         d="M 0,0 H 300 V 200 H 0 Z"
         id="path16" />
    </clipPath>
    <clipPath
       clipPathUnits="userSpaceOnUse"
       id="clipPath38">
      <path
         d="m 145,149 c 1.1046,0 2,0.8954 2,2 0,1.1046 -0.8954,2 -2,2 -1.1046,0 -2,-0.8954 -2,-2 0,-1.1046 0.8954,-2 2,-2 z"
         clip-rule="evenodd"
         id="path36" />
    </clipPath>
    <clipPath
       clipPathUnits="userSpaceOnUse"
       id="clipPath44">
      <path
         d="M 0,0 H 300 V 200 H 0 Z"
         id="path42" />
    </clipPath>
    <clipPath
       clipPathUnits="userSpaceOnUse"
       id="clipPath54">
      <path
         d="M 0,0 H 300 V 200 H 0 Z"
         id="path52" />
    </clipPath>
    <clipPath
       clipPathUnits="userSpaceOnUse"
       id="clipPath86">
      <path
         d="m 132.3284,190.4768 c 0,1.4375 0.2885,3.7344 1.4904,3.9844 0.0577,0.0312 0.101,0.1718 0.101,0.3906 0,0.3906 -0.0866,0.3906 -0.2116,0.3906 -1.1009,0 -2.1057,-1.8281 -2.1153,-4.4844 v -8.1718 c 0,-1.3907 0,-2.5469 -0.4423,-3.7344 -0.3847,-1.0313 -0.8077,-1.1094 -1.0481,-1.1406 -0.0577,-0.0313 -0.101,-0.1719 -0.101,-0.3907 0,-0.3593 0.0673,-0.3593 0.1779,-0.3906 0.726,-0.1562 1.2596,-1.4375 1.3798,-3.2031 0.0337,-0.3906 0.0337,-0.4688 0.0337,-1.75 v -7.1094 c 0,-1.5 0,-2.6406 0.5288,-4.0156 0.4279,-1.0781 1.1587,-1.4688 1.5865,-1.4688 0.125,0 0.2116,0 0.2116,0.3907 0,0.3593 -0.0673,0.3593 -0.1779,0.4062 -0.6923,0.1406 -1.2356,1.2813 -1.3798,3.1094 -0.0337,0.3281 -0.0337,0.4062 -0.0337,1.6875 v 7.5312 c 0,1.6563 -0.0865,2.2657 -0.4375,3.4063 -0.2355,0.75 -0.5528,1.1094 -0.8605,1.4062 0.9038,0.8282 1.298,2.4688 1.298,4.5469 z"
         clip-rule="evenodd"
         id="path84" />
    </clipPath>
    <clipPath
       clipPathUnits="userSpaceOnUse"
       id="clipPath92">
      <path
         d="M 0,0 H 300 V 200 H 0 Z"
         id="path90" />
    </clipPath>
    <clipPath
       clipPathUnits="userSpaceOnUse"
       id="clipPath102">
      <path
         d="m 120.882,182.6473 c 0,0.0142 0,0.1231 -0.1421,0.1231 -0.2509,0 -1.0416,-0.0899 -1.3257,-0.1089 -0.09,-0.0142 -0.2084,-0.0236 -0.2084,-0.2178 0,-0.1325 0.0995,-0.1325 0.2604,-0.1325 0.5209,0 0.5446,-0.0758 0.5446,-0.1847 l -0.0332,-0.2178 -1.5767,-6.2547 c -0.0426,-0.1563 -0.0426,-0.1752 -0.0426,-0.2415 0,-0.251 0.2178,-0.3031 0.3172,-0.3031 0.1421,0 0.3031,0.0947 0.3693,0.2273 0.0521,0.0995 0.5445,2.107 0.6061,2.3816 0.3693,-0.0331 1.2642,-0.2083 1.2642,-0.928 0,-0.0757 0,-0.1184 -0.0331,-0.2273 -0.0237,-0.1278 -0.0474,-0.2604 -0.0474,-0.3787 0,-0.6392 0.4356,-1.0749 1.0038,-1.0749 0.322,0 0.6155,0.1705 0.857,0.573 0.2699,0.4782 0.393,1.0795 0.393,1.0984 0,0.109 -0.0994,0.109 -0.1326,0.109 -0.1089,0 -0.1183,-0.0427 -0.1515,-0.1942 -0.2178,-0.7954 -0.4687,-1.3494 -0.947,-1.3494 -0.2036,0 -0.3456,0.1184 -0.3456,0.5114 0,0.1846 0.0426,0.4356 0.0852,0.6107 0.0426,0.1847 0.0426,0.2273 0.0426,0.3362 0,0.7055 -0.6818,1.0228 -1.6051,1.1411 0.3362,0.1942 0.6818,0.5398 0.9328,0.8049 0.5208,0.573 1.0227,1.0417 1.553,1.0417 0.0663,0 0.0758,0 0.0995,-0.01 0.1278,-0.0236 0.142,-0.0236 0.2272,-0.0899 0.0237,-0.01 0.0237,-0.019 0.0426,-0.0426 -0.5208,-0.0332 -0.6202,-0.4546 -0.6202,-0.5872 0,-0.1751 0.1231,-0.3787 0.4166,-0.3787 0.2794,0 0.5966,0.2367 0.5966,0.6628 0,0.3267 -0.2509,0.6819 -0.7386,0.6819 -0.303,0 -0.8049,-0.0853 -1.5862,-0.9565 -0.3693,-0.4119 -0.7954,-0.8475 -1.2074,-1.0085 l 1.1317,4.5833 z"
         clip-rule="evenodd"
         id="path100" />
    </clipPath>
    <clipPath
       clipPathUnits="userSpaceOnUse"
       id="clipPath108">
      <path
         d="M 0,0 H 300 V 200 H 0 Z"
         id="path106" />
    </clipPath>
    <clipPath
       clipPathUnits="userSpaceOnUse"
       id="clipPath118">
      <path
         d="m 127.3454,176.0259 c 0,0.8333 -0.0994,1.4346 -0.4498,1.9697 -0.232,0.3504 -0.7055,0.6534 -1.3163,0.6534 -1.7613,0 -1.7613,-2.0786 -1.7613,-2.6231 0,-0.5493 0,-2.5805 1.7613,-2.5805 1.7661,0 1.7661,2.0312 1.7661,2.5805 z m -1.7661,-2.3674 c -0.3503,0 -0.8144,0.2036 -0.9659,0.8286 -0.1041,0.4498 -0.1041,1.0748 -0.1041,1.6382 0,0.554 0,1.1316 0.1136,1.5483 0.161,0.6013 0.6439,0.7623 0.9564,0.7623 0.412,0 0.8097,-0.2509 0.947,-0.6913 0.1184,-0.4119 0.1278,-0.9611 0.1278,-1.6193 0,-0.5634 0,-1.1269 -0.0994,-1.6098 -0.1515,-0.6913 -0.6676,-0.857 -0.9754,-0.857 z"
         id="path116" />
    </clipPath>
    <clipPath
       clipPathUnits="userSpaceOnUse"
       id="clipPath124">
      <path
         d="M 0,0 H 300 V 200 H 0 Z"
         id="path122" />
    </clipPath>
    <clipPath
       clipPathUnits="userSpaceOnUse"
       id="clipPath134">
      <path
         d="M 0,0 H 300 V 200 H 0 Z"
         id="path132" />
    </clipPath>
    <clipPath
       clipPathUnits="userSpaceOnUse"
       id="clipPath146">
      <path
         d="m 142,118 c 1.1046,0 2,0.8954 2,2 0,1.1046 -0.8954,2 -2,2 -1.1046,0 -2,-0.8954 -2,-2 0,-1.1046 0.8954,-2 2,-2 z"
         clip-rule="evenodd"
         id="path144" />
    </clipPath>
    <clipPath
       clipPathUnits="userSpaceOnUse"
       id="clipPath152">
      <path
         d="M 0,0 H 300 V 200 H 0 Z"
         id="path150" />
    </clipPath>
    <clipPath
       clipPathUnits="userSpaceOnUse"
       id="clipPath162">
      <path
         d="M 0,0 H 300 V 200 H 0 Z"
         id="path160" />
    </clipPath>
    <clipPath
       clipPathUnits="userSpaceOnUse"
       id="clipPath178">
      <path
         d="m 157.725,150.0651 c 0.1966,0 0.4032,0 0.4032,0.2319 0,0.2318 -0.2066,0.2318 -0.4032,0.2318 h -4.9042 c 0.136,1.5474 1.4667,2.6563 3.0997,2.6563 h 1.8045 c 0.1966,0 0.4032,0 0.4032,0.2318 0,0.2319 -0.2066,0.2319 -0.4032,0.2319 h -1.8297 c -1.9758,0 -3.5534,-1.5021 -3.5534,-3.3518 0,-1.8498 1.5776,-3.3569 3.5534,-3.3569 h 1.8297 c 0.1966,0 0.4032,0 0.4032,0.2319 0,0.2318 -0.2066,0.2318 -0.4032,0.2318 h -1.8045 c -1.633,0 -2.9637,1.1089 -3.0997,2.6613 z"
         clip-rule="evenodd"
         id="path176" />
    </clipPath>
    <clipPath
       clipPathUnits="userSpaceOnUse"
       id="clipPath184">
      <path
         d="M 0,0 H 300 V 200 H 0 Z"
         id="path182" />
    </clipPath>
    <clipPath
       clipPathUnits="userSpaceOnUse"
       id="clipPath194">
      <path
         d="m 168.3038,151.7183 c 0.1512,0 0.5645,0 0.5645,0.3932 0,0.2772 -0.2419,0.2772 -0.4486,0.2772 h -2.6411 c -1.744,0 -3.0293,-1.9103 -3.0293,-3.2863 0,-1.0182 0.6855,-1.8246 1.7339,-1.8246 1.3659,0 2.9083,1.3962 2.9083,3.1804 0,0.1966 0,0.751 -0.3629,1.2601 z m -3.8055,-4.1885 c -0.5695,0 -1.0332,0.4184 -1.0332,1.25 0,0.3478 0.1411,1.2954 0.5443,1.9809 0.4889,0.7963 1.1795,0.9576 1.5726,0.9576 0.9728,0 1.0686,-0.7611 1.0686,-1.124 0,-0.5393 -0.2319,-1.4919 -0.625,-2.0816 -0.4537,-0.6805 -1.0787,-0.9829 -1.5273,-0.9829 z"
         id="path192" />
    </clipPath>
    <clipPath
       clipPathUnits="userSpaceOnUse"
       id="clipPath200">
      <path
         d="M 0,0 H 300 V 200 H 0 Z"
         id="path198" />
    </clipPath>
    <clipPath
       clipPathUnits="userSpaceOnUse"
       id="clipPath210">
      <path
         d="m 171.4573,151.0457 c 0.0101,0.0151 0.0303,0.121 0.0303,0.131 0,0.0404 -0.0303,0.1109 -0.126,0.1109 -0.1613,0 -0.8367,-0.0655 -1.0383,-0.0806 -0.0656,-0.005 -0.1764,-0.0151 -0.1764,-0.1865 0,-0.1109 0.1108,-0.1109 0.2066,-0.1109 0.3932,0 0.3932,-0.0605 0.3932,-0.121 0,-0.0604 -0.0202,-0.1058 -0.0353,-0.1814 l -1.1391,-4.5817 c -0.0404,-0.1461 -0.0404,-0.1613 -0.0404,-0.1814 0,-0.121 0.0958,-0.2571 0.2722,-0.2571 0.2218,0 0.3226,0.1613 0.373,0.3377 0.0151,0.0353 0.3629,1.4617 0.3982,1.5726 0.5746,-0.0554 1.0383,-0.2419 1.0383,-0.6653 0,-0.0403 0,-0.0807 -0.0202,-0.1613 -0.0302,-0.121 -0.0302,-0.1613 -0.0302,-0.252 0,-0.5746 0.4687,-0.8317 0.8568,-0.8317 0.7863,0 1.0283,1.2299 1.0283,1.24 0,0.1058 -0.1059,0.1058 -0.126,0.1058 -0.116,0 -0.126,-0.0403 -0.1664,-0.1966 -0.0957,-0.3478 -0.3125,-0.9224 -0.7107,-0.9224 -0.2167,0 -0.2822,0.2017 -0.2822,0.4184 0,0.1411 0,0.1562 0.0454,0.3679 0.01,0.0252 0.0403,0.1613 0.0403,0.2521 0,0.7207 -0.9678,0.8316 -1.3105,0.8568 0.2369,0.1462 0.5343,0.4133 0.6754,0.5343 0.4083,0.3881 0.8165,0.7712 1.2702,0.7712 0.0957,0 0.2016,-0.0253 0.2671,-0.1059 -0.3478,-0.0554 -0.4234,-0.3327 -0.4234,-0.4536 0,-0.1815 0.1411,-0.3024 0.3276,-0.3024 0.2168,0 0.4587,0.1814 0.4587,0.5191 0,0.2671 -0.1915,0.5696 -0.625,0.5696 -0.4587,0 -0.8821,-0.3327 -1.2954,-0.7158 -0.3377,-0.3225 -0.6048,-0.5746 -0.9375,-0.7106 z"
         clip-rule="evenodd"
         id="path208" />
    </clipPath>
    <clipPath
       clipPathUnits="userSpaceOnUse"
       id="clipPath216">
      <path
         d="M 0,0 H 300 V 200 H 0 Z"
         id="path214" />
    </clipPath>
    <clipPath
       clipPathUnits="userSpaceOnUse"
       id="clipPath226">
      <path
         d="m 177.318,146.3608 c 0,0.4184 0,2.0061 -1.5121,2.0061 -1.5071,0 -1.5071,-1.5877 -1.5071,-2.0061 0,-0.4183 0,-1.9758 1.5071,-1.9758 1.5121,0 1.5121,1.5575 1.5121,1.9758 z m -1.5121,-1.7842 c -0.2117,0 -0.7006,0.0756 -0.8418,0.6552 -0.0806,0.3125 -0.0907,0.7258 -0.0907,1.1996 0,0.4284 0,0.8266 0.0958,1.1593 0.1461,0.4838 0.5897,0.5846 0.8367,0.5846 0.4284,0 0.7358,-0.2217 0.8518,-0.625 0.0806,-0.2973 0.0806,-0.7762 0.0806,-1.1189 0,-0.3932 0,-0.8619 -0.0857,-1.2097 -0.1512,-0.5595 -0.6149,-0.6451 -0.8467,-0.6451 z"
         id="path224" />
    </clipPath>
    <clipPath
       clipPathUnits="userSpaceOnUse"
       id="clipPath232">
      <path
         d="M 0,0 H 300 V 200 H 0 Z"
         id="path230" />
    </clipPath>
    <clipPath
       clipPathUnits="userSpaceOnUse"
       id="clipPath242">
      <path
         d="m 155.4527,122.809 c 0.0504,0.1664 0.0504,0.1865 0.0504,0.2672 0,0.2066 -0.1663,0.3125 -0.3377,0.3125 -0.1159,0 -0.3024,-0.0706 -0.4032,-0.242 -0.0252,-0.0604 -0.1159,-0.4183 -0.1613,-0.625 -0.0857,-0.3024 -0.1663,-0.6149 -0.2318,-0.9274 l -0.5242,-2.0816 c -0.0454,-0.1714 -0.5444,-0.9829 -1.3055,-0.9829 -0.5897,0 -0.7157,0.5091 -0.7157,0.9375 0,0.5343 0.1966,1.25 0.5897,2.2682 0.1865,0.4737 0.2319,0.5998 0.2319,0.8316 0,0.5192 -0.373,0.9476 -0.9526,0.9476 -1.0988,0 -1.5222,-1.6734 -1.5222,-1.7792 0,-0.116 0.1159,-0.116 0.1361,-0.116 0.1159,0 0.126,0.0252 0.1865,0.2067 0.3125,1.0887 0.7762,1.4365 1.1693,1.4365 0.0907,0 0.2873,0 0.2873,-0.373 0,-0.2873 -0.1159,-0.5897 -0.1966,-0.8065 -0.4637,-1.2248 -0.6703,-1.885 -0.6703,-2.4294 0,-1.0282 0.7258,-1.376 1.4113,-1.376 0.4486,0 0.8417,0.1966 1.1693,0.5192 -0.1512,-0.5998 -0.2923,-1.1694 -0.756,-1.7793 -0.2974,-0.3931 -0.7359,-0.7308 -1.2702,-0.7308 -0.1613,0 -0.6804,0.0353 -0.877,0.4838 0.1814,0 0.3327,0 0.4939,0.1412 0.116,0.1058 0.2319,0.252 0.2319,0.4738 0,0.3578 -0.3125,0.4032 -0.4284,0.4032 -0.2672,0 -0.6452,-0.1815 -0.6452,-0.751 0,-0.5797 0.5091,-1.003 1.2248,-1.003 1.1895,0 2.3841,1.0483 2.7067,2.3588 z"
         clip-rule="evenodd"
         id="path240" />
    </clipPath>
    <clipPath
       clipPathUnits="userSpaceOnUse"
       id="clipPath248">
      <path
         d="M 0,0 H 300 V 200 H 0 Z"
         id="path246" />
    </clipPath>
    <clipPath
       clipPathUnits="userSpaceOnUse"
       id="clipPath258">
      <path
         d="m 165.4754,121.0651 c 0.1966,0 0.4033,0 0.4033,0.2319 0,0.2318 -0.2067,0.2318 -0.4033,0.2318 h -4.9042 c 0.1361,1.5474 1.4667,2.6563 3.0998,2.6563 h 1.8044 c 0.1966,0 0.4033,0 0.4033,0.2318 0,0.2319 -0.2067,0.2319 -0.4033,0.2319 h -1.8296 c -1.9758,0 -3.5534,-1.502 -3.5534,-3.3518 0,-1.8498 1.5776,-3.3569 3.5534,-3.3569 h 1.8296 c 0.1966,0 0.4033,0 0.4033,0.2319 0,0.2318 -0.2067,0.2318 -0.4033,0.2318 h -1.8044 c -1.6331,0 -2.9637,1.1089 -3.0998,2.6613 z"
         clip-rule="evenodd"
         id="path256" />
    </clipPath>
    <clipPath
       clipPathUnits="userSpaceOnUse"
       id="clipPath264">
      <path
         d="M 0,0 H 300 V 200 H 0 Z"
         id="path262" />
    </clipPath>
    <clipPath
       clipPathUnits="userSpaceOnUse"
       id="clipPath274">
      <path
         d="m 173.4635,122.7183 h 1.9405 c 0.1512,0 0.5696,0 0.5696,0.3932 0,0.2772 -0.2419,0.2772 -0.4637,0.2772 h -3.2409 c -0.2319,0 -0.6805,0 -1.1896,-0.5444 -0.383,-0.4133 -0.7056,-0.9728 -0.7056,-1.0383 0,-0.0151 0,-0.1159 0.1411,-0.1159 0.0907,0 0.1109,0.0454 0.1815,0.1361 0.5695,0.8921 1.2248,0.8921 1.4717,0.8921 h 0.9577 l -1.1341,-3.7147 c -0.0453,-0.1361 -0.1159,-0.378 -0.1159,-0.4284 0,-0.126 0.0807,-0.3125 0.3377,-0.3125 0.3831,0 0.4385,0.3276 0.4738,0.499 z"
         clip-rule="evenodd"
         id="path272" />
    </clipPath>
    <clipPath
       clipPathUnits="userSpaceOnUse"
       id="clipPath280">
      <path
         d="M 0,0 H 300 V 200 H 0 Z"
         id="path278" />
    </clipPath>
    <clipPath
       clipPathUnits="userSpaceOnUse"
       id="clipPath290">
      <path
         d="m 177.654,122.0457 c 0.0101,0.0151 0.0302,0.121 0.0302,0.1311 0,0.0403 -0.0302,0.1108 -0.126,0.1108 -0.1613,0 -0.8367,-0.0655 -1.0383,-0.0806 -0.0655,-0.005 -0.1764,-0.0151 -0.1764,-0.1865 0,-0.1109 0.1109,-0.1109 0.2067,-0.1109 0.3931,0 0.3931,-0.0605 0.3931,-0.121 0,-0.0604 -0.0202,-0.1058 -0.0353,-0.1814 l -1.1391,-4.5817 c -0.0403,-0.1461 -0.0403,-0.1612 -0.0403,-0.1814 0,-0.121 0.0958,-0.2571 0.2722,-0.2571 0.2217,0 0.3225,0.1613 0.373,0.3377 0.0151,0.0353 0.3629,1.4617 0.3981,1.5726 0.5746,-0.0554 1.0383,-0.2419 1.0383,-0.6653 0,-0.0403 0,-0.0807 -0.0201,-0.1613 -0.0303,-0.121 -0.0303,-0.1613 -0.0303,-0.252 0,-0.5746 0.4688,-0.8317 0.8569,-0.8317 0.7863,0 1.0282,1.2299 1.0282,1.24 0,0.1058 -0.1058,0.1058 -0.126,0.1058 -0.1159,0 -0.126,-0.0403 -0.1663,-0.1966 -0.0958,-0.3478 -0.3125,-0.9224 -0.7107,-0.9224 -0.2167,0 -0.2823,0.2017 -0.2823,0.4184 0,0.1411 0,0.1562 0.0454,0.3679 0.0101,0.0252 0.0403,0.1613 0.0403,0.2521 0,0.7207 -0.9677,0.8316 -1.3105,0.8568 0.2369,0.1462 0.5343,0.4133 0.6754,0.5343 0.4083,0.3881 0.8166,0.7712 1.2702,0.7712 0.0958,0 0.2016,-0.0252 0.2671,-0.1059 -0.3477,-0.0554 -0.4233,-0.3327 -0.4233,-0.4536 0,-0.1815 0.1411,-0.3024 0.3276,-0.3024 0.2167,0 0.4586,0.1814 0.4586,0.5191 0,0.2671 -0.1915,0.5696 -0.625,0.5696 -0.4586,0 -0.882,-0.3327 -1.2953,-0.7158 -0.3377,-0.3225 -0.6049,-0.5746 -0.9375,-0.7106 z"
         clip-rule="evenodd"
         id="path288" />
    </clipPath>
    <clipPath
       clipPathUnits="userSpaceOnUse"
       id="clipPath296">
      <path
         d="M 0,0 H 300 V 200 H 0 Z"
         id="path294" />
    </clipPath>
    <clipPath
       clipPathUnits="userSpaceOnUse"
       id="clipPath306">
      <path
         d="m 183.5146,117.3608 c 0,0.4184 0,2.0061 -1.5121,2.0061 -1.5071,0 -1.5071,-1.5877 -1.5071,-2.0061 0,-0.4183 0,-1.9758 1.5071,-1.9758 1.5121,0 1.5121,1.5575 1.5121,1.9758 z m -1.5121,-1.7842 c -0.2117,0 -0.7006,0.0756 -0.8417,0.6552 -0.0807,0.3125 -0.0908,0.7258 -0.0908,1.1996 0,0.4284 0,0.8266 0.0958,1.1593 0.1462,0.4838 0.5897,0.5846 0.8367,0.5846 0.4284,0 0.7359,-0.2217 0.8518,-0.625 0.0807,-0.2973 0.0807,-0.7762 0.0807,-1.1189 0,-0.3931 0,-0.8619 -0.0857,-1.2097 -0.1512,-0.5595 -0.6149,-0.6451 -0.8468,-0.6451 z"
         id="path304" />
    </clipPath>
    <clipPath
       clipPathUnits="userSpaceOnUse"
       id="clipPath312">
      <path
         d="M 0,0 H 300 V 200 H 0 Z"
         id="path310" />
    </clipPath>
    <clipPath
       clipPathUnits="userSpaceOnUse"
       id="clipPath322">
      <path
         d="M 0,0 H 300 V 200 H 0 Z"
         id="path320" />
    </clipPath>
    <clipPath
       clipPathUnits="userSpaceOnUse"
       id="clipPath338">
      <path
         d="m 93,47 c 1.10457,0 2,0.89543 2,2 0,1.10457 -0.89543,2 -2,2 -1.10457,0 -2,-0.89543 -2,-2 0,-1.10457 0.89543,-2 2,-2 z"
         clip-rule="evenodd"
         id="path336" />
    </clipPath>
    <clipPath
       clipPathUnits="userSpaceOnUse"
       id="clipPath344">
      <path
         d="M 0,0 H 300 V 200 H 0 Z"
         id="path342" />
    </clipPath>
    <clipPath
       clipPathUnits="userSpaceOnUse"
       id="clipPath354">
      <path
         d="M 0,0 H 300 V 200 H 0 Z"
         id="path352" />
    </clipPath>
    <clipPath
       clipPathUnits="userSpaceOnUse"
       id="clipPath366">
      <path
         d="m 126,51 c 1.1046,0 2,0.89543 2,2 0,1.10457 -0.8954,2 -2,2 -1.1046,0 -2,-0.89543 -2,-2 0,-1.10457 0.8954,-2 2,-2 z"
         clip-rule="evenodd"
         id="path364" />
    </clipPath>
    <clipPath
       clipPathUnits="userSpaceOnUse"
       id="clipPath372">
      <path
         d="M 0,0 H 300 V 200 H 0 Z"
         id="path370" />
    </clipPath>
    <clipPath
       clipPathUnits="userSpaceOnUse"
       id="clipPath382">
      <path
         d="M 0,0 H 300 V 200 H 0 Z"
         id="path380" />
    </clipPath>
    <clipPath
       clipPathUnits="userSpaceOnUse"
       id="clipPath394">
      <path
         d="m 158,47 c 1.1046,0 2,0.89543 2,2 0,1.10457 -0.8954,2 -2,2 -1.1046,0 -2,-0.89543 -2,-2 0,-1.10457 0.8954,-2 2,-2 z"
         clip-rule="evenodd"
         id="path392" />
    </clipPath>
    <clipPath
       clipPathUnits="userSpaceOnUse"
       id="clipPath400">
      <path
         d="M 0,0 H 300 V 200 H 0 Z"
         id="path398" />
    </clipPath>
    <clipPath
       clipPathUnits="userSpaceOnUse"
       id="clipPath410">
      <path
         d="M 0,0 H 300 V 200 H 0 Z"
         id="path408" />
    </clipPath>
    <clipPath
       clipPathUnits="userSpaceOnUse"
       id="clipPath422">
      <path
         d="m 193,51 c 1.1046,0 2,0.89543 2,2 0,1.10457 -0.8954,2 -2,2 -1.1046,0 -2,-0.89543 -2,-2 0,-1.10457 0.8954,-2 2,-2 z"
         clip-rule="evenodd"
         id="path420" />
    </clipPath>
    <clipPath
       clipPathUnits="userSpaceOnUse"
       id="clipPath428">
      <path
         d="M 0,0 H 300 V 200 H 0 Z"
         id="path426" />
    </clipPath>
    <clipPath
       clipPathUnits="userSpaceOnUse"
       id="clipPath438">
      <path
         d="M 0,0 H 300 V 200 H 0 Z"
         id="path436" />
    </clipPath>
    <clipPath
       clipPathUnits="userSpaceOnUse"
       id="clipPath450">
      <path
         d="m 88,17 c 1.10457,0 2,0.89543 2,2 0,1.10457 -0.89543,2 -2,2 -1.10457,0 -2,-0.89543 -2,-2 0,-1.10457 0.89543,-2 2,-2 z"
         clip-rule="evenodd"
         id="path448" />
    </clipPath>
    <clipPath
       clipPathUnits="userSpaceOnUse"
       id="clipPath456">
      <path
         d="M 0,0 H 300 V 200 H 0 Z"
         id="path454" />
    </clipPath>
    <clipPath
       clipPathUnits="userSpaceOnUse"
       id="clipPath466">
      <path
         d="M 0,0 H 300 V 200 H 0 Z"
         id="path464" />
    </clipPath>
    <clipPath
       clipPathUnits="userSpaceOnUse"
       id="clipPath478">
      <path
         d="m 121,21 c 1.1046,0 2,0.89543 2,2 0,1.10457 -0.8954,2 -2,2 -1.1046,0 -2,-0.89543 -2,-2 0,-1.10457 0.8954,-2 2,-2 z"
         clip-rule="evenodd"
         id="path476" />
    </clipPath>
    <clipPath
       clipPathUnits="userSpaceOnUse"
       id="clipPath484">
      <path
         d="M 0,0 H 300 V 200 H 0 Z"
         id="path482" />
    </clipPath>
    <clipPath
       clipPathUnits="userSpaceOnUse"
       id="clipPath494">
      <path
         d="M 0,0 H 300 V 200 H 0 Z"
         id="path492" />
    </clipPath>
    <clipPath
       clipPathUnits="userSpaceOnUse"
       id="clipPath506">
      <path
         d="m 153,17 c 1.1046,0 2,0.89543 2,2 0,1.10457 -0.8954,2 -2,2 -1.1046,0 -2,-0.89543 -2,-2 0,-1.10457 0.8954,-2 2,-2 z"
         clip-rule="evenodd"
         id="path504" />
    </clipPath>
    <clipPath
       clipPathUnits="userSpaceOnUse"
       id="clipPath512">
      <path
         d="M 0,0 H 300 V 200 H 0 Z"
         id="path510" />
    </clipPath>
    <clipPath
       clipPathUnits="userSpaceOnUse"
       id="clipPath522">
      <path
         d="M 0,0 H 300 V 200 H 0 Z"
         id="path520" />
    </clipPath>
    <clipPath
       clipPathUnits="userSpaceOnUse"
       id="clipPath534">
      <path
         d="m 188,21 c 1.1046,0 2,0.89543 2,2 0,1.10457 -0.8954,2 -2,2 -1.1046,0 -2,-0.89543 -2,-2 0,-1.10457 0.8954,-2 2,-2 z"
         clip-rule="evenodd"
         id="path532" />
    </clipPath>
    <clipPath
       clipPathUnits="userSpaceOnUse"
       id="clipPath540">
      <path
         d="M 0,0 H 300 V 200 H 0 Z"
         id="path538" />
    </clipPath>
    <clipPath
       clipPathUnits="userSpaceOnUse"
       id="clipPath550">
      <path
         d="M 0,0 H 300 V 200 H 0 Z"
         id="path548" />
    </clipPath>
    <clipPath
       clipPathUnits="userSpaceOnUse"
       id="clipPath562">
      <path
         d="m 97.43387,58.37322 c 0.11916,0.0688 0.24444,0.14113 0.16329,0.28168 -0.08115,0.14056 -0.20643,0.06823 -0.32559,-5.7e-4 l -2.97303,-1.71648 c -0.45909,0.98568 -0.04053,2.12362 0.94946,2.69519 l 1.09388,0.63155 c 0.11917,0.0688 0.24444,0.14113 0.16329,0.28169 -0.08114,0.14055 -0.20642,0.06822 -0.32559,-5.8e-4 l -1.10916,-0.64037 c -1.19776,-0.69153 -1.62844,-2.15425 -0.98101,-3.27563 0.64743,-1.12138 2.13128,-1.48282 3.32905,-0.79129 l 1.10916,0.64038 c 0.11916,0.0688 0.24444,0.14113 0.16329,0.28168 -0.08115,0.14056 -0.20643,0.06823 -0.32559,-5.7e-4 l -1.09388,-0.63156 c -0.98999,-0.57157 -2.18476,-0.36508 -2.81061,0.5284 z"
         clip-rule="evenodd"
         id="path560" />
    </clipPath>
    <clipPath
       clipPathUnits="userSpaceOnUse"
       id="clipPath568">
      <path
         d="M 0,0 H 300 V 200 H 0 Z"
         id="path566" />
    </clipPath>
    <clipPath
       clipPathUnits="userSpaceOnUse"
       id="clipPath578">
      <path
         d="m 103.2683,63.07801 c 0.0917,0.05293 0.3422,0.19758 0.2046,0.43591 -0.097,0.16806 -0.2437,0.08338 -0.369,0.01105 l -1.6011,-0.92439 c -1.0572,-0.61039 -1.1677,-2.21828 -0.6861,-3.05244 0.3563,-0.61722 1.0541,-0.86619 1.6897,-0.49925 0.828,0.47807 1.2744,1.86428 0.6499,2.94593 -0.0688,0.11917 -0.2629,0.45528 -0.6611,0.63687 z m -0.841,-3.87105 c -0.3452,-0.19935 -0.7728,-0.10803 -1.0638,0.39613 -0.1218,0.21083 -0.3679,0.83467 -0.3633,1.39135 0.0176,0.65389 0.3798,0.99335 0.6181,1.13095 0.5897,0.34048 0.9142,-0.08739 1.0412,-0.30739 0.1887,-0.32694 0.3816,-0.98559 0.3497,-1.48069 -0.0369,-0.57126 -0.3099,-0.97334 -0.5819,-1.13035 z"
         id="path576" />
    </clipPath>
    <clipPath
       clipPathUnits="userSpaceOnUse"
       id="clipPath584">
      <path
         d="M 0,0 H 300 V 200 H 0 Z"
         id="path582" />
    </clipPath>
    <clipPath
       clipPathUnits="userSpaceOnUse"
       id="clipPath594">
      <path
         d="m 105.4155,63.77401 c 8e-4,0.01269 -0.024,0.08391 -0.0276,0.09002 -0.0141,0.02445 -0.0571,0.05664 -0.1152,0.02312 -0.0978,-0.05645 -0.4843,-0.33256 -0.6012,-0.41229 -0.0379,-0.02599 -0.1016,-0.07091 -0.0417,-0.1748 0.0389,-0.06722 0.1061,-0.02841 0.1641,0.0051 0.2384,0.1376 0.2595,0.10093 0.2807,0.06426 0.0212,-0.03666 0.0248,-0.07122 0.0421,-0.12234 l 0.913,-3.17617 c 0.0268,-0.10273 0.0321,-0.11189 0.0391,-0.12412 0.0423,-0.07333 0.148,-0.12231 0.255,-0.06057 0.1344,0.07762 0.1391,0.21068 0.1079,0.33527 -0.003,0.02668 -0.2916,1.01312 -0.309,1.09269 0.3677,0.1675 0.7141,0.21674 0.8623,-0.03992 0.0141,-0.02445 0.0282,-0.04889 0.0442,-0.10484 0.024,-0.08391 0.0381,-0.10836 0.0699,-0.16336 0.2011,-0.34833 0.5752,-0.3401 0.8105,-0.20426 0.4767,0.2752 0.1929,1.10543 0.1894,1.11154 -0.0371,0.06416 -0.1013,0.02712 -0.1135,0.02006 -0.0703,-0.04057 -0.0623,-0.06855 -0.032,-0.17738 0.0637,-0.24435 0.1334,-0.66854 -0.108,-0.8079 -0.1314,-0.07586 -0.2417,0.02343 -0.3175,0.15482 -0.0494,0.08555 -0.0547,0.09472 -0.1013,0.23893 -0.003,0.0188 -0.032,0.11189 -0.0638,0.16689 -0.2522,0.43694 -0.8777,0.16545 -1.0943,0.06077 0.0924,0.17152 0.1792,0.43755 0.2224,0.56028 0.1117,0.37817 0.2251,0.75328 0.5001,0.91205 0.0581,0.03352 0.1311,0.05529 0.199,0.02933 -0.1914,-0.15533 -0.1402,-0.34985 -0.0979,-0.42318 0.0635,-0.11 0.1914,-0.13394 0.3045,-0.06867 0.1314,0.07586 0.2145,0.27054 0.0963,0.47526 -0.0935,0.16194 -0.3154,0.27824 -0.5782,0.12652 -0.2781,-0.16053 -0.4183,-0.51038 -0.5348,-0.88726 -0.0918,-0.31375 -0.1655,-0.56002 -0.3196,-0.75896 l -0.6449,2.2391 z"
         clip-rule="evenodd"
         id="path592" />
    </clipPath>
    <clipPath
       clipPathUnits="userSpaceOnUse"
       id="clipPath600">
      <path
         d="M 0,0 H 300 V 200 H 0 Z"
         id="path598" />
    </clipPath>
    <clipPath
       clipPathUnits="userSpaceOnUse"
       id="clipPath610">
      <path
         d="m 132.6892,61.69898 c 0.1192,0.0688 0.2445,0.14113 0.1633,0.28168 -0.0811,0.14056 -0.2064,0.06823 -0.3256,-5.7e-4 l -2.973,-1.71648 c -0.4591,0.98568 -0.0405,2.12362 0.9495,2.69519 l 1.0938,0.63156 c 0.1192,0.0688 0.2445,0.14113 0.1633,0.28168 -0.0811,0.14055 -0.2064,0.06823 -0.3256,-5.7e-4 l -1.1091,-0.64038 c -1.1978,-0.69153 -1.6285,-2.15425 -0.981,-3.27563 0.6474,-1.12138 2.1312,-1.48281 3.329,-0.79128 l 1.1092,0.64037 c 0.1191,0.0688 0.2444,0.14113 0.1633,0.28168 -0.0812,0.14056 -0.2065,0.06823 -0.3256,-5.7e-4 l -1.0939,-0.63155 c -0.99,-0.57158 -2.1848,-0.36508 -2.8106,0.52839 z"
         clip-rule="evenodd"
         id="path608" />
    </clipPath>
    <clipPath
       clipPathUnits="userSpaceOnUse"
       id="clipPath616">
      <path
         d="M 0,0 H 300 V 200 H 0 Z"
         id="path614" />
    </clipPath>
    <clipPath
       clipPathUnits="userSpaceOnUse"
       id="clipPath626">
      <path
         d="m 138.5236,66.40378 c 0.0917,0.05292 0.3423,0.19758 0.2047,0.43591 -0.0971,0.16805 -0.2437,0.08337 -0.369,0.01105 l -1.6011,-0.9244 c -1.0572,-0.61038 -1.1678,-2.21828 -0.6862,-3.05244 0.3564,-0.61722 1.0542,-0.86618 1.6897,-0.49925 0.8281,0.47808 1.2744,1.86428 0.6499,2.94594 -0.0688,0.11916 -0.2628,0.45527 -0.661,0.63686 z m -0.8409,-3.87106 c -0.3453,-0.19934 -0.7728,-0.10803 -1.0639,0.39613 -0.1217,0.21083 -0.3678,0.83467 -0.3633,1.39135 0.0177,0.65389 0.3798,0.99335 0.6182,1.13095 0.5897,0.34048 0.9141,-0.08739 1.0411,-0.30739 0.1888,-0.32694 0.3817,-0.98558 0.3497,-1.48068 -0.0368,-0.57127 -0.3099,-0.97335 -0.5818,-1.13036 z"
         id="path624" />
    </clipPath>
    <clipPath
       clipPathUnits="userSpaceOnUse"
       id="clipPath632">
      <path
         d="M 0,0 H 300 V 200 H 0 Z"
         id="path630" />
    </clipPath>
    <clipPath
       clipPathUnits="userSpaceOnUse"
       id="clipPath642">
      <path
         d="m 140.6708,67.09977 c 8e-4,0.01269 -0.024,0.08392 -0.0275,0.09003 -0.0141,0.02444 -0.0572,0.05663 -0.1152,0.02312 -0.0978,-0.05646 -0.4843,-0.33257 -0.6012,-0.4123 -0.038,-0.02599 -0.1017,-0.07091 -0.0417,-0.1748 0.0388,-0.06722 0.106,-0.02841 0.1641,0.0051 0.2383,0.1376 0.2595,0.10093 0.2807,0.06427 0.0211,-0.03667 0.0248,-0.07123 0.0421,-0.12235 l 0.913,-3.17617 c 0.0267,-0.10272 0.032,-0.11189 0.0391,-0.12411 0.0423,-0.07334 0.148,-0.12232 0.2549,-0.06057 0.1345,0.07762 0.1391,0.21068 0.1079,0.33526 -0.003,0.02668 -0.2915,1.01312 -0.309,1.09269 0.3678,0.1675 0.7141,0.21674 0.8623,-0.03992 0.0141,-0.02444 0.0283,-0.04889 0.0443,-0.10483 0.024,-0.08392 0.0381,-0.10837 0.0698,-0.16336 0.2011,-0.34834 0.5753,-0.34011 0.8106,-0.20427 0.4766,0.2752 0.1928,1.10543 0.1893,1.11154 -0.037,0.06417 -0.1012,0.02712 -0.1134,0.02007 -0.0703,-0.04058 -0.0623,-0.06855 -0.0321,-0.17739 0.0637,-0.24435 0.1334,-0.66853 -0.108,-0.8079 -0.1313,-0.07586 -0.2416,0.02343 -0.3175,0.15482 -0.0494,0.08555 -0.0547,0.09472 -0.1013,0.23893 -0.003,0.01881 -0.032,0.11189 -0.0637,0.16689 -0.2523,0.43694 -0.8778,0.16545 -1.0944,0.06077 0.0925,0.17153 0.1793,0.43755 0.2225,0.56028 0.1116,0.37817 0.2251,0.75328 0.5001,0.91205 0.058,0.03352 0.131,0.05529 0.199,0.02933 -0.1915,-0.15533 -0.1403,-0.34985 -0.0979,-0.42318 0.0635,-0.11 0.1914,-0.13394 0.3044,-0.06866 0.1314,0.07585 0.2146,0.27053 0.0964,0.47525 -0.0935,0.16194 -0.3155,0.27824 -0.5783,0.12653 -0.278,-0.16054 -0.4182,-0.51039 -0.5347,-0.88727 -0.0918,-0.31375 -0.1656,-0.56002 -0.3196,-0.75895 l -0.645,2.23909 z"
         clip-rule="evenodd"
         id="path640" />
    </clipPath>
    <clipPath
       clipPathUnits="userSpaceOnUse"
       id="clipPath648">
      <path
         d="M 0,0 H 300 V 200 H 0 Z"
         id="path646" />
    </clipPath>
    <clipPath
       clipPathUnits="userSpaceOnUse"
       id="clipPath658">
      <path
         d="m 163.8478,58.43177 c 0.1192,0.0688 0.2444,0.14113 0.1633,0.28168 -0.0812,0.14056 -0.2064,0.06823 -0.3256,-5.7e-4 l -2.973,-1.71648 c -0.4591,0.98568 -0.0406,2.12362 0.9494,2.69519 l 1.0939,0.63155 c 0.1192,0.0688 0.2445,0.14113 0.1633,0.28169 -0.0811,0.14055 -0.2064,0.06822 -0.3256,-5.8e-4 l -1.1091,-0.64037 c -1.1978,-0.69153 -1.6285,-2.15425 -0.9811,-3.27563 0.6475,-1.12138 2.1313,-1.48282 3.3291,-0.79128 l 1.1092,0.64037 c 0.1191,0.0688 0.2444,0.14113 0.1632,0.28168 -0.0811,0.14056 -0.2064,0.06823 -0.3255,-5.7e-4 l -1.0939,-0.63155 c -0.99,-0.57158 -2.1848,-0.36509 -2.8106,0.52839 z"
         clip-rule="evenodd"
         id="path656" />
    </clipPath>
    <clipPath
       clipPathUnits="userSpaceOnUse"
       id="clipPath664">
      <path
         d="M 0,0 H 300 V 200 H 0 Z"
         id="path662" />
    </clipPath>
    <clipPath
       clipPathUnits="userSpaceOnUse"
       id="clipPath674">
      <path
         d="m 169.6822,63.13656 c 0.0917,0.05293 0.3422,0.19758 0.2046,0.43592 -0.097,0.16805 -0.2436,0.08337 -0.3689,0.01104 l -1.6011,-0.92439 c -1.0572,-0.61038 -1.1678,-2.21828 -0.6862,-3.05244 0.3564,-0.61722 1.0542,-0.86618 1.6897,-0.49925 0.8281,0.47808 1.2744,1.86428 0.6499,2.94594 -0.0688,0.11916 -0.2628,0.45527 -0.661,0.63686 z m -0.8409,-3.87105 c -0.3453,-0.19934 -0.7728,-0.10803 -1.0639,0.39613 -0.1217,0.21083 -0.3678,0.83467 -0.3633,1.39135 0.0177,0.65389 0.3798,0.99335 0.6181,1.13095 0.5898,0.34048 0.9142,-0.08739 1.0412,-0.30739 0.1888,-0.32694 0.3816,-0.98559 0.3497,-1.48068 -0.0368,-0.57127 -0.3099,-0.97335 -0.5818,-1.13036 z"
         id="path672" />
    </clipPath>
    <clipPath
       clipPathUnits="userSpaceOnUse"
       id="clipPath680">
      <path
         d="M 0,0 H 300 V 200 H 0 Z"
         id="path678" />
    </clipPath>
    <clipPath
       clipPathUnits="userSpaceOnUse"
       id="clipPath690">
      <path
         d="m 171.8294,63.83256 c 8e-4,0.01269 -0.024,0.08391 -0.0275,0.09002 -0.0142,0.02445 -0.0572,0.05664 -0.1152,0.02312 -0.0978,-0.05645 -0.4843,-0.33256 -0.6013,-0.41229 -0.0379,-0.02599 -0.1016,-0.07091 -0.0416,-0.1748 0.0388,-0.06722 0.106,-0.02841 0.1641,0.0051 0.2383,0.1376 0.2595,0.10093 0.2806,0.06426 0.0212,-0.03666 0.0249,-0.07122 0.0422,-0.12234 l 0.913,-3.17617 c 0.0267,-0.10273 0.032,-0.11189 0.039,-0.12412 0.0424,-0.07333 0.1481,-0.12231 0.255,-0.06057 0.1345,0.07763 0.1391,0.21069 0.1079,0.33527 -0.003,0.02668 -0.2916,1.01312 -0.309,1.09269 0.3677,0.1675 0.7141,0.21674 0.8623,-0.03992 0.0141,-0.02445 0.0282,-0.04889 0.0442,-0.10484 0.024,-0.08391 0.0382,-0.10836 0.0699,-0.16336 0.2011,-0.34833 0.5753,-0.3401 0.8105,-0.20426 0.4767,0.2752 0.1929,1.10543 0.1894,1.11154 -0.0371,0.06417 -0.1012,0.02712 -0.1134,0.02006 -0.0703,-0.04057 -0.0623,-0.06854 -0.0321,-0.17738 0.0637,-0.24435 0.1334,-0.66854 -0.108,-0.8079 -0.1314,-0.07586 -0.2416,0.02343 -0.3175,0.15482 -0.0494,0.08555 -0.0547,0.09472 -0.1013,0.23893 -0.003,0.0188 -0.032,0.11189 -0.0637,0.16689 -0.2523,0.43694 -0.8778,0.16545 -1.0944,0.06077 0.0925,0.17152 0.1792,0.43755 0.2225,0.56028 0.1116,0.37817 0.225,0.75328 0.5,0.91205 0.0581,0.03352 0.1311,0.05529 0.199,0.02933 -0.1914,-0.15533 -0.1402,-0.34985 -0.0979,-0.42318 0.0636,-0.11 0.1914,-0.13394 0.3045,-0.06867 0.1314,0.07586 0.2145,0.27054 0.0963,0.47526 -0.0934,0.16194 -0.3154,0.27824 -0.5782,0.12652 -0.278,-0.16053 -0.4183,-0.51038 -0.5348,-0.88726 -0.0918,-0.31375 -0.1655,-0.56002 -0.3195,-0.75895 l -0.645,2.23909 z"
         clip-rule="evenodd"
         id="path688" />
    </clipPath>
    <clipPath
       clipPathUnits="userSpaceOnUse"
       id="clipPath696">
      <path
         d="M 0,0 H 300 V 200 H 0 Z"
         id="path694" />
    </clipPath>
    <clipPath
       clipPathUnits="userSpaceOnUse"
       id="clipPath706">
      <path
         d="m 196.8478,60.69898 c 0.1192,0.0688 0.2444,0.14113 0.1633,0.28168 -0.0812,0.14056 -0.2064,0.06823 -0.3256,-5.7e-4 l -2.973,-1.71648 c -0.4591,0.98568 -0.0406,2.12362 0.9494,2.69519 l 1.0939,0.63156 c 0.1192,0.0688 0.2445,0.14113 0.1633,0.28168 -0.0811,0.14055 -0.2064,0.06823 -0.3256,-5.7e-4 l -1.1091,-0.64038 c -1.1978,-0.69153 -1.6285,-2.15425 -0.9811,-3.27563 0.6475,-1.12138 2.1313,-1.48281 3.3291,-0.79128 l 1.1092,0.64037 c 0.1191,0.0688 0.2444,0.14113 0.1632,0.28168 -0.0811,0.14056 -0.2064,0.06823 -0.3255,-5.7e-4 l -1.0939,-0.63155 c -0.99,-0.57158 -2.1848,-0.36508 -2.8106,0.52839 z"
         clip-rule="evenodd"
         id="path704" />
    </clipPath>
    <clipPath
       clipPathUnits="userSpaceOnUse"
       id="clipPath712">
      <path
         d="M 0,0 H 300 V 200 H 0 Z"
         id="path710" />
    </clipPath>
    <clipPath
       clipPathUnits="userSpaceOnUse"
       id="clipPath722">
      <path
         d="m 202.6822,65.40378 c 0.0917,0.05292 0.3422,0.19758 0.2046,0.43591 -0.097,0.16805 -0.2436,0.08337 -0.3689,0.01105 l -1.6011,-0.9244 c -1.0572,-0.61038 -1.1678,-2.21828 -0.6862,-3.05244 0.3564,-0.61722 1.0542,-0.86618 1.6897,-0.49925 0.8281,0.47808 1.2744,1.86428 0.6499,2.94594 -0.0688,0.11916 -0.2628,0.45527 -0.661,0.63686 z m -0.8409,-3.87106 c -0.3453,-0.19934 -0.7728,-0.10803 -1.0639,0.39613 -0.1217,0.21083 -0.3678,0.83467 -0.3633,1.39135 0.0177,0.65389 0.3798,0.99335 0.6181,1.13095 0.5898,0.34048 0.9142,-0.08739 1.0412,-0.30739 0.1888,-0.32694 0.3816,-0.98558 0.3497,-1.48068 -0.0368,-0.57127 -0.3099,-0.97335 -0.5818,-1.13036 z"
         id="path720" />
    </clipPath>
    <clipPath
       clipPathUnits="userSpaceOnUse"
       id="clipPath728">
      <path
         d="M 0,0 H 300 V 200 H 0 Z"
         id="path726" />
    </clipPath>
    <clipPath
       clipPathUnits="userSpaceOnUse"
       id="clipPath738">
      <path
         d="m 204.8294,66.09977 c 8e-4,0.01269 -0.024,0.08392 -0.0275,0.09003 -0.0142,0.02444 -0.0572,0.05663 -0.1152,0.02312 -0.0978,-0.05646 -0.4843,-0.33257 -0.6013,-0.4123 -0.0379,-0.02599 -0.1016,-0.07091 -0.0416,-0.1748 0.0388,-0.06722 0.106,-0.02841 0.1641,0.0051 0.2383,0.1376 0.2595,0.10093 0.2806,0.06427 0.0212,-0.03667 0.0249,-0.07123 0.0422,-0.12235 l 0.913,-3.17617 c 0.0267,-0.10272 0.032,-0.11189 0.039,-0.12411 0.0424,-0.07334 0.1481,-0.12232 0.255,-0.06057 0.1345,0.07762 0.1391,0.21068 0.1079,0.33526 -0.003,0.02668 -0.2916,1.01312 -0.309,1.09269 0.3677,0.1675 0.7141,0.21674 0.8623,-0.03992 0.0141,-0.02444 0.0282,-0.04889 0.0442,-0.10483 0.024,-0.08392 0.0382,-0.10837 0.0699,-0.16336 0.2011,-0.34834 0.5753,-0.34011 0.8105,-0.20427 0.4767,0.2752 0.1929,1.10543 0.1894,1.11154 -0.0371,0.06417 -0.1012,0.02712 -0.1134,0.02007 -0.0703,-0.04058 -0.0623,-0.06855 -0.0321,-0.17739 0.0637,-0.24435 0.1334,-0.66853 -0.108,-0.8079 -0.1314,-0.07586 -0.2416,0.02343 -0.3175,0.15482 -0.0494,0.08555 -0.0547,0.09472 -0.1013,0.23893 -0.003,0.01881 -0.032,0.11189 -0.0637,0.16689 -0.2523,0.43694 -0.8778,0.16545 -1.0944,0.06077 0.0925,0.17153 0.1792,0.43755 0.2225,0.56028 0.1116,0.37817 0.225,0.75328 0.5,0.91205 0.0581,0.03352 0.1311,0.05529 0.199,0.02933 -0.1914,-0.15533 -0.1402,-0.34985 -0.0979,-0.42318 0.0636,-0.11 0.1914,-0.13394 0.3045,-0.06866 0.1314,0.07585 0.2145,0.27053 0.0963,0.47525 -0.0934,0.16194 -0.3154,0.27824 -0.5782,0.12653 -0.278,-0.16054 -0.4183,-0.51039 -0.5348,-0.88727 -0.0918,-0.31375 -0.1655,-0.56002 -0.3195,-0.75895 l -0.645,2.23909 z"
         clip-rule="evenodd"
         id="path736" />
    </clipPath>
    <clipPath
       clipPathUnits="userSpaceOnUse"
       id="clipPath744">
      <path
         d="M 0,0 H 300 V 200 H 0 Z"
         id="path742" />
    </clipPath>
    <clipPath
       clipPathUnits="userSpaceOnUse"
       id="clipPath754">
      <path
         d="M 0,0 H 300 V 200 H 0 Z"
         id="path752" />
    </clipPath>
    <clipPath
       clipPathUnits="userSpaceOnUse"
       id="clipPath782">
      <path
         d="m 234,57 h 8.2143 V 47.21484 H 234 Z"
         clip-rule="evenodd"
         id="path780" />
    </clipPath>
    <clipPath
       clipPathUnits="userSpaceOnUse"
       id="clipPath788">
      <path
         d="M 0,0 H 300 V 200 H 0 Z"
         id="path786" />
    </clipPath>
    <clipPath
       clipPathUnits="userSpaceOnUse"
       id="clipPath794">
      <path
         d="m 234,47 h 8 v 10 h -8 z"
         id="path792" />
    </clipPath>
    <clipPath
       clipPathUnits="userSpaceOnUse"
       id="clipPath798">
      <path
         d="m 241.8886,56.52631 c 0,0.03906 -0.0223,0.12835 -0.1395,0.12835 -0.0614,0 -0.0781,-0.01116 -0.2288,-0.18973 l -0.6138,-0.73103 c -0.3348,0.60268 -0.9989,0.92076 -1.8359,0.92076 -1.6239,0 -3.1585,-1.47321 -3.1585,-3.02455 0,-1.03795 0.6752,-1.62389 1.3281,-1.8192 l 1.3728,-0.35714 c 0.4743,-0.11161 1.1774,-0.30692 1.1774,-1.35603 0,-1.15513 -1.0491,-2.35491 -2.3047,-2.35491 -0.8203,0 -2.2433,0.27902 -2.2433,1.86942 0,0.30692 0.067,0.61384 0.0782,0.69196 0.0111,0.05023 0.0279,0.06139 0.0279,0.08929 0,0.12835 -0.0949,0.13951 -0.1563,0.13951 -0.0614,0 -0.0893,-0.01116 -0.1283,-0.05022 -0.0503,-0.05023 -0.7701,-2.97433 -0.7701,-3.0134 0,-0.07254 0.0669,-0.12277 0.1451,-0.12277 0.0613,0 0.0725,0.01117 0.2288,0.18974 l 0.625,0.73102 c 0.5524,-0.74218 1.423,-0.92076 2.1651,-0.92076 1.7411,0 3.2534,1.70201 3.2534,3.28684 0,0.88727 -0.4353,1.32254 -0.625,1.50111 -0.2958,0.29576 -0.4911,0.34598 -1.6295,0.64174 -0.279,0.07255 -0.7422,0.2009 -0.8594,0.2288 -0.3459,0.11718 -0.7812,0.48549 -0.7812,1.16629 0,1.03795 1.0268,2.12612 2.2433,2.12612 1.0658,0 1.8471,-0.55246 1.8471,-1.98661 0,-0.40737 -0.0558,-0.64174 -0.0558,-0.71987 0,-0.01116 0,-0.12276 0.1562,-0.12276 0.1284,0 0.1396,0.03348 0.1898,0.25111 z"
         clip-rule="evenodd"
         id="path796" />
    </clipPath>
    <clipPath
       clipPathUnits="userSpaceOnUse"
       id="clipPath802">
      <path
         d="m 233,47 h 10 v 10 h -10 z"
         id="path800" />
    </clipPath>
    <clipPath
       clipPathUnits="userSpaceOnUse"
       id="clipPath824">
      <path
         d="m 95.43359,13.64691 c 0.12368,-0.06032 0.25369,-0.12373 0.32484,0.02214 0.07115,0.14588 -0.05887,0.20929 -0.18255,0.26961 l -3.08552,1.50491 c 0.56045,0.93178 1.7379,1.22111 2.76535,0.71999 l 1.13527,-0.55371 c 0.12368,-0.06032 0.25369,-0.12373 0.32484,0.02214 0.07115,0.14588 -0.05887,0.20929 -0.18254,0.26961 l -1.15113,0.56144 c -1.24309,0.6063 -2.69657,0.1454 -3.2642,-1.01841 -0.56763,-1.16381 -0.03751,-2.59609 1.20558,-3.20239 l 1.15112,-0.56144 c 0.12368,-0.06032 0.2537,-0.12373 0.32484,0.02214 0.07115,0.14587 -0.05887,0.20929 -0.18254,0.26961 l -1.13527,0.55371 c -1.02746,0.50112 -1.52437,1.60709 -1.13362,2.62557 z"
         clip-rule="evenodd"
         id="path822" />
    </clipPath>
    <clipPath
       clipPathUnits="userSpaceOnUse"
       id="clipPath830">
      <path
         d="M 0,0 H 300 V 200 H 0 Z"
         id="path828" />
    </clipPath>
    <clipPath
       clipPathUnits="userSpaceOnUse"
       id="clipPath840">
      <path
         d="m 100.9666,12.23583 1.2209,-0.59547 c 0.0952,-0.0464 0.3584,-0.17477 0.479,0.07258 0.0851,0.17441 -0.0671,0.24865 -0.2067,0.31671 l -2.039,0.99451 c -0.1459,0.07114 -0.42812,0.2088 -0.91544,0.02253 -0.36784,-0.14249 -0.74247,-0.3955 -0.76258,-0.43673 -0.0046,-0.0095 -0.03557,-0.07293 0.05322,-0.11624 0.05708,-0.02784 0.08368,-0.0055 0.15592,0.02994 0.6321,0.38652 1.04435,0.18545 1.19978,0.10967 l 0.6025,-0.29387 -1.85343,-1.98914 c -0.0703,-0.0717 -0.18894,-0.20226 -0.2044,-0.23397 -0.03867,-0.07928 -0.04516,-0.221358 0.11657,-0.300239 0.24101,-0.117547 0.37642,0.071565 0.45121,0.168557 z"
         clip-rule="evenodd"
         id="path838" />
    </clipPath>
    <clipPath
       clipPathUnits="userSpaceOnUse"
       id="clipPath846">
      <path
         d="M 0,0 H 300 V 200 H 0 Z"
         id="path844" />
    </clipPath>
    <clipPath
       clipPathUnits="userSpaceOnUse"
       id="clipPath856">
      <path
         d="m 103.3967,10.52676 c 0.011,0.0064 0.0562,0.06682 0.0592,0.07317 0.0124,0.02537 0.015,0.07904 -0.0452,0.10843 -0.1015,0.04949 -0.5465,0.21552 -0.678,0.26788 -0.0428,0.01693 -0.1156,0.04462 -0.1682,-0.0632 -0.034,-0.06977 0.0357,-0.1038 0.096,-0.13318 0.2473,-0.12064 0.2288,-0.1587 0.2102,-0.19675 -0.0186,-0.03805 -0.0452,-0.06041 -0.0779,-0.10334 l -2.1226,-2.533021 c -0.0702,-0.07959 -0.0748,-0.089103 -0.081,-0.101788 -0.0372,-0.076107 -0.0187,-0.191115 0.0923,-0.245249 0.1396,-0.068053 0.2525,0.00249 0.3383,0.098013 0.0204,0.017558 0.6769,0.808273 0.7331,0.867212 0.3445,-0.211204 0.579,-0.47083 0.4491,-0.737206 -0.0124,-0.02537 -0.0248,-0.050739 -0.0622,-0.095291 -0.0561,-0.066827 -0.0685,-0.092196 -0.0963,-0.149277 -0.1764,-0.361511 0.0397,-0.66708 0.2839,-0.786174 0.4947,-0.241281 1.0243,0.458239 1.0273,0.464582 0.0325,0.066594 -0.0341,0.099074 -0.0468,0.105261 -0.0729,0.035573 -0.0916,0.013297 -0.1649,-0.072635 -0.167,-0.189423 -0.4797,-0.484427 -0.7302,-0.362239 -0.1364,0.066507 -0.1157,0.213459 -0.0492,0.349819 0.0433,0.088792 0.0479,0.098305 0.1414,0.217573 0.0141,0.012763 0.0749,0.089104 0.1027,0.146184 0.2212,0.453475 -0.3536,0.820201 -0.5615,0.94123 0.1939,0.01927 0.463,0.096087 0.5889,0.128888 0.3759,0.118898 0.7503,0.234625 1.0357,0.095424 0.0603,-0.029386 0.1191,-0.077722 0.1356,-0.148567 -0.2358,0.071837 -0.3684,-0.079376 -0.4056,-0.155483 -0.0556,-0.114162 -0.004,-0.233576 0.1134,-0.290803 0.1363,-0.066507 0.3442,-0.026586 0.4479,0.185881 0.0819,0.168071 0.0542,0.417113 -0.2185,0.550127 -0.2886,0.140747 -0.657,0.061372 -1.0346,-0.052808 -0.3115,-0.099326 -0.5569,-0.17591 -0.8079,-0.159451 z"
         clip-rule="evenodd"
         id="path854" />
    </clipPath>
    <clipPath
       clipPathUnits="userSpaceOnUse"
       id="clipPath862">
      <path
         d="M 0,0 H 300 V 200 H 0 Z"
         id="path860" />
    </clipPath>
    <clipPath
       clipPathUnits="userSpaceOnUse"
       id="clipPath872">
      <path
         d="m 128.4336,16.64691 c 0.1237,-0.06032 0.2537,-0.12373 0.3248,0.02214 0.0712,0.14588 -0.0588,0.20929 -0.1825,0.26961 l -3.0855,1.50491 c 0.5604,0.93178 1.7379,1.22111 2.7653,0.71999 l 1.1353,-0.55371 c 0.1237,-0.06032 0.2537,-0.12373 0.3248,0.02214 0.0712,0.14588 -0.0589,0.20929 -0.1825,0.26961 l -1.1512,0.56144 c -1.243,0.6063 -2.6965,0.1454 -3.2641,-1.01841 -0.5677,-1.16381 -0.0376,-2.59609 1.2055,-3.20239 l 1.1512,-0.56144 c 0.1236,-0.06032 0.2536,-0.12373 0.3248,0.02214 0.0711,0.14587 -0.0589,0.20929 -0.1826,0.26961 l -1.1352,0.55371 c -1.0275,0.50112 -1.5244,1.60709 -1.1336,2.62557 z"
         clip-rule="evenodd"
         id="path870" />
    </clipPath>
    <clipPath
       clipPathUnits="userSpaceOnUse"
       id="clipPath878">
      <path
         d="M 0,0 H 300 V 200 H 0 Z"
         id="path876" />
    </clipPath>
    <clipPath
       clipPathUnits="userSpaceOnUse"
       id="clipPath888">
      <path
         d="m 133.9666,15.23583 1.2209,-0.59547 c 0.0952,-0.0464 0.3584,-0.17477 0.479,0.07258 0.0851,0.17441 -0.0671,0.24865 -0.2067,0.31671 l -2.039,0.99451 c -0.1459,0.07114 -0.4281,0.2088 -0.9154,0.02253 -0.3679,-0.14249 -0.7425,-0.3955 -0.7626,-0.43673 -0.005,-0.0095 -0.0356,-0.07293 0.0532,-0.11624 0.0571,-0.02784 0.0837,-0.0055 0.1559,0.02994 0.6321,0.38652 1.0444,0.18545 1.1998,0.10967 l 0.6025,-0.29387 -1.8534,-1.98914 c -0.0703,-0.0717 -0.189,-0.20226 -0.2044,-0.23397 -0.0387,-0.07928 -0.0452,-0.22136 0.1165,-0.30024 0.241,-0.11755 0.3765,0.07157 0.4512,0.16856 z"
         clip-rule="evenodd"
         id="path886" />
    </clipPath>
    <clipPath
       clipPathUnits="userSpaceOnUse"
       id="clipPath894">
      <path
         d="M 0,0 H 300 V 200 H 0 Z"
         id="path892" />
    </clipPath>
    <clipPath
       clipPathUnits="userSpaceOnUse"
       id="clipPath904">
      <path
         d="m 136.3967,13.52676 c 0.011,0.0064 0.0562,0.06682 0.0592,0.07317 0.0124,0.02537 0.015,0.07904 -0.0452,0.10843 -0.1015,0.04949 -0.5465,0.21552 -0.678,0.26788 -0.0428,0.01693 -0.1156,0.04462 -0.1682,-0.0632 -0.034,-0.06977 0.0357,-0.1038 0.096,-0.13318 0.2473,-0.12064 0.2288,-0.1587 0.2102,-0.19675 -0.0186,-0.03805 -0.0452,-0.06041 -0.0779,-0.10334 l -2.1226,-2.53302 c -0.0702,-0.07959 -0.0748,-0.0891 -0.081,-0.10179 -0.0372,-0.07611 -0.0187,-0.19111 0.0923,-0.24525 0.1396,-0.06805 0.2525,0.0025 0.3383,0.09802 0.0204,0.01755 0.6769,0.80827 0.7331,0.86721 0.3445,-0.21121 0.579,-0.47083 0.4491,-0.73721 -0.0124,-0.02537 -0.0248,-0.05074 -0.0622,-0.09529 -0.0561,-0.06683 -0.0685,-0.0922 -0.0963,-0.14928 -0.1764,-0.36151 0.0397,-0.667077 0.2839,-0.786171 0.4947,-0.241281 1.0243,0.458241 1.0273,0.464581 0.0325,0.06659 -0.0341,0.09907 -0.0468,0.10526 -0.0729,0.03557 -0.0916,0.0133 -0.1649,-0.07263 -0.167,-0.18943 -0.4797,-0.48443 -0.7302,-0.362242 -0.1364,0.066507 -0.1157,0.213462 -0.0492,0.349822 0.0433,0.08879 0.0479,0.0983 0.1414,0.21757 0.0141,0.01276 0.0749,0.0891 0.1027,0.14618 0.2212,0.45348 -0.3536,0.8202 -0.5615,0.94123 0.1939,0.01927 0.463,0.09609 0.5889,0.12889 0.3759,0.1189 0.7503,0.23463 1.0357,0.09543 0.0603,-0.02939 0.1191,-0.07773 0.1356,-0.14857 -0.2358,0.07184 -0.3684,-0.07938 -0.4056,-0.15548 -0.0556,-0.11417 -0.004,-0.23358 0.1134,-0.29081 0.1363,-0.0665 0.3442,-0.02658 0.4479,0.18588 0.0819,0.16808 0.0542,0.41712 -0.2185,0.55013 -0.2886,0.14075 -0.657,0.06137 -1.0346,-0.05281 -0.3115,-0.09932 -0.5569,-0.17591 -0.8079,-0.15945 z"
         clip-rule="evenodd"
         id="path902" />
    </clipPath>
    <clipPath
       clipPathUnits="userSpaceOnUse"
       id="clipPath910">
      <path
         d="M 0,0 H 300 V 200 H 0 Z"
         id="path908" />
    </clipPath>
    <clipPath
       clipPathUnits="userSpaceOnUse"
       id="clipPath920">
      <path
         d="m 161.4336,13.64691 c 0.1237,-0.06032 0.2537,-0.12373 0.3248,0.02214 0.0712,0.14588 -0.0588,0.20929 -0.1825,0.26961 l -3.0855,1.50491 c 0.5604,0.93178 1.7379,1.22111 2.7653,0.71999 l 1.1353,-0.55371 c 0.1237,-0.06032 0.2537,-0.12373 0.3248,0.02214 0.0712,0.14588 -0.0589,0.20929 -0.1825,0.26961 l -1.1512,0.56144 c -1.243,0.6063 -2.6965,0.1454 -3.2641,-1.01841 -0.5677,-1.16381 -0.0376,-2.59609 1.2055,-3.20239 l 1.1512,-0.56144 c 0.1236,-0.06032 0.2536,-0.12373 0.3248,0.02214 0.0711,0.14587 -0.0589,0.20929 -0.1826,0.26961 l -1.1352,0.55371 c -1.0275,0.50112 -1.5244,1.60709 -1.1336,2.62557 z"
         clip-rule="evenodd"
         id="path918" />
    </clipPath>
    <clipPath
       clipPathUnits="userSpaceOnUse"
       id="clipPath926">
      <path
         d="M 0,0 H 300 V 200 H 0 Z"
         id="path924" />
    </clipPath>
    <clipPath
       clipPathUnits="userSpaceOnUse"
       id="clipPath936">
      <path
         d="m 166.9666,12.23583 1.2209,-0.59547 c 0.0952,-0.0464 0.3584,-0.17477 0.479,0.07258 0.0851,0.17441 -0.0671,0.24865 -0.2067,0.31671 l -2.039,0.99451 c -0.1459,0.07114 -0.4281,0.2088 -0.9154,0.02253 -0.3679,-0.14249 -0.7425,-0.3955 -0.7626,-0.43673 -0.005,-0.0095 -0.0356,-0.07293 0.0532,-0.11624 0.0571,-0.02784 0.0837,-0.0055 0.1559,0.02994 0.6321,0.38652 1.0444,0.18545 1.1998,0.10967 l 0.6025,-0.29387 -1.8534,-1.98914 c -0.0703,-0.0717 -0.189,-0.20226 -0.2044,-0.23397 -0.0387,-0.07928 -0.0452,-0.221358 0.1165,-0.300239 0.241,-0.117547 0.3765,0.071565 0.4512,0.168557 z"
         clip-rule="evenodd"
         id="path934" />
    </clipPath>
    <clipPath
       clipPathUnits="userSpaceOnUse"
       id="clipPath942">
      <path
         d="M 0,0 H 300 V 200 H 0 Z"
         id="path940" />
    </clipPath>
    <clipPath
       clipPathUnits="userSpaceOnUse"
       id="clipPath952">
      <path
         d="m 169.3967,10.52676 c 0.011,0.0064 0.0562,0.06682 0.0592,0.07317 0.0124,0.02537 0.015,0.07904 -0.0452,0.10843 -0.1015,0.04949 -0.5465,0.21552 -0.678,0.26788 -0.0428,0.01693 -0.1156,0.04462 -0.1682,-0.0632 -0.034,-0.06977 0.0357,-0.1038 0.096,-0.13318 0.2473,-0.12064 0.2288,-0.1587 0.2102,-0.19675 -0.0186,-0.03805 -0.0452,-0.06041 -0.0779,-0.10334 l -2.1226,-2.533021 c -0.0702,-0.07959 -0.0748,-0.089103 -0.081,-0.101788 -0.0372,-0.076107 -0.0187,-0.191115 0.0923,-0.245249 0.1396,-0.068053 0.2525,0.00249 0.3383,0.098013 0.0204,0.017558 0.6769,0.808273 0.7331,0.867212 0.3445,-0.211204 0.579,-0.47083 0.4491,-0.737206 -0.0124,-0.02537 -0.0248,-0.050739 -0.0622,-0.095291 -0.0561,-0.066827 -0.0685,-0.092196 -0.0963,-0.149277 -0.1764,-0.361511 0.0397,-0.66708 0.2839,-0.786174 0.4947,-0.241281 1.0243,0.458239 1.0273,0.464582 0.0325,0.066594 -0.0341,0.099074 -0.0468,0.105261 -0.0729,0.035573 -0.0916,0.013297 -0.1649,-0.072635 -0.167,-0.189423 -0.4797,-0.484427 -0.7302,-0.362239 -0.1364,0.066507 -0.1157,0.213459 -0.0492,0.349819 0.0433,0.088792 0.0479,0.098305 0.1414,0.217573 0.0141,0.012763 0.0749,0.089104 0.1027,0.146184 0.2212,0.453475 -0.3536,0.820201 -0.5615,0.94123 0.1939,0.01927 0.463,0.096087 0.5889,0.128888 0.3759,0.118898 0.7503,0.234625 1.0357,0.095424 0.0603,-0.029386 0.1191,-0.077722 0.1356,-0.148567 -0.2358,0.071837 -0.3684,-0.079376 -0.4056,-0.155483 -0.0556,-0.114162 -0.004,-0.233576 0.1134,-0.290803 0.1363,-0.066507 0.3442,-0.026586 0.4479,0.185881 0.0819,0.168071 0.0542,0.417113 -0.2185,0.550127 -0.2886,0.140747 -0.657,0.061372 -1.0346,-0.052808 -0.3115,-0.099326 -0.5569,-0.17591 -0.8079,-0.159451 z"
         clip-rule="evenodd"
         id="path950" />
    </clipPath>
    <clipPath
       clipPathUnits="userSpaceOnUse"
       id="clipPath958">
      <path
         d="M 0,0 H 300 V 200 H 0 Z"
         id="path956" />
    </clipPath>
    <clipPath
       clipPathUnits="userSpaceOnUse"
       id="clipPath968">
      <path
         d="m 197.4336,16.64691 c 0.1237,-0.06032 0.2537,-0.12373 0.3248,0.02214 0.0712,0.14588 -0.0588,0.20929 -0.1825,0.26961 l -3.0855,1.50491 c 0.5604,0.93178 1.7379,1.22111 2.7653,0.71999 l 1.1353,-0.55371 c 0.1237,-0.06032 0.2537,-0.12373 0.3248,0.02214 0.0712,0.14588 -0.0589,0.20929 -0.1825,0.26961 l -1.1512,0.56144 c -1.243,0.6063 -2.6965,0.1454 -3.2641,-1.01841 -0.5677,-1.16381 -0.0376,-2.59609 1.2055,-3.20239 l 1.1512,-0.56144 c 0.1236,-0.06032 0.2536,-0.12373 0.3248,0.02214 0.0711,0.14587 -0.0589,0.20929 -0.1826,0.26961 l -1.1352,0.55371 c -1.0275,0.50112 -1.5244,1.60709 -1.1336,2.62557 z"
         clip-rule="evenodd"
         id="path966" />
    </clipPath>
    <clipPath
       clipPathUnits="userSpaceOnUse"
       id="clipPath974">
      <path
         d="M 0,0 H 300 V 200 H 0 Z"
         id="path972" />
    </clipPath>
    <clipPath
       clipPathUnits="userSpaceOnUse"
       id="clipPath984">
      <path
         d="m 202.9666,15.23583 1.2209,-0.59547 c 0.0952,-0.0464 0.3584,-0.17477 0.479,0.07258 0.0851,0.17441 -0.0671,0.24865 -0.2067,0.31671 l -2.039,0.99451 c -0.1459,0.07114 -0.4281,0.2088 -0.9154,0.02253 -0.3679,-0.14249 -0.7425,-0.3955 -0.7626,-0.43673 -0.005,-0.0095 -0.0356,-0.07293 0.0532,-0.11624 0.0571,-0.02784 0.0837,-0.0055 0.1559,0.02994 0.6321,0.38652 1.0444,0.18545 1.1998,0.10967 l 0.6025,-0.29387 -1.8534,-1.98914 c -0.0703,-0.0717 -0.189,-0.20226 -0.2044,-0.23397 -0.0387,-0.07928 -0.0452,-0.22136 0.1165,-0.30024 0.241,-0.11755 0.3765,0.07157 0.4512,0.16856 z"
         clip-rule="evenodd"
         id="path982" />
    </clipPath>
    <clipPath
       clipPathUnits="userSpaceOnUse"
       id="clipPath990">
      <path
         d="M 0,0 H 300 V 200 H 0 Z"
         id="path988" />
    </clipPath>
    <clipPath
       clipPathUnits="userSpaceOnUse"
       id="clipPath1000">
      <path
         d="m 205.3967,13.52676 c 0.011,0.0064 0.0562,0.06682 0.0592,0.07317 0.0124,0.02537 0.015,0.07904 -0.0452,0.10843 -0.1015,0.04949 -0.5465,0.21552 -0.678,0.26788 -0.0428,0.01693 -0.1156,0.04462 -0.1682,-0.0632 -0.034,-0.06977 0.0357,-0.1038 0.096,-0.13318 0.2473,-0.12064 0.2288,-0.1587 0.2102,-0.19675 -0.0186,-0.03805 -0.0452,-0.06041 -0.0779,-0.10334 l -2.1226,-2.53302 c -0.0702,-0.07959 -0.0748,-0.0891 -0.081,-0.10179 -0.0372,-0.07611 -0.0187,-0.19111 0.0923,-0.24525 0.1396,-0.06805 0.2525,0.0025 0.3383,0.09802 0.0204,0.01755 0.6769,0.80827 0.7331,0.86721 0.3445,-0.21121 0.579,-0.47083 0.4491,-0.73721 -0.0124,-0.02537 -0.0248,-0.05074 -0.0622,-0.09529 -0.0561,-0.06683 -0.0685,-0.0922 -0.0963,-0.14928 -0.1764,-0.36151 0.0397,-0.667077 0.2839,-0.786171 0.4947,-0.241281 1.0243,0.458241 1.0273,0.464581 0.0325,0.06659 -0.0341,0.09907 -0.0468,0.10526 -0.0729,0.03557 -0.0916,0.0133 -0.1649,-0.07263 -0.167,-0.18943 -0.4797,-0.48443 -0.7302,-0.362242 -0.1364,0.066507 -0.1157,0.213462 -0.0492,0.349822 0.0433,0.08879 0.0479,0.0983 0.1414,0.21757 0.0141,0.01276 0.0749,0.0891 0.1027,0.14618 0.2212,0.45348 -0.3536,0.8202 -0.5615,0.94123 0.1939,0.01927 0.463,0.09609 0.5889,0.12889 0.3759,0.1189 0.7503,0.23463 1.0357,0.09543 0.0603,-0.02939 0.1191,-0.07773 0.1356,-0.14857 -0.2358,0.07184 -0.3684,-0.07938 -0.4056,-0.15548 -0.0556,-0.11417 -0.004,-0.23358 0.1134,-0.29081 0.1363,-0.0665 0.3442,-0.02658 0.4479,0.18588 0.0819,0.16808 0.0542,0.41712 -0.2185,0.55013 -0.2886,0.14075 -0.657,0.06137 -1.0346,-0.05281 -0.3115,-0.09932 -0.5569,-0.17591 -0.8079,-0.15945 z"
         clip-rule="evenodd"
         id="path998" />
    </clipPath>
    <clipPath
       clipPathUnits="userSpaceOnUse"
       id="clipPath1006">
      <path
         d="M 0,0 H 300 V 200 H 0 Z"
         id="path1004" />
    </clipPath>
    <clipPath
       clipPathUnits="userSpaceOnUse"
       id="clipPath1016">
      <path
         d="M 0,0 H 300 V 200 H 0 Z"
         id="path1014" />
    </clipPath>
  </defs>
  <g
     id="g8"
     transform="matrix(1.3333333,0,0,-1.3333333,0,266.66667)">
    <g
       id="g10" />
    <g
       id="g12">
      <g
         id="g14"
         clip-path="url(#clipPath18)">
        <g
           id="g20"
           transform="matrix(1,0,0,-1,0,200)">
          <path
             d="M 150,0 0,126.7926"
             style="fill:none;stroke:#86b872;stroke-width:0.5;stroke-linecap:butt;stroke-linejoin:miter;stroke-miterlimit:10;stroke-dasharray:1, 1;stroke-dashoffset:0;stroke-opacity:1"
             id="path22" />
        </g>
        <g
           id="g24"
           transform="rotate(180,150,100)">
          <path
             d="M 150,0 0,126.7926"
             style="fill:none;stroke:#86b872;stroke-width:0.5;stroke-linecap:butt;stroke-linejoin:miter;stroke-miterlimit:10;stroke-dasharray:1, 1;stroke-dashoffset:0;stroke-opacity:1"
             id="path26" />
        </g>
        <g
           id="g28"
           transform="matrix(1,0,0,-1,145.1716,200)">
          <path
             d="M 4.82838,0 2,7.739214 5.82838,13.79944 2,21.02837 6.82838,30.10226 2,34.29391 4.82838,42.55663 0,47.54428"
             style="fill:none;stroke:#000000;stroke-width:0.5;stroke-linecap:butt;stroke-linejoin:miter;stroke-miterlimit:10;stroke-dasharray:none;stroke-opacity:1"
             id="path30" />
        </g>
      </g>
    </g>
    <g
       id="g32">
      <g
         id="g34"
         clip-path="url(#clipPath38)">
        <g
           id="g40"
           clip-path="url(#clipPath44)">
          <path
             d="m 138,158 h 14 v -14 h -14 z"
             style="fill:#b3b3b3;fill-opacity:1;fill-rule:nonzero;stroke:none"
             id="path46" />
        </g>
      </g>
    </g>
    <g
       id="g48">
      <g
         id="g50"
         clip-path="url(#clipPath54)">
        <g
           id="g56"
           transform="matrix(1,0,0,-1,143,153)">
          <path
             d="M 2,4 C 3.104569,4 4,3.104569 4,2 4,0.8954305 3.104569,0 2,0 0.8954305,0 0,0.8954305 0,2 0,3.104569 0.8954305,4 2,4 Z"
             style="fill:none;stroke:#000000;stroke-width:0.4;stroke-linecap:butt;stroke-linejoin:miter;stroke-miterlimit:10;stroke-dasharray:none;stroke-opacity:1"
             id="path58" />
        </g>
        <g
           id="g60"
           transform="matrix(1,0,0,-1,148,193.7391)">
          <path
             d="M 0,0 7,3.550748 5.518159,7.592773"
             style="fill:none;stroke:#4c8cb5;stroke-width:1.5;stroke-linecap:round;stroke-linejoin:round;stroke-miterlimit:10;stroke-dasharray:none;stroke-opacity:0.5"
             id="path62" />
        </g>
        <g
           id="g64"
           transform="matrix(1,0,0,-1,143,188)">
          <path
             d="M 6.591617,0 2.395648,1.256739 0,3.385404"
             style="fill:none;stroke:#4c8cb5;stroke-width:1.5;stroke-linecap:round;stroke-linejoin:round;stroke-miterlimit:10;stroke-dasharray:none;stroke-opacity:0.5"
             id="path66" />
        </g>
        <g
           id="g68"
           transform="matrix(1,0,0,-1,149,181)">
          <path
             d="M 0,0 5,2.627078 V 6.280126"
             style="fill:none;stroke:#4c8cb5;stroke-width:1.5;stroke-linecap:round;stroke-linejoin:round;stroke-miterlimit:10;stroke-dasharray:none;stroke-opacity:0.5"
             id="path70" />
        </g>
        <g
           id="g72"
           transform="matrix(1,0,0,-1,143.011,174.865)">
          <path
             d="M 5.786177,0 2.430732,1.674859 0,3.431201 0.9889515,5.718668"
             style="fill:none;stroke:#4c8cb5;stroke-width:1.5;stroke-linecap:round;stroke-linejoin:round;stroke-miterlimit:10;stroke-dasharray:none;stroke-opacity:0.5"
             id="path74" />
        </g>
        <g
           id="g76"
           transform="matrix(1,0,0,-1,140,164)">
          <path
             d="M 7.17162,0 3.011048,1.21689 4,3.73572 0,5.123902"
             style="fill:none;stroke:#4c8cb5;stroke-width:1.5;stroke-linecap:round;stroke-linejoin:round;stroke-miterlimit:10;stroke-dasharray:none;stroke-opacity:0.5"
             id="path78" />
        </g>
      </g>
    </g>
    <g
       id="g80">
      <g
         id="g82"
         clip-path="url(#clipPath86)">
        <g
           id="g88"
           clip-path="url(#clipPath92)">
          <path
             d="m 125.0015,200.2424 h 13.9183 V 154.383 h -13.9183 z"
             style="fill:#000000;fill-opacity:1;fill-rule:nonzero;stroke:none"
             id="path94" />
        </g>
      </g>
    </g>
    <g
       id="g96">
      <g
         id="g98"
         clip-path="url(#clipPath102)">
        <g
           id="g104"
           clip-path="url(#clipPath108)">
          <path
             d="m 113.3583,187.7704 h 14.9242 v -17.661 h -14.9242 z"
             style="fill:#000000;fill-opacity:1;fill-rule:nonzero;stroke:none"
             id="path110" />
        </g>
      </g>
    </g>
    <g
       id="g112">
      <g
         id="g114"
         clip-path="url(#clipPath118)">
        <g
           id="g120"
           clip-path="url(#clipPath124)">
          <path
             d="m 118.818,183.649 h 13.5274 V 168.4454 H 118.818 Z"
             style="fill:#000000;fill-opacity:1;fill-rule:nonzero;stroke:none"
             id="path126" />
        </g>
      </g>
    </g>
    <g
       id="g128">
      <g
         id="g130"
         clip-path="url(#clipPath134)">
        <g
           id="g136"
           transform="matrix(1,0,0,-1,140,149.1265)">
          <path
             d="M 4.668989,0 0,6.773534 2.003105,27.76337"
             style="fill:none;stroke:#000000;stroke-width:0.5;stroke-linecap:butt;stroke-linejoin:miter;stroke-miterlimit:10;stroke-dasharray:none;stroke-opacity:1"
             id="path138" />
        </g>
      </g>
    </g>
    <g
       id="g140">
      <g
         id="g142"
         clip-path="url(#clipPath146)">
        <g
           id="g148"
           clip-path="url(#clipPath152)">
          <path
             d="m 135,127 h 14 v -14 h -14 z"
             style="fill:#b3b3b3;fill-opacity:1;fill-rule:nonzero;stroke:none"
             id="path154" />
        </g>
      </g>
    </g>
    <g
       id="g156">
      <g
         id="g158"
         clip-path="url(#clipPath162)">
        <g
           id="g164"
           transform="matrix(1,0,0,-1,140,122)">
          <path
             d="M 2,4 C 3.104569,4 4,3.104569 4,2 4,0.8954305 3.104569,0 2,0 0.8954305,0 0,0.8954305 0,2 0,3.104569 0.8954305,4 2,4 Z"
             style="fill:none;stroke:#000000;stroke-width:0.4;stroke-linecap:butt;stroke-linejoin:miter;stroke-miterlimit:10;stroke-dasharray:none;stroke-opacity:1"
             id="path166" />
        </g>
        <g
           id="g168"
           transform="matrix(1,0,0,-1,140,151.7054)">
          <path
             d="M 5.442729,0 0,9.222668 2.084053,32.47241"
             style="fill:none;stroke:#4c8cb5;stroke-width:4;stroke-linecap:round;stroke-linejoin:round;stroke-miterlimit:10;stroke-dasharray:none;stroke-opacity:0.5"
             id="path170" />
        </g>
      </g>
    </g>
    <g
       id="g172">
      <g
         id="g174"
         clip-path="url(#clipPath178)">
        <g
           id="g180"
           clip-path="url(#clipPath184)">
          <path
             d="m 147.3419,158.6488 h 15.7863 v -16.7087 h -15.7863 z"
             style="fill:#000000;fill-opacity:1;fill-rule:nonzero;stroke:none"
             id="path186" />
        </g>
      </g>
    </g>
    <g
       id="g188">
      <g
         id="g190"
         clip-path="url(#clipPath194)">
        <g
           id="g196"
           clip-path="url(#clipPath200)">
          <path
             d="m 157.7493,157.3887 h 16.119 v -15.1109 h -16.119 z"
             style="fill:#000000;fill-opacity:1;fill-rule:nonzero;stroke:none"
             id="path202" />
        </g>
      </g>
    </g>
    <g
       id="g204">
      <g
         id="g206"
         clip-path="url(#clipPath210)">
        <g
           id="g212"
           clip-path="url(#clipPath216)">
          <path
             d="m 164.5319,156.2876 h 13.9819 V 140.587 h -13.9819 z"
             style="fill:#000000;fill-opacity:1;fill-rule:nonzero;stroke:none"
             id="path218" />
        </g>
      </g>
    </g>
    <g
       id="g220">
      <g
         id="g222"
         clip-path="url(#clipPath226)">
        <g
           id="g228"
           clip-path="url(#clipPath232)">
          <path
             d="M 169.2988,153.3669 H 182.318 V 139.385 h -13.0192 z"
             style="fill:#000000;fill-opacity:1;fill-rule:nonzero;stroke:none"
             id="path234" />
        </g>
      </g>
    </g>
    <g
       id="g236">
      <g
         id="g238"
         clip-path="url(#clipPath242)">
        <g
           id="g244"
           clip-path="url(#clipPath248)">
          <path
             d="m 145.1705,128.5147 h 15.3326 v -17.4798 h -15.3326 z"
             style="fill:#000000;fill-opacity:1;fill-rule:nonzero;stroke:none"
             id="path250" />
        </g>
      </g>
    </g>
    <g
       id="g252">
      <g
         id="g254"
         clip-path="url(#clipPath258)">
        <g
           id="g260"
           clip-path="url(#clipPath264)">
          <path
             d="m 155.0924,129.6488 h 15.7863 v -16.7087 h -15.7863 z"
             style="fill:#000000;fill-opacity:1;fill-rule:nonzero;stroke:none"
             id="path266" />
        </g>
      </g>
    </g>
    <g
       id="g268">
      <g
         id="g270"
         clip-path="url(#clipPath274)">
        <g
           id="g276"
           clip-path="url(#clipPath280)">
          <path
             d="m 165.3738,128.3887 h 15.5998 v -15.126 h -15.5998 z"
             style="fill:#000000;fill-opacity:1;fill-rule:nonzero;stroke:none"
             id="path282" />
        </g>
      </g>
    </g>
    <g
       id="g284">
      <g
         id="g286"
         clip-path="url(#clipPath290)">
        <g
           id="g292"
           clip-path="url(#clipPath296)">
          <path
             d="m 170.7286,127.2876 h 13.9818 V 111.587 h -13.9818 z"
             style="fill:#000000;fill-opacity:1;fill-rule:nonzero;stroke:none"
             id="path298" />
        </g>
      </g>
    </g>
    <g
       id="g300">
      <g
         id="g302"
         clip-path="url(#clipPath306)">
        <g
           id="g308"
           clip-path="url(#clipPath312)">
          <path
             d="m 175.4954,124.3669 h 13.0192 V 110.385 h -13.0192 z"
             style="fill:#000000;fill-opacity:1;fill-rule:nonzero;stroke:none"
             id="path314" />
        </g>
      </g>
    </g>
    <g
       id="g316">
      <g
         id="g318"
         clip-path="url(#clipPath322)">
        <g
           id="g324"
           transform="matrix(1,0,0,-1,35,118.5281)">
          <path
             d="M 105,0 0,87.16605"
             style="fill:none;stroke:#86b872;stroke-width:0.5;stroke-linecap:butt;stroke-linejoin:miter;stroke-miterlimit:10;stroke-dasharray:3, 3;stroke-dashoffset:0;stroke-opacity:1"
             id="path326" />
        </g>
        <g
           id="g328"
           transform="rotate(180,124.5,60)">
          <path
             d="M 105,0 0,87.16605"
             style="fill:none;stroke:#86b872;stroke-width:0.5;stroke-linecap:butt;stroke-linejoin:miter;stroke-miterlimit:10;stroke-dasharray:3, 3;stroke-dashoffset:0;stroke-opacity:1"
             id="path330" />
        </g>
      </g>
    </g>
    <g
       id="g332">
      <g
         id="g334"
         clip-path="url(#clipPath338)">
        <g
           id="g340"
           clip-path="url(#clipPath344)">
          <path
             d="m 86,56 h 14 V 42 H 86 Z"
             style="fill:#b3b3b3;fill-opacity:1;fill-rule:nonzero;stroke:none"
             id="path346" />
        </g>
      </g>
    </g>
    <g
       id="g348">
      <g
         id="g350"
         clip-path="url(#clipPath354)">
        <g
           id="g356"
           transform="matrix(1,0,0,-1,91,51)">
          <path
             d="M 2,4 C 3.104569,4 4,3.104569 4,2 4,0.8954305 3.104569,0 2,0 0.8954305,0 0,0.8954305 0,2 0,3.104569 0.8954305,4 2,4 Z"
             style="fill:none;stroke:#000000;stroke-width:0.4;stroke-linecap:butt;stroke-linejoin:miter;stroke-miterlimit:10;stroke-dasharray:none;stroke-opacity:1"
             id="path358" />
        </g>
      </g>
    </g>
    <g
       id="g360">
      <g
         id="g362"
         clip-path="url(#clipPath366)">
        <g
           id="g368"
           clip-path="url(#clipPath372)">
          <path
             d="m 119,60 h 14 V 46 h -14 z"
             style="fill:#b3b3b3;fill-opacity:1;fill-rule:nonzero;stroke:none"
             id="path374" />
        </g>
      </g>
    </g>
    <g
       id="g376">
      <g
         id="g378"
         clip-path="url(#clipPath382)">
        <g
           id="g384"
           transform="matrix(1,0,0,-1,124,55)">
          <path
             d="M 2,4 C 3.104569,4 4,3.104569 4,2 4,0.8954305 3.104569,0 2,0 0.8954305,0 0,0.8954305 0,2 0,3.104569 0.8954305,4 2,4 Z"
             style="fill:none;stroke:#000000;stroke-width:0.4;stroke-linecap:butt;stroke-linejoin:miter;stroke-miterlimit:10;stroke-dasharray:none;stroke-opacity:1"
             id="path386" />
        </g>
      </g>
    </g>
    <g
       id="g388">
      <g
         id="g390"
         clip-path="url(#clipPath394)">
        <g
           id="g396"
           clip-path="url(#clipPath400)">
          <path
             d="m 151,56 h 14 V 42 h -14 z"
             style="fill:#b3b3b3;fill-opacity:1;fill-rule:nonzero;stroke:none"
             id="path402" />
        </g>
      </g>
    </g>
    <g
       id="g404">
      <g
         id="g406"
         clip-path="url(#clipPath410)">
        <g
           id="g412"
           transform="matrix(1,0,0,-1,156,51)">
          <path
             d="M 2,4 C 3.104569,4 4,3.104569 4,2 4,0.8954305 3.104569,0 2,0 0.8954305,0 0,0.8954305 0,2 0,3.104569 0.8954305,4 2,4 Z"
             style="fill:none;stroke:#000000;stroke-width:0.4;stroke-linecap:butt;stroke-linejoin:miter;stroke-miterlimit:10;stroke-dasharray:none;stroke-opacity:1"
             id="path414" />
        </g>
      </g>
    </g>
    <g
       id="g416">
      <g
         id="g418"
         clip-path="url(#clipPath422)">
        <g
           id="g424"
           clip-path="url(#clipPath428)">
          <path
             d="m 186,60 h 14 V 46 h -14 z"
             style="fill:#b3b3b3;fill-opacity:1;fill-rule:nonzero;stroke:none"
             id="path430" />
        </g>
      </g>
    </g>
    <g
       id="g432">
      <g
         id="g434"
         clip-path="url(#clipPath438)">
        <g
           id="g440"
           transform="matrix(1,0,0,-1,191,55)">
          <path
             d="M 2,4 C 3.104569,4 4,3.104569 4,2 4,0.8954305 3.104569,0 2,0 0.8954305,0 0,0.8954305 0,2 0,3.104569 0.8954305,4 2,4 Z"
             style="fill:none;stroke:#000000;stroke-width:0.4;stroke-linecap:butt;stroke-linejoin:miter;stroke-miterlimit:10;stroke-dasharray:none;stroke-opacity:1"
             id="path442" />
        </g>
      </g>
    </g>
    <g
       id="g444">
      <g
         id="g446"
         clip-path="url(#clipPath450)">
        <g
           id="g452"
           clip-path="url(#clipPath456)">
          <path
             d="M 81,26 H 95 V 12 H 81 Z"
             style="fill:#b3b3b3;fill-opacity:1;fill-rule:nonzero;stroke:none"
             id="path458" />
        </g>
      </g>
    </g>
    <g
       id="g460">
      <g
         id="g462"
         clip-path="url(#clipPath466)">
        <g
           id="g468"
           transform="matrix(1,0,0,-1,86,21)">
          <path
             d="M 2,4 C 3.104569,4 4,3.104569 4,2 4,0.8954305 3.104569,0 2,0 0.8954305,0 0,0.8954305 0,2 0,3.104569 0.8954305,4 2,4 Z"
             style="fill:none;stroke:#000000;stroke-width:0.4;stroke-linecap:butt;stroke-linejoin:miter;stroke-miterlimit:10;stroke-dasharray:none;stroke-opacity:1"
             id="path470" />
        </g>
      </g>
    </g>
    <g
       id="g472">
      <g
         id="g474"
         clip-path="url(#clipPath478)">
        <g
           id="g480"
           clip-path="url(#clipPath484)">
          <path
             d="m 114,30 h 14 V 16 h -14 z"
             style="fill:#b3b3b3;fill-opacity:1;fill-rule:nonzero;stroke:none"
             id="path486" />
        </g>
      </g>
    </g>
    <g
       id="g488">
      <g
         id="g490"
         clip-path="url(#clipPath494)">
        <g
           id="g496"
           transform="matrix(1,0,0,-1,119,25)">
          <path
             d="M 2,4 C 3.104569,4 4,3.104569 4,2 4,0.8954305 3.104569,0 2,0 0.8954305,0 0,0.8954305 0,2 0,3.104569 0.8954305,4 2,4 Z"
             style="fill:none;stroke:#000000;stroke-width:0.4;stroke-linecap:butt;stroke-linejoin:miter;stroke-miterlimit:10;stroke-dasharray:none;stroke-opacity:1"
             id="path498" />
        </g>
      </g>
    </g>
    <g
       id="g500">
      <g
         id="g502"
         clip-path="url(#clipPath506)">
        <g
           id="g508"
           clip-path="url(#clipPath512)">
          <path
             d="m 146,26 h 14 V 12 h -14 z"
             style="fill:#b3b3b3;fill-opacity:1;fill-rule:nonzero;stroke:none"
             id="path514" />
        </g>
      </g>
    </g>
    <g
       id="g516">
      <g
         id="g518"
         clip-path="url(#clipPath522)">
        <g
           id="g524"
           transform="matrix(1,0,0,-1,151,21)">
          <path
             d="M 2,4 C 3.104569,4 4,3.104569 4,2 4,0.8954305 3.104569,0 2,0 0.8954305,0 0,0.8954305 0,2 0,3.104569 0.8954305,4 2,4 Z"
             style="fill:none;stroke:#000000;stroke-width:0.4;stroke-linecap:butt;stroke-linejoin:miter;stroke-miterlimit:10;stroke-dasharray:none;stroke-opacity:1"
             id="path526" />
        </g>
      </g>
    </g>
    <g
       id="g528">
      <g
         id="g530"
         clip-path="url(#clipPath534)">
        <g
           id="g536"
           clip-path="url(#clipPath540)">
          <path
             d="m 181,30 h 14 V 16 h -14 z"
             style="fill:#b3b3b3;fill-opacity:1;fill-rule:nonzero;stroke:none"
             id="path542" />
        </g>
      </g>
    </g>
    <g
       id="g544">
      <g
         id="g546"
         clip-path="url(#clipPath550)">
        <g
           id="g552"
           transform="matrix(1,0,0,-1,186,25)">
          <path
             d="M 2,4 C 3.104569,4 4,3.104569 4,2 4,0.8954305 3.104569,0 2,0 0.8954305,0 0,0.8954305 0,2 0,3.104569 0.8954305,4 2,4 Z"
             style="fill:none;stroke:#000000;stroke-width:0.4;stroke-linecap:butt;stroke-linejoin:miter;stroke-miterlimit:10;stroke-dasharray:none;stroke-opacity:1"
             id="path554" />
        </g>
      </g>
    </g>
    <g
       id="g556">
      <g
         id="g558"
         clip-path="url(#clipPath562)">
        <g
           id="g564"
           clip-path="url(#clipPath568)">
          <path
             d="m 86.08615,60.49176 12.168,7.0252 7.34805,-12.72717 -12.16802,-7.0252 z"
             style="fill:#000000;fill-opacity:1;fill-rule:nonzero;stroke:none"
             id="path570" />
        </g>
      </g>
    </g>
    <g
       id="g572">
      <g
         id="g574"
         clip-path="url(#clipPath578)">
        <g
           id="g580"
           clip-path="url(#clipPath584)">
          <path
             d="M 92.83634,63.37047 105.206,70.51211 111.9948,58.75354 99.62515,51.61191 Z"
             style="fill:#000000;fill-opacity:1;fill-rule:nonzero;stroke:none"
             id="path586" />
        </g>
      </g>
    </g>
    <g
       id="g588">
      <g
         id="g590"
         clip-path="url(#clipPath594)">
        <g
           id="g596"
           clip-path="url(#clipPath600)">
          <path
             d="m 97.33344,65.07691 11.07416,6.39365 6.9952,-12.11607 -11.0741,-6.39365 z"
             style="fill:#000000;fill-opacity:1;fill-rule:nonzero;stroke:none"
             id="path602" />
        </g>
      </g>
    </g>
    <g
       id="g604">
      <g
         id="g606"
         clip-path="url(#clipPath610)">
        <g
           id="g612"
           clip-path="url(#clipPath616)">
          <path
             d="m 121.3415,63.81752 12.168,7.0252 7.348,-12.72717 -12.168,-7.0252 z"
             style="fill:#000000;fill-opacity:1;fill-rule:nonzero;stroke:none"
             id="path618" />
        </g>
      </g>
    </g>
    <g
       id="g620">
      <g
         id="g622"
         clip-path="url(#clipPath626)">
        <g
           id="g628"
           clip-path="url(#clipPath632)">
          <path
             d="m 128.0917,66.69624 12.3697,7.14163 6.7888,-11.75857 -12.3697,-7.14163 z"
             style="fill:#000000;fill-opacity:1;fill-rule:nonzero;stroke:none"
             id="path634" />
        </g>
      </g>
    </g>
    <g
       id="g636">
      <g
         id="g638"
         clip-path="url(#clipPath642)">
        <g
           id="g644"
           clip-path="url(#clipPath648)">
          <path
             d="m 132.5888,68.40267 11.0741,6.39365 6.9952,-12.11606 -11.0741,-6.39365 z"
             style="fill:#000000;fill-opacity:1;fill-rule:nonzero;stroke:none"
             id="path650" />
        </g>
      </g>
    </g>
    <g
       id="g652">
      <g
         id="g654"
         clip-path="url(#clipPath658)">
        <g
           id="g660"
           clip-path="url(#clipPath664)">
          <path
             d="m 152.5001,60.55031 12.168,7.0252 7.348,-12.72717 -12.168,-7.0252 z"
             style="fill:#000000;fill-opacity:1;fill-rule:nonzero;stroke:none"
             id="path666" />
        </g>
      </g>
    </g>
    <g
       id="g668">
      <g
         id="g670"
         clip-path="url(#clipPath674)">
        <g
           id="g676"
           clip-path="url(#clipPath680)">
          <path
             d="m 159.2503,63.42902 12.3696,7.14164 6.7889,-11.75857 -12.3697,-7.14163 z"
             style="fill:#000000;fill-opacity:1;fill-rule:nonzero;stroke:none"
             id="path682" />
        </g>
      </g>
    </g>
    <g
       id="g684">
      <g
         id="g686"
         clip-path="url(#clipPath690)">
        <g
           id="g692"
           clip-path="url(#clipPath696)">
          <path
             d="m 163.7474,65.13546 11.0741,6.39365 6.9952,-12.11607 -11.0741,-6.39364 z"
             style="fill:#000000;fill-opacity:1;fill-rule:nonzero;stroke:none"
             id="path698" />
        </g>
      </g>
    </g>
    <g
       id="g700">
      <g
         id="g702"
         clip-path="url(#clipPath706)">
        <g
           id="g708"
           clip-path="url(#clipPath712)">
          <path
             d="m 185.5001,62.81752 12.168,7.0252 7.348,-12.72717 -12.168,-7.0252 z"
             style="fill:#000000;fill-opacity:1;fill-rule:nonzero;stroke:none"
             id="path714" />
        </g>
      </g>
    </g>
    <g
       id="g716">
      <g
         id="g718"
         clip-path="url(#clipPath722)">
        <g
           id="g724"
           clip-path="url(#clipPath728)">
          <path
             d="m 192.2503,65.69624 12.3696,7.14163 6.7889,-11.75857 -12.3697,-7.14163 z"
             style="fill:#000000;fill-opacity:1;fill-rule:nonzero;stroke:none"
             id="path730" />
        </g>
      </g>
    </g>
    <g
       id="g732">
      <g
         id="g734"
         clip-path="url(#clipPath738)">
        <g
           id="g740"
           clip-path="url(#clipPath744)">
          <path
             d="m 196.7474,67.40267 11.0741,6.39365 6.9952,-12.11606 -11.0741,-6.39365 z"
             style="fill:#000000;fill-opacity:1;fill-rule:nonzero;stroke:none"
             id="path746" />
        </g>
      </g>
    </g>
    <g
       id="g748">
      <g
         id="g750"
         clip-path="url(#clipPath754)">
        <g
           id="g756"
           transform="matrix(1,0,0,-1,64.6869,55.5799)">
          <path
             d="M 0,0 C 10.38656,5.766032 19.09238,7.915408 26.11746,6.448127"
             style="fill:none;stroke:#e15a53;stroke-width:2;stroke-linecap:butt;stroke-linejoin:miter;stroke-miterlimit:10;stroke-dasharray:none;stroke-opacity:1"
             id="path758" />
        </g>
        <g
           id="g760"
           transform="matrix(1,0,0,-1,95.23256,52.44066)">
          <path
             d="M 0,3.178274 C 8.511628,5.026887 18.10078,3.967462 28.76744,0"
             style="fill:none;stroke:#e15a53;stroke-width:2;stroke-linecap:butt;stroke-linejoin:miter;stroke-miterlimit:10;stroke-dasharray:none;stroke-opacity:1"
             id="path762" />
        </g>
        <g
           id="g764"
           transform="matrix(1,0,0,-1,128,53.8786)">
          <path
             d="M 0,1.034845 C 15.33333,-1.12454 24.66667,0.09552523 28,4.695039"
             style="fill:none;stroke:#e15a53;stroke-width:2;stroke-linecap:butt;stroke-linejoin:miter;stroke-miterlimit:10;stroke-dasharray:none;stroke-opacity:1"
             id="path766" />
        </g>
        <g
           id="g768"
           transform="matrix(1,0,0,-1,160,53.85614)">
          <path
             d="M 0,5.052409 C 12,0 22.33333,-1.263102 31,1.263102"
             style="fill:none;stroke:#e15a53;stroke-width:2;stroke-linecap:butt;stroke-linejoin:miter;stroke-miterlimit:10;stroke-dasharray:none;stroke-opacity:1"
             id="path770" />
        </g>
        <g
           id="g772"
           transform="matrix(1,0,0,-1,194.9517,52.45717)">
          <path
             d="M 0,0 C 14.8618,4.393835 25.8644,5.492293 33.00781,3.295376"
             style="fill:none;stroke:#e15a53;stroke-width:2;stroke-linecap:butt;stroke-linejoin:miter;stroke-miterlimit:10;stroke-dasharray:none;stroke-opacity:1"
             id="path774" />
        </g>
      </g>
    </g>
    <g
       id="g776">
      <g
         id="g778"
         clip-path="url(#clipPath782)">
        <g
           id="g784"
           clip-path="url(#clipPath788)">
          <g
             id="g790" />
          <g
             id="g816">
            <g
               clip-path="url(#clipPath794)"
               id="g814">
              <g
                 id="g804" />
              <g
                 id="g812">
                <g
                   clip-path="url(#clipPath798)"
                   id="g810">
                  <g
                     clip-path="url(#clipPath802)"
                     id="g808">
                    <path
                       d="m 229.2938,61.65466 h 17.5948 V 42.34662 h -17.5948 z"
                       style="fill:#e15a53;fill-opacity:1;fill-rule:nonzero;stroke:none"
                       id="path806" />
                  </g>
                </g>
              </g>
            </g>
          </g>
        </g>
      </g>
    </g>
    <g
       id="g818">
      <g
         id="g820"
         clip-path="url(#clipPath824)">
        <g
           id="g826"
           clip-path="url(#clipPath830)">
          <path
             d="M 90.84437,24.23927 103.4728,18.07998 97.03046,4.871242 84.40204,11.03053 Z"
             style="fill:#000000;fill-opacity:1;fill-rule:nonzero;stroke:none"
             id="path832" />
        </g>
      </g>
    </g>
    <g
       id="g834">
      <g
         id="g836"
         clip-path="url(#clipPath840)">
        <g
           id="g842"
           clip-path="url(#clipPath846)">
          <path
             d="M 96.92632,20.29153 109.4374,14.18947 103.4807,1.976468 90.96964,8.078532 Z"
             style="fill:#000000;fill-opacity:1;fill-rule:nonzero;stroke:none"
             id="path848" />
        </g>
      </g>
    </g>
    <g
       id="g850">
      <g
         id="g852"
         clip-path="url(#clipPath856)">
        <g
           id="g858"
           clip-path="url(#clipPath862)">
          <path
             d="M 99.95746,17.95563 111.4506,12.35004 105.3176,-0.2244646 93.82446,5.381118 Z"
             style="fill:#000000;fill-opacity:1;fill-rule:nonzero;stroke:none"
             id="path864" />
        </g>
      </g>
    </g>
    <g
       id="g866">
      <g
         id="g868"
         clip-path="url(#clipPath872)">
        <g
           id="g874"
           clip-path="url(#clipPath878)">
          <path
             d="M 123.8444,27.23927 136.4728,21.07998 130.0305,7.871242 117.402,14.03053 Z"
             style="fill:#000000;fill-opacity:1;fill-rule:nonzero;stroke:none"
             id="path880" />
        </g>
      </g>
    </g>
    <g
       id="g882">
      <g
         id="g884"
         clip-path="url(#clipPath888)">
        <g
           id="g890"
           clip-path="url(#clipPath894)">
          <path
             d="M 129.9263,23.29153 142.4374,17.18947 136.4807,4.976468 123.9696,11.07853 Z"
             style="fill:#000000;fill-opacity:1;fill-rule:nonzero;stroke:none"
             id="path896" />
        </g>
      </g>
    </g>
    <g
       id="g898">
      <g
         id="g900"
         clip-path="url(#clipPath904)">
        <g
           id="g906"
           clip-path="url(#clipPath910)">
          <path
             d="m 132.9575,20.95563 11.4931,-5.60559 -6.133,-12.574505 -11.4931,5.605583 z"
             style="fill:#000000;fill-opacity:1;fill-rule:nonzero;stroke:none"
             id="path912" />
        </g>
      </g>
    </g>
    <g
       id="g914">
      <g
         id="g916"
         clip-path="url(#clipPath920)">
        <g
           id="g922"
           clip-path="url(#clipPath926)">
          <path
             d="M 156.8444,24.23927 169.4728,18.07998 163.0305,4.871242 150.402,11.03053 Z"
             style="fill:#000000;fill-opacity:1;fill-rule:nonzero;stroke:none"
             id="path928" />
        </g>
      </g>
    </g>
    <g
       id="g930">
      <g
         id="g932"
         clip-path="url(#clipPath936)">
        <g
           id="g938"
           clip-path="url(#clipPath942)">
          <path
             d="M 162.9263,20.29153 175.4374,14.18947 169.4807,1.976468 156.9696,8.078532 Z"
             style="fill:#000000;fill-opacity:1;fill-rule:nonzero;stroke:none"
             id="path944" />
        </g>
      </g>
    </g>
    <g
       id="g946">
      <g
         id="g948"
         clip-path="url(#clipPath952)">
        <g
           id="g954"
           clip-path="url(#clipPath958)">
          <path
             d="m 165.9575,17.95563 11.4931,-5.60559 -6.133,-12.5745046 -11.4931,5.6055826 z"
             style="fill:#000000;fill-opacity:1;fill-rule:nonzero;stroke:none"
             id="path960" />
        </g>
      </g>
    </g>
    <g
       id="g962">
      <g
         id="g964"
         clip-path="url(#clipPath968)">
        <g
           id="g970"
           clip-path="url(#clipPath974)">
          <path
             d="M 192.8444,27.23927 205.4728,21.07998 199.0305,7.871242 186.402,14.03053 Z"
             style="fill:#000000;fill-opacity:1;fill-rule:nonzero;stroke:none"
             id="path976" />
        </g>
      </g>
    </g>
    <g
       id="g978">
      <g
         id="g980"
         clip-path="url(#clipPath984)">
        <g
           id="g986"
           clip-path="url(#clipPath990)">
          <path
             d="M 198.9263,23.29153 211.4374,17.18947 205.4807,4.976468 192.9696,11.07853 Z"
             style="fill:#000000;fill-opacity:1;fill-rule:nonzero;stroke:none"
             id="path992" />
        </g>
      </g>
    </g>
    <g
       id="g994">
      <g
         id="g996"
         clip-path="url(#clipPath1000)">
        <g
           id="g1002"
           clip-path="url(#clipPath1006)">
          <path
             d="m 201.9575,20.95563 11.4931,-5.60559 -6.133,-12.574505 -11.4931,5.605583 z"
             style="fill:#000000;fill-opacity:1;fill-rule:nonzero;stroke:none"
             id="path1008" />
        </g>
      </g>
    </g>
    <g
       id="g1010">
      <g
         id="g1012"
         clip-path="url(#clipPath1016)">
        <g
           id="g1018"
           transform="matrix(1,0,0,-1,87,49.24587)">
          <path
             d="M 6,0 0,11.24782 1.181302,30.55316"
             style="fill:none;stroke:#4c8cb5;stroke-width:3;stroke-linecap:round;stroke-linejoin:round;stroke-miterlimit:10;stroke-dasharray:none;stroke-opacity:0.5"
             id="path1020" />
        </g>
        <g
           id="g1022"
           transform="matrix(1,0,0,-1,120.826,53.18531)">
          <path
             d="M 4.970288,0 0,12.72736 v 17.83631"
             style="fill:none;stroke:#4c8cb5;stroke-width:3;stroke-linecap:round;stroke-linejoin:round;stroke-miterlimit:10;stroke-dasharray:none;stroke-opacity:0.5"
             id="path1024" />
        </g>
        <g
           id="g1026"
           transform="matrix(1,0,0,-1,153,49.41401)">
          <path
             d="M 5,0 8,14.69783 0,30.66276"
             style="fill:none;stroke:#4c8cb5;stroke-width:3;stroke-linecap:round;stroke-linejoin:round;stroke-miterlimit:10;stroke-dasharray:none;stroke-opacity:0.5"
             id="path1028" />
        </g>
        <g
           id="g1030"
           transform="matrix(1,0,0,-1,185.5014,53)">
          <path
             d="M 7.498648,0 0,12.41369 2.498648,30.49472"
             style="fill:none;stroke:#4c8cb5;stroke-width:3;stroke-linecap:round;stroke-linejoin:round;stroke-miterlimit:10;stroke-dasharray:none;stroke-opacity:0.5"
             id="path1032" />
        </g>
      </g>
    </g>
  </g>
</svg>
