<svg width="300" height="400" viewBox="0 0 300 400" fill="none" xmlns="http://www.w3.org/2000/svg">
<path d="M149.559 295C29.1661 295 11.7761 101 18.1301 4H281.991C288.01 101 269.951 295 149.559 295Z" fill="#EB5757" fill-opacity="0.25"/>
<path d="M7.5 295.5H288.5" stroke="#828282" stroke-opacity="0.4" stroke-width="2"/>
<path d="M150 390.5V3" stroke="#828282" stroke-opacity="0.4" stroke-width="2"/>
<path d="M207.085 24.0078C207.108 24.0078 207.142 24.0193 207.188 24.0422C207.234 24.0652 207.297 24.0824 207.377 24.0939C207.458 24.1054 207.527 24.1111 207.584 24.1111C207.733 24.1111 207.871 24.0365 207.997 23.8873C208.124 23.738 208.215 23.5716 208.273 23.3879C208.388 23.078 208.583 22.1999 208.858 20.7536C209.134 19.3072 209.398 17.9298 209.65 16.6212C209.903 15.3126 210.029 14.6526 210.029 14.6411V14.5895H209.22C208.68 14.5895 208.393 14.578 208.359 14.555C208.313 14.5206 208.29 14.4632 208.29 14.3829L208.411 13.9007C208.433 13.8434 208.479 13.8147 208.548 13.8147C208.617 13.8147 208.887 13.8089 209.358 13.7974C209.909 13.7974 210.184 13.7917 210.184 13.7802C210.184 13.7573 210.236 13.4703 210.339 12.9193C210.442 12.3683 210.511 12.0355 210.546 11.9207C210.97 10.0267 211.808 9.07967 213.059 9.07967C213.484 9.10263 213.834 9.22889 214.11 9.45847C214.385 9.68804 214.523 9.99223 214.523 10.371C214.523 10.7843 214.402 11.0827 214.161 11.2664C213.92 11.45 213.679 11.5476 213.438 11.5591C212.933 11.5591 212.681 11.318 212.681 10.8359C212.681 10.6178 212.744 10.4284 212.87 10.2677C212.996 10.107 213.134 9.98649 213.283 9.90614L213.438 9.82005C213.255 9.75118 213.082 9.71674 212.922 9.71674C212.784 9.71674 212.652 9.77413 212.526 9.88892C212.399 10.0037 212.313 10.1644 212.267 10.371C212.187 10.7039 212.095 11.1516 211.992 11.714C211.889 12.2765 211.797 12.7529 211.716 13.1432C211.636 13.5334 211.596 13.74 211.596 13.763C211.596 13.786 211.912 13.7974 212.543 13.7974C213.059 13.7974 213.358 13.8032 213.438 13.8147C213.519 13.8261 213.582 13.8606 213.628 13.918C213.639 13.9639 213.628 14.0615 213.593 14.2107C213.559 14.3599 213.53 14.4517 213.507 14.4862C213.484 14.5436 213.432 14.5723 213.352 14.5723C213.272 14.5723 212.962 14.578 212.422 14.5895H211.458L211.062 16.6901C210.511 19.5368 210.127 21.316 209.909 22.0277C209.599 23.0034 209.197 23.7266 208.703 24.1972C208.279 24.5645 207.86 24.7482 207.446 24.7482C207.079 24.7482 206.746 24.6391 206.448 24.421C206.149 24.2029 206 23.893 206 23.4913C206 23.0665 206.121 22.7566 206.362 22.5615C206.603 22.3663 206.844 22.2688 207.085 22.2688C207.59 22.2688 207.842 22.5098 207.842 22.9919C207.842 23.21 207.779 23.3994 207.653 23.5601C207.527 23.7208 207.389 23.8414 207.24 23.9217L207.085 24.0078Z" fill="black"/>
<path d="M216.141 16.9139C216.141 16.1219 216.199 15.37 216.314 14.6583C216.428 13.9467 216.56 13.3326 216.71 12.816C216.859 12.2995 217.071 11.7944 217.347 11.3008C217.622 10.8072 217.84 10.4227 218.001 10.1472C218.162 9.87171 218.403 9.57326 218.724 9.25185C219.046 8.93045 219.235 8.73531 219.292 8.66644C219.35 8.59756 219.493 8.47704 219.723 8.30486H219.947H220.016C220.176 8.30486 220.257 8.35651 220.257 8.45982C220.257 8.49426 220.159 8.61478 219.964 8.8214C219.769 9.02802 219.533 9.3322 219.258 9.73396C218.982 10.1357 218.701 10.6293 218.414 11.2147C218.127 11.8001 217.886 12.5922 217.691 13.5908C217.496 14.5895 217.398 15.6972 217.398 16.9139C217.398 18.1307 217.496 19.2326 217.691 20.2198C217.886 21.207 218.122 22.0048 218.397 22.6131C218.673 23.2215 218.954 23.7151 219.241 24.0939C219.528 24.4727 219.769 24.7769 219.964 25.0065C220.159 25.236 220.257 25.3566 220.257 25.368C220.257 25.4713 220.171 25.523 219.998 25.523H219.947H219.723L219.241 25.1098C218.162 24.1341 217.375 22.9173 216.882 21.4595C216.388 20.0017 216.141 18.4865 216.141 16.9139Z" fill="black"/>
<path d="M222.116 16.2424C222.197 15.7603 222.506 15.2036 223.046 14.5723C223.585 13.9409 224.251 13.6195 225.043 13.608C225.445 13.608 225.812 13.7114 226.145 13.918C226.478 14.1246 226.725 14.3829 226.886 14.6928C227.368 13.9696 227.947 13.608 228.625 13.608C229.049 13.608 229.417 13.7343 229.727 13.9868C230.037 14.2394 230.197 14.578 230.209 15.0027C230.209 15.3356 230.128 15.6053 229.968 15.812C229.807 16.0186 229.652 16.1448 229.503 16.1908C229.354 16.2367 229.222 16.2596 229.107 16.2596C228.889 16.2596 228.711 16.1965 228.573 16.0702C228.435 15.944 228.366 15.7775 228.366 15.5709C228.366 15.0429 228.653 14.6813 229.227 14.4862C229.101 14.3369 228.871 14.2623 228.539 14.2623C228.389 14.2623 228.28 14.2738 228.211 14.2968C227.775 14.4804 227.454 14.8592 227.247 15.4332C226.558 17.97 226.214 19.4507 226.214 19.8754C226.214 20.1969 226.306 20.4264 226.49 20.5642C226.673 20.7019 226.874 20.7708 227.092 20.7708C227.517 20.7708 227.936 20.5814 228.349 20.2026C228.762 19.8238 229.044 19.3589 229.193 18.8079C229.227 18.6931 229.262 18.63 229.296 18.6185C229.331 18.607 229.422 18.5956 229.572 18.5841H229.641C229.813 18.5841 229.899 18.63 229.899 18.7218C229.899 18.7333 229.887 18.7964 229.864 18.9112C229.681 19.5655 229.325 20.1452 228.797 20.6503C228.269 21.1553 227.655 21.4079 226.954 21.4079C226.151 21.4079 225.543 21.0463 225.129 20.3231C224.659 21.0348 224.119 21.3906 223.511 21.3906H223.408C222.845 21.3906 222.443 21.2414 222.202 20.943C221.961 20.6445 221.835 20.3289 221.823 19.996C221.823 19.6287 221.933 19.3302 222.151 19.1006C222.369 18.8711 222.627 18.7563 222.925 18.7563C223.419 18.7563 223.666 18.9973 223.666 19.4794C223.666 19.709 223.597 19.9099 223.459 20.0821C223.321 20.2542 223.189 20.369 223.063 20.4264C222.937 20.4838 222.862 20.5125 222.839 20.5125L222.788 20.5297C222.788 20.5412 222.822 20.5642 222.891 20.5986C222.96 20.633 223.052 20.6732 223.166 20.7191C223.281 20.765 223.39 20.7823 223.494 20.7708C223.907 20.7708 224.263 20.5125 224.561 19.996C224.664 19.8123 224.796 19.422 224.957 18.8251C225.118 18.2282 225.279 17.6084 225.439 16.9656C225.6 16.3228 225.692 15.944 225.715 15.8292C225.772 15.5193 225.801 15.2954 225.801 15.1577C225.801 14.8363 225.715 14.6067 225.543 14.4689C225.37 14.3312 225.175 14.2623 224.957 14.2623C224.498 14.2623 224.068 14.446 223.666 14.8133C223.264 15.1806 222.983 15.6513 222.822 16.2252C222.799 16.3285 222.77 16.3859 222.736 16.3974C222.702 16.4089 222.61 16.4203 222.461 16.4318H222.219C222.151 16.3629 222.116 16.2998 222.116 16.2424Z" fill="black"/>
<path d="M232.103 8.32207L232.172 8.30486C232.229 8.30486 232.286 8.30486 232.344 8.30486H232.55L233.032 8.71809C234.111 9.69379 234.898 10.9105 235.391 12.3683C235.885 13.8261 236.132 15.3413 236.132 16.9139C236.132 17.6945 236.074 18.4463 235.96 19.1695C235.845 19.8927 235.713 20.5068 235.564 21.0118C235.414 21.5169 235.202 22.022 234.926 22.527C234.651 23.0321 234.433 23.4166 234.272 23.6807C234.111 23.9447 233.876 24.2374 233.566 24.5588C233.256 24.8802 233.073 25.0696 233.015 25.127C232.958 25.1844 232.826 25.2934 232.619 25.4541C232.585 25.4886 232.562 25.5115 232.55 25.523H232.344C232.252 25.523 232.189 25.523 232.154 25.523C232.12 25.523 232.091 25.5058 232.068 25.4713C232.045 25.4369 232.028 25.3852 232.017 25.3164C232.028 25.3049 232.091 25.2303 232.206 25.0925C233.985 23.2445 234.875 20.5183 234.875 16.9139C234.875 13.3096 233.985 10.5834 232.206 8.73531C232.091 8.59756 232.028 8.52295 232.017 8.51147C232.017 8.41964 232.045 8.35651 232.103 8.32207Z" fill="black"/>
<path d="M243.515 15.2438C243.515 15.0945 243.595 14.9798 243.756 14.8994H254.724C254.896 14.9912 254.982 15.106 254.982 15.2438C254.982 15.37 254.902 15.4791 254.741 15.5709L249.266 15.5881H243.79C243.607 15.5307 243.515 15.4159 243.515 15.2438ZM243.515 18.5841C243.515 18.4119 243.607 18.2971 243.79 18.2397H254.741C254.902 18.3545 254.982 18.4693 254.982 18.5841C254.982 18.7333 254.896 18.8481 254.724 18.9284H243.756C243.595 18.8481 243.515 18.7333 243.515 18.5841Z" fill="black"/>
<path d="M261.625 16.2424C261.705 15.7603 262.015 15.2036 262.555 14.5723C263.094 13.9409 263.76 13.6195 264.552 13.608C264.954 13.608 265.321 13.7114 265.654 13.918C265.987 14.1246 266.234 14.3829 266.394 14.6928C266.876 13.9696 267.456 13.608 268.133 13.608C268.558 13.608 268.925 13.7343 269.235 13.9868C269.545 14.2394 269.706 14.578 269.717 15.0027C269.717 15.3356 269.637 15.6053 269.476 15.812C269.316 16.0186 269.161 16.1448 269.012 16.1908C268.862 16.2367 268.73 16.2596 268.615 16.2596C268.397 16.2596 268.219 16.1965 268.082 16.0702C267.944 15.944 267.875 15.7775 267.875 15.5709C267.875 15.0429 268.162 14.6813 268.736 14.4862C268.61 14.3369 268.38 14.2623 268.047 14.2623C267.898 14.2623 267.789 14.2738 267.72 14.2968C267.284 14.4804 266.963 14.8592 266.756 15.4332C266.067 17.97 265.723 19.4507 265.723 19.8754C265.723 20.1969 265.815 20.4264 265.998 20.5642C266.182 20.7019 266.383 20.7708 266.601 20.7708C267.026 20.7708 267.445 20.5814 267.858 20.2026C268.271 19.8238 268.552 19.3589 268.702 18.8079C268.736 18.6931 268.77 18.63 268.805 18.6185C268.839 18.607 268.931 18.5956 269.08 18.5841H269.149C269.321 18.5841 269.408 18.63 269.408 18.7218C269.408 18.7333 269.396 18.7964 269.373 18.9112C269.189 19.5655 268.834 20.1452 268.306 20.6503C267.778 21.1553 267.163 21.4079 266.463 21.4079C265.66 21.4079 265.051 21.0463 264.638 20.3231C264.167 21.0348 263.628 21.3906 263.02 21.3906H262.916C262.354 21.3906 261.952 21.2414 261.711 20.943C261.47 20.6445 261.344 20.3289 261.332 19.996C261.332 19.6287 261.441 19.3302 261.659 19.1006C261.877 18.8711 262.136 18.7563 262.434 18.7563C262.928 18.7563 263.175 18.9973 263.175 19.4794C263.175 19.709 263.106 19.9099 262.968 20.0821C262.83 20.2542 262.698 20.369 262.572 20.4264C262.446 20.4838 262.371 20.5125 262.348 20.5125L262.296 20.5297C262.296 20.5412 262.331 20.5642 262.4 20.5986C262.469 20.633 262.56 20.6732 262.675 20.7191C262.79 20.765 262.899 20.7823 263.002 20.7708C263.416 20.7708 263.771 20.5125 264.07 19.996C264.173 19.8123 264.305 19.422 264.466 18.8251C264.627 18.2282 264.787 17.6084 264.948 16.9656C265.109 16.3228 265.201 15.944 265.224 15.8292C265.281 15.5193 265.31 15.2954 265.31 15.1577C265.31 14.8363 265.224 14.6067 265.051 14.4689C264.879 14.3312 264.684 14.2623 264.466 14.2623C264.007 14.2623 263.576 14.446 263.175 14.8133C262.773 15.1806 262.492 15.6513 262.331 16.2252C262.308 16.3285 262.279 16.3859 262.245 16.3974C262.21 16.4089 262.119 16.4203 261.969 16.4318H261.728C261.659 16.3629 261.625 16.2998 261.625 16.2424Z" fill="black"/>
<path d="M271.905 8.88506C271.686 8.88506 271.512 8.81202 271.382 8.66594C271.252 8.51986 271.187 8.34132 271.187 8.13032C271.187 7.55412 271.402 7.05502 271.832 6.63301C272.262 6.21101 272.798 6 273.439 6C274.178 6 274.794 6.22724 275.289 6.6817C275.784 7.13617 276.036 7.72454 276.044 8.44682C276.044 8.79579 275.963 9.12852 275.801 9.44503C275.638 9.76153 275.444 10.0375 275.216 10.2728C274.989 10.5082 274.664 10.8084 274.242 11.1736C273.95 11.4252 273.545 11.7985 273.025 12.2936L272.307 12.9753L273.232 12.9874C274.506 12.9874 275.184 12.9671 275.265 12.9266C275.322 12.9103 275.419 12.5492 275.557 11.8432V11.8066H276.044V11.8432C276.036 11.8675 275.983 12.2368 275.886 12.9509C275.788 13.6651 275.728 14.0384 275.703 14.0709V14.1074H271.187V13.8761V13.73C271.187 13.6732 271.211 13.6123 271.26 13.5474C271.309 13.4825 271.43 13.3405 271.625 13.1213C271.861 12.8616 272.063 12.6344 272.234 12.4396C272.307 12.3585 272.445 12.2083 272.648 11.9892C272.851 11.7701 272.989 11.62 273.062 11.5388C273.135 11.4577 273.252 11.3238 273.415 11.1371C273.577 10.9504 273.691 10.8125 273.756 10.7232C273.82 10.6339 273.914 10.5122 274.036 10.358C274.157 10.2038 274.242 10.074 274.291 9.96847C274.34 9.86297 274.401 9.7453 274.474 9.61545C274.547 9.4856 274.6 9.35576 274.632 9.22591C274.664 9.09606 274.693 8.97433 274.717 8.86071C274.742 8.7471 274.754 8.61319 274.754 8.459C274.754 7.94772 274.616 7.50543 274.34 7.13211C274.064 6.7588 273.67 6.57215 273.159 6.57215C272.891 6.57215 272.656 6.64113 272.453 6.77909C272.25 6.91705 272.108 7.05096 272.027 7.18081C271.946 7.31065 271.905 7.38775 271.905 7.4121C271.905 7.42021 271.926 7.42427 271.966 7.42427C272.112 7.42427 272.262 7.48108 272.417 7.5947C272.571 7.70831 272.648 7.89497 272.648 8.15466C272.648 8.35755 272.583 8.52798 272.453 8.66594C272.323 8.8039 272.141 8.87694 271.905 8.88506Z" fill="black"/>
<path d="M268.023 375.947C268.023 375.841 268.105 375.706 268.271 375.54H272.633C275.557 375.57 277.199 375.615 277.561 375.676C277.892 375.736 278.209 375.811 278.51 375.902C278.811 375.992 279.075 376.09 279.301 376.195C279.527 376.301 279.738 376.414 279.934 376.534C280.13 376.655 280.296 376.776 280.431 376.896C280.567 377.017 280.703 377.137 280.838 377.258C280.974 377.378 281.072 377.491 281.132 377.597C281.192 377.702 281.268 377.808 281.358 377.913C281.448 378.019 281.501 378.117 281.516 378.207C281.531 378.297 281.561 378.38 281.607 378.456L281.674 378.591C281.75 378.863 281.787 379.247 281.787 379.744C281.787 380.497 281.69 381.085 281.494 381.507C280.966 382.577 279.911 383.278 278.329 383.609L277.922 383.722C278.028 383.888 278.164 384.106 278.329 384.377C278.495 384.649 278.827 385.146 279.324 385.869C279.821 386.593 280.281 387.233 280.703 387.79C281.124 388.348 281.569 388.868 282.036 389.35C282.503 389.832 282.872 390.111 283.144 390.186C283.43 390.262 283.573 390.405 283.573 390.616C283.573 390.751 283.483 390.879 283.302 391H279.166C279.06 390.895 278.261 389.689 276.77 387.384L274.555 383.971H273.696V386.841C273.726 388.589 273.749 389.523 273.764 389.644C273.809 389.9 273.959 390.058 274.216 390.119C274.276 390.134 274.487 390.156 274.849 390.186C275.225 390.186 275.481 390.239 275.617 390.345C275.753 390.51 275.753 390.699 275.617 390.91L275.459 391H268.271C268.09 390.91 268 390.782 268 390.616C268 390.329 268.294 390.186 268.881 390.186C269.499 390.141 269.846 390.013 269.921 389.802C269.997 389.682 270.034 387.504 270.034 383.27C270.034 379.036 269.997 376.843 269.921 376.693C269.831 376.497 269.484 376.376 268.881 376.331C268.309 376.331 268.023 376.203 268.023 375.947ZM273.086 390.186C273.04 390.081 273.01 390.005 272.995 389.96C272.98 389.915 272.965 389.666 272.95 389.214C272.935 388.762 272.92 388.122 272.905 387.293C272.89 386.464 272.89 385.154 272.905 383.36V376.941L272.995 376.625L273.153 376.331H270.644C270.69 376.437 270.72 376.512 270.735 376.557C270.75 376.602 270.765 376.866 270.78 377.348C270.795 377.83 270.81 378.478 270.825 379.292C270.84 380.106 270.84 381.432 270.825 383.27C270.825 386.434 270.818 388.333 270.803 388.966C270.788 389.599 270.742 389.99 270.667 390.141C270.652 390.156 270.644 390.171 270.644 390.186H273.086ZM277.968 379.767C277.968 379.104 277.907 378.546 277.787 378.094C277.666 377.642 277.485 377.303 277.244 377.077C277.003 376.851 276.815 376.708 276.679 376.647C276.544 376.587 276.37 376.519 276.159 376.444C276.114 376.444 275.828 376.406 275.301 376.331C274.713 376.331 274.276 376.429 273.99 376.625C273.839 376.73 273.756 376.919 273.741 377.19C273.726 377.461 273.711 378.433 273.696 380.106V383.157H274.057C274.705 383.157 275.391 383.112 276.114 383.021C276.807 382.841 277.29 382.539 277.561 382.117C277.832 381.695 277.968 380.912 277.968 379.767ZM278.759 378.84C278.759 378.84 278.759 379.149 278.759 379.767C278.759 380.384 278.729 380.904 278.668 381.326C278.608 381.748 278.533 382.034 278.442 382.185C278.352 382.336 278.284 382.471 278.239 382.592C278.194 382.712 278.156 382.788 278.126 382.818C278.126 382.833 278.133 382.841 278.148 382.841C278.209 382.841 278.45 382.765 278.872 382.615C280.318 382.162 281.042 381.221 281.042 379.789C281.042 378.328 280.168 377.31 278.42 376.738L277.968 376.58L278.058 376.828C278.254 377.054 278.457 377.544 278.668 378.297C278.729 378.659 278.759 379.149 278.759 379.767V378.84ZM278.126 385.485C277.327 384.37 276.92 383.812 276.905 383.812C276.815 383.812 276.747 383.828 276.702 383.858C276.446 383.858 276.212 383.88 276.001 383.925H275.459L279.527 390.186H281.629L281.335 389.847C280.537 388.958 279.467 387.504 278.126 385.485Z" fill="black"/>
<path d="M285.699 374.787C285.411 374.787 285.182 374.691 285.012 374.5C284.842 374.308 284.756 374.073 284.756 373.796C284.756 373.04 285.039 372.385 285.603 371.831C286.168 371.277 286.871 371 287.713 371C288.682 371 289.492 371.298 290.142 371.895C290.791 372.491 291.122 373.264 291.132 374.212C291.132 374.67 291.026 375.107 290.813 375.522C290.6 375.938 290.344 376.3 290.046 376.609C289.747 376.918 289.321 377.312 288.767 377.791C288.384 378.122 287.851 378.612 287.169 379.262L286.226 380.156L287.441 380.172C289.113 380.172 290.003 380.146 290.11 380.093C290.184 380.071 290.312 379.597 290.493 378.67V378.622H291.132V378.67C291.122 378.702 291.052 379.187 290.925 380.125C290.797 381.062 290.717 381.552 290.685 381.595V381.643H284.756V381.339V381.147C284.756 381.073 284.788 380.993 284.852 380.908C284.916 380.822 285.076 380.636 285.332 380.348C285.641 380.007 285.907 379.709 286.131 379.453C286.226 379.347 286.408 379.15 286.674 378.862C286.94 378.574 287.121 378.377 287.217 378.271C287.313 378.164 287.468 377.989 287.681 377.744C287.894 377.498 288.043 377.317 288.128 377.2C288.213 377.083 288.336 376.923 288.496 376.721C288.655 376.518 288.767 376.348 288.831 376.209C288.895 376.071 288.975 375.916 289.071 375.746C289.167 375.576 289.236 375.405 289.279 375.235C289.321 375.064 289.358 374.904 289.39 374.755C289.422 374.606 289.438 374.43 289.438 374.228C289.438 373.557 289.257 372.976 288.895 372.486C288.533 371.996 288.016 371.751 287.345 371.751C286.993 371.751 286.685 371.842 286.418 372.023C286.152 372.204 285.965 372.38 285.859 372.55C285.752 372.721 285.699 372.822 285.699 372.854C285.699 372.864 285.726 372.87 285.779 372.87C285.971 372.87 286.168 372.944 286.37 373.093C286.573 373.243 286.674 373.488 286.674 373.828C286.674 374.095 286.589 374.318 286.418 374.5C286.248 374.681 286.008 374.777 285.699 374.787Z" fill="black"/>
<path d="M32.87 378.345C32.87 379.145 32.63 379.81 32.15 380.34C31.67 380.87 30.905 381.225 29.855 381.405L33.17 385.395C33.44 385.725 33.735 385.965 34.055 386.115C34.385 386.255 34.775 386.36 35.225 386.43V387H32.33L28.655 382.29C28.525 382.12 28.4 381.985 28.28 381.885C28.17 381.785 28.05 381.71 27.92 381.66C27.8 381.6 27.655 381.565 27.485 381.555C27.325 381.535 27.13 381.525 26.9 381.525V384.645C26.9 385.015 26.92 385.32 26.96 385.56C27.01 385.79 27.105 385.97 27.245 386.1C27.395 386.23 27.605 386.32 27.875 386.37C28.155 386.41 28.52 386.43 28.97 386.43V387H23.675V386.43C24.025 386.42 24.305 386.39 24.515 386.34C24.735 386.29 24.905 386.205 25.025 386.085C25.145 385.965 25.225 385.795 25.265 385.575C25.305 385.355 25.325 385.07 25.325 384.72V377.73C25.325 377.38 25.305 377.1 25.265 376.89C25.235 376.67 25.165 376.5 25.055 376.38C24.955 376.25 24.805 376.165 24.605 376.125C24.405 376.075 24.145 376.04 23.825 376.02V375.45H28.535C29.915 375.45 30.98 375.705 31.73 376.215C32.49 376.725 32.87 377.435 32.87 378.345ZM26.9 380.775H27.965C28.965 380.775 29.705 380.595 30.185 380.235C30.675 379.865 30.92 379.26 30.92 378.42C30.92 377.61 30.725 377.03 30.335 376.68C29.955 376.33 29.355 376.155 28.535 376.155H27.155C26.985 376.155 26.9 376.24 26.9 376.41V380.775ZM42.5488 385.605C41.6988 386.635 40.6438 387.15 39.3838 387.15C38.7938 387.15 38.2588 387.055 37.7788 386.865C37.2988 386.665 36.8838 386.39 36.5338 386.04C36.1938 385.68 35.9288 385.255 35.7388 384.765C35.5488 384.265 35.4538 383.715 35.4538 383.115C35.4538 382.505 35.5538 381.94 35.7538 381.42C35.9538 380.9 36.2338 380.455 36.5938 380.085C36.9638 379.715 37.3988 379.425 37.8988 379.215C38.4088 379.005 38.9638 378.9 39.5638 378.9C40.5338 378.9 41.2838 379.165 41.8138 379.695C42.3438 380.215 42.6088 380.965 42.6088 381.945C42.6088 382.085 42.5788 382.17 42.5188 382.2C42.4688 382.23 42.3438 382.245 42.1438 382.245H37.2088C37.1888 382.325 37.1738 382.425 37.1638 382.545C37.1538 382.655 37.1488 382.78 37.1488 382.92C37.1488 383.44 37.2088 383.915 37.3288 384.345C37.4588 384.765 37.6388 385.125 37.8688 385.425C38.1088 385.725 38.3888 385.96 38.7088 386.13C39.0388 386.29 39.4038 386.37 39.8038 386.37C40.2238 386.37 40.6138 386.28 40.9738 386.1C41.3338 385.91 41.7038 385.605 42.0838 385.185L42.5488 385.605ZM40.0738 381.555C40.2738 381.555 40.4338 381.55 40.5538 381.54C40.6738 381.53 40.7638 381.51 40.8238 381.48C40.8838 381.45 40.9238 381.41 40.9438 381.36C40.9638 381.3 40.9738 381.225 40.9738 381.135C40.9738 380.675 40.8238 380.31 40.5238 380.04C40.2338 379.76 39.8338 379.62 39.3238 379.62C38.2438 379.62 37.5738 380.265 37.3138 381.555H40.0738ZM47.4274 383.775C47.8474 383.775 48.1724 383.585 48.4024 383.205C48.6424 382.825 48.7624 382.29 48.7624 381.6C48.7624 380.92 48.6424 380.395 48.4024 380.025C48.1724 379.645 47.8424 379.455 47.4124 379.455C46.9824 379.455 46.6374 379.645 46.3774 380.025C46.1274 380.405 46.0024 380.925 46.0024 381.585C46.0024 382.245 46.1324 382.775 46.3924 383.175C46.6524 383.575 46.9974 383.775 47.4274 383.775ZM46.6024 385.53C46.8424 385.55 47.0624 385.57 47.2624 385.59C47.4624 385.61 47.6574 385.63 47.8474 385.65C48.0474 385.67 48.2424 385.695 48.4324 385.725C48.6324 385.755 48.8474 385.785 49.0774 385.815C49.7974 385.925 50.3724 386.205 50.8024 386.655C51.2424 387.095 51.4624 387.65 51.4624 388.32C51.4624 389.16 51.1274 389.8 50.4574 390.24C49.7974 390.68 48.8374 390.9 47.5774 390.9C47.0174 390.9 46.5024 390.85 46.0324 390.75C45.5724 390.65 45.1774 390.505 44.8474 390.315C44.5174 390.135 44.2574 389.915 44.0674 389.655C43.8874 389.395 43.7974 389.11 43.7974 388.8C43.7974 388.59 43.8324 388.395 43.9024 388.215C43.9724 388.035 44.0674 387.875 44.1874 387.735C44.3074 387.605 44.4474 387.5 44.6074 387.42C44.7774 387.34 44.9524 387.3 45.1324 387.3C45.4724 387.3 45.7774 387.405 46.0474 387.615C45.7774 387.675 45.5574 387.82 45.3874 388.05C45.2174 388.29 45.1324 388.56 45.1324 388.86C45.1324 389.3 45.3474 389.64 45.7774 389.88C46.2174 390.12 46.8374 390.24 47.6374 390.24C49.3474 390.24 50.2024 389.715 50.2024 388.665C50.2024 388.265 50.0674 387.93 49.7974 387.66C49.5274 387.4 49.2074 387.245 48.8374 387.195C48.5974 387.165 48.3474 387.13 48.0874 387.09C47.8374 387.06 47.5874 387.03 47.3374 387C47.0974 386.97 46.8724 386.945 46.6624 386.925C46.4524 386.905 46.2824 386.885 46.1524 386.865C45.5924 386.805 45.1674 386.655 44.8774 386.415C44.5874 386.175 44.4424 385.845 44.4424 385.425C44.4424 385.075 44.5874 384.765 44.8774 384.495C45.1674 384.225 45.5324 384.055 45.9724 383.985V383.925C45.7524 383.835 45.5474 383.71 45.3574 383.55C45.1674 383.38 45.0024 383.19 44.8624 382.98C44.7324 382.77 44.6274 382.545 44.5474 382.305C44.4674 382.055 44.4274 381.8 44.4274 381.54C44.4274 381.16 44.4974 380.81 44.6374 380.49C44.7874 380.17 44.9924 379.895 45.2524 379.665C45.5224 379.425 45.8374 379.24 46.1974 379.11C46.5574 378.97 46.9524 378.9 47.3824 378.9C47.8224 378.9 48.2374 378.97 48.6274 379.11C49.0174 379.24 49.3524 379.435 49.6324 379.695C49.9724 379.415 50.2724 379.215 50.5324 379.095C50.7924 378.965 51.0374 378.9 51.2674 378.9C51.6274 378.9 51.9124 378.985 52.1224 379.155C52.3424 379.315 52.4524 379.535 52.4524 379.815C52.4524 379.985 52.3924 380.12 52.2724 380.22C52.1624 380.32 52.0224 380.37 51.8524 380.37C51.7124 380.37 51.5974 380.345 51.5074 380.295C51.4174 380.245 51.3324 380.195 51.2524 380.145C51.1824 380.085 51.1074 380.03 51.0274 379.98C50.9474 379.93 50.8474 379.905 50.7274 379.905C50.4874 379.905 50.2424 379.99 49.9924 380.16C50.2324 380.53 50.3524 380.995 50.3524 381.555C50.3524 382.405 50.0874 383.075 49.5574 383.565C49.0274 384.045 48.2324 384.325 47.1724 384.405C46.5624 384.455 46.1374 384.52 45.8974 384.6C45.6574 384.68 45.5374 384.825 45.5374 385.035C45.5374 385.195 45.6274 385.315 45.8074 385.395C45.9874 385.465 46.2524 385.51 46.6024 385.53ZM55.7169 384.615C55.7169 385.005 55.7319 385.32 55.7619 385.56C55.8019 385.79 55.8719 385.975 55.9719 386.115C56.0719 386.245 56.2119 386.335 56.3919 386.385C56.5719 386.435 56.8119 386.465 57.1119 386.475V387H52.8069V386.475C53.1069 386.465 53.3519 386.435 53.5419 386.385C53.7319 386.325 53.8769 386.235 53.9769 386.115C54.0869 385.985 54.1569 385.81 54.1869 385.59C54.2269 385.36 54.2469 385.07 54.2469 384.72V382.8C54.2469 382.22 54.2369 381.745 54.2169 381.375C54.2069 380.995 54.1819 380.735 54.1419 380.595C54.0919 380.365 53.9769 380.21 53.7969 380.13C53.6169 380.04 53.2769 379.995 52.7769 379.995V379.47L55.7169 378.9V384.615ZM53.9919 375.855C53.9919 375.595 54.0819 375.375 54.2619 375.195C54.4419 375.015 54.6619 374.925 54.9219 374.925C55.1819 374.925 55.4019 375.015 55.5819 375.195C55.7619 375.375 55.8519 375.595 55.8519 375.855C55.8519 376.115 55.7619 376.335 55.5819 376.515C55.4019 376.695 55.1819 376.785 54.9219 376.785C54.6619 376.785 54.4419 376.695 54.2619 376.515C54.0819 376.335 53.9919 376.115 53.9919 375.855ZM62.2842 378.9C62.8542 378.9 63.3942 379.005 63.9042 379.215C64.4142 379.415 64.8592 379.695 65.2392 380.055C65.6292 380.415 65.9342 380.845 66.1542 381.345C66.3842 381.835 66.4992 382.375 66.4992 382.965C66.4992 383.575 66.3842 384.135 66.1542 384.645C65.9342 385.155 65.6292 385.595 65.2392 385.965C64.8592 386.335 64.4142 386.625 63.9042 386.835C63.3942 387.045 62.8542 387.15 62.2842 387.15C61.7242 387.15 61.1892 387.05 60.6792 386.85C60.1792 386.64 59.7392 386.35 59.3592 385.98C58.9792 385.61 58.6792 385.17 58.4592 384.66C58.2392 384.14 58.1292 383.575 58.1292 382.965C58.1292 382.375 58.2392 381.83 58.4592 381.33C58.6792 380.83 58.9792 380.4 59.3592 380.04C59.7392 379.68 60.1792 379.4 60.6792 379.2C61.1892 379 61.7242 378.9 62.2842 378.9ZM62.2842 379.62C61.9142 379.62 61.5742 379.7 61.2642 379.86C60.9642 380.02 60.7042 380.25 60.4842 380.55C60.2742 380.84 60.1092 381.195 59.9892 381.615C59.8792 382.025 59.8242 382.48 59.8242 382.98C59.8242 383.5 59.8792 383.97 59.9892 384.39C60.1092 384.81 60.2742 385.17 60.4842 385.47C60.7042 385.76 60.9642 385.985 61.2642 386.145C61.5642 386.305 61.9042 386.385 62.2842 386.385C62.6642 386.385 63.0092 386.305 63.3192 386.145C63.6292 385.985 63.8942 385.755 64.1142 385.455C64.3342 385.155 64.5042 384.795 64.6242 384.375C64.7442 383.955 64.8042 383.49 64.8042 382.98C64.8042 382.48 64.7442 382.025 64.6242 381.615C64.5042 381.205 64.3342 380.855 64.1142 380.565C63.8942 380.265 63.6292 380.035 63.3192 379.875C63.0092 379.705 62.6642 379.62 62.2842 379.62ZM70.4636 384.645C70.4636 385.055 70.4736 385.38 70.4936 385.62C70.5136 385.85 70.5636 386.03 70.6436 386.16C70.7336 386.28 70.8586 386.36 71.0186 386.4C71.1886 386.44 71.4186 386.47 71.7086 386.49V387H67.7786V386.49C68.0586 386.47 68.2786 386.44 68.4386 386.4C68.6086 386.36 68.7386 386.28 68.8286 386.16C68.9186 386.04 68.9736 385.87 68.9936 385.65C69.0236 385.43 69.0386 385.13 69.0386 384.75V382.755C69.0386 381.565 69.0086 380.84 68.9486 380.58C68.9186 380.45 68.8786 380.345 68.8286 380.265C68.7886 380.175 68.7236 380.11 68.6336 380.07C68.5436 380.02 68.4286 379.99 68.2886 379.98C68.1486 379.96 67.9686 379.95 67.7486 379.95V379.47L70.1486 378.9L70.3286 380.385H70.3886C70.7686 379.915 71.2136 379.55 71.7236 379.29C72.2336 379.03 72.7886 378.9 73.3886 378.9C73.8486 378.9 74.2686 378.975 74.6486 379.125C75.0286 379.275 75.3186 379.48 75.5186 379.74C75.6886 379.97 75.8086 380.27 75.8786 380.64C75.9486 381 75.9836 381.5 75.9836 382.14V384.645C75.9836 385.055 75.9936 385.38 76.0136 385.62C76.0436 385.85 76.0986 386.03 76.1786 386.16C76.2586 386.28 76.3786 386.36 76.5386 386.4C76.7086 386.44 76.9286 386.47 77.1986 386.49V387H73.3136V386.49C73.5936 386.48 73.8136 386.455 73.9736 386.415C74.1436 386.365 74.2686 386.28 74.3486 386.16C74.4386 386.04 74.4936 385.87 74.5136 385.65C74.5436 385.42 74.5586 385.12 74.5586 384.75V382.77C74.5586 382.2 74.5286 381.72 74.4686 381.33C74.4086 380.94 74.3086 380.625 74.1686 380.385C74.0386 380.145 73.8636 379.975 73.6436 379.875C73.4236 379.765 73.1586 379.71 72.8486 379.71C72.3986 379.71 71.9836 379.83 71.6036 380.07C71.2336 380.3 70.9436 380.62 70.7336 381.03C70.6836 381.13 70.6386 381.225 70.5986 381.315C70.5686 381.405 70.5436 381.51 70.5236 381.63C70.5036 381.75 70.4886 381.89 70.4786 382.05C70.4686 382.2 70.4636 382.395 70.4636 382.635V384.645ZM88.5915 382.815H84.5865C84.4165 383.225 84.2715 383.59 84.1515 383.91C84.0315 384.22 83.9315 384.49 83.8515 384.72C83.7815 384.95 83.7315 385.145 83.7015 385.305C83.6715 385.465 83.6565 385.595 83.6565 385.695C83.6565 385.975 83.7465 386.17 83.9265 386.28C84.1065 386.38 84.4065 386.43 84.8265 386.43V387H81.1815V386.43C81.4115 386.4 81.6065 386.36 81.7665 386.31C81.9365 386.26 82.0815 386.19 82.2015 386.1C82.3315 386.01 82.4415 385.895 82.5315 385.755C82.6315 385.605 82.7265 385.425 82.8165 385.215L86.7165 375.45H87.3615L90.7665 383.91C90.9965 384.47 91.1965 384.92 91.3665 385.26C91.5365 385.59 91.7015 385.84 91.8615 386.01C92.0215 386.18 92.1915 386.29 92.3715 386.34C92.5615 386.39 92.7865 386.415 93.0465 386.415V387H88.1565V386.415C88.6865 386.415 89.0515 386.365 89.2515 386.265C89.4515 386.165 89.5515 386 89.5515 385.77C89.5515 385.67 89.5465 385.58 89.5365 385.5C89.5265 385.41 89.5065 385.315 89.4765 385.215C89.4565 385.115 89.4215 385.005 89.3715 384.885C89.3315 384.755 89.2765 384.605 89.2065 384.435L88.5915 382.815ZM84.8865 382.065H88.3065L86.6415 377.64L84.8865 382.065Z" fill="black"/>
<path d="M40.87 12.345C40.87 13.145 40.63 13.81 40.15 14.34C39.67 14.87 38.905 15.225 37.855 15.405L41.17 19.395C41.44 19.725 41.735 19.965 42.055 20.115C42.385 20.255 42.775 20.36 43.225 20.43V21H40.33L36.655 16.29C36.525 16.12 36.4 15.985 36.28 15.885C36.17 15.785 36.05 15.71 35.92 15.66C35.8 15.6 35.655 15.565 35.485 15.555C35.325 15.535 35.13 15.525 34.9 15.525V18.645C34.9 19.015 34.92 19.32 34.96 19.56C35.01 19.79 35.105 19.97 35.245 20.1C35.395 20.23 35.605 20.32 35.875 20.37C36.155 20.41 36.52 20.43 36.97 20.43V21H31.675V20.43C32.025 20.42 32.305 20.39 32.515 20.34C32.735 20.29 32.905 20.205 33.025 20.085C33.145 19.965 33.225 19.795 33.265 19.575C33.305 19.355 33.325 19.07 33.325 18.72V11.73C33.325 11.38 33.305 11.1 33.265 10.89C33.235 10.67 33.165 10.5 33.055 10.38C32.955 10.25 32.805 10.165 32.605 10.125C32.405 10.075 32.145 10.04 31.825 10.02V9.45H36.535C37.915 9.45 38.98 9.705 39.73 10.215C40.49 10.725 40.87 11.435 40.87 12.345ZM34.9 14.775H35.965C36.965 14.775 37.705 14.595 38.185 14.235C38.675 13.865 38.92 13.26 38.92 12.42C38.92 11.61 38.725 11.03 38.335 10.68C37.955 10.33 37.355 10.155 36.535 10.155H35.155C34.985 10.155 34.9 10.24 34.9 10.41V14.775ZM50.5488 19.605C49.6988 20.635 48.6438 21.15 47.3838 21.15C46.7938 21.15 46.2588 21.055 45.7788 20.865C45.2988 20.665 44.8838 20.39 44.5338 20.04C44.1938 19.68 43.9288 19.255 43.7388 18.765C43.5488 18.265 43.4538 17.715 43.4538 17.115C43.4538 16.505 43.5538 15.94 43.7538 15.42C43.9538 14.9 44.2338 14.455 44.5938 14.085C44.9638 13.715 45.3988 13.425 45.8988 13.215C46.4088 13.005 46.9638 12.9 47.5638 12.9C48.5338 12.9 49.2838 13.165 49.8138 13.695C50.3438 14.215 50.6088 14.965 50.6088 15.945C50.6088 16.085 50.5788 16.17 50.5188 16.2C50.4688 16.23 50.3438 16.245 50.1438 16.245H45.2088C45.1888 16.325 45.1738 16.425 45.1638 16.545C45.1538 16.655 45.1488 16.78 45.1488 16.92C45.1488 17.44 45.2088 17.915 45.3288 18.345C45.4588 18.765 45.6388 19.125 45.8688 19.425C46.1088 19.725 46.3888 19.96 46.7088 20.13C47.0388 20.29 47.4038 20.37 47.8038 20.37C48.2238 20.37 48.6138 20.28 48.9738 20.1C49.3338 19.91 49.7038 19.605 50.0838 19.185L50.5488 19.605ZM48.0738 15.555C48.2738 15.555 48.4338 15.55 48.5538 15.54C48.6738 15.53 48.7638 15.51 48.8238 15.48C48.8838 15.45 48.9238 15.41 48.9438 15.36C48.9638 15.3 48.9738 15.225 48.9738 15.135C48.9738 14.675 48.8238 14.31 48.5238 14.04C48.2338 13.76 47.8338 13.62 47.3238 13.62C46.2438 13.62 45.5738 14.265 45.3138 15.555H48.0738ZM55.4274 17.775C55.8474 17.775 56.1724 17.585 56.4024 17.205C56.6424 16.825 56.7624 16.29 56.7624 15.6C56.7624 14.92 56.6424 14.395 56.4024 14.025C56.1724 13.645 55.8424 13.455 55.4124 13.455C54.9824 13.455 54.6374 13.645 54.3774 14.025C54.1274 14.405 54.0024 14.925 54.0024 15.585C54.0024 16.245 54.1324 16.775 54.3924 17.175C54.6524 17.575 54.9974 17.775 55.4274 17.775ZM54.6024 19.53C54.8424 19.55 55.0624 19.57 55.2624 19.59C55.4624 19.61 55.6574 19.63 55.8474 19.65C56.0474 19.67 56.2424 19.695 56.4324 19.725C56.6324 19.755 56.8474 19.785 57.0774 19.815C57.7974 19.925 58.3724 20.205 58.8024 20.655C59.2424 21.095 59.4624 21.65 59.4624 22.32C59.4624 23.16 59.1274 23.8 58.4574 24.24C57.7974 24.68 56.8374 24.9 55.5774 24.9C55.0174 24.9 54.5024 24.85 54.0324 24.75C53.5724 24.65 53.1774 24.505 52.8474 24.315C52.5174 24.135 52.2574 23.915 52.0674 23.655C51.8874 23.395 51.7974 23.11 51.7974 22.8C51.7974 22.59 51.8324 22.395 51.9024 22.215C51.9724 22.035 52.0674 21.875 52.1874 21.735C52.3074 21.605 52.4474 21.5 52.6074 21.42C52.7774 21.34 52.9524 21.3 53.1324 21.3C53.4724 21.3 53.7774 21.405 54.0474 21.615C53.7774 21.675 53.5574 21.82 53.3874 22.05C53.2174 22.29 53.1324 22.56 53.1324 22.86C53.1324 23.3 53.3474 23.64 53.7774 23.88C54.2174 24.12 54.8374 24.24 55.6374 24.24C57.3474 24.24 58.2024 23.715 58.2024 22.665C58.2024 22.265 58.0674 21.93 57.7974 21.66C57.5274 21.4 57.2074 21.245 56.8374 21.195C56.5974 21.165 56.3474 21.13 56.0874 21.09C55.8374 21.06 55.5874 21.03 55.3374 21C55.0974 20.97 54.8724 20.945 54.6624 20.925C54.4524 20.905 54.2824 20.885 54.1524 20.865C53.5924 20.805 53.1674 20.655 52.8774 20.415C52.5874 20.175 52.4424 19.845 52.4424 19.425C52.4424 19.075 52.5874 18.765 52.8774 18.495C53.1674 18.225 53.5324 18.055 53.9724 17.985V17.925C53.7524 17.835 53.5474 17.71 53.3574 17.55C53.1674 17.38 53.0024 17.19 52.8624 16.98C52.7324 16.77 52.6274 16.545 52.5474 16.305C52.4674 16.055 52.4274 15.8 52.4274 15.54C52.4274 15.16 52.4974 14.81 52.6374 14.49C52.7874 14.17 52.9924 13.895 53.2524 13.665C53.5224 13.425 53.8374 13.24 54.1974 13.11C54.5574 12.97 54.9524 12.9 55.3824 12.9C55.8224 12.9 56.2374 12.97 56.6274 13.11C57.0174 13.24 57.3524 13.435 57.6324 13.695C57.9724 13.415 58.2724 13.215 58.5324 13.095C58.7924 12.965 59.0374 12.9 59.2674 12.9C59.6274 12.9 59.9124 12.985 60.1224 13.155C60.3424 13.315 60.4524 13.535 60.4524 13.815C60.4524 13.985 60.3924 14.12 60.2724 14.22C60.1624 14.32 60.0224 14.37 59.8524 14.37C59.7124 14.37 59.5974 14.345 59.5074 14.295C59.4174 14.245 59.3324 14.195 59.2524 14.145C59.1824 14.085 59.1074 14.03 59.0274 13.98C58.9474 13.93 58.8474 13.905 58.7274 13.905C58.4874 13.905 58.2424 13.99 57.9924 14.16C58.2324 14.53 58.3524 14.995 58.3524 15.555C58.3524 16.405 58.0874 17.075 57.5574 17.565C57.0274 18.045 56.2324 18.325 55.1724 18.405C54.5624 18.455 54.1374 18.52 53.8974 18.6C53.6574 18.68 53.5374 18.825 53.5374 19.035C53.5374 19.195 53.6274 19.315 53.8074 19.395C53.9874 19.465 54.2524 19.51 54.6024 19.53ZM63.7169 18.615C63.7169 19.005 63.7319 19.32 63.7619 19.56C63.8019 19.79 63.8719 19.975 63.9719 20.115C64.0719 20.245 64.2119 20.335 64.3919 20.385C64.5719 20.435 64.8119 20.465 65.1119 20.475V21H60.8069V20.475C61.1069 20.465 61.3519 20.435 61.5419 20.385C61.7319 20.325 61.8769 20.235 61.9769 20.115C62.0869 19.985 62.1569 19.81 62.1869 19.59C62.2269 19.36 62.2469 19.07 62.2469 18.72V16.8C62.2469 16.22 62.2369 15.745 62.2169 15.375C62.2069 14.995 62.1819 14.735 62.1419 14.595C62.0919 14.365 61.9769 14.21 61.7969 14.13C61.6169 14.04 61.2769 13.995 60.7769 13.995V13.47L63.7169 12.9V18.615ZM61.9919 9.855C61.9919 9.595 62.0819 9.375 62.2619 9.195C62.4419 9.015 62.6619 8.925 62.9219 8.925C63.1819 8.925 63.4019 9.015 63.5819 9.195C63.7619 9.375 63.8519 9.595 63.8519 9.855C63.8519 10.115 63.7619 10.335 63.5819 10.515C63.4019 10.695 63.1819 10.785 62.9219 10.785C62.6619 10.785 62.4419 10.695 62.2619 10.515C62.0819 10.335 61.9919 10.115 61.9919 9.855ZM70.2842 12.9C70.8542 12.9 71.3942 13.005 71.9042 13.215C72.4142 13.415 72.8592 13.695 73.2392 14.055C73.6292 14.415 73.9342 14.845 74.1542 15.345C74.3842 15.835 74.4992 16.375 74.4992 16.965C74.4992 17.575 74.3842 18.135 74.1542 18.645C73.9342 19.155 73.6292 19.595 73.2392 19.965C72.8592 20.335 72.4142 20.625 71.9042 20.835C71.3942 21.045 70.8542 21.15 70.2842 21.15C69.7242 21.15 69.1892 21.05 68.6792 20.85C68.1792 20.64 67.7392 20.35 67.3592 19.98C66.9792 19.61 66.6792 19.17 66.4592 18.66C66.2392 18.14 66.1292 17.575 66.1292 16.965C66.1292 16.375 66.2392 15.83 66.4592 15.33C66.6792 14.83 66.9792 14.4 67.3592 14.04C67.7392 13.68 68.1792 13.4 68.6792 13.2C69.1892 13 69.7242 12.9 70.2842 12.9ZM70.2842 13.62C69.9142 13.62 69.5742 13.7 69.2642 13.86C68.9642 14.02 68.7042 14.25 68.4842 14.55C68.2742 14.84 68.1092 15.195 67.9892 15.615C67.8792 16.025 67.8242 16.48 67.8242 16.98C67.8242 17.5 67.8792 17.97 67.9892 18.39C68.1092 18.81 68.2742 19.17 68.4842 19.47C68.7042 19.76 68.9642 19.985 69.2642 20.145C69.5642 20.305 69.9042 20.385 70.2842 20.385C70.6642 20.385 71.0092 20.305 71.3192 20.145C71.6292 19.985 71.8942 19.755 72.1142 19.455C72.3342 19.155 72.5042 18.795 72.6242 18.375C72.7442 17.955 72.8042 17.49 72.8042 16.98C72.8042 16.48 72.7442 16.025 72.6242 15.615C72.5042 15.205 72.3342 14.855 72.1142 14.565C71.8942 14.265 71.6292 14.035 71.3192 13.875C71.0092 13.705 70.6642 13.62 70.2842 13.62ZM78.4636 18.645C78.4636 19.055 78.4736 19.38 78.4936 19.62C78.5136 19.85 78.5636 20.03 78.6436 20.16C78.7336 20.28 78.8586 20.36 79.0186 20.4C79.1886 20.44 79.4186 20.47 79.7086 20.49V21H75.7786V20.49C76.0586 20.47 76.2786 20.44 76.4386 20.4C76.6086 20.36 76.7386 20.28 76.8286 20.16C76.9186 20.04 76.9736 19.87 76.9936 19.65C77.0236 19.43 77.0386 19.13 77.0386 18.75V16.755C77.0386 15.565 77.0086 14.84 76.9486 14.58C76.9186 14.45 76.8786 14.345 76.8286 14.265C76.7886 14.175 76.7236 14.11 76.6336 14.07C76.5436 14.02 76.4286 13.99 76.2886 13.98C76.1486 13.96 75.9686 13.95 75.7486 13.95V13.47L78.1486 12.9L78.3286 14.385H78.3886C78.7686 13.915 79.2136 13.55 79.7236 13.29C80.2336 13.03 80.7886 12.9 81.3886 12.9C81.8486 12.9 82.2686 12.975 82.6486 13.125C83.0286 13.275 83.3186 13.48 83.5186 13.74C83.6886 13.97 83.8086 14.27 83.8786 14.64C83.9486 15 83.9836 15.5 83.9836 16.14V18.645C83.9836 19.055 83.9936 19.38 84.0136 19.62C84.0436 19.85 84.0986 20.03 84.1786 20.16C84.2586 20.28 84.3786 20.36 84.5386 20.4C84.7086 20.44 84.9286 20.47 85.1986 20.49V21H81.3136V20.49C81.5936 20.48 81.8136 20.455 81.9736 20.415C82.1436 20.365 82.2686 20.28 82.3486 20.16C82.4386 20.04 82.4936 19.87 82.5136 19.65C82.5436 19.42 82.5586 19.12 82.5586 18.75V16.77C82.5586 16.2 82.5286 15.72 82.4686 15.33C82.4086 14.94 82.3086 14.625 82.1686 14.385C82.0386 14.145 81.8636 13.975 81.6436 13.875C81.4236 13.765 81.1586 13.71 80.8486 13.71C80.3986 13.71 79.9836 13.83 79.6036 14.07C79.2336 14.3 78.9436 14.62 78.7336 15.03C78.6836 15.13 78.6386 15.225 78.5986 15.315C78.5686 15.405 78.5436 15.51 78.5236 15.63C78.5036 15.75 78.4886 15.89 78.4786 16.05C78.4686 16.2 78.4636 16.395 78.4636 16.635V18.645ZM90.4421 21V20.43C90.8321 20.42 91.1421 20.39 91.3721 20.34C91.6121 20.29 91.7921 20.205 91.9121 20.085C92.0421 19.965 92.1271 19.795 92.1671 19.575C92.2171 19.355 92.2421 19.07 92.2421 18.72V11.73C92.2421 11.38 92.2221 11.1 92.1821 10.89C92.1521 10.67 92.0821 10.5 91.9721 10.38C91.8721 10.25 91.7221 10.165 91.5221 10.125C91.3221 10.075 91.0621 10.04 90.7421 10.02V9.45H95.2271C96.5771 9.45 97.6271 9.69 98.3771 10.17C99.1271 10.65 99.5021 11.325 99.5021 12.195C99.5021 12.855 99.2921 13.395 98.8721 13.815C98.4621 14.235 97.8071 14.58 96.9071 14.85V14.91C97.2171 14.94 97.4871 14.975 97.7171 15.015C97.9471 15.055 98.1521 15.105 98.3321 15.165C98.5121 15.215 98.6771 15.28 98.8271 15.36C98.9871 15.44 99.1421 15.53 99.2921 15.63C100.182 16.26 100.627 17.05 100.627 18C100.627 18.53 100.477 19.025 100.177 19.485C99.8871 19.935 99.4771 20.29 98.9471 20.55C98.7771 20.64 98.6021 20.715 98.4221 20.775C98.2421 20.825 98.0321 20.87 97.7921 20.91C97.5521 20.94 97.2721 20.965 96.9521 20.985C96.6421 20.995 96.2721 21 95.8421 21H90.4421ZM95.8871 20.355C97.6971 20.355 98.6021 19.58 98.6021 18.03C98.6021 16.9 98.1371 16.11 97.2071 15.66C97.0471 15.59 96.8921 15.53 96.7421 15.48C96.5921 15.43 96.4171 15.395 96.2171 15.375C96.0171 15.345 95.7771 15.325 95.4971 15.315C95.2271 15.305 94.8921 15.3 94.4921 15.3H93.8171V18.645C93.8171 19.255 93.9771 19.695 94.2971 19.965C94.6171 20.225 95.1471 20.355 95.8871 20.355ZM94.6571 14.55C94.9671 14.55 95.2271 14.545 95.4371 14.535C95.6471 14.525 95.8271 14.51 95.9771 14.49C96.1271 14.46 96.2571 14.425 96.3671 14.385C96.4871 14.335 96.6071 14.27 96.7271 14.19C97.0471 13.99 97.2721 13.75 97.4021 13.47C97.5421 13.19 97.6121 12.825 97.6121 12.375C97.6121 11.585 97.4171 11.02 97.0271 10.68C96.6471 10.33 96.0471 10.155 95.2271 10.155H94.0721C93.9021 10.155 93.8171 10.24 93.8171 10.41V14.55H94.6571Z" fill="black"/>
<circle cx="70" cy="218" r="2" fill="#333333"/>
<circle cx="124" cy="97" r="2" fill="#333333"/>
<circle cx="232" cy="135" r="2" fill="#333333"/>
<circle cx="232" cy="272" r="2" fill="#333333"/>
<path d="M114.881 99.3234C115.06 99.1129 115.034 98.7973 114.823 98.6187L111.392 95.7077C111.181 95.5291 110.866 95.555 110.687 95.7656C110.508 95.9762 110.534 96.2917 110.745 96.4703L113.795 99.0579L111.208 102.108C111.029 102.319 111.055 102.634 111.266 102.813C111.476 102.992 111.792 102.966 111.97 102.755L114.881 99.3234ZM71.5 212C71.5 206.934 68.977 179.877 73.1439 153.478C75.2265 140.284 78.9739 127.314 85.5084 117.381C92.0307 107.466 101.321 100.584 114.541 99.4983L114.459 98.5017C100.879 99.6165 91.3318 106.709 84.6729 116.831C78.0261 126.936 74.2485 140.066 72.1561 153.322C67.973 179.823 70.5 207.066 70.5 212H71.5Z" fill="#4F4F4F"/>
<path d="M227.378 130.543C227.646 130.61 227.918 130.447 227.985 130.18L229.083 125.816C229.15 125.548 228.987 125.276 228.72 125.209C228.452 125.141 228.18 125.304 228.113 125.572L227.137 129.451L223.258 128.475C222.99 128.408 222.718 128.57 222.651 128.838C222.584 129.106 222.746 129.377 223.014 129.445L227.378 130.543ZM133 94.0576C133.114 94.5444 133.114 94.5444 133.114 94.5443C133.115 94.5443 133.115 94.5441 133.116 94.5439C133.118 94.5435 133.121 94.5429 133.124 94.5421C133.131 94.5404 133.142 94.5379 133.157 94.5345C133.187 94.5278 133.232 94.5176 133.292 94.5045C133.412 94.4782 133.591 94.4397 133.826 94.3915C134.298 94.2951 134.995 94.1598 135.894 94.0055C137.693 93.6968 140.299 93.3119 143.523 93.0085C149.973 92.4017 158.887 92.1219 168.747 93.4283C188.464 96.0406 211.924 104.987 227.071 130.314L227.929 129.801C212.576 104.128 188.786 95.0746 168.878 92.4369C158.925 91.1183 149.933 91.401 143.43 92.0129C140.177 92.319 137.546 92.7075 135.725 93.0199C134.815 93.1761 134.107 93.3133 133.626 93.4118C133.385 93.461 133.202 93.5005 133.077 93.5278C133.015 93.5415 132.968 93.5521 132.936 93.5594C132.92 93.563 132.908 93.5658 132.899 93.5677C132.895 93.5687 132.892 93.5694 132.89 93.5699C132.889 93.5702 132.888 93.5704 132.887 93.5705C132.886 93.5707 132.886 93.5708 133 94.0576Z" fill="#4F4F4F"/>
<path d="M234.036 263.686C234.138 263.942 234.429 264.067 234.686 263.964L238.864 262.293C239.12 262.19 239.245 261.899 239.142 261.643C239.04 261.387 238.749 261.262 238.492 261.365L234.779 262.85L233.293 259.136C233.19 258.88 232.899 258.755 232.643 258.858C232.387 258.96 232.262 259.251 232.365 259.508L234.036 263.686ZM237 140C236.537 140.188 236.537 140.188 236.537 140.188C236.537 140.188 236.537 140.189 236.537 140.19C236.538 140.191 236.539 140.194 236.54 140.197C236.543 140.204 236.547 140.215 236.553 140.229C236.564 140.257 236.581 140.3 236.604 140.358C236.649 140.472 236.715 140.644 236.801 140.871C236.972 141.326 237.221 142.002 237.528 142.887C238.142 144.655 238.99 147.255 239.925 150.573C241.794 157.209 244.007 166.714 245.379 178.184C248.122 201.127 247.496 231.907 234.04 263.303L234.96 263.697C248.504 232.093 249.128 201.123 246.371 178.066C244.993 166.536 242.768 156.979 240.888 150.302C239.947 146.963 239.092 144.345 238.472 142.559C238.162 141.666 237.911 140.981 237.736 140.518C237.649 140.287 237.581 140.112 237.535 139.993C237.512 139.934 237.494 139.889 237.482 139.859C237.476 139.844 237.472 139.833 237.468 139.825C237.467 139.821 237.466 139.818 237.465 139.816C237.464 139.815 237.464 139.814 237.464 139.813C237.464 139.813 237.463 139.812 237 140Z" fill="#4F4F4F"/>
<path d="M252.414 310.719C252.569 310.948 252.509 311.259 252.281 311.414L248.557 313.94C248.328 314.095 248.017 314.035 247.862 313.807C247.707 313.578 247.767 313.267 247.995 313.112L251.306 310.867L249.06 307.557C248.905 307.328 248.965 307.017 249.193 306.862C249.422 306.707 249.733 306.767 249.888 306.995L252.414 310.719ZM228.364 277C228.637 277.419 228.637 277.419 228.637 277.419C228.636 277.419 228.636 277.419 228.636 277.42C228.635 277.42 228.634 277.421 228.632 277.422C228.628 277.425 228.623 277.428 228.615 277.434C228.599 277.444 228.576 277.459 228.545 277.48C228.483 277.522 228.391 277.585 228.272 277.668C228.035 277.834 227.694 278.08 227.278 278.397C226.448 279.032 225.326 279.952 224.161 281.09C221.816 283.379 219.364 286.488 218.684 289.884C218.347 291.569 218.445 293.326 219.213 295.105C219.983 296.889 221.439 298.728 223.87 300.546C228.742 304.192 237.459 307.704 252.094 310.509L251.906 311.491C237.223 308.677 228.327 305.13 223.271 301.347C220.736 299.451 219.15 297.482 218.295 295.501C217.438 293.516 217.331 291.55 217.703 289.687C218.444 285.988 221.077 282.704 223.462 280.374C224.662 279.202 225.817 278.256 226.671 277.603C227.098 277.276 227.451 277.022 227.699 276.849C227.822 276.762 227.919 276.696 227.986 276.651C228.019 276.628 228.045 276.611 228.063 276.6C228.072 276.594 228.079 276.589 228.083 276.586C228.086 276.585 228.088 276.583 228.089 276.582C228.09 276.582 228.09 276.582 228.091 276.581C228.091 276.581 228.091 276.581 228.364 277Z" fill="#4F4F4F"/>
<path d="M66.292 227.628C66.3722 227.147 66.6813 226.592 67.2195 225.962C67.7577 225.332 68.4219 225.011 69.212 225C69.6128 225 69.9792 225.103 70.3113 225.309C70.6434 225.515 70.8896 225.773 71.0499 226.082C71.5308 225.361 72.1091 225 72.7847 225C73.2084 225 73.5748 225.126 73.884 225.378C74.1932 225.63 74.3535 225.968 74.3649 226.391C74.3649 226.723 74.2848 226.992 74.1245 227.199C73.9641 227.405 73.8095 227.531 73.6607 227.576C73.5118 227.622 73.3801 227.645 73.2656 227.645C73.0481 227.645 72.8706 227.582 72.7332 227.456C72.5957 227.33 72.527 227.164 72.527 226.958C72.527 226.431 72.8133 226.071 73.3859 225.876C73.2599 225.727 73.0309 225.653 72.6988 225.653C72.5499 225.653 72.4412 225.664 72.3725 225.687C71.9373 225.87 71.6167 226.248 71.4106 226.821C70.7235 229.351 70.38 230.829 70.38 231.252C70.38 231.573 70.4716 231.802 70.6548 231.939C70.838 232.077 71.0384 232.145 71.256 232.145C71.6797 232.145 72.0976 231.956 72.5099 231.579C72.9221 231.201 73.2026 230.737 73.3515 230.187C73.3859 230.073 73.4202 230.01 73.4546 229.998C73.4889 229.987 73.5805 229.975 73.7294 229.964H73.7981C73.9699 229.964 74.0557 230.01 74.0557 230.101C74.0557 230.113 74.0443 230.176 74.0214 230.29C73.8382 230.943 73.4832 231.521 72.9565 232.025C72.4297 232.529 71.8171 232.781 71.1186 232.781C70.317 232.781 69.7101 232.42 69.2979 231.699C68.8284 232.409 68.2902 232.764 67.6833 232.764H67.5802C67.0191 232.764 66.6184 232.615 66.3779 232.317C66.1374 232.019 66.0115 231.705 66 231.372C66 231.006 66.1088 230.708 66.3264 230.479C66.5439 230.25 66.8016 230.136 67.0993 230.136C67.5917 230.136 67.8379 230.376 67.8379 230.857C67.8379 231.086 67.7692 231.287 67.6318 231.458C67.4943 231.63 67.3627 231.745 67.2367 231.802C67.1107 231.859 67.0363 231.888 67.0134 231.888L66.9619 231.905C66.9619 231.916 66.9962 231.939 67.0649 231.974C67.1336 232.008 67.2253 232.048 67.3398 232.094C67.4543 232.14 67.5631 232.157 67.6661 232.145C68.0783 232.145 68.4333 231.888 68.7311 231.372C68.8341 231.189 68.9658 230.8 69.1261 230.204C69.2864 229.609 69.4467 228.991 69.607 228.349C69.7674 227.708 69.859 227.33 69.8819 227.216C69.9391 226.907 69.9678 226.683 69.9678 226.546C69.9678 226.225 69.8819 225.996 69.7101 225.859C69.5383 225.721 69.3437 225.653 69.1261 225.653C68.6681 225.653 68.2387 225.836 67.8379 226.202C67.4371 226.569 67.1565 227.038 66.9962 227.611C66.9733 227.714 66.9447 227.771 66.9104 227.783C66.876 227.794 66.7844 227.805 66.6355 227.817H66.3951C66.3264 227.748 66.292 227.685 66.292 227.628Z" fill="black"/>
<path d="M76.3895 228.064C76.8429 227.409 77.4622 227.081 78.2475 227.081C78.6361 227.081 79.0247 227.186 79.4133 227.396C79.8019 227.607 80.1177 227.979 80.3605 228.514C80.6601 229.186 80.8099 230.109 80.8099 231.282C80.8099 232.537 80.6358 233.497 80.2877 234.161C80.1258 234.501 79.9031 234.772 79.6198 234.974C79.3364 235.177 79.0895 235.302 78.879 235.351C78.6685 235.399 78.4621 235.428 78.2597 235.436C78.0492 235.436 77.8387 235.411 77.6282 235.363C77.4177 235.314 77.1708 235.185 76.8874 234.974C76.6041 234.764 76.3814 234.492 76.2195 234.161C75.8714 233.497 75.6973 232.537 75.6973 231.282C75.6973 229.874 75.9281 228.801 76.3895 228.064ZM79.1219 227.919C78.879 227.66 78.5916 227.53 78.2597 227.53C77.9197 227.53 77.6282 227.66 77.3853 227.919C77.1829 228.129 77.0494 228.421 76.9846 228.793C76.9198 229.165 76.8874 229.943 76.8874 231.125C76.8874 232.404 76.9198 233.246 76.9846 233.65C77.0494 234.055 77.1951 234.375 77.4218 234.61C77.6484 234.853 77.9277 234.974 78.2597 234.974C78.5835 234.974 78.8588 234.853 79.0855 234.61C79.3202 234.367 79.466 234.027 79.5226 233.59C79.5793 233.153 79.6117 232.331 79.6198 231.125C79.6198 229.951 79.5874 229.178 79.5226 228.805C79.4579 228.433 79.3243 228.137 79.1219 227.919Z" fill="black"/>
<path d="M130.265 76.1483C130.337 75.7125 130.617 75.2092 131.105 74.6385C131.593 74.0678 132.195 73.7772 132.911 73.7668C133.274 73.7668 133.606 73.8602 133.907 74.047C134.208 74.2338 134.431 74.4673 134.576 74.7474C135.012 74.0937 135.536 73.7668 136.148 73.7668C136.532 73.7668 136.864 73.881 137.145 74.1093C137.425 74.3376 137.57 74.6437 137.58 75.0276C137.58 75.3286 137.508 75.5724 137.362 75.7592C137.217 75.946 137.077 76.0601 136.942 76.1016C136.807 76.1431 136.688 76.1639 136.584 76.1639C136.387 76.1639 136.226 76.1068 136.102 75.9927C135.977 75.8785 135.915 75.7281 135.915 75.5413C135.915 75.0639 136.174 74.7371 136.693 74.5607C136.579 74.4258 136.371 74.3583 136.07 74.3583C135.936 74.3583 135.837 74.3687 135.775 74.3894C135.38 74.5555 135.09 74.8979 134.903 75.4168C134.28 77.7101 133.969 79.0487 133.969 79.4326C133.969 79.7232 134.052 79.9307 134.218 80.0552C134.384 80.1798 134.566 80.242 134.763 80.242C135.147 80.242 135.526 80.0708 135.899 79.7284C136.273 79.3859 136.527 78.9657 136.662 78.4676C136.693 78.3638 136.724 78.3067 136.755 78.2963C136.787 78.286 136.87 78.2756 137.004 78.2652H137.067C137.222 78.2652 137.3 78.3067 137.3 78.3897C137.3 78.4001 137.29 78.4572 137.269 78.561C137.103 79.1524 136.781 79.6765 136.304 80.1331C135.827 80.5896 135.271 80.8179 134.638 80.8179C133.912 80.8179 133.362 80.4911 132.989 79.8373C132.563 80.4807 132.075 80.8024 131.525 80.8024H131.432C130.924 80.8024 130.56 80.6675 130.342 80.3977C130.125 80.1279 130.01 79.8425 130 79.5416C130 79.2095 130.099 78.9397 130.296 78.7322C130.493 78.5246 130.726 78.4209 130.996 78.4209C131.442 78.4209 131.665 78.6388 131.665 79.0746C131.665 79.2822 131.603 79.4638 131.479 79.6194C131.354 79.7751 131.235 79.8788 131.121 79.9307C131.007 79.9826 130.939 80.0085 130.918 80.0085L130.872 80.0241C130.872 80.0345 130.903 80.0552 130.965 80.0864C131.027 80.1175 131.11 80.1538 131.214 80.1953C131.318 80.2368 131.416 80.2524 131.51 80.242C131.883 80.242 132.205 80.0085 132.475 79.5416C132.568 79.3755 132.688 79.0227 132.833 78.4831C132.978 77.9435 133.123 77.3832 133.269 76.8021C133.414 76.221 133.497 75.8785 133.518 75.7748C133.57 75.4946 133.596 75.2922 133.596 75.1677C133.596 74.8772 133.518 74.6696 133.362 74.5451C133.206 74.4206 133.03 74.3583 132.833 74.3583C132.418 74.3583 132.029 74.5243 131.665 74.8564C131.302 75.1885 131.048 75.6139 130.903 76.1328C130.882 76.2262 130.856 76.278 130.825 76.2884C130.794 76.2988 130.711 76.3092 130.576 76.3195H130.358C130.296 76.2573 130.265 76.2002 130.265 76.1483Z" fill="black"/>
<path d="M139.415 76.5438C139.826 75.9495 140.387 75.6524 141.099 75.6524C141.451 75.6524 141.803 75.7478 142.155 75.9385C142.507 76.1293 142.794 76.4667 143.014 76.9509C143.285 77.5599 143.421 78.3962 143.421 79.46C143.421 80.5972 143.263 81.4665 142.948 82.0681C142.801 82.3763 142.599 82.622 142.342 82.8055C142.086 82.9889 141.862 83.1026 141.671 83.1466C141.48 83.1906 141.293 83.2163 141.11 83.2236C140.919 83.2236 140.728 83.2016 140.538 83.1576C140.347 83.1136 140.123 82.9962 139.866 82.8055C139.609 82.6147 139.408 82.3689 139.261 82.0681C138.946 81.4665 138.788 80.5972 138.788 79.46C138.788 78.1835 138.997 77.2114 139.415 76.5438ZM141.891 76.4117C141.671 76.1769 141.411 76.0596 141.11 76.0596C140.802 76.0596 140.538 76.1769 140.317 76.4117C140.134 76.6025 140.013 76.8666 139.954 77.2041C139.896 77.5415 139.866 78.2458 139.866 79.317C139.866 80.4761 139.896 81.2391 139.954 81.6059C140.013 81.9728 140.145 82.2626 140.35 82.4753C140.556 82.6954 140.809 82.8055 141.11 82.8055C141.403 82.8055 141.653 82.6954 141.858 82.4753C142.071 82.2552 142.203 81.9471 142.254 81.5509C142.306 81.1547 142.335 80.4101 142.342 79.317C142.342 78.2532 142.313 77.5525 142.254 77.2151C142.196 76.8776 142.075 76.6098 141.891 76.4117Z" fill="black"/>
<path d="M149.139 70.8561C149.139 70.7938 148.843 70.7523 148.252 70.7316C148.003 70.7316 147.842 70.7264 147.769 70.716C147.697 70.7056 147.66 70.6538 147.66 70.5604C147.66 70.55 147.671 70.4929 147.692 70.3891C147.702 70.358 147.712 70.3217 147.723 70.2802C147.733 70.2387 147.738 70.2127 147.738 70.2024C147.738 70.192 147.749 70.166 147.769 70.1245C147.79 70.083 147.801 70.0675 147.801 70.0778C147.801 70.0882 147.821 70.0778 147.863 70.0467C147.904 70.0156 147.93 70.0052 147.941 70.0156C147.951 70.0259 147.993 70.0259 148.065 70.0156C148.138 70.0052 148.2 70 148.252 70C148.314 70 148.47 70 148.719 70C148.968 70 149.201 70.0052 149.419 70.0156C150.239 70.0156 150.711 70.0156 150.836 70.0156C150.96 70.0156 151.043 70.0415 151.085 70.0934C151.095 70.1349 151.287 71.5981 151.661 74.4828L152.221 78.8256L152.579 78.2497C152.828 77.8761 153.16 77.3572 153.575 76.6931C153.99 76.029 154.447 75.3026 154.945 74.514C156.761 71.6188 157.679 70.1608 157.7 70.1401C157.711 70.1297 157.726 70.1142 157.747 70.0934C157.768 70.0726 157.788 70.0571 157.809 70.0467L157.902 70.0156H159.397C159.573 70.0156 159.781 70.0156 160.019 70.0156C160.258 70.0156 160.409 70.0104 160.471 70C160.824 70 161 70.0571 161 70.1712C161 70.2231 160.984 70.3113 160.953 70.4358C160.922 70.5604 160.907 70.6278 160.907 70.6382C160.865 70.7004 160.673 70.7316 160.331 70.7316C159.916 70.742 159.651 70.7575 159.537 70.7783C159.423 70.799 159.329 70.8561 159.257 70.9495C159.226 71.0014 158.852 72.4697 158.136 75.3545C157.42 78.2393 157.057 79.6972 157.046 79.7284C157.046 79.7699 157.052 79.7958 157.062 79.8062C157.072 79.8166 157.109 79.8373 157.171 79.8685C157.233 79.8996 157.321 79.91 157.436 79.8996C157.55 79.8892 157.721 79.8996 157.949 79.9307H158.432C158.494 80.0241 158.525 80.0812 158.525 80.1019C158.525 80.268 158.489 80.4236 158.416 80.5689C158.364 80.6208 158.281 80.6467 158.167 80.6467C158.115 80.6467 157.902 80.6415 157.529 80.6312C157.155 80.6208 156.678 80.6156 156.097 80.6156C155.464 80.6156 154.987 80.6156 154.665 80.6156C154.343 80.6156 154.162 80.6208 154.12 80.6312C153.944 80.6312 153.855 80.5793 153.855 80.4755C153.855 80.4547 153.866 80.3821 153.887 80.2576C153.928 80.0916 153.97 79.9982 154.011 79.9774C154.053 79.9567 154.172 79.9411 154.369 79.9307C154.649 79.9307 154.961 79.9151 155.303 79.884C155.448 79.8529 155.547 79.7906 155.599 79.6972C155.62 79.6557 155.817 78.8982 156.19 77.4247C156.564 75.9512 156.932 74.4828 157.295 73.0197C157.659 71.5565 157.84 70.825 157.84 70.825L154.821 75.6347C152.787 78.8723 151.744 80.517 151.692 80.5689C151.671 80.5793 151.65 80.5896 151.63 80.6C151.578 80.6312 151.495 80.6467 151.381 80.6467C151.225 80.6467 151.132 80.6104 151.1 80.5378C151.08 80.4963 150.867 78.8878 150.462 75.7125L149.855 70.9339L148.797 75.1366C148.101 77.8968 147.754 79.3237 147.754 79.4171C147.816 79.7595 148.19 79.9307 148.875 79.9307H149.03C149.092 79.9826 149.129 80.0293 149.139 80.0708C149.15 80.1123 149.134 80.2057 149.092 80.351C149.051 80.517 149.009 80.6104 148.968 80.6312C148.926 80.6415 148.869 80.6467 148.797 80.6467C148.776 80.6467 148.714 80.6467 148.61 80.6467C148.506 80.6467 148.33 80.6415 148.081 80.6312C147.832 80.6208 147.5 80.6156 147.085 80.6156C146.773 80.6156 146.452 80.6208 146.119 80.6312C145.787 80.6415 145.595 80.6467 145.544 80.6467C145.388 80.6467 145.289 80.6363 145.248 80.6156C145.206 80.5948 145.186 80.5481 145.186 80.4755C145.186 80.4547 145.201 80.3821 145.232 80.2576C145.263 80.1331 145.289 80.0552 145.31 80.0241C145.331 79.9618 145.445 79.9307 145.653 79.9307C146.379 79.9307 146.841 79.7232 147.038 79.3081C147.079 79.2458 147.437 77.8553 148.112 75.1366C148.786 72.4178 149.129 70.991 149.139 70.8561Z" fill="black"/>
<path d="M190.258 151.016C190.328 150.592 190.601 150.102 191.076 149.546C191.551 148.99 192.137 148.707 192.834 148.697C193.188 148.697 193.511 148.788 193.804 148.97C194.097 149.152 194.315 149.379 194.456 149.652C194.88 149.015 195.391 148.697 195.987 148.697C196.361 148.697 196.684 148.808 196.957 149.03C197.23 149.253 197.371 149.551 197.381 149.925C197.381 150.218 197.31 150.455 197.169 150.637C197.027 150.819 196.891 150.93 196.76 150.97C196.628 151.011 196.512 151.031 196.411 151.031C196.219 151.031 196.063 150.976 195.941 150.864C195.82 150.753 195.759 150.607 195.759 150.425C195.759 149.96 196.012 149.642 196.517 149.47C196.406 149.339 196.204 149.273 195.911 149.273C195.78 149.273 195.684 149.283 195.623 149.303C195.239 149.465 194.956 149.798 194.774 150.304C194.168 152.537 193.865 153.84 193.865 154.214C193.865 154.497 193.946 154.699 194.107 154.82C194.269 154.941 194.446 155.002 194.638 155.002C195.012 155.002 195.381 154.835 195.744 154.502C196.108 154.168 196.356 153.759 196.487 153.274C196.517 153.173 196.548 153.118 196.578 153.108C196.608 153.097 196.689 153.087 196.82 153.077H196.881C197.033 153.077 197.108 153.118 197.108 153.198C197.108 153.209 197.098 153.264 197.078 153.365C196.916 153.941 196.603 154.451 196.138 154.896C195.674 155.341 195.133 155.563 194.517 155.563C193.809 155.563 193.274 155.245 192.91 154.608C192.496 155.234 192.021 155.548 191.485 155.548H191.394C190.899 155.548 190.546 155.416 190.333 155.154C190.121 154.891 190.01 154.613 190 154.32C190 153.997 190.096 153.734 190.288 153.532C190.48 153.33 190.707 153.229 190.97 153.229C191.404 153.229 191.622 153.441 191.622 153.865C191.622 154.067 191.561 154.244 191.44 154.396C191.319 154.547 191.202 154.648 191.091 154.699C190.98 154.749 190.914 154.775 190.894 154.775L190.849 154.79C190.849 154.8 190.879 154.82 190.94 154.85C191 154.881 191.081 154.916 191.182 154.957C191.283 154.997 191.379 155.012 191.47 155.002C191.834 155.002 192.147 154.775 192.41 154.32C192.501 154.158 192.617 153.815 192.758 153.289C192.9 152.764 193.041 152.218 193.183 151.652C193.324 151.087 193.405 150.753 193.425 150.652C193.476 150.379 193.501 150.182 193.501 150.061C193.501 149.778 193.425 149.576 193.274 149.455C193.122 149.334 192.95 149.273 192.758 149.273C192.354 149.273 191.975 149.435 191.622 149.758C191.268 150.081 191.021 150.496 190.879 151.001C190.859 151.092 190.834 151.142 190.803 151.152C190.773 151.162 190.692 151.173 190.561 151.183H190.349C190.288 151.122 190.258 151.066 190.258 151.016Z" fill="black"/>
<path d="M199.168 151.401C199.568 150.822 200.114 150.533 200.807 150.533C201.15 150.533 201.493 150.626 201.836 150.812C202.179 150.997 202.457 151.326 202.672 151.797C202.936 152.39 203.068 153.205 203.068 154.241C203.068 155.348 202.915 156.194 202.607 156.78C202.464 157.08 202.268 157.32 202.018 157.498C201.768 157.677 201.55 157.787 201.364 157.83C201.179 157.873 200.996 157.898 200.818 157.905C200.632 157.905 200.446 157.884 200.261 157.841C200.075 157.798 199.857 157.684 199.607 157.498C199.357 157.312 199.16 157.073 199.018 156.78C198.71 156.194 198.557 155.348 198.557 154.241C198.557 152.998 198.76 152.051 199.168 151.401ZM201.579 151.272C201.364 151.044 201.111 150.93 200.818 150.93C200.518 150.93 200.261 151.044 200.046 151.272C199.868 151.458 199.75 151.715 199.693 152.044C199.636 152.373 199.607 153.058 199.607 154.101C199.607 155.23 199.636 155.973 199.693 156.33C199.75 156.687 199.878 156.969 200.078 157.177C200.278 157.391 200.525 157.498 200.818 157.498C201.104 157.498 201.346 157.391 201.546 157.177C201.754 156.962 201.882 156.662 201.932 156.277C201.982 155.891 202.011 155.166 202.018 154.101C202.018 153.065 201.989 152.383 201.932 152.055C201.875 151.726 201.757 151.465 201.579 151.272Z" fill="black"/>
<path d="M208.636 145.863C208.636 145.802 208.348 145.762 207.772 145.742C207.53 145.742 207.373 145.736 207.302 145.726C207.232 145.716 207.196 145.666 207.196 145.575C207.196 145.565 207.206 145.509 207.227 145.408C207.237 145.378 207.247 145.342 207.257 145.302C207.267 145.262 207.272 145.236 207.272 145.226C207.272 145.216 207.282 145.191 207.302 145.15C207.323 145.11 207.333 145.095 207.333 145.105C207.333 145.115 207.353 145.105 207.393 145.075C207.434 145.044 207.459 145.034 207.469 145.044C207.479 145.054 207.52 145.054 207.59 145.044C207.661 145.034 207.722 145.029 207.772 145.029C207.833 145.029 207.985 145.029 208.227 145.029C208.47 145.029 208.697 145.034 208.909 145.044C209.707 145.044 210.167 145.044 210.288 145.044C210.41 145.044 210.49 145.07 210.531 145.12C210.541 145.161 210.728 146.585 211.092 149.394L211.637 153.623L211.986 153.062C212.228 152.698 212.552 152.193 212.956 151.546C213.36 150.9 213.805 150.192 214.29 149.425C216.058 146.605 216.952 145.186 216.972 145.166C216.982 145.155 216.997 145.14 217.018 145.12C217.038 145.1 217.058 145.085 217.078 145.075L217.169 145.044H218.624C218.796 145.044 218.998 145.044 219.231 145.044C219.463 145.044 219.609 145.039 219.67 145.029C220.014 145.029 220.185 145.085 220.185 145.196C220.185 145.246 220.17 145.332 220.14 145.454C220.11 145.575 220.094 145.64 220.094 145.651C220.054 145.711 219.867 145.742 219.534 145.742C219.129 145.752 218.872 145.767 218.761 145.787C218.65 145.807 218.559 145.863 218.488 145.954C218.458 146.004 218.094 147.434 217.397 150.243C216.699 153.052 216.346 154.472 216.336 154.502C216.336 154.542 216.341 154.568 216.351 154.578C216.361 154.588 216.396 154.608 216.457 154.638C216.518 154.669 216.603 154.679 216.715 154.669C216.826 154.659 216.992 154.669 217.215 154.699H217.685C217.745 154.79 217.776 154.845 217.776 154.866C217.776 155.027 217.74 155.179 217.669 155.32C217.619 155.371 217.538 155.396 217.427 155.396C217.376 155.396 217.169 155.391 216.806 155.381C216.442 155.371 215.977 155.366 215.411 155.366C214.795 155.366 214.33 155.366 214.017 155.366C213.704 155.366 213.527 155.371 213.486 155.381C213.314 155.381 213.229 155.33 213.229 155.229C213.229 155.209 213.239 155.138 213.259 155.017C213.299 154.856 213.34 154.765 213.38 154.744C213.421 154.724 213.537 154.709 213.729 154.699C214.002 154.699 214.305 154.684 214.638 154.653C214.78 154.623 214.876 154.563 214.926 154.472C214.946 154.431 215.138 153.694 215.502 152.259C215.866 150.824 216.225 149.394 216.578 147.97C216.932 146.545 217.109 145.832 217.109 145.832L214.168 150.516C212.188 153.668 211.172 155.27 211.122 155.32C211.102 155.33 211.081 155.341 211.061 155.351C211.011 155.381 210.93 155.396 210.819 155.396C210.667 155.396 210.576 155.361 210.546 155.29C210.526 155.25 210.319 153.683 209.925 150.592L209.333 145.939L208.303 150.031C207.626 152.719 207.287 154.108 207.287 154.199C207.348 154.532 207.712 154.699 208.379 154.699H208.53C208.591 154.749 208.626 154.795 208.636 154.835C208.646 154.876 208.631 154.967 208.591 155.108C208.55 155.27 208.51 155.361 208.47 155.381C208.429 155.391 208.374 155.396 208.303 155.396C208.283 155.396 208.222 155.396 208.121 155.396C208.02 155.396 207.848 155.391 207.606 155.381C207.363 155.371 207.04 155.366 206.636 155.366C206.332 155.366 206.019 155.371 205.696 155.381C205.373 155.391 205.186 155.396 205.135 155.396C204.984 155.396 204.888 155.386 204.847 155.366C204.807 155.346 204.787 155.3 204.787 155.229C204.787 155.209 204.802 155.138 204.832 155.017C204.862 154.896 204.888 154.82 204.908 154.79C204.928 154.729 205.039 154.699 205.241 154.699C205.949 154.699 206.398 154.497 206.59 154.093C206.631 154.032 206.979 152.678 207.636 150.031C208.293 147.383 208.626 145.994 208.636 145.863Z" fill="black"/>
<path d="M222.357 144.54C222.164 144.54 222.01 144.475 221.896 144.347C221.782 144.218 221.725 144.061 221.725 143.875C221.725 143.368 221.914 142.929 222.292 142.557C222.671 142.186 223.143 142 223.707 142C224.357 142 224.9 142.2 225.336 142.6C225.771 143 225.993 143.518 226 144.154C226 144.461 225.929 144.754 225.786 145.033C225.643 145.311 225.471 145.554 225.271 145.761C225.071 145.968 224.786 146.233 224.414 146.554C224.157 146.776 223.8 147.104 223.343 147.54L222.71 148.14L223.525 148.151C224.646 148.151 225.243 148.133 225.314 148.097C225.364 148.083 225.45 147.765 225.571 147.143V147.111H226V147.143C225.993 147.165 225.946 147.49 225.861 148.119C225.775 148.747 225.721 149.076 225.7 149.104V149.137H221.725V148.933V148.804C221.725 148.754 221.746 148.701 221.789 148.644C221.832 148.586 221.939 148.461 222.11 148.269C222.317 148.04 222.496 147.84 222.646 147.669C222.71 147.597 222.832 147.465 223.01 147.272C223.189 147.079 223.31 146.947 223.375 146.876C223.439 146.804 223.543 146.686 223.685 146.522C223.828 146.358 223.928 146.236 223.985 146.158C224.043 146.079 224.125 145.972 224.232 145.836C224.339 145.7 224.414 145.586 224.457 145.493C224.5 145.4 224.553 145.297 224.618 145.183C224.682 145.068 224.728 144.954 224.757 144.84C224.786 144.725 224.811 144.618 224.832 144.518C224.853 144.418 224.864 144.3 224.864 144.165C224.864 143.714 224.743 143.325 224.5 142.997C224.257 142.668 223.91 142.504 223.46 142.504C223.225 142.504 223.018 142.564 222.839 142.686C222.66 142.807 222.535 142.925 222.464 143.039C222.392 143.154 222.357 143.222 222.357 143.243C222.357 143.25 222.375 143.254 222.41 143.254C222.539 143.254 222.671 143.304 222.807 143.404C222.943 143.504 223.01 143.668 223.01 143.897C223.01 144.075 222.953 144.225 222.839 144.347C222.725 144.468 222.564 144.532 222.357 144.54Z" fill="black"/>
<path d="M246.283 266.878C246.36 266.413 246.659 265.875 247.18 265.266C247.701 264.656 248.344 264.346 249.109 264.335C249.497 264.335 249.852 264.434 250.173 264.634C250.495 264.833 250.733 265.083 250.888 265.382C251.354 264.684 251.913 264.335 252.567 264.335C252.977 264.335 253.332 264.456 253.631 264.7C253.93 264.944 254.086 265.271 254.097 265.681C254.097 266.003 254.019 266.263 253.864 266.463C253.709 266.662 253.559 266.784 253.415 266.828C253.271 266.873 253.144 266.895 253.033 266.895C252.822 266.895 252.65 266.834 252.517 266.712C252.384 266.59 252.318 266.429 252.318 266.23C252.318 265.72 252.595 265.371 253.149 265.182C253.027 265.038 252.805 264.966 252.484 264.966C252.34 264.966 252.235 264.977 252.168 265C251.747 265.177 251.437 265.543 251.237 266.097C250.572 268.546 250.24 269.976 250.24 270.386C250.24 270.697 250.328 270.918 250.506 271.051C250.683 271.184 250.877 271.251 251.087 271.251C251.498 271.251 251.902 271.068 252.301 270.702C252.7 270.336 252.972 269.888 253.116 269.356C253.149 269.245 253.182 269.184 253.216 269.173C253.249 269.162 253.338 269.15 253.482 269.139H253.548C253.714 269.139 253.797 269.184 253.797 269.272C253.797 269.283 253.786 269.344 253.764 269.455C253.587 270.087 253.243 270.647 252.733 271.134C252.224 271.622 251.631 271.866 250.954 271.866C250.179 271.866 249.591 271.517 249.192 270.819C248.738 271.506 248.217 271.849 247.629 271.849H247.53C246.986 271.849 246.599 271.705 246.366 271.417C246.133 271.129 246.011 270.824 246 270.503C246 270.148 246.105 269.86 246.316 269.638C246.526 269.416 246.776 269.306 247.064 269.306C247.541 269.306 247.779 269.538 247.779 270.004C247.779 270.226 247.712 270.42 247.579 270.586C247.446 270.752 247.319 270.863 247.197 270.918C247.075 270.974 247.003 271.001 246.981 271.001L246.931 271.018C246.931 271.029 246.964 271.051 247.031 271.085C247.097 271.118 247.186 271.157 247.297 271.201C247.408 271.245 247.513 271.262 247.613 271.251C248.012 271.251 248.355 271.001 248.643 270.503C248.743 270.325 248.871 269.949 249.026 269.372C249.181 268.796 249.336 268.197 249.491 267.577C249.647 266.956 249.735 266.59 249.757 266.479C249.813 266.18 249.841 265.964 249.841 265.831C249.841 265.521 249.757 265.299 249.591 265.166C249.425 265.033 249.236 264.966 249.026 264.966C248.583 264.966 248.167 265.144 247.779 265.498C247.391 265.853 247.119 266.307 246.964 266.862C246.942 266.961 246.914 267.017 246.881 267.028C246.848 267.039 246.759 267.05 246.615 267.061H246.382C246.316 266.995 246.283 266.934 246.283 266.878Z" fill="black"/>
<path d="M256.056 267.301C256.495 266.666 257.095 266.349 257.855 266.349C258.231 266.349 258.607 266.45 258.983 266.654C259.359 266.858 259.665 267.218 259.9 267.736C260.19 268.386 260.335 269.279 260.335 270.416C260.335 271.63 260.167 272.559 259.83 273.201C259.673 273.531 259.457 273.793 259.183 273.989C258.909 274.185 258.67 274.306 258.466 274.353C258.262 274.4 258.063 274.428 257.867 274.436C257.663 274.436 257.459 274.412 257.255 274.365C257.052 274.318 256.813 274.193 256.538 273.989C256.264 273.785 256.049 273.523 255.892 273.201C255.555 272.559 255.386 271.63 255.386 270.416C255.386 269.052 255.61 268.014 256.056 267.301ZM258.701 267.16C258.466 266.909 258.188 266.783 257.867 266.783C257.538 266.783 257.255 266.909 257.02 267.16C256.824 267.363 256.695 267.645 256.632 268.006C256.57 268.366 256.538 269.119 256.538 270.263C256.538 271.501 256.57 272.316 256.632 272.708C256.695 273.1 256.836 273.409 257.056 273.636C257.275 273.871 257.545 273.989 257.867 273.989C258.18 273.989 258.447 273.871 258.666 273.636C258.893 273.401 259.034 273.072 259.089 272.649C259.144 272.226 259.175 271.43 259.183 270.263C259.183 269.127 259.152 268.378 259.089 268.018C259.026 267.657 258.897 267.371 258.701 267.16Z" fill="black"/>
<path d="M266.443 261.226C266.443 261.159 266.127 261.115 265.495 261.093C265.229 261.093 265.058 261.087 264.98 261.076C264.902 261.065 264.864 261.009 264.864 260.91C264.864 260.899 264.875 260.838 264.897 260.727C264.908 260.693 264.919 260.655 264.93 260.61C264.941 260.566 264.947 260.538 264.947 260.527C264.947 260.516 264.958 260.488 264.98 260.444C265.002 260.4 265.013 260.383 265.013 260.394C265.013 260.405 265.035 260.394 265.08 260.361C265.124 260.328 265.152 260.317 265.163 260.328C265.174 260.339 265.218 260.339 265.296 260.328C265.373 260.317 265.44 260.311 265.495 260.311C265.562 260.311 265.728 260.311 265.994 260.311C266.26 260.311 266.51 260.317 266.742 260.328C267.618 260.328 268.122 260.328 268.255 260.328C268.388 260.328 268.477 260.355 268.521 260.411C268.532 260.455 268.737 262.018 269.136 265.099L269.735 269.738L270.117 269.123C270.383 268.724 270.738 268.17 271.181 267.46C271.625 266.751 272.112 265.975 272.644 265.133C274.584 262.04 275.565 260.483 275.587 260.461C275.598 260.45 275.615 260.433 275.637 260.411C275.659 260.389 275.681 260.372 275.704 260.361L275.803 260.328H277.399C277.588 260.328 277.81 260.328 278.064 260.328C278.319 260.328 278.48 260.322 278.547 260.311C278.923 260.311 279.112 260.372 279.112 260.494C279.112 260.549 279.095 260.644 279.062 260.777C279.029 260.91 279.012 260.982 279.012 260.993C278.968 261.059 278.763 261.093 278.397 261.093C277.954 261.104 277.671 261.12 277.549 261.142C277.427 261.165 277.327 261.226 277.25 261.325C277.217 261.381 276.818 262.949 276.053 266.03C275.288 269.112 274.9 270.669 274.889 270.702C274.889 270.747 274.895 270.774 274.906 270.785C274.917 270.796 274.955 270.819 275.022 270.852C275.088 270.885 275.183 270.896 275.305 270.885C275.427 270.874 275.609 270.885 275.853 270.918H276.369C276.435 271.018 276.468 271.079 276.468 271.101C276.468 271.279 276.43 271.445 276.352 271.6C276.297 271.655 276.208 271.683 276.086 271.683C276.031 271.683 275.803 271.678 275.404 271.667C275.005 271.655 274.495 271.65 273.875 271.65C273.199 271.65 272.689 271.65 272.345 271.65C272.002 271.65 271.808 271.655 271.763 271.667C271.575 271.667 271.481 271.611 271.481 271.5C271.481 271.478 271.492 271.4 271.514 271.267C271.558 271.09 271.603 270.99 271.647 270.968C271.691 270.946 271.819 270.929 272.029 270.918C272.329 270.918 272.661 270.902 273.027 270.868C273.182 270.835 273.287 270.769 273.343 270.669C273.365 270.625 273.576 269.816 273.975 268.242C274.374 266.668 274.767 265.099 275.155 263.537C275.543 261.974 275.737 261.192 275.737 261.192L272.511 266.33C270.339 269.788 269.225 271.545 269.17 271.6C269.148 271.611 269.125 271.622 269.103 271.633C269.048 271.667 268.959 271.683 268.837 271.683C268.671 271.683 268.571 271.644 268.538 271.567C268.516 271.522 268.289 269.804 267.856 266.413L267.208 261.309L266.077 265.798C265.335 268.746 264.963 270.27 264.963 270.37C265.03 270.735 265.429 270.918 266.16 270.918H266.327C266.393 270.974 266.432 271.024 266.443 271.068C266.454 271.112 266.438 271.212 266.393 271.367C266.349 271.545 266.305 271.644 266.26 271.667C266.216 271.678 266.155 271.683 266.077 271.683C266.055 271.683 265.989 271.683 265.878 271.683C265.767 271.683 265.579 271.678 265.313 271.667C265.047 271.655 264.692 271.65 264.248 271.65C263.916 271.65 263.572 271.655 263.218 271.667C262.863 271.678 262.658 271.683 262.603 271.683C262.436 271.683 262.331 271.672 262.287 271.65C262.242 271.628 262.22 271.578 262.22 271.5C262.22 271.478 262.237 271.4 262.27 271.267C262.303 271.134 262.331 271.051 262.353 271.018C262.375 270.952 262.497 270.918 262.719 270.918C263.495 270.918 263.988 270.697 264.199 270.253C264.243 270.187 264.625 268.702 265.346 265.798C266.066 262.894 266.432 261.37 266.443 261.226Z" fill="black"/>
<path d="M281.705 259.374C281.494 259.374 281.329 259.308 281.212 259.175C281.094 259.041 281.031 258.869 281.024 258.657C281.024 258.226 281.212 257.842 281.588 257.505C281.964 257.168 282.418 257 282.951 257C283.226 257 283.398 257.004 283.468 257.012C284.048 257.106 284.491 257.313 284.797 257.635C285.102 257.956 285.259 258.305 285.267 258.681C285.267 259.088 285.134 259.484 284.867 259.868C284.601 260.252 284.233 260.53 283.762 260.703L283.727 260.726C283.727 260.734 283.762 260.746 283.833 260.761C283.903 260.777 284.017 260.812 284.174 260.867C284.33 260.922 284.479 261.004 284.62 261.114C285.263 261.529 285.584 262.078 285.584 262.76C285.584 263.379 285.341 263.919 284.856 264.382C284.37 264.844 283.755 265.075 283.01 265.075C282.383 265.075 281.842 264.907 281.388 264.57C280.933 264.233 280.706 263.806 280.706 263.289C280.706 263.069 280.777 262.893 280.918 262.76C281.059 262.626 281.235 262.556 281.447 262.548C281.666 262.548 281.846 262.619 281.987 262.76C282.128 262.901 282.199 263.077 282.199 263.289C282.199 263.375 282.187 263.453 282.164 263.524C282.14 263.594 282.113 263.657 282.081 263.712C282.05 263.767 282.007 263.814 281.952 263.853C281.897 263.892 281.85 263.923 281.811 263.947C281.772 263.97 281.733 263.986 281.694 263.994C281.654 264.002 281.623 264.013 281.6 264.029L281.553 264.041C281.952 264.394 282.438 264.57 283.01 264.57C283.441 264.57 283.766 264.362 283.986 263.947C284.119 263.688 284.186 263.293 284.186 262.76V262.525C284.186 261.78 283.935 261.283 283.433 261.032C283.316 260.985 283.077 260.957 282.716 260.949L282.223 260.938L282.187 260.914C282.172 260.891 282.164 260.828 282.164 260.726C282.164 260.585 282.195 260.515 282.258 260.515C282.477 260.515 282.704 260.495 282.94 260.456C283.206 260.417 283.449 260.252 283.668 259.962C283.888 259.672 283.997 259.233 283.997 258.646V258.552C283.997 258.105 283.86 257.795 283.586 257.623C283.414 257.513 283.229 257.458 283.034 257.458C282.783 257.458 282.552 257.502 282.34 257.588C282.128 257.674 281.98 257.764 281.893 257.858C281.807 257.952 281.764 257.999 281.764 257.999H281.799C281.823 258.007 281.854 258.015 281.893 258.023C281.933 258.03 281.972 258.05 282.011 258.081C282.05 258.113 282.097 258.14 282.152 258.164C282.207 258.187 282.246 258.23 282.27 258.293C282.293 258.356 282.324 258.414 282.364 258.469C282.403 258.524 282.415 258.603 282.399 258.704C282.399 258.877 282.344 259.03 282.234 259.163C282.125 259.296 281.948 259.367 281.705 259.374Z" fill="black"/>
<path d="M261 312.858C261 313.354 261.176 313.788 261.527 314.159C261.878 314.531 262.322 314.717 262.858 314.717C263.354 314.717 263.788 314.552 264.159 314.221C264.531 313.891 264.727 313.447 264.748 312.889C264.748 312.373 264.572 311.929 264.221 311.558C263.87 311.186 263.426 311 262.889 311C262.353 311 261.909 311.176 261.558 311.527C261.206 311.878 261.021 312.322 261 312.858ZM274.845 312.858C274.845 313.354 275.021 313.788 275.372 314.159C275.723 314.531 276.167 314.717 276.704 314.717C277.199 314.717 277.633 314.552 278.005 314.221C278.376 313.891 278.573 313.447 278.593 312.889C278.593 312.373 278.418 311.929 278.067 311.558C277.716 311.186 277.272 311 276.735 311C276.198 311 275.754 311.176 275.403 311.527C275.052 311.878 274.866 312.322 274.845 312.858ZM288.691 312.858C288.691 313.354 288.866 313.788 289.217 314.159C289.568 314.531 290.012 314.717 290.549 314.717C291.045 314.717 291.478 314.552 291.85 314.221C292.222 313.891 292.418 313.447 292.439 312.889C292.439 312.373 292.263 311.929 291.912 311.558C291.561 311.186 291.117 311 290.58 311C290.043 311 289.599 311.176 289.248 311.527C288.897 311.878 288.711 312.322 288.691 312.858Z" fill="black"/>
</svg>
