<svg width="285" height="110" viewBox="0 0 285 110" fill="none" xmlns="http://www.w3.org/2000/svg">
<path d="M18 90.5L225.5 18.5" stroke="#EB5757" stroke-linecap="round" stroke-dasharray="3 3"/>
<path d="M267.5 91.5L86 19" stroke="#2F80ED" stroke-linecap="round"/>
<path d="M131 92L185.5 18" stroke="#2F80ED" stroke-linecap="round"/>
<g filter="url(#filter0_d_6_126)">
<path d="M17 92H269" stroke="black"/>
</g>
<g filter="url(#filter1_d_6_126)">
<path d="M17 18H269" stroke="black"/>
</g>
<path d="M129.5 91.5L248.5 19.5" stroke="#EB5757" stroke-linecap="round" stroke-linejoin="round" stroke-dasharray="3 3"/>
<path d="M17 88V97" stroke="black" stroke-linecap="round"/>
<path d="M130 88V97" stroke="black" stroke-linecap="round"/>
<path d="M130 14V23" stroke="black" stroke-linecap="round"/>
<path d="M224 88V97" stroke="black" stroke-linecap="round"/>
<path d="M269 88V97" stroke="black" stroke-linecap="round"/>
<path d="M269 14V23" stroke="black" stroke-linecap="round"/>
<path d="M17 14V23" stroke="black" stroke-linecap="round"/>
<path d="M14.677 2.96199C15.1203 2.32066 15.726 2 16.4941 2C16.8741 2 17.2542 2.10293 17.6342 2.30879C18.0143 2.51465 18.323 2.87886 18.5606 3.40142C18.8535 4.05859 19 4.9612 19 6.10926C19 7.3365 18.8298 8.27474 18.4893 8.92399C18.331 9.25653 18.1132 9.52177 17.8361 9.71971C17.559 9.91766 17.3175 10.0404 17.1116 10.0879C16.9058 10.1354 16.7039 10.1631 16.5059 10.171C16.3001 10.171 16.0942 10.1473 15.8884 10.0998C15.6825 10.0523 15.441 9.92557 15.1639 9.71971C14.8868 9.51386 14.669 9.24861 14.5107 8.92399C14.1702 8.27474 14 7.3365 14 6.10926C14 4.73159 14.2257 3.6825 14.677 2.96199ZM17.3492 2.81948C17.1116 2.56611 16.8306 2.43943 16.5059 2.43943C16.1734 2.43943 15.8884 2.56611 15.6508 2.81948C15.4529 3.02534 15.3222 3.31037 15.2589 3.67458C15.1956 4.0388 15.1639 4.79889 15.1639 5.95487C15.1639 7.20586 15.1956 8.02929 15.2589 8.42518C15.3222 8.82106 15.4648 9.13381 15.6865 9.36342C15.9082 9.60095 16.1813 9.71971 16.5059 9.71971C16.8226 9.71971 17.0918 9.60095 17.3135 9.36342C17.5432 9.12589 17.6857 8.79335 17.7411 8.36579C17.7965 7.93824 17.8282 7.1346 17.8361 5.95487C17.8361 4.80681 17.8044 4.05067 17.7411 3.68646C17.6778 3.32225 17.5471 3.03325 17.3492 2.81948Z" fill="black"/>
<path d="M267.512 3.02326L267.36 3.0814C267.252 3.12015 267.097 3.15891 266.895 3.19767C266.694 3.23643 266.469 3.26357 266.221 3.27907H266V2.74419H266.221C266.585 2.72868 266.922 2.67054 267.233 2.56977C267.543 2.46899 267.76 2.37597 267.884 2.2907C268.008 2.20543 268.116 2.12015 268.209 2.03488C268.225 2.01163 268.271 2 268.349 2C268.419 2 268.484 2.02326 268.547 2.06977V5.54651L268.558 9.03488C268.612 9.08915 268.659 9.12403 268.698 9.13954C268.736 9.15504 268.829 9.17054 268.977 9.18605C269.124 9.20155 269.364 9.2093 269.698 9.2093H270V9.74419H269.872C269.709 9.72093 269.093 9.7093 268.023 9.7093C266.969 9.7093 266.36 9.72093 266.198 9.74419H266.058V9.2093H266.36C266.531 9.2093 266.678 9.2093 266.802 9.2093C266.926 9.2093 267.023 9.20543 267.093 9.19767C267.163 9.18992 267.225 9.17829 267.279 9.16279C267.333 9.14729 267.364 9.13954 267.372 9.13954C267.38 9.13954 267.403 9.12016 267.442 9.0814C267.481 9.04264 267.504 9.02713 267.512 9.03488V3.02326Z" fill="black"/>
<path d="M14.677 100.962C15.1203 100.321 15.726 100 16.4941 100C16.8741 100 17.2542 100.103 17.6342 100.309C18.0143 100.515 18.323 100.879 18.5606 101.401C18.8535 102.059 19 102.961 19 104.109C19 105.336 18.8298 106.275 18.4893 106.924C18.331 107.257 18.1132 107.522 17.8361 107.72C17.559 107.918 17.3175 108.04 17.1116 108.088C16.9058 108.135 16.7039 108.163 16.5059 108.171C16.3001 108.171 16.0942 108.147 15.8884 108.1C15.6825 108.052 15.441 107.926 15.1639 107.72C14.8868 107.514 14.669 107.249 14.5107 106.924C14.1702 106.275 14 105.336 14 104.109C14 102.732 14.2257 101.683 14.677 100.962ZM17.3492 100.819C17.1116 100.566 16.8306 100.439 16.5059 100.439C16.1734 100.439 15.8884 100.566 15.6508 100.819C15.4529 101.025 15.3222 101.31 15.2589 101.675C15.1956 102.039 15.1639 102.799 15.1639 103.955C15.1639 105.206 15.1956 106.029 15.2589 106.425C15.3222 106.821 15.4648 107.134 15.6865 107.363C15.9082 107.601 16.1813 107.72 16.5059 107.72C16.8226 107.72 17.0918 107.601 17.3135 107.363C17.5432 107.126 17.6857 106.793 17.7411 106.366C17.7965 105.938 17.8282 105.135 17.8361 103.955C17.8361 102.807 17.8044 102.051 17.7411 101.686C17.6778 101.322 17.5471 101.033 17.3492 100.819Z" fill="black"/>
<path d="M267.512 101.023L267.36 101.081C267.252 101.12 267.097 101.159 266.895 101.198C266.694 101.236 266.469 101.264 266.221 101.279H266V100.744H266.221C266.585 100.729 266.922 100.671 267.233 100.57C267.543 100.469 267.76 100.376 267.884 100.291C268.008 100.205 268.116 100.12 268.209 100.035C268.225 100.012 268.271 100 268.349 100C268.419 100 268.484 100.023 268.547 100.07V103.547L268.558 107.035C268.612 107.089 268.659 107.124 268.698 107.14C268.736 107.155 268.829 107.171 268.977 107.186C269.124 107.202 269.364 107.209 269.698 107.209H270V107.744H269.872C269.709 107.721 269.093 107.709 268.023 107.709C266.969 107.709 266.36 107.721 266.198 107.744H266.058V107.209H266.36C266.531 107.209 266.678 107.209 266.802 107.209C266.926 107.209 267.023 107.205 267.093 107.198C267.163 107.19 267.225 107.178 267.279 107.163C267.333 107.147 267.364 107.14 267.372 107.14C267.38 107.14 267.403 107.12 267.442 107.081C267.481 107.043 267.504 107.027 267.512 107.035V101.023Z" fill="black"/>
<path d="M126 104.424C126 103.288 126.448 102.267 127.344 101.36C128.241 100.453 129.21 100 130.252 100C130.836 100 131.294 100.125 131.628 100.375C131.961 100.625 132.133 100.954 132.144 101.36C132.144 101.662 132.045 101.918 131.847 102.126C131.649 102.335 131.399 102.444 131.096 102.454C130.898 102.454 130.742 102.402 130.627 102.298C130.513 102.194 130.455 102.038 130.455 101.829C130.455 101.621 130.513 101.443 130.627 101.298C130.742 101.152 130.857 101.042 130.971 100.969C131.086 100.896 131.159 100.865 131.19 100.875H131.206C131.206 100.855 131.175 100.823 131.112 100.782C131.05 100.74 130.94 100.698 130.784 100.657C130.627 100.615 130.45 100.594 130.252 100.594C129.94 100.594 129.643 100.667 129.361 100.813C129.142 100.907 128.918 101.068 128.689 101.298C128.23 101.756 127.897 102.402 127.688 103.236C127.48 104.07 127.371 104.674 127.36 105.05C127.36 105.529 127.496 105.889 127.767 106.128C127.996 106.378 128.298 106.503 128.673 106.503H128.736C129.903 106.503 130.867 106.061 131.628 105.175C131.722 105.07 131.784 105.018 131.816 105.018C131.857 105.018 131.925 105.065 132.019 105.159C132.113 105.253 132.165 105.326 132.175 105.378C132.186 105.43 132.139 105.508 132.034 105.612C131.93 105.717 131.779 105.862 131.581 106.05C131.383 106.238 131.149 106.394 130.878 106.519C130.607 106.644 130.273 106.774 129.877 106.91C129.481 107.045 129.064 107.103 128.626 107.082C127.845 107.082 127.214 106.832 126.735 106.331C126.255 105.831 126.01 105.195 126 104.424Z" fill="black"/>
<path d="M126 9.42423C126 8.28821 126.448 7.26683 127.344 6.3601C128.241 5.45337 129.21 5.00001 130.252 5.00001C130.836 5.00001 131.294 5.12507 131.628 5.37521C131.961 5.62534 132.133 5.95364 132.144 6.3601C132.144 6.66235 132.045 6.91769 131.847 7.12613C131.649 7.33458 131.399 7.44401 131.096 7.45443C130.898 7.45443 130.742 7.40232 130.627 7.2981C130.513 7.19388 130.455 7.03755 130.455 6.8291C130.455 6.62066 130.513 6.44348 130.627 6.29757C130.742 6.15166 130.857 6.04223 130.971 5.96927C131.086 5.89632 131.159 5.86505 131.19 5.87547H131.206C131.206 5.85463 131.175 5.82336 131.112 5.78167C131.05 5.73998 130.94 5.69829 130.784 5.6566C130.627 5.61492 130.45 5.59407 130.252 5.59407C129.94 5.59407 129.643 5.66703 129.361 5.81294C129.142 5.90674 128.918 6.06828 128.689 6.29757C128.23 6.75615 127.897 7.40232 127.688 8.2361C127.48 9.06987 127.371 9.67436 127.36 10.0496C127.36 10.529 127.496 10.8885 127.767 11.1283C127.996 11.3784 128.298 11.5035 128.673 11.5035H128.736C129.903 11.5035 130.867 11.0605 131.628 10.1746C131.722 10.0704 131.784 10.0183 131.816 10.0183C131.857 10.0183 131.925 10.0652 132.019 10.159C132.113 10.2528 132.165 10.3257 132.175 10.3779C132.186 10.43 132.139 10.5081 132.034 10.6124C131.93 10.7166 131.779 10.8625 131.581 11.0501C131.383 11.2377 131.149 11.394 130.878 11.5191C130.607 11.6442 130.273 11.7744 129.877 11.9099C129.481 12.0454 129.064 12.1027 128.626 12.0819C127.845 12.0819 127.214 11.8318 126.735 11.3315C126.255 10.8312 126.01 10.1955 126 9.42423Z" fill="black"/>
<path d="M221 104.072C221 102.945 221.444 101.933 222.333 101.034C223.221 100.135 224.182 99.686 225.215 99.686C225.794 99.686 226.248 99.81 226.579 100.058C226.909 100.306 227.08 100.631 227.09 101.034C227.09 101.334 226.992 101.587 226.796 101.794C226.599 102 226.351 102.109 226.052 102.119C225.856 102.119 225.701 102.067 225.587 101.964C225.473 101.861 225.417 101.706 225.417 101.499C225.417 101.292 225.473 101.117 225.587 100.972C225.701 100.828 225.814 100.719 225.928 100.647C226.042 100.574 226.114 100.543 226.145 100.554H226.16C226.16 100.533 226.129 100.502 226.067 100.461C226.005 100.42 225.897 100.378 225.742 100.337C225.587 100.296 225.411 100.275 225.215 100.275C224.905 100.275 224.611 100.347 224.332 100.492C224.115 100.585 223.893 100.745 223.665 100.972C223.211 101.427 222.88 102.067 222.674 102.894C222.467 103.72 222.359 104.32 222.348 104.691C222.348 105.167 222.483 105.523 222.751 105.761C222.978 106.009 223.278 106.133 223.65 106.133H223.712C224.869 106.133 225.825 105.694 226.579 104.815C226.672 104.712 226.734 104.66 226.765 104.66C226.806 104.66 226.873 104.707 226.966 104.8C227.059 104.893 227.111 104.965 227.121 105.017C227.131 105.069 227.085 105.146 226.982 105.249C226.878 105.353 226.729 105.497 226.532 105.683C226.336 105.869 226.104 106.024 225.835 106.148C225.566 106.272 225.236 106.401 224.843 106.536C224.451 106.67 224.037 106.727 223.603 106.706C222.829 106.706 222.204 106.458 221.728 105.962C221.253 105.466 221.01 104.836 221 104.072Z" fill="black"/>
<path d="M228.049 99.6643C228.005 99.6643 227.906 99.6424 227.753 99.5986C227.599 99.5547 227.519 99.5109 227.512 99.4671C227.512 99.416 227.713 98.5687 228.114 96.9253C228.516 95.2819 228.739 94.4236 228.783 94.3506C228.892 94.1169 229.082 94 229.352 94C229.499 94 229.652 94.0548 229.813 94.1643C229.973 94.2739 230.054 94.4346 230.054 94.6464C230.054 94.6829 230.046 94.7377 230.032 94.8108C230.024 94.8619 229.707 95.6763 229.079 97.254C228.45 98.8316 228.125 99.6278 228.103 99.6424C228.082 99.657 228.063 99.6643 228.049 99.6643Z" fill="black"/>
<path d="M119.5 35L116 31L122 30" stroke="#2F80ED" stroke-linecap="round"/>
<path d="M211.5 72L208 68L214 67" stroke="#2F80ED" stroke-linecap="round"/>
<path d="M175.5 26.5L180.5 25V30" stroke="#2F80ED" stroke-linecap="round"/>
<path d="M144 69.5L149 68V73" stroke="#2F80ED" stroke-linecap="round"/>
<path d="M203 24L207 25L205.5 28.5" stroke="#EB5757" stroke-linecap="round"/>
<path d="M97 61L101 62L99.5 65.5" stroke="#EB5757" stroke-linecap="round"/>
<path d="M220 33L224 34V37.5" stroke="#EB5757" stroke-linecap="round"/>
<path d="M169 65H173L172 69" stroke="#EB5757" stroke-linecap="round"/>
<path d="M224 92.5L130.5 18" stroke="#219653"/>
<path d="M142.5 32V27.5H147" stroke="#219653"/>
<path d="M206 82.5V78H210.5" stroke="#219653"/>
<defs>
<filter id="filter0_d_6_126" x="13" y="89.5" width="260" height="9" filterUnits="userSpaceOnUse" color-interpolation-filters="sRGB">
<feFlood flood-opacity="0" result="BackgroundImageFix"/>
<feColorMatrix in="SourceAlpha" type="matrix" values="0 0 0 0 0 0 0 0 0 0 0 0 0 0 0 0 0 0 127 0" result="hardAlpha"/>
<feOffset dy="2"/>
<feGaussianBlur stdDeviation="2"/>
<feComposite in2="hardAlpha" operator="out"/>
<feColorMatrix type="matrix" values="0 0 0 0 0 0 0 0 0 0 0 0 0 0 0 0 0 0 0.25 0"/>
<feBlend mode="normal" in2="BackgroundImageFix" result="effect1_dropShadow_6_126"/>
<feBlend mode="normal" in="SourceGraphic" in2="effect1_dropShadow_6_126" result="shape"/>
</filter>
<filter id="filter1_d_6_126" x="13" y="11.5" width="260" height="9" filterUnits="userSpaceOnUse" color-interpolation-filters="sRGB">
<feFlood flood-opacity="0" result="BackgroundImageFix"/>
<feColorMatrix in="SourceAlpha" type="matrix" values="0 0 0 0 0 0 0 0 0 0 0 0 0 0 0 0 0 0 127 0" result="hardAlpha"/>
<feOffset dy="-2"/>
<feGaussianBlur stdDeviation="2"/>
<feComposite in2="hardAlpha" operator="out"/>
<feColorMatrix type="matrix" values="0 0 0 0 0 0 0 0 0 0 0 0 0 0 0 0 0 0 0.25 0"/>
<feBlend mode="normal" in2="BackgroundImageFix" result="effect1_dropShadow_6_126"/>
<feBlend mode="normal" in="SourceGraphic" in2="effect1_dropShadow_6_126" result="shape"/>
</filter>
</defs>
</svg>
